<svg width="95" height="194" viewBox="0 0 95 194" fill="none" xmlns="http://www.w3.org/2000/svg">
<g clip-path="url(#clip0)">
<path d="M36.135 54.6177V55.5777H28.71V45.0777H35.91V46.0377H29.82V49.7727H35.25V50.7177H29.82V54.6177H36.135ZM48.3592 47.6277C49.3492 47.6277 50.1242 47.9127 50.6842 48.4827C51.2542 49.0527 51.5392 49.8927 51.5392 51.0027V55.5777H50.4742V51.1077C50.4742 50.2877 50.2742 49.6627 49.8742 49.2327C49.4842 48.8027 48.9292 48.5877 48.2092 48.5877C47.3892 48.5877 46.7442 48.8427 46.2742 49.3527C45.8042 49.8527 45.5692 50.5477 45.5692 51.4377V55.5777H44.5042V51.1077C44.5042 50.2877 44.3042 49.6627 43.9042 49.2327C43.5142 48.8027 42.9542 48.5877 42.2242 48.5877C41.4142 48.5877 40.7692 48.8427 40.2892 49.3527C39.8192 49.8527 39.5842 50.5477 39.5842 51.4377V55.5777H38.5192V47.6877H39.5392V49.1277C39.8192 48.6477 40.2092 48.2777 40.7092 48.0177C41.2092 47.7577 41.7842 47.6277 42.4342 47.6277C43.0942 47.6277 43.6642 47.7677 44.1442 48.0477C44.6342 48.3277 44.9992 48.7427 45.2392 49.2927C45.5292 48.7727 45.9442 48.3677 46.4842 48.0777C47.0342 47.7777 47.6592 47.6277 48.3592 47.6277ZM57.1874 47.6277C58.2174 47.6277 59.0074 47.8877 59.5574 48.4077C60.1074 48.9177 60.3824 49.6777 60.3824 50.6877V55.5777H59.3624V54.3477C59.1224 54.7577 58.7674 55.0777 58.2974 55.3077C57.8374 55.5377 57.2874 55.6527 56.6474 55.6527C55.7674 55.6527 55.0674 55.4427 54.5474 55.0227C54.0274 54.6027 53.7674 54.0477 53.7674 53.3577C53.7674 52.6877 54.0074 52.1477 54.4874 51.7377C54.9774 51.3277 55.7524 51.1227 56.8124 51.1227H59.3174V50.6427C59.3174 49.9627 59.1274 49.4477 58.7474 49.0977C58.3674 48.7377 57.8124 48.5577 57.0824 48.5577C56.5824 48.5577 56.1024 48.6427 55.6424 48.8127C55.1824 48.9727 54.7874 49.1977 54.4574 49.4877L53.9774 48.6927C54.3774 48.3527 54.8574 48.0927 55.4174 47.9127C55.9774 47.7227 56.5674 47.6277 57.1874 47.6277ZM56.8124 54.8127C57.4124 54.8127 57.9274 54.6777 58.3574 54.4077C58.7874 54.1277 59.1074 53.7277 59.3174 53.2077V51.9177H56.8424C55.4924 51.9177 54.8174 52.3877 54.8174 53.3277C54.8174 53.7877 54.9924 54.1527 55.3424 54.4227C55.6924 54.6827 56.1824 54.8127 56.8124 54.8127ZM63.275 47.6877H64.34V55.5777H63.275V47.6877ZM63.815 45.9627C63.595 45.9627 63.41 45.8877 63.26 45.7377C63.11 45.5877 63.035 45.4077 63.035 45.1977C63.035 44.9977 63.11 44.8227 63.26 44.6727C63.41 44.5227 63.595 44.4477 63.815 44.4477C64.035 44.4477 64.22 44.5227 64.37 44.6727C64.52 44.8127 64.595 44.9827 64.595 45.1827C64.595 45.4027 64.52 45.5877 64.37 45.7377C64.22 45.8877 64.035 45.9627 63.815 45.9627ZM67.3034 44.4477H68.3684V55.5777H67.3034V44.4477ZM33.27 96.6677C32.23 96.6677 31.29 96.4377 30.45 95.9777C29.62 95.5177 28.965 94.8827 28.485 94.0727C28.015 93.2527 27.78 92.3377 27.78 91.3277C27.78 90.3177 28.015 89.4077 28.485 88.5977C28.965 87.7777 29.625 87.1377 30.465 86.6777C31.305 86.2177 32.245 85.9877 33.285 85.9877C34.065 85.9877 34.785 86.1177 35.445 86.3777C36.105 86.6377 36.665 87.0177 37.125 87.5177L36.42 88.2227C35.6 87.3927 34.565 86.9777 33.315 86.9777C32.485 86.9777 31.73 87.1677 31.05 87.5477C30.37 87.9277 29.835 88.4477 29.445 89.1077C29.065 89.7677 28.875 90.5077 28.875 91.3277C28.875 92.1477 29.065 92.8877 29.445 93.5477C29.835 94.2077 30.37 94.7277 31.05 95.1077C31.73 95.4877 32.485 95.6777 33.315 95.6777C34.575 95.6777 35.61 95.2577 36.42 94.4177L37.125 95.1227C36.665 95.6227 36.1 96.0077 35.43 96.2777C34.77 96.5377 34.05 96.6677 33.27 96.6677ZM43.2863 88.6277C44.2763 88.6277 45.0613 88.9177 45.6413 89.4977C46.2313 90.0677 46.5263 90.9027 46.5263 92.0027V96.5777H45.4613V92.1077C45.4613 91.2877 45.2563 90.6627 44.8463 90.2327C44.4363 89.8027 43.8513 89.5877 43.0913 89.5877C42.2413 89.5877 41.5663 89.8427 41.0663 90.3527C40.5763 90.8527 40.3313 91.5477 40.3313 92.4377V96.5777H39.2663V85.4477H40.3313V90.0677C40.6213 89.6077 41.0213 89.2527 41.5312 89.0027C42.0413 88.7527 42.6263 88.6277 43.2863 88.6277ZM52.1776 88.6277C53.2076 88.6277 53.9976 88.8877 54.5476 89.4077C55.0976 89.9177 55.3726 90.6777 55.3726 91.6877V96.5777H54.3526V95.3477C54.1126 95.7577 53.7576 96.0777 53.2876 96.3077C52.8276 96.5377 52.2776 96.6527 51.6376 96.6527C50.7576 96.6527 50.0576 96.4427 49.5376 96.0227C49.0176 95.6027 48.7576 95.0477 48.7576 94.3577C48.7576 93.6877 48.9976 93.1477 49.4776 92.7377C49.9676 92.3277 50.7426 92.1227 51.8026 92.1227H54.3076V91.6427C54.3076 90.9627 54.1176 90.4477 53.7376 90.0977C53.3576 89.7377 52.8026 89.5577 52.0726 89.5577C51.5726 89.5577 51.0926 89.6427 50.6326 89.8127C50.1726 89.9727 49.7776 90.1977 49.4476 90.4877L48.9676 89.6927C49.3676 89.3527 49.8476 89.0927 50.4076 88.9127C50.9676 88.7227 51.5576 88.6277 52.1776 88.6277ZM51.8026 95.8127C52.4026 95.8127 52.9176 95.6777 53.3476 95.4077C53.7776 95.1277 54.0976 94.7277 54.3076 94.2077V92.9177H51.8326C50.4826 92.9177 49.8076 93.3877 49.8076 94.3277C49.8076 94.7877 49.9826 95.1527 50.3326 95.4227C50.6826 95.6827 51.1726 95.8127 51.8026 95.8127ZM62.4203 96.0977C62.2203 96.2777 61.9703 96.4177 61.6703 96.5177C61.3803 96.6077 61.0753 96.6527 60.7553 96.6527C60.0153 96.6527 59.4453 96.4527 59.0453 96.0527C58.6453 95.6527 58.4453 95.0877 58.4453 94.3577V89.5877H57.0353V88.6877H58.4453V86.9627H59.5103V88.6877H61.9103V89.5877H59.5103V94.2977C59.5103 94.7677 59.6253 95.1277 59.8553 95.3777C60.0953 95.6177 60.4353 95.7377 60.8753 95.7377C61.0953 95.7377 61.3053 95.7027 61.5053 95.6327C61.7153 95.5627 61.8953 95.4627 62.0453 95.3327L62.4203 96.0977ZM30.75 128.038H27.06V127.078H35.55V128.038H31.86V137.578H30.75V128.038ZM39.503 137.653C38.743 137.653 38.058 137.483 37.448 137.143C36.838 136.793 36.358 136.313 36.008 135.703C35.658 135.093 35.483 134.403 35.483 133.633C35.483 132.863 35.658 132.173 36.008 131.563C36.358 130.953 36.838 130.478 37.448 130.138C38.058 129.798 38.743 129.628 39.503 129.628C40.263 129.628 40.948 129.798 41.558 130.138C42.168 130.478 42.643 130.953 42.983 131.563C43.333 132.173 43.508 132.863 43.508 133.633C43.508 134.403 43.333 135.093 42.983 135.703C42.643 136.313 42.168 136.793 41.558 137.143C40.948 137.483 40.263 137.653 39.503 137.653ZM39.503 136.708C40.063 136.708 40.563 136.583 41.003 136.333C41.453 136.073 41.803 135.708 42.053 135.238C42.303 134.768 42.428 134.233 42.428 133.633C42.428 133.033 42.303 132.498 42.053 132.028C41.803 131.558 41.453 131.198 41.003 130.948C40.563 130.688 40.063 130.558 39.503 130.558C38.943 130.558 38.438 130.688 37.988 130.948C37.548 131.198 37.198 131.558 36.938 132.028C36.688 132.498 36.563 133.033 36.563 133.633C36.563 134.233 36.688 134.768 36.938 135.238C37.198 135.708 37.548 136.073 37.988 136.333C38.438 136.583 38.943 136.708 39.503 136.708ZM52.8823 126.448V137.578H51.8623V136.018C51.5423 136.548 51.1173 136.953 50.5873 137.233C50.0673 137.513 49.4773 137.653 48.8173 137.653C48.0773 137.653 47.4073 137.483 46.8073 137.143C46.2073 136.803 45.7373 136.328 45.3973 135.718C45.0573 135.108 44.8873 134.413 44.8873 133.633C44.8873 132.853 45.0573 132.158 45.3973 131.548C45.7373 130.938 46.2073 130.468 46.8073 130.138C47.4073 129.798 48.0773 129.628 48.8173 129.628C49.4573 129.628 50.0323 129.763 50.5423 130.033C51.0623 130.293 51.4873 130.678 51.8173 131.188V126.448H52.8823ZM48.9073 136.708C49.4573 136.708 49.9523 136.583 50.3923 136.333C50.8423 136.073 51.1923 135.708 51.4423 135.238C51.7023 134.768 51.8323 134.233 51.8323 133.633C51.8323 133.033 51.7023 132.498 51.4423 132.028C51.1923 131.558 50.8423 131.198 50.3923 130.948C49.9523 130.688 49.4573 130.558 48.9073 130.558C48.3473 130.558 47.8423 130.688 47.3923 130.948C46.9523 131.198 46.6023 131.558 46.3423 132.028C46.0923 132.498 45.9673 133.033 45.9673 133.633C45.9673 134.233 46.0923 134.768 46.3423 135.238C46.6023 135.708 46.9523 136.073 47.3923 136.333C47.8423 136.583 48.3473 136.708 48.9073 136.708ZM59.0733 137.653C58.3133 137.653 57.6283 137.483 57.0183 137.143C56.4083 136.793 55.9283 136.313 55.5783 135.703C55.2283 135.093 55.0533 134.403 55.0533 133.633C55.0533 132.863 55.2283 132.173 55.5783 131.563C55.9283 130.953 56.4083 130.478 57.0183 130.138C57.6283 129.798 58.3133 129.628 59.0733 129.628C59.8333 129.628 60.5183 129.798 61.1283 130.138C61.7383 130.478 62.2133 130.953 62.5533 131.563C62.9033 132.173 63.0783 132.863 63.0783 133.633C63.0783 134.403 62.9033 135.093 62.5533 135.703C62.2133 136.313 61.7383 136.793 61.1283 137.143C60.5183 137.483 59.8333 137.653 59.0733 137.653ZM59.0733 136.708C59.6333 136.708 60.1333 136.583 60.5733 136.333C61.0233 136.073 61.3733 135.708 61.6233 135.238C61.8733 134.768 61.9983 134.233 61.9983 133.633C61.9983 133.033 61.8733 132.498 61.6233 132.028C61.3733 131.558 61.0233 131.198 60.5733 130.948C60.1333 130.688 59.6333 130.558 59.0733 130.558C58.5133 130.558 58.0083 130.688 57.5583 130.948C57.1183 131.198 56.7683 131.558 56.5083 132.028C56.2583 132.498 56.1333 133.033 56.1333 133.633C56.1333 134.233 56.2583 134.768 56.5083 135.238C56.7683 135.708 57.1183 136.073 57.5583 136.333C58.0083 136.583 58.5133 136.708 59.0733 136.708ZM33.27 178.668C32.23 178.668 31.29 178.438 30.45 177.978C29.62 177.518 28.965 176.883 28.485 176.073C28.015 175.253 27.78 174.338 27.78 173.328C27.78 172.318 28.015 171.408 28.485 170.598C28.965 169.778 29.625 169.138 30.465 168.678C31.305 168.218 32.245 167.988 33.285 167.988C34.065 167.988 34.785 168.118 35.445 168.378C36.105 168.638 36.665 169.018 37.125 169.518L36.42 170.223C35.6 169.393 34.565 168.978 33.315 168.978C32.485 168.978 31.73 169.168 31.05 169.548C30.37 169.928 29.835 170.448 29.445 171.108C29.065 171.768 28.875 172.508 28.875 173.328C28.875 174.148 29.065 174.888 29.445 175.548C29.835 176.208 30.37 176.728 31.05 177.108C31.73 177.488 32.485 177.678 33.315 177.678C34.575 177.678 35.61 177.258 36.42 176.418L37.125 177.123C36.665 177.623 36.1 178.008 35.43 178.278C34.77 178.538 34.05 178.668 33.27 178.668ZM41.9091 170.628C42.9391 170.628 43.7291 170.888 44.2791 171.408C44.8291 171.918 45.1041 172.678 45.1041 173.688V178.578H44.0841V177.348C43.8441 177.758 43.4891 178.078 43.0191 178.308C42.5591 178.538 42.0091 178.653 41.3691 178.653C40.4891 178.653 39.7891 178.443 39.2691 178.023C38.7491 177.603 38.4891 177.048 38.4891 176.358C38.4891 175.688 38.7291 175.148 39.2091 174.738C39.6991 174.328 40.4741 174.123 41.5341 174.123H44.0391V173.643C44.0391 172.963 43.8491 172.448 43.4691 172.098C43.0891 171.738 42.5341 171.558 41.8041 171.558C41.3041 171.558 40.8241 171.643 40.3641 171.813C39.9041 171.973 39.5091 172.198 39.1791 172.488L38.6991 171.693C39.0991 171.353 39.5791 171.093 40.1391 170.913C40.6991 170.723 41.2891 170.628 41.9091 170.628ZM41.5341 177.813C42.1341 177.813 42.6491 177.678 43.0791 177.408C43.5091 177.128 43.8291 176.728 44.0391 176.208V174.918H41.5641C40.2141 174.918 39.5391 175.388 39.5391 176.328C39.5391 176.788 39.7141 177.153 40.0641 177.423C40.4141 177.683 40.9041 177.813 41.5341 177.813ZM47.9967 167.448H49.0617V178.578H47.9967V167.448ZM58.895 174.963H52.295C52.355 175.783 52.67 176.448 53.24 176.958C53.81 177.458 54.53 177.708 55.4 177.708C55.89 177.708 56.34 177.623 56.75 177.453C57.16 177.273 57.515 177.013 57.815 176.673L58.415 177.363C58.065 177.783 57.625 178.103 57.095 178.323C56.575 178.543 56 178.653 55.37 178.653C54.56 178.653 53.84 178.483 53.21 178.143C52.59 177.793 52.105 177.313 51.755 176.703C51.405 176.093 51.23 175.403 51.23 174.633C51.23 173.863 51.395 173.173 51.725 172.563C52.065 171.953 52.525 171.478 53.105 171.138C53.695 170.798 54.355 170.628 55.085 170.628C55.815 170.628 56.47 170.798 57.05 171.138C57.63 171.478 58.085 171.953 58.415 172.563C58.745 173.163 58.91 173.853 58.91 174.633L58.895 174.963ZM55.085 171.543C54.325 171.543 53.685 171.788 53.165 172.278C52.655 172.758 52.365 173.388 52.295 174.168H57.89C57.82 173.388 57.525 172.758 57.005 172.278C56.495 171.788 55.855 171.543 55.085 171.543ZM65.0978 170.628C66.0878 170.628 66.8728 170.918 67.4528 171.498C68.0428 172.068 68.3378 172.903 68.3378 174.003V178.578H67.2728V174.108C67.2728 173.288 67.0678 172.663 66.6578 172.233C66.2478 171.803 65.6628 171.588 64.9028 171.588C64.0528 171.588 63.3778 171.843 62.8778 172.353C62.3878 172.853 62.1428 173.548 62.1428 174.438V178.578H61.0778V170.688H62.0978V172.143C62.3878 171.663 62.7878 171.293 63.2978 171.033C63.8178 170.763 64.4178 170.628 65.0978 170.628ZM78.4584 167.448V178.578H77.4384V177.018C77.1184 177.548 76.6934 177.953 76.1634 178.233C75.6434 178.513 75.0534 178.653 74.3934 178.653C73.6534 178.653 72.9834 178.483 72.3834 178.143C71.7834 177.803 71.3134 177.328 70.9734 176.718C70.6334 176.108 70.4634 175.413 70.4634 174.633C70.4634 173.853 70.6334 173.158 70.9734 172.548C71.3134 171.938 71.7834 171.468 72.3834 171.138C72.9834 170.798 73.6534 170.628 74.3934 170.628C75.0334 170.628 75.6084 170.763 76.1184 171.033C76.6384 171.293 77.0634 171.678 77.3934 172.188V167.448H78.4584ZM74.4834 177.708C75.0334 177.708 75.5284 177.583 75.9684 177.333C76.4184 177.073 76.7684 176.708 77.0184 176.238C77.2784 175.768 77.4084 175.233 77.4084 174.633C77.4084 174.033 77.2784 173.498 77.0184 173.028C76.7684 172.558 76.4184 172.198 75.9684 171.948C75.5284 171.688 75.0334 171.558 74.4834 171.558C73.9234 171.558 73.4184 171.688 72.9684 171.948C72.5284 172.198 72.1784 172.558 71.9184 173.028C71.6684 173.498 71.5434 174.033 71.5434 174.633C71.5434 175.233 71.6684 175.768 71.9184 176.238C72.1784 176.708 72.5284 177.073 72.9684 177.333C73.4184 177.583 73.9234 177.708 74.4834 177.708ZM84.1845 170.628C85.2145 170.628 86.0045 170.888 86.5545 171.408C87.1045 171.918 87.3795 172.678 87.3795 173.688V178.578H86.3595V177.348C86.1195 177.758 85.7645 178.078 85.2945 178.308C84.8345 178.538 84.2845 178.653 83.6445 178.653C82.7645 178.653 82.0645 178.443 81.5445 178.023C81.0245 177.603 80.7645 177.048 80.7645 176.358C80.7645 175.688 81.0045 175.148 81.4845 174.738C81.9745 174.328 82.7495 174.123 83.8095 174.123H86.3145V173.643C86.3145 172.963 86.1245 172.448 85.7445 172.098C85.3645 171.738 84.8095 171.558 84.0795 171.558C83.5795 171.558 83.0995 171.643 82.6395 171.813C82.1795 171.973 81.7845 172.198 81.4545 172.488L80.9745 171.693C81.3745 171.353 81.8545 171.093 82.4145 170.913C82.9745 170.723 83.5645 170.628 84.1845 170.628ZM83.8095 177.813C84.4095 177.813 84.9245 177.678 85.3545 177.408C85.7845 177.128 86.1045 176.728 86.3145 176.208V174.918H83.8395C82.4895 174.918 81.8145 175.388 81.8145 176.328C81.8145 176.788 81.9895 177.153 82.3395 177.423C82.6895 177.683 83.1795 177.813 83.8095 177.813ZM91.2921 172.233C91.5421 171.703 91.9121 171.303 92.4021 171.033C92.9021 170.763 93.5171 170.628 94.2471 170.628V171.663L93.9921 171.648C93.1621 171.648 92.5121 171.903 92.0421 172.413C91.5721 172.923 91.3371 173.638 91.3371 174.558V178.578H90.2721V170.688H91.2921V172.233Z" fill="white"/>
<path d="M7.742 20.4753H2.282L1.106 23.0933H0.028L4.508 13.2933H5.53L10.01 23.0933H8.918L7.742 20.4753ZM7.364 19.6353L5.012 14.3713L2.66 19.6353H7.364ZM15.2992 13.2933C16.5498 13.2933 17.5298 13.5919 18.2392 14.1893C18.9485 14.7866 19.3032 15.6079 19.3032 16.6533C19.3032 17.6986 18.9485 18.5199 18.2392 19.1173C17.5298 19.7053 16.5498 19.9993 15.2992 19.9993H12.6672V23.0933H11.6312V13.2933H15.2992ZM15.2712 19.0893C16.2418 19.0893 16.9838 18.8793 17.4972 18.4593C18.0105 18.0299 18.2672 17.4279 18.2672 16.6533C18.2672 15.8599 18.0105 15.2533 17.4972 14.8333C16.9838 14.4039 16.2418 14.1893 15.2712 14.1893H12.6672V19.0893H15.2712ZM25.2113 13.2933C26.4619 13.2933 27.4419 13.5919 28.1513 14.1893C28.8606 14.7866 29.2153 15.6079 29.2153 16.6533C29.2153 17.6986 28.8606 18.5199 28.1513 19.1173C27.4419 19.7053 26.4619 19.9993 25.2113 19.9993H22.5793V23.0933H21.5433V13.2933H25.2113ZM25.1833 19.0893C26.1539 19.0893 26.8959 18.8793 27.4093 18.4593C27.9226 18.0299 28.1793 17.4279 28.1793 16.6533C28.1793 15.8599 27.9226 15.2533 27.4093 14.8333C26.8959 14.4039 26.1539 14.1893 25.1833 14.1893H22.5793V19.0893H25.1833ZM4.298 59.1773C3.57 59.1773 2.87 59.0606 2.198 58.8273C1.53533 58.5939 1.022 58.2859 0.658 57.9033L1.064 57.1053C1.41867 57.4599 1.89 57.7493 2.478 57.9733C3.066 58.1879 3.67267 58.2953 4.298 58.2953C5.17533 58.2953 5.83333 58.1366 6.272 57.8193C6.71067 57.4926 6.93 57.0726 6.93 56.5593C6.93 56.1673 6.80867 55.8546 6.566 55.6213C6.33267 55.3879 6.04333 55.2106 5.698 55.0893C5.35267 54.9586 4.872 54.8186 4.256 54.6693C3.51867 54.4826 2.93067 54.3053 2.492 54.1373C2.05333 53.9599 1.67533 53.6939 1.358 53.3393C1.05 52.9846 0.896 52.5039 0.896 51.8973C0.896 51.4026 1.02667 50.9546 1.288 50.5533C1.54933 50.1426 1.95067 49.8159 2.492 49.5733C3.03333 49.3306 3.70533 49.2093 4.508 49.2093C5.068 49.2093 5.614 49.2886 6.146 49.4473C6.68733 49.5966 7.154 49.8066 7.546 50.0773L7.196 50.9033C6.78533 50.6326 6.34667 50.4319 5.88 50.3013C5.41333 50.1613 4.956 50.0913 4.508 50.0913C3.64933 50.0913 3.00067 50.2593 2.562 50.5953C2.13267 50.9219 1.918 51.3466 1.918 51.8693C1.918 52.2613 2.03467 52.5786 2.268 52.8213C2.51067 53.0546 2.80933 53.2366 3.164 53.3673C3.528 53.4886 4.01333 53.6239 4.62 53.7733C5.33867 53.9506 5.91733 54.1279 6.356 54.3053C6.804 54.4733 7.182 54.7346 7.49 55.0893C7.798 55.4346 7.952 55.9059 7.952 56.5033C7.952 56.9979 7.81667 57.4506 7.546 57.8613C7.28467 58.2626 6.87867 58.5846 6.328 58.8273C5.77733 59.0606 5.10067 59.1773 4.298 59.1773Z" fill="#999999"/>
<path fill-rule="evenodd" clip-rule="evenodd" d="M1.6 44.228H14.4C15.28 44.228 16 44.9517 16 45.8363V55.486C16 56.3706 15.28 57.0943 14.4 57.0943H1.6C0.72 57.0943 0 56.3706 0 55.486V45.8363C0 44.9517 0.72 44.228 1.6 44.228Z" stroke="white" stroke-width="2" stroke-linecap="round" stroke-linejoin="round"/>
<path d="M16 45.8362L8 50.3037L0 45.8362" stroke="white" stroke-width="2" stroke-linecap="round" stroke-linejoin="round"/>
<path fill-rule="evenodd" clip-rule="evenodd" d="M17 93.1468C17 94.1337 16.2041 94.9338 15.2222 94.9338H4.55556L1 98.5078V84.2119C1 83.2249 1.79594 82.4249 2.77778 82.4249H15.2222C16.2041 82.4249 17 83.2249 17 84.2119V93.1468Z" stroke="white" stroke-width="2" stroke-linecap="round" stroke-linejoin="round"/>
<path d="M6.05261 130.409L8.57893 132.949L17 124.484" stroke="white" stroke-width="2" stroke-linecap="round" stroke-linejoin="round"/>
<path d="M16.1579 131.256V137.181C16.1579 138.116 15.4038 138.874 14.4737 138.874H2.68421C1.75405 138.874 1 138.116 1 137.181V125.33C1 124.395 1.75405 123.637 2.68421 123.637H11.9474" stroke="white" stroke-width="2" stroke-linecap="round" stroke-linejoin="round"/>
<rect x="1" y="165.855" width="16" height="16.0829" rx="2" stroke="white" stroke-width="2" stroke-linecap="round" stroke-linejoin="round"/>
<path d="M12.5 163.845V167.865" stroke="white" stroke-width="2" stroke-linecap="round" stroke-linejoin="round"/>
<path d="M5.5 163.845V167.865" stroke="white" stroke-width="2" stroke-linecap="round" stroke-linejoin="round"/>
<path d="M1 171.383H17" stroke="white" stroke-width="2" stroke-linecap="round" stroke-linejoin="round"/>
</g>
<defs>
<clipPath id="clip0">
<rect width="95" height="194" fill="white"/>
</clipPath>
</defs>
</svg>
