<svg width="112" height="355" viewBox="0 0 112 355" fill="none" xmlns="http://www.w3.org/2000/svg">
<path d="M8.295 8.73269H2.445L1.185 11.5377H0.03L4.83 1.03769H5.925L10.725 11.5377H9.555L8.295 8.73269ZM7.89 7.83269L5.37 2.19269L2.85 7.83269H7.89ZM19.2005 3.64769V11.5377H18.1805V10.0977C17.9005 10.5777 17.5155 10.9527 17.0255 11.2227C16.5355 11.4827 15.9755 11.6127 15.3455 11.6127C14.3155 11.6127 13.5005 11.3277 12.9005 10.7577C12.3105 10.1777 12.0155 9.33269 12.0155 8.22269V3.64769H13.0805V8.11769C13.0805 8.94769 13.2855 9.57769 13.6955 10.0077C14.1055 10.4377 14.6905 10.6527 15.4505 10.6527C16.2805 10.6527 16.9355 10.4027 17.4155 9.90269C17.8955 9.39269 18.1355 8.68769 18.1355 7.78769V3.64769H19.2005ZM26.3382 11.0577C26.1382 11.2377 25.8882 11.3777 25.5882 11.4777C25.2982 11.5677 24.9932 11.6127 24.6732 11.6127C23.9332 11.6127 23.3632 11.4127 22.9632 11.0127C22.5632 10.6127 22.3632 10.0477 22.3632 9.31769V4.54769H20.9532V3.64769H22.3632V1.92269H23.4282V3.64769H25.8282V4.54769H23.4282V9.25769C23.4282 9.72769 23.5432 10.0877 23.7732 10.3377C24.0132 10.5777 24.3532 10.6977 24.7932 10.6977C25.0132 10.6977 25.2232 10.6627 25.4232 10.5927C25.6332 10.5227 25.8132 10.4227 25.9632 10.2927L26.3382 11.0577ZM32.297 3.58769C33.287 3.58769 34.072 3.87769 34.652 4.45769C35.242 5.02769 35.537 5.86269 35.537 6.96269V11.5377H34.472V7.06769C34.472 6.24769 34.267 5.62269 33.857 5.19269C33.447 4.76269 32.862 4.54769 32.102 4.54769C31.252 4.54769 30.577 4.80269 30.077 5.31269C29.587 5.81269 29.342 6.50769 29.342 7.39769V11.5377H28.277V0.407689H29.342V5.02769C29.632 4.56769 30.032 4.21269 30.542 3.96269C31.052 3.71269 31.637 3.58769 32.297 3.58769ZM45.3277 7.92269H38.7277C38.7877 8.74269 39.1027 9.40769 39.6727 9.91769C40.2427 10.4177 40.9627 10.6677 41.8327 10.6677C42.3227 10.6677 42.7727 10.5827 43.1827 10.4127C43.5927 10.2327 43.9477 9.97269 44.2477 9.63269L44.8477 10.3227C44.4977 10.7427 44.0577 11.0627 43.5277 11.2827C43.0077 11.5027 42.4327 11.6127 41.8027 11.6127C40.9927 11.6127 40.2727 11.4427 39.6427 11.1027C39.0227 10.7527 38.5377 10.2727 38.1877 9.66269C37.8377 9.05269 37.6627 8.36269 37.6627 7.59269C37.6627 6.82269 37.8277 6.13269 38.1577 5.52269C38.4977 4.91269 38.9577 4.43769 39.5377 4.09769C40.1277 3.75769 40.7877 3.58769 41.5177 3.58769C42.2477 3.58769 42.9027 3.75769 43.4827 4.09769C44.0627 4.43769 44.5177 4.91269 44.8477 5.52269C45.1777 6.12269 45.3427 6.81269 45.3427 7.59269L45.3277 7.92269ZM41.5177 4.50269C40.7577 4.50269 40.1177 4.74769 39.5977 5.23769C39.0877 5.71769 38.7977 6.34769 38.7277 7.12769H44.3227C44.2527 6.34769 43.9577 5.71769 43.4377 5.23769C42.9277 4.74769 42.2877 4.50269 41.5177 4.50269ZM51.5304 3.58769C52.5204 3.58769 53.3054 3.87769 53.8854 4.45769C54.4754 5.02769 54.7704 5.86269 54.7704 6.96269V11.5377H53.7054V7.06769C53.7054 6.24769 53.5004 5.62269 53.0904 5.19269C52.6804 4.76269 52.0954 4.54769 51.3354 4.54769C50.4854 4.54769 49.8104 4.80269 49.3104 5.31269C48.8204 5.81269 48.5754 6.50769 48.5754 7.39769V11.5377H47.5104V3.64769H48.5304V5.10269C48.8204 4.62269 49.2204 4.25269 49.7304 3.99269C50.2504 3.72269 50.8504 3.58769 51.5304 3.58769ZM61.8168 11.0577C61.6168 11.2377 61.3668 11.3777 61.0668 11.4777C60.7768 11.5677 60.4718 11.6127 60.1518 11.6127C59.4118 11.6127 58.8418 11.4127 58.4418 11.0127C58.0418 10.6127 57.8418 10.0477 57.8418 9.31769V4.54769H56.4318V3.64769H57.8418V1.92269H58.9068V3.64769H61.3068V4.54769H58.9068V9.25769C58.9068 9.72769 59.0218 10.0877 59.2518 10.3377C59.4918 10.5777 59.8318 10.6977 60.2718 10.6977C60.4918 10.6977 60.7018 10.6627 60.9018 10.5927C61.1118 10.5227 61.2918 10.4227 61.4418 10.2927L61.8168 11.0577ZM63.7555 3.64769H64.8205V11.5377H63.7555V3.64769ZM64.2955 1.92269C64.0755 1.92269 63.8905 1.84769 63.7405 1.69769C63.5905 1.54769 63.5155 1.36769 63.5155 1.15769C63.5155 0.957689 63.5905 0.782689 63.7405 0.632688C63.8905 0.482688 64.0755 0.407689 64.2955 0.407689C64.5155 0.407689 64.7005 0.482688 64.8505 0.632688C65.0005 0.772688 65.0755 0.942689 65.0755 1.14269C65.0755 1.36269 65.0005 1.54769 64.8505 1.69769C64.7005 1.84769 64.5155 1.92269 64.2955 1.92269ZM71.0538 11.6127C70.2738 11.6127 69.5738 11.4427 68.9538 11.1027C68.3438 10.7627 67.8638 10.2877 67.5138 9.67769C67.1638 9.05769 66.9888 8.36269 66.9888 7.59269C66.9888 6.82269 67.1638 6.13269 67.5138 5.52269C67.8638 4.91269 68.3438 4.43769 68.9538 4.09769C69.5738 3.75769 70.2738 3.58769 71.0538 3.58769C71.7338 3.58769 72.3388 3.72269 72.8688 3.99269C73.4088 4.25269 73.8338 4.63769 74.1438 5.14769L73.3488 5.68769C73.0888 5.29769 72.7588 5.00769 72.3588 4.81769C71.9588 4.61769 71.5238 4.51769 71.0538 4.51769C70.4838 4.51769 69.9688 4.64769 69.5088 4.90769C69.0588 5.15769 68.7038 5.51769 68.4438 5.98769C68.1938 6.45769 68.0688 6.99269 68.0688 7.59269C68.0688 8.20269 68.1938 8.74269 68.4438 9.21269C68.7038 9.67269 69.0588 10.0327 69.5088 10.2927C69.9688 10.5427 70.4838 10.6677 71.0538 10.6677C71.5238 10.6677 71.9588 10.5727 72.3588 10.3827C72.7588 10.1927 73.0888 9.90269 73.3488 9.51269L74.1438 10.0527C73.8338 10.5627 73.4088 10.9527 72.8688 11.2227C72.3288 11.4827 71.7238 11.6127 71.0538 11.6127ZM78.996 3.58769C80.026 3.58769 80.816 3.84769 81.366 4.36769C81.916 4.87769 82.191 5.63769 82.191 6.64769V11.5377H81.171V10.3077C80.931 10.7177 80.576 11.0377 80.106 11.2677C79.646 11.4977 79.096 11.6127 78.456 11.6127C77.576 11.6127 76.876 11.4027 76.356 10.9827C75.836 10.5627 75.576 10.0077 75.576 9.31769C75.576 8.64769 75.816 8.10769 76.296 7.69769C76.786 7.28769 77.561 7.08269 78.621 7.08269H81.126V6.60269C81.126 5.92269 80.936 5.40769 80.556 5.05769C80.176 4.69769 79.621 4.51769 78.891 4.51769C78.391 4.51769 77.911 4.60269 77.451 4.77269C76.991 4.93269 76.596 5.15769 76.266 5.44769L75.786 4.65269C76.186 4.31269 76.666 4.05269 77.226 3.87269C77.786 3.68269 78.376 3.58769 78.996 3.58769ZM78.621 10.7727C79.221 10.7727 79.736 10.6377 80.166 10.3677C80.596 10.0877 80.916 9.68769 81.126 9.16769V7.87769H78.651C77.301 7.87769 76.626 8.34769 76.626 9.28769C76.626 9.74769 76.801 10.1127 77.151 10.3827C77.501 10.6427 77.991 10.7727 78.621 10.7727ZM89.2386 11.0577C89.0386 11.2377 88.7886 11.3777 88.4886 11.4777C88.1986 11.5677 87.8936 11.6127 87.5736 11.6127C86.8336 11.6127 86.2636 11.4127 85.8636 11.0127C85.4636 10.6127 85.2636 10.0477 85.2636 9.31769V4.54769H83.8536V3.64769H85.2636V1.92269H86.3286V3.64769H88.7286V4.54769H86.3286V9.25769C86.3286 9.72769 86.4436 10.0877 86.6736 10.3377C86.9136 10.5777 87.2536 10.6977 87.6936 10.6977C87.9136 10.6977 88.1236 10.6627 88.3236 10.5927C88.5336 10.5227 88.7136 10.4227 88.8636 10.2927L89.2386 11.0577ZM91.1774 3.64769H92.2424V11.5377H91.1774V3.64769ZM91.7174 1.92269C91.4974 1.92269 91.3124 1.84769 91.1624 1.69769C91.0124 1.54769 90.9374 1.36769 90.9374 1.15769C90.9374 0.957689 91.0124 0.782689 91.1624 0.632688C91.3124 0.482688 91.4974 0.407689 91.7174 0.407689C91.9374 0.407689 92.1224 0.482688 92.2724 0.632688C92.4224 0.772688 92.4974 0.942689 92.4974 1.14269C92.4974 1.36269 92.4224 1.54769 92.2724 1.69769C92.1224 1.84769 91.9374 1.92269 91.7174 1.92269ZM98.4307 11.6127C97.6707 11.6127 96.9857 11.4427 96.3757 11.1027C95.7657 10.7527 95.2857 10.2727 94.9357 9.66269C94.5857 9.05269 94.4107 8.36269 94.4107 7.59269C94.4107 6.82269 94.5857 6.13269 94.9357 5.52269C95.2857 4.91269 95.7657 4.43769 96.3757 4.09769C96.9857 3.75769 97.6707 3.58769 98.4307 3.58769C99.1907 3.58769 99.8757 3.75769 100.486 4.09769C101.096 4.43769 101.571 4.91269 101.911 5.52269C102.261 6.13269 102.436 6.82269 102.436 7.59269C102.436 8.36269 102.261 9.05269 101.911 9.66269C101.571 10.2727 101.096 10.7527 100.486 11.1027C99.8757 11.4427 99.1907 11.6127 98.4307 11.6127ZM98.4307 10.6677C98.9907 10.6677 99.4907 10.5427 99.9307 10.2927C100.381 10.0327 100.731 9.66769 100.981 9.19769C101.231 8.72769 101.356 8.19269 101.356 7.59269C101.356 6.99269 101.231 6.45769 100.981 5.98769C100.731 5.51769 100.381 5.15769 99.9307 4.90769C99.4907 4.64769 98.9907 4.51769 98.4307 4.51769C97.8707 4.51769 97.3657 4.64769 96.9157 4.90769C96.4757 5.15769 96.1257 5.51769 95.8657 5.98769C95.6157 6.45769 95.4907 6.99269 95.4907 7.59269C95.4907 8.19269 95.6157 8.72769 95.8657 9.19769C96.1257 9.66769 96.4757 10.0327 96.9157 10.2927C97.3657 10.5427 97.8707 10.6677 98.4307 10.6677ZM108.63 3.58769C109.62 3.58769 110.405 3.87769 110.985 4.45769C111.575 5.02769 111.87 5.86269 111.87 6.96269V11.5377H110.805V7.06769C110.805 6.24769 110.6 5.62269 110.19 5.19269C109.78 4.76269 109.195 4.54769 108.435 4.54769C107.585 4.54769 106.91 4.80269 106.41 5.31269C105.92 5.81269 105.675 6.50769 105.675 7.39769V11.5377H104.61V3.64769H105.63V5.10269C105.92 4.62269 106.32 4.25269 106.83 3.99269C107.35 3.72269 107.95 3.58769 108.63 3.58769ZM6.27 52.6277C5.23 52.6277 4.29 52.3977 3.45 51.9377C2.62 51.4777 1.965 50.8427 1.485 50.0327C1.015 49.2127 0.78 48.2977 0.78 47.2877C0.78 46.2777 1.015 45.3677 1.485 44.5577C1.965 43.7377 2.625 43.0977 3.465 42.6377C4.305 42.1777 5.245 41.9477 6.285 41.9477C7.065 41.9477 7.785 42.0777 8.445 42.3377C9.105 42.5977 9.665 42.9777 10.125 43.4777L9.42 44.1827C8.6 43.3527 7.565 42.9377 6.315 42.9377C5.485 42.9377 4.73 43.1277 4.05 43.5077C3.37 43.8877 2.835 44.4077 2.445 45.0677C2.065 45.7277 1.875 46.4677 1.875 47.2877C1.875 48.1077 2.065 48.8477 2.445 49.5077C2.835 50.1677 3.37 50.6877 4.05 51.0677C4.73 51.4477 5.485 51.6377 6.315 51.6377C7.575 51.6377 8.61 51.2177 9.42 50.3777L10.125 51.0827C9.665 51.5827 9.1 51.9677 8.43 52.2377C7.77 52.4977 7.05 52.6277 6.27 52.6277ZM15.1397 52.6127C14.3797 52.6127 13.6947 52.4427 13.0847 52.1027C12.4747 51.7527 11.9947 51.2727 11.6447 50.6627C11.2947 50.0527 11.1197 49.3627 11.1197 48.5927C11.1197 47.8227 11.2947 47.1327 11.6447 46.5227C11.9947 45.9127 12.4747 45.4377 13.0847 45.0977C13.6947 44.7577 14.3797 44.5877 15.1397 44.5877C15.8997 44.5877 16.5847 44.7577 17.1947 45.0977C17.8047 45.4377 18.2797 45.9127 18.6197 46.5227C18.9697 47.1327 19.1447 47.8227 19.1447 48.5927C19.1447 49.3627 18.9697 50.0527 18.6197 50.6627C18.2797 51.2727 17.8047 51.7527 17.1947 52.1027C16.5847 52.4427 15.8997 52.6127 15.1397 52.6127ZM15.1397 51.6677C15.6997 51.6677 16.1997 51.5427 16.6397 51.2927C17.0897 51.0327 17.4397 50.6677 17.6897 50.1977C17.9397 49.7277 18.0647 49.1927 18.0647 48.5927C18.0647 47.9927 17.9397 47.4577 17.6897 46.9877C17.4397 46.5177 17.0897 46.1577 16.6397 45.9077C16.1997 45.6477 15.6997 45.5177 15.1397 45.5177C14.5797 45.5177 14.0747 45.6477 13.6247 45.9077C13.1847 46.1577 12.8347 46.5177 12.5747 46.9877C12.3247 47.4577 12.1997 47.9927 12.1997 48.5927C12.1997 49.1927 12.3247 49.7277 12.5747 50.1977C12.8347 50.6677 13.1847 51.0327 13.6247 51.2927C14.0747 51.5427 14.5797 51.6677 15.1397 51.6677ZM31.159 44.5877C32.149 44.5877 32.924 44.8727 33.484 45.4427C34.054 46.0127 34.339 46.8527 34.339 47.9627V52.5377H33.274V48.0677C33.274 47.2477 33.074 46.6227 32.674 46.1927C32.284 45.7627 31.729 45.5477 31.009 45.5477C30.189 45.5477 29.544 45.8027 29.074 46.3127C28.604 46.8127 28.369 47.5077 28.369 48.3977V52.5377H27.304V48.0677C27.304 47.2477 27.104 46.6227 26.704 46.1927C26.314 45.7627 25.754 45.5477 25.024 45.5477C24.214 45.5477 23.569 45.8027 23.089 46.3127C22.619 46.8127 22.384 47.5077 22.384 48.3977V52.5377H21.319V44.6477H22.339V46.0877C22.619 45.6077 23.009 45.2377 23.509 44.9777C24.009 44.7177 24.584 44.5877 25.234 44.5877C25.894 44.5877 26.464 44.7277 26.944 45.0077C27.434 45.2877 27.799 45.7027 28.039 46.2527C28.329 45.7327 28.744 45.3277 29.284 45.0377C29.834 44.7377 30.459 44.5877 31.159 44.5877ZM37.2272 44.6477H38.2922V52.5377H37.2272V44.6477ZM37.7672 42.9227C37.5472 42.9227 37.3622 42.8477 37.2122 42.6977C37.0622 42.5477 36.9872 42.3677 36.9872 42.1577C36.9872 41.9577 37.0622 41.7827 37.2122 41.6327C37.3622 41.4827 37.5472 41.4077 37.7672 41.4077C37.9872 41.4077 38.1722 41.4827 38.3222 41.6327C38.4722 41.7727 38.5472 41.9427 38.5472 42.1427C38.5472 42.3627 38.4722 42.5477 38.3222 42.6977C38.1722 42.8477 37.9872 42.9227 37.7672 42.9227ZM45.2755 44.5877C46.2655 44.5877 47.0505 44.8777 47.6305 45.4577C48.2205 46.0277 48.5155 46.8627 48.5155 47.9627V52.5377H47.4505V48.0677C47.4505 47.2477 47.2455 46.6227 46.8355 46.1927C46.4255 45.7627 45.8405 45.5477 45.0805 45.5477C44.2305 45.5477 43.5555 45.8027 43.0555 46.3127C42.5655 46.8127 42.3205 47.5077 42.3205 48.3977V52.5377H41.2555V44.6477H42.2755V46.1027C42.5655 45.6227 42.9655 45.2527 43.4755 44.9927C43.9955 44.7227 44.5955 44.5877 45.2755 44.5877ZM58.7412 44.6477V51.5777C58.7412 52.9177 58.4112 53.9077 57.7512 54.5477C57.1012 55.1977 56.1162 55.5227 54.7962 55.5227C54.0662 55.5227 53.3712 55.4127 52.7112 55.1927C52.0612 54.9827 51.5312 54.6877 51.1212 54.3077L51.6612 53.4977C52.0412 53.8377 52.5012 54.1027 53.0412 54.2927C53.5912 54.4827 54.1662 54.5777 54.7662 54.5777C55.7662 54.5777 56.5012 54.3427 56.9712 53.8727C57.4412 53.4127 57.6762 52.6927 57.6762 51.7127V50.7077C57.3462 51.2077 56.9112 51.5877 56.3712 51.8477C55.8412 52.1077 55.2512 52.2377 54.6012 52.2377C53.8612 52.2377 53.1862 52.0777 52.5762 51.7577C51.9762 51.4277 51.5012 50.9727 51.1512 50.3927C50.8112 49.8027 50.6412 49.1377 50.6412 48.3977C50.6412 47.6577 50.8112 46.9977 51.1512 46.4177C51.5012 45.8377 51.9762 45.3877 52.5762 45.0677C53.1762 44.7477 53.8512 44.5877 54.6012 44.5877C55.2712 44.5877 55.8762 44.7227 56.4162 44.9927C56.9562 45.2627 57.3912 45.6527 57.7212 46.1627V44.6477H58.7412ZM54.7062 51.2927C55.2762 51.2927 55.7912 51.1727 56.2512 50.9327C56.7112 50.6827 57.0662 50.3377 57.3162 49.8977C57.5762 49.4577 57.7062 48.9577 57.7062 48.3977C57.7062 47.8377 57.5762 47.3427 57.3162 46.9127C57.0662 46.4727 56.7112 46.1327 56.2512 45.8927C55.8012 45.6427 55.2862 45.5177 54.7062 45.5177C54.1362 45.5177 53.6212 45.6377 53.1612 45.8777C52.7112 46.1177 52.3562 46.4577 52.0962 46.8977C51.8462 47.3377 51.7212 47.8377 51.7212 48.3977C51.7212 48.9577 51.8462 49.4577 52.0962 49.8977C52.3562 50.3377 52.7112 50.6827 53.1612 50.9327C53.6212 51.1727 54.1362 51.2927 54.7062 51.2927ZM68.7652 52.6277C67.9852 52.6277 67.2352 52.5027 66.5152 52.2527C65.8052 52.0027 65.2552 51.6727 64.8652 51.2627L65.3002 50.4077C65.6802 50.7877 66.1852 51.0977 66.8152 51.3377C67.4452 51.5677 68.0952 51.6827 68.7652 51.6827C69.7052 51.6827 70.4102 51.5127 70.8802 51.1727C71.3502 50.8227 71.5852 50.3727 71.5852 49.8227C71.5852 49.4027 71.4552 49.0677 71.1952 48.8177C70.9452 48.5677 70.6352 48.3777 70.2652 48.2477C69.8952 48.1077 69.3802 47.9577 68.7202 47.7977C67.9302 47.5977 67.3002 47.4077 66.8302 47.2277C66.3602 47.0377 65.9552 46.7527 65.6152 46.3727C65.2852 45.9927 65.1202 45.4777 65.1202 44.8277C65.1202 44.2977 65.2602 43.8177 65.5402 43.3877C65.8202 42.9477 66.2502 42.5977 66.8302 42.3377C67.4102 42.0777 68.1302 41.9477 68.9902 41.9477C69.5902 41.9477 70.1752 42.0327 70.7452 42.2027C71.3252 42.3627 71.8252 42.5877 72.2452 42.8777L71.8702 43.7627C71.4302 43.4727 70.9602 43.2577 70.4602 43.1177C69.9602 42.9677 69.4702 42.8927 68.9902 42.8927C68.0702 42.8927 67.3752 43.0727 66.9052 43.4327C66.4452 43.7827 66.2152 44.2377 66.2152 44.7977C66.2152 45.2177 66.3402 45.5577 66.5902 45.8177C66.8502 46.0677 67.1702 46.2627 67.5502 46.4027C67.9402 46.5327 68.4602 46.6777 69.1102 46.8377C69.8802 47.0277 70.5002 47.2177 70.9702 47.4077C71.4502 47.5877 71.8552 47.8677 72.1852 48.2477C72.5152 48.6177 72.6802 49.1227 72.6802 49.7627C72.6802 50.2927 72.5352 50.7777 72.2452 51.2177C71.9652 51.6477 71.5302 51.9927 70.9402 52.2527C70.3502 52.5027 69.6252 52.6277 68.7652 52.6277ZM78.0987 52.6127C77.3387 52.6127 76.6537 52.4427 76.0437 52.1027C75.4337 51.7527 74.9537 51.2727 74.6037 50.6627C74.2537 50.0527 74.0787 49.3627 74.0787 48.5927C74.0787 47.8227 74.2537 47.1327 74.6037 46.5227C74.9537 45.9127 75.4337 45.4377 76.0437 45.0977C76.6537 44.7577 77.3387 44.5877 78.0987 44.5877C78.8587 44.5877 79.5437 44.7577 80.1537 45.0977C80.7637 45.4377 81.2387 45.9127 81.5787 46.5227C81.9287 47.1327 82.1037 47.8227 82.1037 48.5927C82.1037 49.3627 81.9287 50.0527 81.5787 50.6627C81.2387 51.2727 80.7637 51.7527 80.1537 52.1027C79.5437 52.4427 78.8587 52.6127 78.0987 52.6127ZM78.0987 51.6677C78.6587 51.6677 79.1587 51.5427 79.5987 51.2927C80.0487 51.0327 80.3987 50.6677 80.6487 50.1977C80.8987 49.7277 81.0237 49.1927 81.0237 48.5927C81.0237 47.9927 80.8987 47.4577 80.6487 46.9877C80.3987 46.5177 80.0487 46.1577 79.5987 45.9077C79.1587 45.6477 78.6587 45.5177 78.0987 45.5177C77.5387 45.5177 77.0337 45.6477 76.5837 45.9077C76.1437 46.1577 75.7937 46.5177 75.5337 46.9877C75.2837 47.4577 75.1587 47.9927 75.1587 48.5927C75.1587 49.1927 75.2837 49.7277 75.5337 50.1977C75.7937 50.6677 76.1437 51.0327 76.5837 51.2927C77.0337 51.5427 77.5387 51.6677 78.0987 51.6677ZM87.503 52.6127C86.743 52.6127 86.058 52.4427 85.448 52.1027C84.838 51.7527 84.358 51.2727 84.008 50.6627C83.658 50.0527 83.483 49.3627 83.483 48.5927C83.483 47.8227 83.658 47.1327 84.008 46.5227C84.358 45.9127 84.838 45.4377 85.448 45.0977C86.058 44.7577 86.743 44.5877 87.503 44.5877C88.263 44.5877 88.948 44.7577 89.558 45.0977C90.168 45.4377 90.643 45.9127 90.983 46.5227C91.333 47.1327 91.508 47.8227 91.508 48.5927C91.508 49.3627 91.333 50.0527 90.983 50.6627C90.643 51.2727 90.168 51.7527 89.558 52.1027C88.948 52.4427 88.263 52.6127 87.503 52.6127ZM87.503 51.6677C88.063 51.6677 88.563 51.5427 89.003 51.2927C89.453 51.0327 89.803 50.6677 90.053 50.1977C90.303 49.7277 90.428 49.1927 90.428 48.5927C90.428 47.9927 90.303 47.4577 90.053 46.9877C89.803 46.5177 89.453 46.1577 89.003 45.9077C88.563 45.6477 88.063 45.5177 87.503 45.5177C86.943 45.5177 86.438 45.6477 85.988 45.9077C85.548 46.1577 85.198 46.5177 84.938 46.9877C84.688 47.4577 84.563 47.9927 84.563 48.5927C84.563 49.1927 84.688 49.7277 84.938 50.1977C85.198 50.6677 85.548 51.0327 85.988 51.2927C86.438 51.5427 86.943 51.6677 87.503 51.6677ZM97.7023 44.5877C98.6923 44.5877 99.4773 44.8777 100.057 45.4577C100.647 46.0277 100.942 46.8627 100.942 47.9627V52.5377H99.8773V48.0677C99.8773 47.2477 99.6723 46.6227 99.2623 46.1927C98.8523 45.7627 98.2673 45.5477 97.5073 45.5477C96.6573 45.5477 95.9823 45.8027 95.4823 46.3127C94.9923 46.8127 94.7473 47.5077 94.7473 48.3977V52.5377H93.6823V44.6477H94.7023V46.1027C94.9923 45.6227 95.3923 45.2527 95.9023 44.9927C96.4223 44.7227 97.0223 44.5877 97.7023 44.5877ZM9.135 92.5777V93.5377H1.71V83.0377H8.91V83.9977H2.82V87.7327H8.25V88.6777H2.82V92.5777H9.135ZM12.5392 87.1927C12.7892 86.6627 13.1592 86.2627 13.6492 85.9927C14.1492 85.7227 14.7642 85.5877 15.4942 85.5877V86.6227L15.2392 86.6077C14.4092 86.6077 13.7592 86.8627 13.2892 87.3727C12.8192 87.8827 12.5842 88.5977 12.5842 89.5177V93.5377H11.5192V85.6477H12.5392V87.1927ZM18.4425 87.1927C18.6925 86.6627 19.0625 86.2627 19.5525 85.9927C20.0525 85.7227 20.6675 85.5877 21.3975 85.5877V86.6227L21.1425 86.6077C20.3125 86.6077 19.6625 86.8627 19.1925 87.3727C18.7225 87.8827 18.4875 88.5977 18.4875 89.5177V93.5377H17.4225V85.6477H18.4425V87.1927ZM26.4776 93.6127C25.7176 93.6127 25.0326 93.4427 24.4226 93.1027C23.8126 92.7527 23.3326 92.2727 22.9826 91.6627C22.6326 91.0527 22.4576 90.3627 22.4576 89.5927C22.4576 88.8227 22.6326 88.1327 22.9826 87.5227C23.3326 86.9127 23.8126 86.4377 24.4226 86.0977C25.0326 85.7577 25.7176 85.5877 26.4776 85.5877C27.2376 85.5877 27.9226 85.7577 28.5326 86.0977C29.1426 86.4377 29.6176 86.9127 29.9576 87.5227C30.3076 88.1327 30.4826 88.8227 30.4826 89.5927C30.4826 90.3627 30.3076 91.0527 29.9576 91.6627C29.6176 92.2727 29.1426 92.7527 28.5326 93.1027C27.9226 93.4427 27.2376 93.6127 26.4776 93.6127ZM26.4776 92.6677C27.0376 92.6677 27.5376 92.5427 27.9776 92.2927C28.4276 92.0327 28.7776 91.6677 29.0276 91.1977C29.2776 90.7277 29.4026 90.1927 29.4026 89.5927C29.4026 88.9927 29.2776 88.4577 29.0276 87.9877C28.7776 87.5177 28.4276 87.1577 27.9776 86.9077C27.5376 86.6477 27.0376 86.5177 26.4776 86.5177C25.9176 86.5177 25.4126 86.6477 24.9626 86.9077C24.5226 87.1577 24.1726 87.5177 23.9126 87.9877C23.6626 88.4577 23.5376 88.9927 23.5376 89.5927C23.5376 90.1927 23.6626 90.7277 23.9126 91.1977C24.1726 91.6677 24.5226 92.0327 24.9626 92.2927C25.4126 92.5427 25.9176 92.6677 26.4776 92.6677ZM33.6769 87.1927C33.9269 86.6627 34.2969 86.2627 34.7869 85.9927C35.2869 85.7227 35.9019 85.5877 36.6319 85.5877V86.6227L36.3769 86.6077C35.5469 86.6077 34.8969 86.8627 34.4269 87.3727C33.9569 87.8827 33.7219 88.5977 33.7219 89.5177V93.5377H32.6569V85.6477H33.6769V87.1927ZM12.615 124.038V134.538H11.55V126.138L7.425 133.203H6.9L2.775 126.183V134.538H1.71V124.038H2.625L7.185 131.823L11.7 124.038H12.615ZM18.5712 126.588C19.6012 126.588 20.3912 126.848 20.9412 127.368C21.4912 127.878 21.7662 128.638 21.7662 129.648V134.538H20.7462V133.308C20.5062 133.718 20.1512 134.038 19.6812 134.268C19.2212 134.498 18.6712 134.613 18.0312 134.613C17.1512 134.613 16.4512 134.403 15.9312 133.983C15.4112 133.563 15.1512 133.008 15.1512 132.318C15.1512 131.648 15.3912 131.108 15.8712 130.698C16.3612 130.288 17.1362 130.083 18.1962 130.083H20.7012V129.603C20.7012 128.923 20.5112 128.408 20.1312 128.058C19.7512 127.698 19.1962 127.518 18.4662 127.518C17.9662 127.518 17.4862 127.603 17.0262 127.773C16.5662 127.933 16.1712 128.158 15.8412 128.448L15.3612 127.653C15.7612 127.313 16.2412 127.053 16.8012 126.873C17.3612 126.683 17.9512 126.588 18.5712 126.588ZM18.1962 133.773C18.7962 133.773 19.3112 133.638 19.7412 133.368C20.1712 133.088 20.4912 132.688 20.7012 132.168V130.878H18.2262C16.8762 130.878 16.2012 131.348 16.2012 132.288C16.2012 132.748 16.3762 133.113 16.7262 133.383C17.0762 133.643 17.5662 133.773 18.1962 133.773ZM24.6588 126.648H25.7238V134.538H24.6588V126.648ZM25.1988 124.923C24.9788 124.923 24.7938 124.848 24.6438 124.698C24.4938 124.548 24.4188 124.368 24.4188 124.158C24.4188 123.958 24.4938 123.783 24.6438 123.633C24.7938 123.483 24.9788 123.408 25.1988 123.408C25.4188 123.408 25.6038 123.483 25.7538 123.633C25.9038 123.773 25.9788 123.943 25.9788 124.143C25.9788 124.363 25.9038 124.548 25.7538 124.698C25.6038 124.848 25.4188 124.923 25.1988 124.923ZM32.7071 126.588C33.6971 126.588 34.4821 126.878 35.0621 127.458C35.6521 128.028 35.9471 128.863 35.9471 129.963V134.538H34.8821V130.068C34.8821 129.248 34.6771 128.623 34.2671 128.193C33.8571 127.763 33.2721 127.548 32.5121 127.548C31.6621 127.548 30.9871 127.803 30.4871 128.313C29.9971 128.813 29.7521 129.508 29.7521 130.398V134.538H28.6871V126.648H29.7071V128.103C29.9971 127.623 30.3971 127.253 30.9071 126.993C31.4271 126.723 32.0271 126.588 32.7071 126.588ZM42.9935 134.058C42.7935 134.238 42.5435 134.378 42.2435 134.478C41.9535 134.568 41.6485 134.613 41.3285 134.613C40.5885 134.613 40.0185 134.413 39.6185 134.013C39.2185 133.613 39.0185 133.048 39.0185 132.318V127.548H37.6085V126.648H39.0185V124.923H40.0835V126.648H42.4835V127.548H40.0835V132.258C40.0835 132.728 40.1985 133.088 40.4285 133.338C40.6685 133.578 41.0085 133.698 41.4485 133.698C41.6685 133.698 41.8785 133.663 42.0785 133.593C42.2885 133.523 42.4685 133.423 42.6185 133.293L42.9935 134.058ZM51.5239 130.923H44.9239C44.9839 131.743 45.2989 132.408 45.8689 132.918C46.4389 133.418 47.1589 133.668 48.0289 133.668C48.5189 133.668 48.9689 133.583 49.3789 133.413C49.7889 133.233 50.1439 132.973 50.4439 132.633L51.0439 133.323C50.6939 133.743 50.2539 134.063 49.7239 134.283C49.2039 134.503 48.6289 134.613 47.9989 134.613C47.1889 134.613 46.4689 134.443 45.8389 134.103C45.2189 133.753 44.7339 133.273 44.3839 132.663C44.0339 132.053 43.8589 131.363 43.8589 130.593C43.8589 129.823 44.0239 129.133 44.3539 128.523C44.6939 127.913 45.1539 127.438 45.7339 127.098C46.3239 126.758 46.9839 126.588 47.7139 126.588C48.4439 126.588 49.0989 126.758 49.6789 127.098C50.2589 127.438 50.7139 127.913 51.0439 128.523C51.3739 129.123 51.5389 129.813 51.5389 130.593L51.5239 130.923ZM47.7139 127.503C46.9539 127.503 46.3139 127.748 45.7939 128.238C45.2839 128.718 44.9939 129.348 44.9239 130.128H50.5189C50.4489 129.348 50.1539 128.718 49.6339 128.238C49.1239 127.748 48.4839 127.503 47.7139 127.503ZM57.7267 126.588C58.7167 126.588 59.5017 126.878 60.0817 127.458C60.6717 128.028 60.9667 128.863 60.9667 129.963V134.538H59.9017V130.068C59.9017 129.248 59.6967 128.623 59.2867 128.193C58.8767 127.763 58.2917 127.548 57.5317 127.548C56.6817 127.548 56.0067 127.803 55.5067 128.313C55.0167 128.813 54.7717 129.508 54.7717 130.398V134.538H53.7067V126.648H54.7267V128.103C55.0167 127.623 55.4167 127.253 55.9267 126.993C56.4467 126.723 57.0467 126.588 57.7267 126.588ZM66.618 126.588C67.648 126.588 68.438 126.848 68.988 127.368C69.538 127.878 69.813 128.638 69.813 129.648V134.538H68.793V133.308C68.553 133.718 68.198 134.038 67.728 134.268C67.268 134.498 66.718 134.613 66.078 134.613C65.198 134.613 64.498 134.403 63.978 133.983C63.458 133.563 63.198 133.008 63.198 132.318C63.198 131.648 63.438 131.108 63.918 130.698C64.408 130.288 65.183 130.083 66.243 130.083H68.748V129.603C68.748 128.923 68.558 128.408 68.178 128.058C67.798 127.698 67.243 127.518 66.513 127.518C66.013 127.518 65.533 127.603 65.073 127.773C64.613 127.933 64.218 128.158 63.888 128.448L63.408 127.653C63.808 127.313 64.288 127.053 64.848 126.873C65.408 126.683 65.998 126.588 66.618 126.588ZM66.243 133.773C66.843 133.773 67.358 133.638 67.788 133.368C68.218 133.088 68.538 132.688 68.748 132.168V130.878H66.273C64.923 130.878 64.248 131.348 64.248 132.288C64.248 132.748 64.423 133.113 64.773 133.383C65.123 133.643 65.613 133.773 66.243 133.773ZM76.7257 126.588C77.7157 126.588 78.5007 126.878 79.0807 127.458C79.6707 128.028 79.9657 128.863 79.9657 129.963V134.538H78.9007V130.068C78.9007 129.248 78.6957 128.623 78.2857 128.193C77.8757 127.763 77.2907 127.548 76.5307 127.548C75.6807 127.548 75.0057 127.803 74.5057 128.313C74.0157 128.813 73.7707 129.508 73.7707 130.398V134.538H72.7057V126.648H73.7257V128.103C74.0157 127.623 74.4157 127.253 74.9257 126.993C75.4457 126.723 76.0457 126.588 76.7257 126.588ZM86.1564 134.613C85.3764 134.613 84.6764 134.443 84.0564 134.103C83.4464 133.763 82.9664 133.288 82.6164 132.678C82.2664 132.058 82.0914 131.363 82.0914 130.593C82.0914 129.823 82.2664 129.133 82.6164 128.523C82.9664 127.913 83.4464 127.438 84.0564 127.098C84.6764 126.758 85.3764 126.588 86.1564 126.588C86.8364 126.588 87.4414 126.723 87.9714 126.993C88.5114 127.253 88.9364 127.638 89.2464 128.148L88.4514 128.688C88.1914 128.298 87.8614 128.008 87.4614 127.818C87.0614 127.618 86.6264 127.518 86.1564 127.518C85.5864 127.518 85.0714 127.648 84.6114 127.908C84.1614 128.158 83.8064 128.518 83.5464 128.988C83.2964 129.458 83.1714 129.993 83.1714 130.593C83.1714 131.203 83.2964 131.743 83.5464 132.213C83.8064 132.673 84.1614 133.033 84.6114 133.293C85.0714 133.543 85.5864 133.668 86.1564 133.668C86.6264 133.668 87.0614 133.573 87.4614 133.383C87.8614 133.193 88.1914 132.903 88.4514 132.513L89.2464 133.053C88.9364 133.563 88.5114 133.953 87.9714 134.223C87.4314 134.483 86.8264 134.613 86.1564 134.613ZM98.0767 130.923H91.4767C91.5367 131.743 91.8517 132.408 92.4217 132.918C92.9917 133.418 93.7117 133.668 94.5817 133.668C95.0717 133.668 95.5217 133.583 95.9317 133.413C96.3417 133.233 96.6967 132.973 96.9967 132.633L97.5967 133.323C97.2467 133.743 96.8067 134.063 96.2767 134.283C95.7567 134.503 95.1817 134.613 94.5517 134.613C93.7417 134.613 93.0217 134.443 92.3917 134.103C91.7717 133.753 91.2867 133.273 90.9367 132.663C90.5867 132.053 90.4117 131.363 90.4117 130.593C90.4117 129.823 90.5767 129.133 90.9067 128.523C91.2467 127.913 91.7067 127.438 92.2867 127.098C92.8767 126.758 93.5367 126.588 94.2667 126.588C94.9967 126.588 95.6517 126.758 96.2317 127.098C96.8117 127.438 97.2667 127.913 97.5967 128.523C97.9267 129.123 98.0917 129.813 98.0917 130.593L98.0767 130.923ZM94.2667 127.503C93.5067 127.503 92.8667 127.748 92.3467 128.238C91.8367 128.718 91.5467 129.348 91.4767 130.128H97.0717C97.0017 129.348 96.7067 128.718 96.1867 128.238C95.6767 127.748 95.0367 127.503 94.2667 127.503ZM5.64 165.038C6.98 165.038 8.03 165.358 8.79 165.998C9.55 166.638 9.93 167.518 9.93 168.638C9.93 169.758 9.55 170.638 8.79 171.278C8.03 171.908 6.98 172.223 5.64 172.223H2.82V175.538H1.71V165.038H5.64ZM5.61 171.248C6.65 171.248 7.445 171.023 7.995 170.573C8.545 170.113 8.82 169.468 8.82 168.638C8.82 167.788 8.545 167.138 7.995 166.688C7.445 166.228 6.65 165.998 5.61 165.998H2.82V171.248H5.61ZM12.92 169.193C13.17 168.663 13.54 168.263 14.03 167.993C14.53 167.723 15.145 167.588 15.875 167.588V168.623L15.62 168.608C14.79 168.608 14.14 168.863 13.67 169.373C13.2 169.883 12.965 170.598 12.965 171.518V175.538H11.9V167.648H12.92V169.193ZM20.9551 175.613C20.1951 175.613 19.5101 175.443 18.9001 175.103C18.2901 174.753 17.8101 174.273 17.4601 173.663C17.1101 173.053 16.9351 172.363 16.9351 171.593C16.9351 170.823 17.1101 170.133 17.4601 169.523C17.8101 168.913 18.2901 168.438 18.9001 168.098C19.5101 167.758 20.1951 167.588 20.9551 167.588C21.7151 167.588 22.4001 167.758 23.0101 168.098C23.6201 168.438 24.0951 168.913 24.4351 169.523C24.7851 170.133 24.9601 170.823 24.9601 171.593C24.9601 172.363 24.7851 173.053 24.4351 173.663C24.0951 174.273 23.6201 174.753 23.0101 175.103C22.4001 175.443 21.7151 175.613 20.9551 175.613ZM20.9551 174.668C21.5151 174.668 22.0151 174.543 22.4551 174.293C22.9051 174.033 23.2551 173.668 23.5051 173.198C23.7551 172.728 23.8801 172.193 23.8801 171.593C23.8801 170.993 23.7551 170.458 23.5051 169.988C23.2551 169.518 22.9051 169.158 22.4551 168.908C22.0151 168.648 21.5151 168.518 20.9551 168.518C20.3951 168.518 19.8901 168.648 19.4401 168.908C19.0001 169.158 18.6501 169.518 18.3901 169.988C18.1401 170.458 18.0151 170.993 18.0151 171.593C18.0151 172.193 18.1401 172.728 18.3901 173.198C18.6501 173.668 19.0001 174.033 19.4401 174.293C19.8901 174.543 20.3951 174.668 20.9551 174.668ZM29.7444 165.233C29.2844 165.233 28.9344 165.358 28.6944 165.608C28.4644 165.858 28.3494 166.228 28.3494 166.718V167.648H30.7794V168.548H28.3794V175.538H27.3144V168.548H25.9044V167.648H27.3144V166.673C27.3144 165.953 27.5194 165.383 27.9294 164.963C28.3494 164.543 28.9394 164.333 29.6994 164.333C29.9994 164.333 30.2894 164.378 30.5694 164.468C30.8494 164.548 31.0844 164.668 31.2744 164.828L30.9144 165.623C30.6044 165.363 30.2144 165.233 29.7444 165.233ZM33.4194 167.648H34.4844V175.538H33.4194V167.648ZM33.9594 165.923C33.7394 165.923 33.5544 165.848 33.4044 165.698C33.2544 165.548 33.1794 165.368 33.1794 165.158C33.1794 164.958 33.2544 164.783 33.4044 164.633C33.5544 164.483 33.7394 164.408 33.9594 164.408C34.1794 164.408 34.3644 164.483 34.5144 164.633C34.6644 164.773 34.7394 164.943 34.7394 165.143C34.7394 165.363 34.6644 165.548 34.5144 165.698C34.3644 165.848 34.1794 165.923 33.9594 165.923ZM37.4616 164.408H38.5266V175.538H37.4616V164.408ZM48.3599 171.923H41.7599C41.8199 172.743 42.1349 173.408 42.7049 173.918C43.2749 174.418 43.9949 174.668 44.8649 174.668C45.3549 174.668 45.8049 174.583 46.2149 174.413C46.6249 174.233 46.9799 173.973 47.2799 173.633L47.8799 174.323C47.5299 174.743 47.0899 175.063 46.5599 175.283C46.0399 175.503 45.4649 175.613 44.8349 175.613C44.0249 175.613 43.3049 175.443 42.6749 175.103C42.0549 174.753 41.5699 174.273 41.2199 173.663C40.8699 173.053 40.6949 172.363 40.6949 171.593C40.6949 170.823 40.8599 170.133 41.1899 169.523C41.5299 168.913 41.9899 168.438 42.5699 168.098C43.1599 167.758 43.8199 167.588 44.5499 167.588C45.2799 167.588 45.9349 167.758 46.5149 168.098C47.0949 168.438 47.5499 168.913 47.8799 169.523C48.2099 170.123 48.3749 170.813 48.3749 171.593L48.3599 171.923ZM44.5499 168.503C43.7899 168.503 43.1499 168.748 42.6299 169.238C42.1199 169.718 41.8299 170.348 41.7599 171.128H47.3549C47.2849 170.348 46.9899 169.718 46.4699 169.238C45.9599 168.748 45.3199 168.503 44.5499 168.503ZM2.82 206.998V211.123H8.25V212.083H2.82V216.538H1.71V206.038H8.91V206.998H2.82ZM17.2891 213.733H11.4391L10.1791 216.538H9.02414L13.8241 206.038H14.9191L19.7191 216.538H18.5491L17.2891 213.733ZM16.8841 212.833L14.3641 207.193L11.8441 212.833H16.8841ZM31.8846 217.423C31.5646 217.813 31.1846 218.108 30.7446 218.308C30.3146 218.518 29.8446 218.623 29.3346 218.623C28.7146 218.623 28.1246 218.468 27.5646 218.158C27.0146 217.858 26.3946 217.348 25.7046 216.628C24.6946 216.598 23.7846 216.348 22.9746 215.878C22.1646 215.408 21.5296 214.773 21.0696 213.973C20.6096 213.173 20.3796 212.278 20.3796 211.288C20.3796 210.278 20.6146 209.368 21.0846 208.558C21.5646 207.748 22.2246 207.113 23.0646 206.653C23.9146 206.183 24.8596 205.948 25.8996 205.948C26.9396 205.948 27.8746 206.178 28.7046 206.638C29.5446 207.098 30.2046 207.738 30.6846 208.558C31.1646 209.368 31.4046 210.278 31.4046 211.288C31.4046 212.168 31.2196 212.978 30.8496 213.718C30.4896 214.448 29.9796 215.058 29.3196 215.548C28.6696 216.038 27.9196 216.363 27.0696 216.523C27.8396 217.333 28.5996 217.738 29.3496 217.738C30.1296 217.738 30.7946 217.418 31.3446 216.778L31.8846 217.423ZM21.4746 211.288C21.4746 212.108 21.6646 212.848 22.0446 213.508C22.4346 214.168 22.9646 214.688 23.6346 215.068C24.3146 215.448 25.0696 215.638 25.8996 215.638C26.7296 215.638 27.4796 215.448 28.1496 215.068C28.8196 214.688 29.3446 214.168 29.7246 213.508C30.1046 212.848 30.2946 212.108 30.2946 211.288C30.2946 210.468 30.1046 209.728 29.7246 209.068C29.3446 208.408 28.8196 207.888 28.1496 207.508C27.4796 207.128 26.7296 206.938 25.8996 206.938C25.0696 206.938 24.3146 207.128 23.6346 207.508C22.9646 207.888 22.4346 208.408 22.0446 209.068C21.6646 209.728 21.4746 210.468 21.4746 211.288ZM4.965 252.603L2.82 254.778V257.538H1.71V247.038H2.82V253.383L8.985 247.038H10.26L5.715 251.793L10.575 257.538H9.255L4.965 252.603ZM16.0226 249.588C17.0126 249.588 17.7976 249.878 18.3776 250.458C18.9676 251.028 19.2626 251.863 19.2626 252.963V257.538H18.1976V253.068C18.1976 252.248 17.9926 251.623 17.5826 251.193C17.1726 250.763 16.5876 250.548 15.8276 250.548C14.9776 250.548 14.3026 250.803 13.8026 251.313C13.3126 251.813 13.0676 252.508 13.0676 253.398V257.538H12.0026V249.648H13.0226V251.103C13.3126 250.623 13.7126 250.253 14.2226 249.993C14.7426 249.723 15.3426 249.588 16.0226 249.588ZM25.4082 257.613C24.6482 257.613 23.9632 257.443 23.3532 257.103C22.7432 256.753 22.2632 256.273 21.9132 255.663C21.5632 255.053 21.3882 254.363 21.3882 253.593C21.3882 252.823 21.5632 252.133 21.9132 251.523C22.2632 250.913 22.7432 250.438 23.3532 250.098C23.9632 249.758 24.6482 249.588 25.4082 249.588C26.1682 249.588 26.8532 249.758 27.4632 250.098C28.0732 250.438 28.5482 250.913 28.8882 251.523C29.2382 252.133 29.4132 252.823 29.4132 253.593C29.4132 254.363 29.2382 255.053 28.8882 255.663C28.5482 256.273 28.0732 256.753 27.4632 257.103C26.8532 257.443 26.1682 257.613 25.4082 257.613ZM25.4082 256.668C25.9682 256.668 26.4682 256.543 26.9082 256.293C27.3582 256.033 27.7082 255.668 27.9582 255.198C28.2082 254.728 28.3332 254.193 28.3332 253.593C28.3332 252.993 28.2082 252.458 27.9582 251.988C27.7082 251.518 27.3582 251.158 26.9082 250.908C26.4682 250.648 25.9682 250.518 25.4082 250.518C24.8482 250.518 24.3432 250.648 23.8932 250.908C23.4532 251.158 23.1032 251.518 22.8432 251.988C22.5932 252.458 22.4682 252.993 22.4682 253.593C22.4682 254.193 22.5932 254.728 22.8432 255.198C23.1032 255.668 23.4532 256.033 23.8932 256.293C24.3432 256.543 24.8482 256.668 25.4082 256.668ZM42.9478 249.648L39.9628 257.538H38.9578L36.4678 251.073L33.9778 257.538H32.9728L30.0028 249.648H31.0228L33.4978 256.353L36.0328 249.648H36.9478L39.4678 256.353L41.9728 249.648H42.9478ZM44.5514 246.408H45.6164V257.538H44.5514V246.408ZM55.4497 253.923H48.8497C48.9097 254.743 49.2247 255.408 49.7947 255.918C50.3647 256.418 51.0847 256.668 51.9547 256.668C52.4447 256.668 52.8947 256.583 53.3047 256.413C53.7147 256.233 54.0697 255.973 54.3697 255.633L54.9697 256.323C54.6197 256.743 54.1797 257.063 53.6497 257.283C53.1297 257.503 52.5547 257.613 51.9247 257.613C51.1147 257.613 50.3947 257.443 49.7647 257.103C49.1447 256.753 48.6597 256.273 48.3097 255.663C47.9597 255.053 47.7847 254.363 47.7847 253.593C47.7847 252.823 47.9497 252.133 48.2797 251.523C48.6197 250.913 49.0797 250.438 49.6597 250.098C50.2497 249.758 50.9097 249.588 51.6397 249.588C52.3697 249.588 53.0247 249.758 53.6047 250.098C54.1847 250.438 54.6397 250.913 54.9697 251.523C55.2997 252.123 55.4647 252.813 55.4647 253.593L55.4497 253.923ZM51.6397 250.503C50.8797 250.503 50.2397 250.748 49.7197 251.238C49.2097 251.718 48.9197 252.348 48.8497 253.128H54.4447C54.3747 252.348 54.0797 251.718 53.5597 251.238C53.0497 250.748 52.4097 250.503 51.6397 250.503ZM64.8325 246.408V257.538H63.8125V255.978C63.4925 256.508 63.0675 256.913 62.5375 257.193C62.0175 257.473 61.4275 257.613 60.7675 257.613C60.0275 257.613 59.3575 257.443 58.7575 257.103C58.1575 256.763 57.6875 256.288 57.3475 255.678C57.0075 255.068 56.8375 254.373 56.8375 253.593C56.8375 252.813 57.0075 252.118 57.3475 251.508C57.6875 250.898 58.1575 250.428 58.7575 250.098C59.3575 249.758 60.0275 249.588 60.7675 249.588C61.4075 249.588 61.9825 249.723 62.4925 249.993C63.0125 250.253 63.4375 250.638 63.7675 251.148V246.408H64.8325ZM60.8575 256.668C61.4075 256.668 61.9025 256.543 62.3425 256.293C62.7925 256.033 63.1425 255.668 63.3925 255.198C63.6525 254.728 63.7825 254.193 63.7825 253.593C63.7825 252.993 63.6525 252.458 63.3925 251.988C63.1425 251.518 62.7925 251.158 62.3425 250.908C61.9025 250.648 61.4075 250.518 60.8575 250.518C60.2975 250.518 59.7925 250.648 59.3425 250.908C58.9025 251.158 58.5525 251.518 58.2925 251.988C58.0425 252.458 57.9175 252.993 57.9175 253.593C57.9175 254.193 58.0425 254.728 58.2925 255.198C58.5525 255.668 58.9025 256.033 59.3425 256.293C59.7925 256.543 60.2975 256.668 60.8575 256.668ZM75.1035 249.648V256.578C75.1035 257.918 74.7735 258.908 74.1135 259.548C73.4635 260.198 72.4785 260.523 71.1585 260.523C70.4285 260.523 69.7335 260.413 69.0735 260.193C68.4235 259.983 67.8935 259.688 67.4835 259.308L68.0235 258.498C68.4035 258.838 68.8635 259.103 69.4035 259.293C69.9535 259.483 70.5285 259.578 71.1285 259.578C72.1285 259.578 72.8635 259.343 73.3335 258.873C73.8035 258.413 74.0385 257.693 74.0385 256.713V255.708C73.7085 256.208 73.2735 256.588 72.7335 256.848C72.2035 257.108 71.6135 257.238 70.9635 257.238C70.2235 257.238 69.5485 257.078 68.9385 256.758C68.3385 256.428 67.8635 255.973 67.5135 255.393C67.1735 254.803 67.0035 254.138 67.0035 253.398C67.0035 252.658 67.1735 251.998 67.5135 251.418C67.8635 250.838 68.3385 250.388 68.9385 250.068C69.5385 249.748 70.2135 249.588 70.9635 249.588C71.6335 249.588 72.2385 249.723 72.7785 249.993C73.3185 250.263 73.7535 250.653 74.0835 251.163V249.648H75.1035ZM71.0685 256.293C71.6385 256.293 72.1535 256.173 72.6135 255.933C73.0735 255.683 73.4285 255.338 73.6785 254.898C73.9385 254.458 74.0685 253.958 74.0685 253.398C74.0685 252.838 73.9385 252.343 73.6785 251.913C73.4285 251.473 73.0735 251.133 72.6135 250.893C72.1635 250.643 71.6485 250.518 71.0685 250.518C70.4985 250.518 69.9835 250.638 69.5235 250.878C69.0735 251.118 68.7185 251.458 68.4585 251.898C68.2085 252.338 68.0835 252.838 68.0835 253.398C68.0835 253.958 68.2085 254.458 68.4585 254.898C68.7185 255.338 69.0735 255.683 69.5235 255.933C69.9835 256.173 70.4985 256.293 71.0685 256.293ZM84.9517 253.923H78.3517C78.4117 254.743 78.7267 255.408 79.2967 255.918C79.8667 256.418 80.5867 256.668 81.4567 256.668C81.9467 256.668 82.3967 256.583 82.8067 256.413C83.2167 256.233 83.5717 255.973 83.8717 255.633L84.4717 256.323C84.1217 256.743 83.6817 257.063 83.1517 257.283C82.6317 257.503 82.0567 257.613 81.4267 257.613C80.6167 257.613 79.8967 257.443 79.2667 257.103C78.6467 256.753 78.1617 256.273 77.8117 255.663C77.4617 255.053 77.2867 254.363 77.2867 253.593C77.2867 252.823 77.4517 252.133 77.7817 251.523C78.1217 250.913 78.5817 250.438 79.1617 250.098C79.7517 249.758 80.4117 249.588 81.1417 249.588C81.8717 249.588 82.5267 249.758 83.1067 250.098C83.6867 250.438 84.1417 250.913 84.4717 251.523C84.8017 252.123 84.9667 252.813 84.9667 253.593L84.9517 253.923ZM81.1417 250.503C80.3817 250.503 79.7417 250.748 79.2217 251.238C78.7117 251.718 78.4217 252.348 78.3517 253.128H83.9467C83.8767 252.348 83.5817 251.718 83.0617 251.238C82.5517 250.748 81.9117 250.503 81.1417 250.503ZM8.325 292.123C9.015 292.273 9.545 292.573 9.915 293.023C10.295 293.463 10.485 294.033 10.485 294.733C10.485 295.633 10.15 296.328 9.48 296.818C8.82 297.298 7.84 297.538 6.54 297.538H1.71V287.038H6.24C7.41 287.038 8.315 287.273 8.955 287.743C9.605 288.213 9.93 288.878 9.93 289.738C9.93 290.318 9.785 290.813 9.495 291.223C9.215 291.623 8.825 291.923 8.325 292.123ZM2.82 287.953V291.763H6.165C7.015 291.763 7.67 291.603 8.13 291.283C8.59 290.953 8.82 290.478 8.82 289.858C8.82 289.238 8.59 288.768 8.13 288.448C7.67 288.118 7.015 287.953 6.165 287.953H2.82ZM6.525 296.623C7.465 296.623 8.175 296.463 8.655 296.143C9.135 295.823 9.375 295.323 9.375 294.643C9.375 293.333 8.425 292.678 6.525 292.678H2.82V296.623H6.525ZM15.5536 289.588C16.5836 289.588 17.3736 289.848 17.9236 290.368C18.4736 290.878 18.7486 291.638 18.7486 292.648V297.538H17.7286V296.308C17.4886 296.718 17.1336 297.038 16.6636 297.268C16.2036 297.498 15.6536 297.613 15.0136 297.613C14.1336 297.613 13.4336 297.403 12.9136 296.983C12.3936 296.563 12.1336 296.008 12.1336 295.318C12.1336 294.648 12.3736 294.108 12.8536 293.698C13.3436 293.288 14.1186 293.083 15.1786 293.083H17.6836V292.603C17.6836 291.923 17.4936 291.408 17.1136 291.058C16.7336 290.698 16.1786 290.518 15.4486 290.518C14.9486 290.518 14.4686 290.603 14.0086 290.773C13.5486 290.933 13.1536 291.158 12.8236 291.448L12.3436 290.653C12.7436 290.313 13.2236 290.053 13.7836 289.873C14.3436 289.683 14.9336 289.588 15.5536 289.588ZM15.1786 296.773C15.7786 296.773 16.2936 296.638 16.7236 296.368C17.1536 296.088 17.4736 295.688 17.6836 295.168V293.878H15.2086C13.8586 293.878 13.1836 294.348 13.1836 295.288C13.1836 295.748 13.3586 296.113 13.7086 296.383C14.0586 296.643 14.5486 296.773 15.1786 296.773ZM23.7563 297.613C23.1163 297.613 22.5013 297.523 21.9113 297.343C21.3313 297.153 20.8763 296.918 20.5463 296.638L21.0263 295.798C21.3563 296.058 21.7713 296.273 22.2713 296.443C22.7713 296.603 23.2913 296.683 23.8313 296.683C24.5513 296.683 25.0813 296.573 25.4213 296.353C25.7713 296.123 25.9463 295.803 25.9463 295.393C25.9463 295.103 25.8513 294.878 25.6613 294.718C25.4713 294.548 25.2313 294.423 24.9413 294.343C24.6513 294.253 24.2663 294.168 23.7863 294.088C23.1463 293.968 22.6313 293.848 22.2413 293.728C21.8513 293.598 21.5163 293.383 21.2363 293.083C20.9663 292.783 20.8313 292.368 20.8313 291.838C20.8313 291.178 21.1063 290.638 21.6563 290.218C22.2063 289.798 22.9713 289.588 23.9513 289.588C24.4613 289.588 24.9713 289.658 25.4813 289.798C25.9913 289.928 26.4113 290.103 26.7413 290.323L26.2763 291.178C25.6263 290.728 24.8513 290.503 23.9513 290.503C23.2713 290.503 22.7563 290.623 22.4063 290.863C22.0663 291.103 21.8963 291.418 21.8963 291.808C21.8963 292.108 21.9913 292.348 22.1813 292.528C22.3813 292.708 22.6263 292.843 22.9163 292.933C23.2063 293.013 23.6063 293.098 24.1162 293.188C24.7463 293.308 25.2513 293.428 25.6313 293.548C26.0113 293.668 26.3363 293.873 26.6063 294.163C26.8763 294.453 27.0113 294.853 27.0113 295.363C27.0113 296.053 26.7213 296.603 26.1413 297.013C25.5713 297.413 24.7763 297.613 23.7563 297.613ZM35.8501 293.923H29.2501C29.3101 294.743 29.6251 295.408 30.1951 295.918C30.7651 296.418 31.4851 296.668 32.3551 296.668C32.8451 296.668 33.2951 296.583 33.7051 296.413C34.1151 296.233 34.4701 295.973 34.7701 295.633L35.3701 296.323C35.0201 296.743 34.5801 297.063 34.0501 297.283C33.5301 297.503 32.9551 297.613 32.3251 297.613C31.5151 297.613 30.7951 297.443 30.1651 297.103C29.5451 296.753 29.0601 296.273 28.7101 295.663C28.3601 295.053 28.1851 294.363 28.1851 293.593C28.1851 292.823 28.3501 292.133 28.6801 291.523C29.0201 290.913 29.4801 290.438 30.0601 290.098C30.6501 289.758 31.3101 289.588 32.0401 289.588C32.7701 289.588 33.4251 289.758 34.0051 290.098C34.5851 290.438 35.0401 290.913 35.3701 291.523C35.7001 292.123 35.8651 292.813 35.8651 293.593L35.8501 293.923ZM32.0401 290.503C31.2801 290.503 30.6401 290.748 30.1201 291.238C29.6101 291.718 29.3201 292.348 29.2501 293.128H34.8451C34.7751 292.348 34.4801 291.718 33.9601 291.238C33.4501 290.748 32.8101 290.503 32.0401 290.503ZM4.605 338.628C3.825 338.628 3.075 338.503 2.355 338.253C1.645 338.003 1.095 337.673 0.705 337.263L1.14 336.408C1.52 336.788 2.025 337.098 2.655 337.338C3.285 337.568 3.935 337.683 4.605 337.683C5.545 337.683 6.25 337.513 6.72 337.173C7.19 336.823 7.425 336.373 7.425 335.823C7.425 335.403 7.295 335.068 7.035 334.818C6.785 334.568 6.475 334.378 6.105 334.248C5.735 334.108 5.22 333.958 4.56 333.798C3.77 333.598 3.14 333.408 2.67 333.228C2.2 333.038 1.795 332.753 1.455 332.373C1.125 331.993 0.96 331.478 0.96 330.828C0.96 330.298 1.1 329.818 1.38 329.388C1.66 328.948 2.09 328.598 2.67 328.338C3.25 328.078 3.97 327.948 4.83 327.948C5.43 327.948 6.015 328.033 6.585 328.203C7.165 328.363 7.665 328.588 8.085 328.878L7.71 329.763C7.27 329.473 6.8 329.258 6.3 329.118C5.8 328.968 5.31 328.893 4.83 328.893C3.91 328.893 3.215 329.073 2.745 329.433C2.285 329.783 2.055 330.238 2.055 330.798C2.055 331.218 2.18 331.558 2.43 331.818C2.69 332.068 3.01 332.263 3.39 332.403C3.78 332.533 4.3 332.678 4.95 332.838C5.72 333.028 6.34 333.218 6.81 333.408C7.29 333.588 7.695 333.868 8.025 334.248C8.355 334.618 8.52 335.123 8.52 335.763C8.52 336.293 8.375 336.778 8.085 337.218C7.805 337.648 7.37 337.993 6.78 338.253C6.19 338.503 5.465 338.628 4.605 338.628ZM17.5835 334.923H10.9835C11.0435 335.743 11.3585 336.408 11.9285 336.918C12.4985 337.418 13.2185 337.668 14.0885 337.668C14.5785 337.668 15.0285 337.583 15.4385 337.413C15.8485 337.233 16.2035 336.973 16.5035 336.633L17.1035 337.323C16.7535 337.743 16.3135 338.063 15.7835 338.283C15.2635 338.503 14.6885 338.613 14.0585 338.613C13.2485 338.613 12.5285 338.443 11.8985 338.103C11.2785 337.753 10.7935 337.273 10.4435 336.663C10.0935 336.053 9.91852 335.363 9.91852 334.593C9.91852 333.823 10.0835 333.133 10.4135 332.523C10.7535 331.913 11.2135 331.438 11.7935 331.098C12.3835 330.758 13.0435 330.588 13.7735 330.588C14.5035 330.588 15.1585 330.758 15.7385 331.098C16.3185 331.438 16.7735 331.913 17.1035 332.523C17.4335 333.123 17.5985 333.813 17.5985 334.593L17.5835 334.923ZM13.7735 331.503C13.0135 331.503 12.3735 331.748 11.8535 332.238C11.3435 332.718 11.0535 333.348 10.9835 334.128H16.5785C16.5085 333.348 16.2135 332.718 15.6935 332.238C15.1835 331.748 14.5435 331.503 13.7735 331.503ZM22.3065 330.588C23.3365 330.588 24.1265 330.848 24.6765 331.368C25.2265 331.878 25.5015 332.638 25.5015 333.648V338.538H24.4815V337.308C24.2415 337.718 23.8865 338.038 23.4165 338.268C22.9565 338.498 22.4065 338.613 21.7665 338.613C20.8865 338.613 20.1865 338.403 19.6665 337.983C19.1465 337.563 18.8865 337.008 18.8865 336.318C18.8865 335.648 19.1265 335.108 19.6065 334.698C20.0965 334.288 20.8715 334.083 21.9315 334.083H24.4365V333.603C24.4365 332.923 24.2465 332.408 23.8665 332.058C23.4865 331.698 22.9315 331.518 22.2015 331.518C21.7015 331.518 21.2215 331.603 20.7615 331.773C20.3015 331.933 19.9065 332.158 19.5765 332.448L19.0965 331.653C19.4965 331.313 19.9765 331.053 20.5365 330.873C21.0965 330.683 21.6865 330.588 22.3065 330.588ZM21.9315 337.773C22.5315 337.773 23.0465 337.638 23.4765 337.368C23.9065 337.088 24.2265 336.688 24.4365 336.168V334.878H21.9615C20.6115 334.878 19.9365 335.348 19.9365 336.288C19.9365 336.748 20.1115 337.113 20.4615 337.383C20.8115 337.643 21.3015 337.773 21.9315 337.773ZM29.4142 332.193C29.6642 331.663 30.0342 331.263 30.5242 330.993C31.0242 330.723 31.6392 330.588 32.3692 330.588V331.623L32.1142 331.608C31.2842 331.608 30.6342 331.863 30.1642 332.373C29.6942 332.883 29.4592 333.598 29.4592 334.518V338.538H28.3942V330.648H29.4142V332.193ZM37.4943 338.613C36.7143 338.613 36.0143 338.443 35.3943 338.103C34.7843 337.763 34.3043 337.288 33.9543 336.678C33.6043 336.058 33.4293 335.363 33.4293 334.593C33.4293 333.823 33.6043 333.133 33.9543 332.523C34.3043 331.913 34.7843 331.438 35.3943 331.098C36.0143 330.758 36.7143 330.588 37.4943 330.588C38.1743 330.588 38.7793 330.723 39.3093 330.993C39.8493 331.253 40.2743 331.638 40.5843 332.148L39.7893 332.688C39.5293 332.298 39.1993 332.008 38.7993 331.818C38.3993 331.618 37.9643 331.518 37.4943 331.518C36.9243 331.518 36.4093 331.648 35.9493 331.908C35.4993 332.158 35.1443 332.518 34.8843 332.988C34.6343 333.458 34.5093 333.993 34.5093 334.593C34.5093 335.203 34.6343 335.743 34.8843 336.213C35.1443 336.673 35.4993 337.033 35.9493 337.293C36.4093 337.543 36.9243 337.668 37.4943 337.668C37.9643 337.668 38.3993 337.573 38.7993 337.383C39.1993 337.193 39.5293 336.903 39.7893 336.513L40.5843 337.053C40.2743 337.563 39.8493 337.953 39.3093 338.223C38.7693 338.483 38.1643 338.613 37.4943 338.613ZM46.5792 330.588C47.5692 330.588 48.3542 330.878 48.9342 331.458C49.5242 332.028 49.8192 332.863 49.8192 333.963V338.538H48.7542V334.068C48.7542 333.248 48.5492 332.623 48.1392 332.193C47.7292 331.763 47.1442 331.548 46.3842 331.548C45.5342 331.548 44.8592 331.803 44.3592 332.313C43.8692 332.813 43.6242 333.508 43.6242 334.398V338.538H42.5592V327.408H43.6242V332.028C43.9142 331.568 44.3142 331.213 44.8242 330.963C45.3342 330.713 45.9192 330.588 46.5792 330.588ZM1.71 369.038H2.82V379.538H1.71V369.038ZM10.0314 371.588C11.0214 371.588 11.8064 371.878 12.3864 372.458C12.9764 373.028 13.2714 373.863 13.2714 374.963V379.538H12.2064V375.068C12.2064 374.248 12.0014 373.623 11.5914 373.193C11.1814 372.763 10.5964 372.548 9.83637 372.548C8.98637 372.548 8.31137 372.803 7.81137 373.313C7.32137 373.813 7.07637 374.508 7.07637 375.398V379.538H6.01137V371.648H7.03137V373.103C7.32137 372.623 7.72137 372.253 8.23137 371.993C8.75137 371.723 9.35137 371.588 10.0314 371.588ZM22.6463 371.648L19.1363 379.538H18.0413L14.5463 371.648H15.6563L18.6113 378.368L21.5963 371.648H22.6463ZM27.1514 379.613C26.3914 379.613 25.7064 379.443 25.0964 379.103C24.4864 378.753 24.0064 378.273 23.6564 377.663C23.3064 377.053 23.1314 376.363 23.1314 375.593C23.1314 374.823 23.3064 374.133 23.6564 373.523C24.0064 372.913 24.4864 372.438 25.0964 372.098C25.7064 371.758 26.3914 371.588 27.1514 371.588C27.9114 371.588 28.5964 371.758 29.2064 372.098C29.8164 372.438 30.2914 372.913 30.6314 373.523C30.9814 374.133 31.1564 374.823 31.1564 375.593C31.1564 376.363 30.9814 377.053 30.6314 377.663C30.2914 378.273 29.8164 378.753 29.2064 379.103C28.5964 379.443 27.9114 379.613 27.1514 379.613ZM27.1514 378.668C27.7114 378.668 28.2114 378.543 28.6514 378.293C29.1014 378.033 29.4514 377.668 29.7014 377.198C29.9514 376.728 30.0764 376.193 30.0764 375.593C30.0764 374.993 29.9514 374.458 29.7014 373.988C29.4514 373.518 29.1014 373.158 28.6514 372.908C28.2114 372.648 27.7114 372.518 27.1514 372.518C26.5914 372.518 26.0864 372.648 25.6364 372.908C25.1964 373.158 24.8464 373.518 24.5864 373.988C24.3364 374.458 24.2114 374.993 24.2114 375.593C24.2114 376.193 24.3364 376.728 24.5864 377.198C24.8464 377.668 25.1964 378.033 25.6364 378.293C26.0864 378.543 26.5914 378.668 27.1514 378.668ZM33.3307 371.648H34.3957V379.538H33.3307V371.648ZM33.8707 369.923C33.6507 369.923 33.4657 369.848 33.3157 369.698C33.1657 369.548 33.0907 369.368 33.0907 369.158C33.0907 368.958 33.1657 368.783 33.3157 368.633C33.4657 368.483 33.6507 368.408 33.8707 368.408C34.0907 368.408 34.2757 368.483 34.4257 368.633C34.5757 368.773 34.6507 368.943 34.6507 369.143C34.6507 369.363 34.5757 369.548 34.4257 369.698C34.2757 369.848 34.0907 369.923 33.8707 369.923ZM40.629 379.613C39.849 379.613 39.149 379.443 38.529 379.103C37.919 378.763 37.439 378.288 37.089 377.678C36.739 377.058 36.564 376.363 36.564 375.593C36.564 374.823 36.739 374.133 37.089 373.523C37.439 372.913 37.919 372.438 38.529 372.098C39.149 371.758 39.849 371.588 40.629 371.588C41.309 371.588 41.914 371.723 42.444 371.993C42.984 372.253 43.409 372.638 43.719 373.148L42.924 373.688C42.664 373.298 42.334 373.008 41.934 372.818C41.534 372.618 41.099 372.518 40.629 372.518C40.059 372.518 39.544 372.648 39.084 372.908C38.634 373.158 38.279 373.518 38.019 373.988C37.769 374.458 37.644 374.993 37.644 375.593C37.644 376.203 37.769 376.743 38.019 377.213C38.279 377.673 38.634 378.033 39.084 378.293C39.544 378.543 40.059 378.668 40.629 378.668C41.099 378.668 41.534 378.573 41.934 378.383C42.334 378.193 42.664 377.903 42.924 377.513L43.719 378.053C43.409 378.563 42.984 378.953 42.444 379.223C41.904 379.483 41.299 379.613 40.629 379.613ZM52.5493 375.923H45.9493C46.0093 376.743 46.3243 377.408 46.8943 377.918C47.4643 378.418 48.1843 378.668 49.0543 378.668C49.5443 378.668 49.9943 378.583 50.4043 378.413C50.8143 378.233 51.1693 377.973 51.4693 377.633L52.0693 378.323C51.7193 378.743 51.2793 379.063 50.7493 379.283C50.2293 379.503 49.6543 379.613 49.0243 379.613C48.2143 379.613 47.4943 379.443 46.8643 379.103C46.2443 378.753 45.7593 378.273 45.4093 377.663C45.0593 377.053 44.8843 376.363 44.8843 375.593C44.8843 374.823 45.0493 374.133 45.3793 373.523C45.7193 372.913 46.1793 372.438 46.7593 372.098C47.3493 371.758 48.0093 371.588 48.7393 371.588C49.4693 371.588 50.1243 371.758 50.7043 372.098C51.2843 372.438 51.7393 372.913 52.0693 373.523C52.3993 374.123 52.5643 374.813 52.5643 375.593L52.5493 375.923ZM48.7393 372.503C47.9793 372.503 47.3393 372.748 46.8193 373.238C46.3093 373.718 46.0193 374.348 45.9493 375.128H51.5443C51.4743 374.348 51.1793 373.718 50.6593 373.238C50.1493 372.748 49.5093 372.503 48.7393 372.503Z" fill="white"/>
</svg>
