<svg width="48" height="10" viewBox="0 0 48 10" fill="none" xmlns="http://www.w3.org/2000/svg">
<path d="M6.105 6.833H1.639L0.66 9H0.055L3.597 1.3H4.158L7.7 9H7.095L6.105 6.833ZM5.896 6.36L3.872 1.916L1.859 6.36H5.896ZM13.2408 3.258L10.6448 9H10.0838L7.49882 3.258H8.08182L10.3698 8.395L12.6798 3.258H13.2408ZM16.2075 3.214C16.9188 3.214 17.4651 3.39733 17.8465 3.764C18.2278 4.12333 18.4185 4.655 18.4185 5.359V9H17.8905V7.977C17.7071 8.31433 17.4395 8.57833 17.0875 8.769C16.7355 8.95233 16.3138 9.044 15.8225 9.044C15.1845 9.044 14.6785 8.89367 14.3045 8.593C13.9378 8.29233 13.7545 7.89633 13.7545 7.405C13.7545 6.92833 13.9231 6.54333 14.2605 6.25C14.6051 5.94933 15.1515 5.799 15.8995 5.799H17.8685V5.337C17.8685 4.80167 17.7218 4.39467 17.4285 4.116C17.1425 3.83733 16.7208 3.698 16.1635 3.698C15.7821 3.698 15.4155 3.764 15.0635 3.896C14.7188 4.028 14.4255 4.204 14.1835 4.424L13.9085 4.028C14.1945 3.77133 14.5391 3.57333 14.9425 3.434C15.3458 3.28733 15.7675 3.214 16.2075 3.214ZM15.8995 8.593C16.3761 8.593 16.7795 8.483 17.1095 8.263C17.4468 8.043 17.6998 7.724 17.8685 7.306V6.228H15.9105C15.3458 6.228 14.9351 6.33067 14.6785 6.536C14.4291 6.74133 14.3045 7.02367 14.3045 7.383C14.3045 7.757 14.4438 8.054 14.7225 8.274C15.0011 8.48667 15.3935 8.593 15.8995 8.593ZM20.6846 3.258H21.2346V9H20.6846V3.258ZM20.9596 1.861C20.8349 1.861 20.7286 1.82067 20.6406 1.74C20.5526 1.652 20.5086 1.54567 20.5086 1.421C20.5086 1.29633 20.5526 1.19 20.6406 1.102C20.7286 1.014 20.8349 0.97 20.9596 0.97C21.0842 0.97 21.1906 1.014 21.2786 1.102C21.3666 1.18267 21.4106 1.28533 21.4106 1.41C21.4106 1.53467 21.3666 1.641 21.2786 1.729C21.1906 1.817 21.0842 1.861 20.9596 1.861ZM23.5527 0.838H24.1027V9H23.5527V0.838ZM28.3569 3.214C29.0682 3.214 29.6145 3.39733 29.9959 3.764C30.3772 4.12333 30.5679 4.655 30.5679 5.359V9H30.0399V7.977C29.8565 8.31433 29.5889 8.57833 29.2369 8.769C28.8849 8.95233 28.4632 9.044 27.9719 9.044C27.3339 9.044 26.8279 8.89367 26.4539 8.593C26.0872 8.29233 25.9039 7.89633 25.9039 7.405C25.9039 6.92833 26.0725 6.54333 26.4099 6.25C26.7545 5.94933 27.3009 5.799 28.0489 5.799H30.0179V5.337C30.0179 4.80167 29.8712 4.39467 29.5779 4.116C29.2919 3.83733 28.8702 3.698 28.3129 3.698C27.9315 3.698 27.5649 3.764 27.2129 3.896C26.8682 4.028 26.5749 4.204 26.3329 4.424L26.0579 4.028C26.3439 3.77133 26.6885 3.57333 27.0919 3.434C27.4952 3.28733 27.9169 3.214 28.3569 3.214ZM28.0489 8.593C28.5255 8.593 28.9289 8.483 29.2589 8.263C29.5962 8.043 29.8492 7.724 30.0179 7.306V6.228H28.0599C27.4952 6.228 27.0845 6.33067 26.8279 6.536C26.5785 6.74133 26.4539 7.02367 26.4539 7.383C26.4539 7.757 26.5932 8.054 26.8719 8.274C27.1505 8.48667 27.5429 8.593 28.0489 8.593ZM35.716 3.214C36.2513 3.214 36.7353 3.33867 37.168 3.588C37.6006 3.83 37.938 4.17467 38.18 4.622C38.4293 5.062 38.554 5.56433 38.554 6.129C38.554 6.69367 38.4293 7.196 38.18 7.636C37.938 8.076 37.6006 8.42067 37.168 8.67C36.7353 8.91933 36.2513 9.044 35.716 9.044C35.2026 9.044 34.737 8.923 34.319 8.681C33.9083 8.43167 33.5893 8.087 33.362 7.647V9H32.834V0.838H33.384V4.567C33.6113 4.14167 33.9303 3.81167 34.341 3.577C34.7516 3.335 35.21 3.214 35.716 3.214ZM35.683 8.549C36.123 8.549 36.519 8.44633 36.871 8.241C37.223 8.03567 37.498 7.74967 37.696 7.383C37.9013 7.01633 38.004 6.59833 38.004 6.129C38.004 5.65967 37.9013 5.24167 37.696 4.875C37.498 4.50833 37.223 4.22233 36.871 4.017C36.519 3.81167 36.123 3.709 35.683 3.709C35.243 3.709 34.847 3.81167 34.495 4.017C34.1503 4.22233 33.8753 4.50833 33.67 4.875C33.472 5.24167 33.373 5.65967 33.373 6.129C33.373 6.59833 33.472 7.01633 33.67 7.383C33.8753 7.74967 34.1503 8.03567 34.495 8.241C34.847 8.44633 35.243 8.549 35.683 8.549ZM40.2568 0.838H40.8068V9H40.2568V0.838ZM47.976 6.261H43.037C43.0517 6.70833 43.1653 7.108 43.378 7.46C43.5907 7.80467 43.8767 8.07233 44.236 8.263C44.6027 8.45367 45.0133 8.549 45.468 8.549C45.842 8.549 46.1867 8.483 46.502 8.351C46.8247 8.21167 47.0923 8.01 47.305 7.746L47.624 8.109C47.3747 8.40967 47.0593 8.64067 46.678 8.802C46.304 8.96333 45.897 9.044 45.457 9.044C44.885 9.044 44.3753 8.91933 43.928 8.67C43.4807 8.42067 43.1287 8.076 42.872 7.636C42.6227 7.196 42.498 6.69367 42.498 6.129C42.498 5.57167 42.6153 5.073 42.85 4.633C43.092 4.18567 43.422 3.83733 43.84 3.588C44.258 3.33867 44.7273 3.214 45.248 3.214C45.7687 3.214 46.2343 3.33867 46.645 3.588C47.063 3.83 47.3893 4.171 47.624 4.611C47.866 5.051 47.987 5.54967 47.987 6.107L47.976 6.261ZM45.248 3.698C44.8447 3.698 44.4817 3.78967 44.159 3.973C43.8363 4.149 43.576 4.402 43.378 4.732C43.1873 5.05467 43.0773 5.42133 43.048 5.832H47.448C47.426 5.42133 47.316 5.05467 47.118 4.732C46.92 4.40933 46.6597 4.15633 46.337 3.973C46.0143 3.78967 45.6513 3.698 45.248 3.698Z" fill="white"/>
</svg>
