<svg width="152" height="19" viewBox="0 0 152 19" fill="none" xmlns="http://www.w3.org/2000/svg">
<path d="M9.032 18.144C7.368 18.144 5.864 17.776 4.52 17.04C3.192 16.304 2.144 15.288 1.376 13.992C0.624 12.68 0.248 11.216 0.248 9.6C0.248 7.984 0.624 6.528 1.376 5.232C2.144 3.92 3.2 2.896 4.544 2.16C5.888 1.424 7.392 1.056 9.056 1.056C10.304 1.056 11.456 1.264 12.512 1.68C13.568 2.096 14.464 2.704 15.2 3.504L14.072 4.632C12.76 3.304 11.104 2.64 9.104 2.64C7.776 2.64 6.568 2.944 5.48 3.552C4.392 4.16 3.536 4.992 2.912 6.048C2.304 7.104 2 8.288 2 9.6C2 10.912 2.304 12.096 2.912 13.152C3.536 14.208 4.392 15.04 5.48 15.648C6.568 16.256 7.776 16.56 9.104 16.56C11.12 16.56 12.776 15.888 14.072 14.544L15.2 15.672C14.464 16.472 13.56 17.088 12.488 17.52C11.432 17.936 10.28 18.144 9.032 18.144ZM22.8545 5.28C24.5025 5.28 25.7665 5.696 26.6465 6.528C27.5265 7.344 27.9665 8.56 27.9665 10.176V18H26.3345V16.032C25.9505 16.688 25.3825 17.2 24.6305 17.568C23.8945 17.936 23.0145 18.12 21.9905 18.12C20.5825 18.12 19.4625 17.784 18.6305 17.112C17.7985 16.44 17.3825 15.552 17.3825 14.448C17.3825 13.376 17.7665 12.512 18.5345 11.856C19.3185 11.2 20.5585 10.872 22.2545 10.872H26.2625V10.104C26.2625 9.016 25.9585 8.192 25.3505 7.632C24.7425 7.056 23.8545 6.768 22.6865 6.768C21.8865 6.768 21.1185 6.904 20.3825 7.176C19.6465 7.432 19.0145 7.792 18.4865 8.256L17.7185 6.984C18.3585 6.44 19.1265 6.024 20.0225 5.736C20.9185 5.432 21.8625 5.28 22.8545 5.28ZM22.2545 16.776C23.2145 16.776 24.0385 16.56 24.7265 16.128C25.4145 15.68 25.9265 15.04 26.2625 14.208V12.144H22.3025C20.1425 12.144 19.0625 12.896 19.0625 14.4C19.0625 15.136 19.3425 15.72 19.9025 16.152C20.4625 16.568 21.2465 16.776 22.2545 16.776ZM34.2268 7.848C34.6268 7 35.2188 6.36 36.0028 5.928C36.8028 5.496 37.7868 5.28 38.9548 5.28V6.936L38.5468 6.912C37.2188 6.912 36.1788 7.32 35.4268 8.136C34.6748 8.952 34.2988 10.096 34.2988 11.568V18H32.5948V5.376H34.2268V7.848ZM53.4429 0.191999V18H51.8109V15.504C51.2989 16.352 50.6189 17 49.7709 17.448C48.9389 17.896 47.9949 18.12 46.9389 18.12C45.7549 18.12 44.6829 17.848 43.7229 17.304C42.7629 16.76 42.0109 16 41.4669 15.024C40.9229 14.048 40.6509 12.936 40.6509 11.688C40.6509 10.44 40.9229 9.328 41.4669 8.352C42.0109 7.376 42.7629 6.624 43.7229 6.096C44.6829 5.552 45.7549 5.28 46.9389 5.28C47.9629 5.28 48.8829 5.496 49.6989 5.928C50.5309 6.344 51.2109 6.96 51.7389 7.776V0.191999H53.4429ZM47.0829 16.608C47.9629 16.608 48.7549 16.408 49.4589 16.008C50.1789 15.592 50.7389 15.008 51.1389 14.256C51.5549 13.504 51.7629 12.648 51.7629 11.688C51.7629 10.728 51.5549 9.872 51.1389 9.12C50.7389 8.368 50.1789 7.792 49.4589 7.392C48.7549 6.976 47.9629 6.768 47.0829 6.768C46.1869 6.768 45.3789 6.976 44.6589 7.392C43.9549 7.792 43.3949 8.368 42.9789 9.12C42.5789 9.872 42.3789 10.728 42.3789 11.688C42.3789 12.648 42.5789 13.504 42.9789 14.256C43.3949 15.008 43.9549 15.592 44.6589 16.008C45.3789 16.408 46.1869 16.608 47.0829 16.608ZM75.3658 13.512H66.0058L63.9898 18H62.1418L69.8218 1.2H71.5738L79.2538 18H77.3818L75.3658 13.512ZM74.7178 12.072L70.6858 3.048L66.6538 12.072H74.7178ZM86.7877 18.12C85.5397 18.12 84.4197 17.848 83.4277 17.304C82.4517 16.76 81.6837 16 81.1237 15.024C80.5637 14.032 80.2837 12.92 80.2837 11.688C80.2837 10.456 80.5637 9.352 81.1237 8.376C81.6837 7.4 82.4517 6.64 83.4277 6.096C84.4197 5.552 85.5397 5.28 86.7877 5.28C87.8757 5.28 88.8437 5.496 89.6917 5.928C90.5557 6.344 91.2357 6.96 91.7317 7.776L90.4597 8.64C90.0437 8.016 89.5157 7.552 88.8757 7.248C88.2357 6.928 87.5397 6.768 86.7877 6.768C85.8757 6.768 85.0517 6.976 84.3157 7.392C83.5957 7.792 83.0277 8.368 82.6117 9.12C82.2117 9.872 82.0117 10.728 82.0117 11.688C82.0117 12.664 82.2117 13.528 82.6117 14.28C83.0277 15.016 83.5957 15.592 84.3157 16.008C85.0517 16.408 85.8757 16.608 86.7877 16.608C87.5397 16.608 88.2357 16.456 88.8757 16.152C89.5157 15.848 90.0437 15.384 90.4597 14.76L91.7317 15.624C91.2357 16.44 90.5557 17.064 89.6917 17.496C88.8277 17.912 87.8597 18.12 86.7877 18.12ZM101.868 17.232C101.548 17.52 101.148 17.744 100.668 17.904C100.204 18.048 99.7158 18.12 99.2038 18.12C98.0198 18.12 97.1078 17.8 96.4678 17.16C95.8278 16.52 95.5078 15.616 95.5078 14.448V6.816H93.2518V5.376H95.5078V2.616H97.2118V5.376H101.052V6.816H97.2118V14.352C97.2118 15.104 97.3958 15.68 97.7638 16.08C98.1478 16.464 98.6918 16.656 99.3958 16.656C99.7478 16.656 100.084 16.6 100.404 16.488C100.74 16.376 101.028 16.216 101.268 16.008L101.868 17.232ZM104.97 5.376H106.674V18H104.97V5.376ZM105.834 2.616C105.482 2.616 105.186 2.496 104.946 2.256C104.706 2.016 104.586 1.728 104.586 1.392C104.586 1.072 104.706 0.791999 104.946 0.551999C105.186 0.311999 105.482 0.191999 105.834 0.191999C106.186 0.191999 106.482 0.311999 106.722 0.551999C106.962 0.775999 107.082 1.048 107.082 1.368C107.082 1.72 106.962 2.016 106.722 2.256C106.482 2.496 106.186 2.616 105.834 2.616ZM116.575 18.12C115.359 18.12 114.263 17.848 113.287 17.304C112.311 16.744 111.543 15.976 110.983 15C110.423 14.024 110.143 12.92 110.143 11.688C110.143 10.456 110.423 9.352 110.983 8.376C111.543 7.4 112.311 6.64 113.287 6.096C114.263 5.552 115.359 5.28 116.575 5.28C117.791 5.28 118.887 5.552 119.863 6.096C120.839 6.64 121.599 7.4 122.143 8.376C122.703 9.352 122.983 10.456 122.983 11.688C122.983 12.92 122.703 14.024 122.143 15C121.599 15.976 120.839 16.744 119.863 17.304C118.887 17.848 117.791 18.12 116.575 18.12ZM116.575 16.608C117.471 16.608 118.271 16.408 118.975 16.008C119.695 15.592 120.255 15.008 120.655 14.256C121.055 13.504 121.255 12.648 121.255 11.688C121.255 10.728 121.055 9.872 120.655 9.12C120.255 8.368 119.695 7.792 118.975 7.392C118.271 6.976 117.471 6.768 116.575 6.768C115.679 6.768 114.871 6.976 114.151 7.392C113.447 7.792 112.887 8.368 112.471 9.12C112.071 9.872 111.871 10.728 111.871 11.688C111.871 12.648 112.071 13.504 112.471 14.256C112.887 15.008 113.447 15.592 114.151 16.008C114.871 16.408 115.679 16.608 116.575 16.608ZM132.894 5.28C134.478 5.28 135.734 5.744 136.662 6.672C137.606 7.584 138.078 8.92 138.078 10.68V18H136.374V10.848C136.374 9.536 136.046 8.536 135.39 7.848C134.734 7.16 133.798 6.816 132.582 6.816C131.222 6.816 130.142 7.224 129.342 8.04C128.558 8.84 128.166 9.952 128.166 11.376V18H126.462V5.376H128.094V7.704C128.558 6.936 129.198 6.344 130.014 5.928C130.846 5.496 131.806 5.28 132.894 5.28ZM146.088 18.12C145.064 18.12 144.08 17.976 143.136 17.688C142.208 17.384 141.48 17.008 140.952 16.56L141.72 15.216C142.248 15.632 142.912 15.976 143.712 16.248C144.512 16.504 145.344 16.632 146.208 16.632C147.36 16.632 148.208 16.456 148.752 16.104C149.312 15.736 149.592 15.224 149.592 14.568C149.592 14.104 149.44 13.744 149.136 13.488C148.832 13.216 148.448 13.016 147.984 12.888C147.52 12.744 146.904 12.608 146.136 12.48C145.112 12.288 144.288 12.096 143.664 11.904C143.04 11.696 142.504 11.352 142.056 10.872C141.624 10.392 141.408 9.728 141.408 8.88C141.408 7.824 141.848 6.96 142.728 6.288C143.608 5.616 144.832 5.28 146.4 5.28C147.216 5.28 148.032 5.392 148.848 5.616C149.664 5.824 150.336 6.104 150.864 6.456L150.12 7.824C149.08 7.104 147.84 6.744 146.4 6.744C145.312 6.744 144.488 6.936 143.928 7.32C143.384 7.704 143.112 8.208 143.112 8.832C143.112 9.312 143.264 9.696 143.568 9.984C143.888 10.272 144.28 10.488 144.744 10.632C145.208 10.76 145.848 10.896 146.664 11.04C147.672 11.232 148.48 11.424 149.088 11.616C149.696 11.808 150.216 12.136 150.648 12.6C151.08 13.064 151.296 13.704 151.296 14.52C151.296 15.624 150.832 16.504 149.904 17.16C148.992 17.8 147.72 18.12 146.088 18.12Z" fill="white"/>
</svg>
