<svg width="91" height="56" viewBox="0 0 91 56" fill="none" xmlns="http://www.w3.org/2000/svg">
<path d="M6.27 11.6277C5.23 11.6277 4.29 11.3977 3.45 10.9377C2.62 10.4777 1.965 9.84269 1.485 9.03269C1.015 8.21269 0.78 7.29769 0.78 6.28769C0.78 5.27769 1.015 4.36769 1.485 3.55769C1.965 2.73769 2.625 2.09769 3.465 1.63769C4.305 1.17769 5.245 0.947689 6.285 0.947689C7.065 0.947689 7.785 1.07769 8.445 1.33769C9.105 1.59769 9.665 1.97769 10.125 2.47769L9.42 3.18269C8.6 2.35269 7.565 1.93769 6.315 1.93769C5.485 1.93769 4.73 2.12769 4.05 2.50769C3.37 2.88769 2.835 3.40769 2.445 4.06769C2.065 4.72769 1.875 5.46769 1.875 6.28769C1.875 7.10769 2.065 7.84769 2.445 8.50769C2.835 9.16769 3.37 9.68769 4.05 10.0677C4.73 10.4477 5.485 10.6377 6.315 10.6377C7.575 10.6377 8.61 10.2177 9.42 9.37769L10.125 10.0827C9.665 10.5827 9.1 10.9677 8.43 11.2377C7.77 11.4977 7.05 11.6277 6.27 11.6277ZM16.2863 3.58769C17.2763 3.58769 18.0613 3.87769 18.6413 4.45769C19.2313 5.02769 19.5263 5.86269 19.5263 6.96269V11.5377H18.4613V7.06769C18.4613 6.24769 18.2563 5.62269 17.8463 5.19269C17.4363 4.76269 16.8513 4.54769 16.0913 4.54769C15.2413 4.54769 14.5663 4.80269 14.0663 5.31269C13.5763 5.81269 13.3313 6.50769 13.3313 7.39769V11.5377H12.2663V0.407689H13.3313V5.02769C13.6213 4.56769 14.0213 4.21269 14.5312 3.96269C15.0413 3.71269 15.6263 3.58769 16.2863 3.58769ZM25.1776 3.58769C26.2076 3.58769 26.9976 3.84769 27.5476 4.36769C28.0976 4.87769 28.3726 5.63769 28.3726 6.64769V11.5377H27.3526V10.3077C27.1126 10.7177 26.7576 11.0377 26.2876 11.2677C25.8276 11.4977 25.2776 11.6127 24.6376 11.6127C23.7576 11.6127 23.0576 11.4027 22.5376 10.9827C22.0176 10.5627 21.7576 10.0077 21.7576 9.31769C21.7576 8.64769 21.9976 8.10769 22.4776 7.69769C22.9676 7.28769 23.7426 7.08269 24.8026 7.08269H27.3076V6.60269C27.3076 5.92269 27.1176 5.40769 26.7376 5.05769C26.3576 4.69769 25.8026 4.51769 25.0726 4.51769C24.5726 4.51769 24.0926 4.60269 23.6326 4.77269C23.1726 4.93269 22.7776 5.15769 22.4476 5.44769L21.9676 4.65269C22.3676 4.31269 22.8476 4.05269 23.4076 3.87269C23.9676 3.68269 24.5576 3.58769 25.1776 3.58769ZM24.8026 10.7727C25.4026 10.7727 25.9176 10.6377 26.3476 10.3677C26.7776 10.0877 27.0976 9.68769 27.3076 9.16769V7.87769H24.8326C23.4826 7.87769 22.8076 8.34769 22.8076 9.28769C22.8076 9.74769 22.9826 10.1127 23.3326 10.3827C23.6826 10.6427 24.1726 10.7727 24.8026 10.7727ZM32.2853 5.19269C32.5353 4.66269 32.9053 4.26269 33.3953 3.99269C33.8953 3.72269 34.5103 3.58769 35.2403 3.58769V4.62269L34.9853 4.60769C34.1553 4.60769 33.5053 4.86269 33.0353 5.37269C32.5653 5.88269 32.3303 6.59769 32.3303 7.51769V11.5377H31.2653V3.64769H32.2853V5.19269ZM41.6605 11.0577C41.4605 11.2377 41.2105 11.3777 40.9105 11.4777C40.6205 11.5677 40.3155 11.6127 39.9955 11.6127C39.2555 11.6127 38.6855 11.4127 38.2855 11.0127C37.8855 10.6127 37.6855 10.0477 37.6855 9.31769V4.54769H36.2755V3.64769H37.6855V1.92269H38.7505V3.64769H41.1505V4.54769H38.7505V9.25769C38.7505 9.72769 38.8655 10.0877 39.0955 10.3377C39.3355 10.5777 39.6755 10.6977 40.1155 10.6977C40.3355 10.6977 40.5455 10.6627 40.7455 10.5927C40.9555 10.5227 41.1355 10.4227 41.2855 10.2927L41.6605 11.0577ZM45.7143 11.6127C45.0743 11.6127 44.4593 11.5227 43.8693 11.3427C43.2893 11.1527 42.8343 10.9177 42.5043 10.6377L42.9843 9.79769C43.3143 10.0577 43.7293 10.2727 44.2293 10.4427C44.7293 10.6027 45.2493 10.6827 45.7893 10.6827C46.5093 10.6827 47.0393 10.5727 47.3793 10.3527C47.7293 10.1227 47.9043 9.80269 47.9043 9.39269C47.9043 9.10269 47.8093 8.87769 47.6193 8.71769C47.4293 8.54769 47.1893 8.42269 46.8993 8.34269C46.6093 8.25269 46.2243 8.16769 45.7443 8.08769C45.1043 7.96769 44.5893 7.84769 44.1993 7.72769C43.8093 7.59769 43.4743 7.38269 43.1943 7.08269C42.9243 6.78269 42.7893 6.36769 42.7893 5.83769C42.7893 5.17769 43.0643 4.63769 43.6143 4.21769C44.1643 3.79769 44.9293 3.58769 45.9093 3.58769C46.4193 3.58769 46.9293 3.65769 47.4393 3.79769C47.9493 3.92769 48.3693 4.10269 48.6993 4.32269L48.2343 5.17769C47.5843 4.72769 46.8093 4.50269 45.9093 4.50269C45.2293 4.50269 44.7143 4.62269 44.3643 4.86269C44.0243 5.10269 43.8543 5.41769 43.8543 5.80769C43.8543 6.10769 43.9493 6.34769 44.1393 6.52769C44.3393 6.70769 44.5843 6.84269 44.8743 6.93269C45.1643 7.01269 45.5643 7.09769 46.0743 7.18769C46.7043 7.30769 47.2093 7.42769 47.5893 7.54769C47.9693 7.66769 48.2943 7.87269 48.5643 8.16269C48.8343 8.45269 48.9693 8.85269 48.9693 9.36269C48.9693 10.0527 48.6793 10.6027 48.0993 11.0127C47.5293 11.4127 46.7343 11.6127 45.7143 11.6127ZM9.105 47.2877H10.17V51.2927C9.68 51.7227 9.1 52.0527 8.43 52.2827C7.76 52.5127 7.055 52.6277 6.315 52.6277C5.265 52.6277 4.32 52.3977 3.48 51.9377C2.64 51.4777 1.98 50.8427 1.5 50.0327C1.02 49.2127 0.78 48.2977 0.78 47.2877C0.78 46.2777 1.02 45.3677 1.5 44.5577C1.98 43.7377 2.64 43.0977 3.48 42.6377C4.32 42.1777 5.27 41.9477 6.33 41.9477C7.13 41.9477 7.865 42.0777 8.535 42.3377C9.205 42.5877 9.77 42.9627 10.23 43.4627L9.54 44.1677C8.71 43.3477 7.655 42.9377 6.375 42.9377C5.525 42.9377 4.755 43.1277 4.065 43.5077C3.385 43.8777 2.85 44.3977 2.46 45.0677C2.07 45.7277 1.875 46.4677 1.875 47.2877C1.875 48.1077 2.07 48.8477 2.46 49.5077C2.85 50.1677 3.385 50.6877 4.065 51.0677C4.745 51.4477 5.51 51.6377 6.36 51.6377C7.44 51.6377 8.355 51.3677 9.105 50.8277V47.2877ZM16.3116 52.6127C15.5516 52.6127 14.8666 52.4427 14.2566 52.1027C13.6466 51.7527 13.1666 51.2727 12.8166 50.6627C12.4666 50.0527 12.2916 49.3627 12.2916 48.5927C12.2916 47.8227 12.4666 47.1327 12.8166 46.5227C13.1666 45.9127 13.6466 45.4377 14.2566 45.0977C14.8666 44.7577 15.5516 44.5877 16.3116 44.5877C17.0716 44.5877 17.7566 44.7577 18.3666 45.0977C18.9766 45.4377 19.4516 45.9127 19.7916 46.5227C20.1416 47.1327 20.3166 47.8227 20.3166 48.5927C20.3166 49.3627 20.1416 50.0527 19.7916 50.6627C19.4516 51.2727 18.9766 51.7527 18.3666 52.1027C17.7566 52.4427 17.0716 52.6127 16.3116 52.6127ZM16.3116 51.6677C16.8716 51.6677 17.3716 51.5427 17.8116 51.2927C18.2616 51.0327 18.6116 50.6677 18.8616 50.1977C19.1116 49.7277 19.2366 49.1927 19.2366 48.5927C19.2366 47.9927 19.1116 47.4577 18.8616 46.9877C18.6116 46.5177 18.2616 46.1577 17.8116 45.9077C17.3716 45.6477 16.8716 45.5177 16.3116 45.5177C15.7516 45.5177 15.2466 45.6477 14.7966 45.9077C14.3566 46.1577 14.0066 46.5177 13.7466 46.9877C13.4966 47.4577 13.3716 47.9927 13.3716 48.5927C13.3716 49.1927 13.4966 49.7277 13.7466 50.1977C14.0066 50.6677 14.3566 51.0327 14.7966 51.2927C15.2466 51.5427 15.7516 51.6677 16.3116 51.6677ZM25.7159 52.6127C24.9559 52.6127 24.2709 52.4427 23.6609 52.1027C23.0509 51.7527 22.5709 51.2727 22.2209 50.6627C21.8709 50.0527 21.6959 49.3627 21.6959 48.5927C21.6959 47.8227 21.8709 47.1327 22.2209 46.5227C22.5709 45.9127 23.0509 45.4377 23.6609 45.0977C24.2709 44.7577 24.9559 44.5877 25.7159 44.5877C26.4759 44.5877 27.1609 44.7577 27.7709 45.0977C28.3809 45.4377 28.8559 45.9127 29.1959 46.5227C29.5459 47.1327 29.7209 47.8227 29.7209 48.5927C29.7209 49.3627 29.5459 50.0527 29.1959 50.6627C28.8559 51.2727 28.3809 51.7527 27.7709 52.1027C27.1609 52.4427 26.4759 52.6127 25.7159 52.6127ZM25.7159 51.6677C26.2759 51.6677 26.7759 51.5427 27.2159 51.2927C27.6659 51.0327 28.0159 50.6677 28.2659 50.1977C28.5159 49.7277 28.6409 49.1927 28.6409 48.5927C28.6409 47.9927 28.5159 47.4577 28.2659 46.9877C28.0159 46.5177 27.6659 46.1577 27.2159 45.9077C26.7759 45.6477 26.2759 45.5177 25.7159 45.5177C25.1559 45.5177 24.6509 45.6477 24.2009 45.9077C23.7609 46.1577 23.4109 46.5177 23.1509 46.9877C22.9009 47.4577 22.7759 47.9927 22.7759 48.5927C22.7759 49.1927 22.9009 49.7277 23.1509 50.1977C23.4109 50.6677 23.7609 51.0327 24.2009 51.2927C24.6509 51.5427 25.1559 51.6677 25.7159 51.6677ZM39.2002 44.6477V51.5777C39.2002 52.9177 38.8702 53.9077 38.2102 54.5477C37.5602 55.1977 36.5752 55.5227 35.2552 55.5227C34.5252 55.5227 33.8302 55.4127 33.1702 55.1927C32.5202 54.9827 31.9902 54.6877 31.5802 54.3077L32.1202 53.4977C32.5002 53.8377 32.9602 54.1027 33.5002 54.2927C34.0502 54.4827 34.6252 54.5777 35.2252 54.5777C36.2252 54.5777 36.9602 54.3427 37.4302 53.8727C37.9002 53.4127 38.1352 52.6927 38.1352 51.7127V50.7077C37.8052 51.2077 37.3702 51.5877 36.8302 51.8477C36.3002 52.1077 35.7102 52.2377 35.0602 52.2377C34.3202 52.2377 33.6452 52.0777 33.0352 51.7577C32.4352 51.4277 31.9602 50.9727 31.6102 50.3927C31.2702 49.8027 31.1002 49.1377 31.1002 48.3977C31.1002 47.6577 31.2702 46.9977 31.6102 46.4177C31.9602 45.8377 32.4352 45.3877 33.0352 45.0677C33.6352 44.7477 34.3102 44.5877 35.0602 44.5877C35.7302 44.5877 36.3352 44.7227 36.8752 44.9927C37.4152 45.2627 37.8502 45.6527 38.1802 46.1627V44.6477H39.2002ZM35.1652 51.2927C35.7352 51.2927 36.2502 51.1727 36.7102 50.9327C37.1702 50.6827 37.5252 50.3377 37.7752 49.8977C38.0352 49.4577 38.1652 48.9577 38.1652 48.3977C38.1652 47.8377 38.0352 47.3427 37.7752 46.9127C37.5252 46.4727 37.1702 46.1327 36.7102 45.8927C36.2602 45.6427 35.7452 45.5177 35.1652 45.5177C34.5952 45.5177 34.0802 45.6377 33.6202 45.8777C33.1702 46.1177 32.8152 46.4577 32.5552 46.8977C32.3052 47.3377 32.1802 47.8377 32.1802 48.3977C32.1802 48.9577 32.3052 49.4577 32.5552 49.8977C32.8152 50.3377 33.1702 50.6827 33.6202 50.9327C34.0802 51.1727 34.5952 51.2927 35.1652 51.2927ZM42.1784 41.4077H43.2434V52.5377H42.1784V41.4077ZM53.0767 48.9227H46.4767C46.5367 49.7427 46.8517 50.4077 47.4217 50.9177C47.9917 51.4177 48.7117 51.6677 49.5817 51.6677C50.0717 51.6677 50.5217 51.5827 50.9317 51.4127C51.3417 51.2327 51.6967 50.9727 51.9967 50.6327L52.5967 51.3227C52.2467 51.7427 51.8067 52.0627 51.2767 52.2827C50.7567 52.5027 50.1817 52.6127 49.5517 52.6127C48.7417 52.6127 48.0217 52.4427 47.3917 52.1027C46.7717 51.7527 46.2867 51.2727 45.9367 50.6627C45.5867 50.0527 45.4117 49.3627 45.4117 48.5927C45.4117 47.8227 45.5767 47.1327 45.9067 46.5227C46.2467 45.9127 46.7067 45.4377 47.2867 45.0977C47.8767 44.7577 48.5367 44.5877 49.2667 44.5877C49.9967 44.5877 50.6517 44.7577 51.2317 45.0977C51.8117 45.4377 52.2667 45.9127 52.5967 46.5227C52.9267 47.1227 53.0917 47.8127 53.0917 48.5927L53.0767 48.9227ZM49.2667 45.5027C48.5067 45.5027 47.8667 45.7477 47.3467 46.2377C46.8367 46.7177 46.5467 47.3477 46.4767 48.1277H52.0717C52.0017 47.3477 51.7067 46.7177 51.1867 46.2377C50.6767 45.7477 50.0367 45.5027 49.2667 45.5027ZM70.3152 42.0377V52.5377H69.2502V44.1377L65.1252 51.2027H64.6002L60.4752 44.1827V52.5377H59.4102V42.0377H60.3252L64.8852 49.8227L69.4002 42.0377H70.3152ZM76.2714 44.5877C77.3014 44.5877 78.0914 44.8477 78.6414 45.3677C79.1914 45.8777 79.4664 46.6377 79.4664 47.6477V52.5377H78.4464V51.3077C78.2064 51.7177 77.8514 52.0377 77.3814 52.2677C76.9214 52.4977 76.3714 52.6127 75.7314 52.6127C74.8514 52.6127 74.1514 52.4027 73.6314 51.9827C73.1114 51.5627 72.8514 51.0077 72.8514 50.3177C72.8514 49.6477 73.0914 49.1077 73.5714 48.6977C74.0614 48.2877 74.8364 48.0827 75.8964 48.0827H78.4014V47.6027C78.4014 46.9227 78.2114 46.4077 77.8314 46.0577C77.4514 45.6977 76.8964 45.5177 76.1664 45.5177C75.6664 45.5177 75.1864 45.6027 74.7264 45.7727C74.2664 45.9327 73.8714 46.1577 73.5414 46.4477L73.0614 45.6527C73.4614 45.3127 73.9414 45.0527 74.5014 44.8727C75.0614 44.6827 75.6514 44.5877 76.2714 44.5877ZM75.8964 51.7727C76.4964 51.7727 77.0114 51.6377 77.4414 51.3677C77.8714 51.0877 78.1914 50.6877 78.4014 50.1677V48.8777H75.9264C74.5764 48.8777 73.9014 49.3477 73.9014 50.2877C73.9014 50.7477 74.0764 51.1127 74.4264 51.3827C74.7764 51.6427 75.2664 51.7727 75.8964 51.7727ZM86.424 44.5877C87.164 44.5877 87.834 44.7577 88.434 45.0977C89.034 45.4277 89.504 45.8977 89.844 46.5077C90.184 47.1177 90.354 47.8127 90.354 48.5927C90.354 49.3827 90.184 50.0827 89.844 50.6927C89.504 51.3027 89.034 51.7777 88.434 52.1177C87.844 52.4477 87.174 52.6127 86.424 52.6127C85.784 52.6127 85.204 52.4827 84.684 52.2227C84.174 51.9527 83.754 51.5627 83.424 51.0527V55.4477H82.359V44.6477H83.379V46.2077C83.699 45.6877 84.119 45.2877 84.639 45.0077C85.169 44.7277 85.764 44.5877 86.424 44.5877ZM86.349 51.6677C86.899 51.6677 87.399 51.5427 87.849 51.2927C88.299 51.0327 88.649 50.6677 88.899 50.1977C89.159 49.7277 89.289 49.1927 89.289 48.5927C89.289 47.9927 89.159 47.4627 88.899 47.0027C88.649 46.5327 88.299 46.1677 87.849 45.9077C87.399 45.6477 86.899 45.5177 86.349 45.5177C85.789 45.5177 85.284 45.6477 84.834 45.9077C84.394 46.1677 84.044 46.5327 83.784 47.0027C83.534 47.4627 83.409 47.9927 83.409 48.5927C83.409 49.1927 83.534 49.7277 83.784 50.1977C84.044 50.6677 84.394 51.0327 84.834 51.2927C85.284 51.5427 85.789 51.6677 86.349 51.6677Z" fill="white"/>
</svg>
