<svg width="117" height="11" viewBox="0 0 117 11" fill="none" xmlns="http://www.w3.org/2000/svg">
<path d="M5.852 10.1292C4.88133 10.1292 4.004 9.91456 3.22 9.48523C2.44533 9.05589 1.834 8.46323 1.386 7.70723C0.947333 6.94189 0.728 6.08789 0.728 5.14523C0.728 4.20256 0.947333 3.35323 1.386 2.59723C1.834 1.83189 2.45 1.23456 3.234 0.805227C4.018 0.375893 4.89533 0.161227 5.866 0.161227C6.594 0.161227 7.266 0.28256 7.882 0.525227C8.498 0.767893 9.02067 1.12256 9.45 1.58923L8.792 2.24723C8.02667 1.47256 7.06067 1.08523 5.894 1.08523C5.11933 1.08523 4.41467 1.26256 3.78 1.61723C3.14533 1.97189 2.646 2.45723 2.282 3.07323C1.92733 3.68923 1.75 4.37989 1.75 5.14523C1.75 5.91056 1.92733 6.60123 2.282 7.21723C2.646 7.83323 3.14533 8.31856 3.78 8.67323C4.41467 9.02789 5.11933 9.20523 5.894 9.20523C7.07 9.20523 8.036 8.81323 8.792 8.02923L9.45 8.68723C9.02067 9.15389 8.49333 9.51323 7.868 9.76523C7.252 10.0079 6.58 10.1292 5.852 10.1292ZM19.8485 0.245226V10.0452H18.8265V5.52323H12.6945V10.0452H11.6585V0.245226H12.6945V4.61323H18.8265V0.245226H19.8485ZM29.1932 7.42723H23.7332L22.5572 10.0452H21.4792L25.9592 0.245226H26.9812L31.4612 10.0452H30.3692L29.1932 7.42723ZM28.8152 6.58723L26.4632 1.32323L24.1112 6.58723H28.8152ZM39.7743 10.0452L37.5343 6.89523C37.2823 6.92323 37.021 6.93723 36.7503 6.93723H34.1183V10.0452H33.0823V0.245226H36.7503C38.001 0.245226 38.981 0.543893 39.6903 1.14123C40.3997 1.73856 40.7543 2.55989 40.7543 3.60523C40.7543 4.37056 40.5583 5.01923 40.1663 5.55123C39.7837 6.07389 39.233 6.45189 38.5143 6.68523L40.9083 10.0452H39.7743ZM36.7223 6.05523C37.693 6.05523 38.435 5.84056 38.9483 5.41123C39.4617 4.98189 39.7183 4.37989 39.7183 3.60523C39.7183 2.81189 39.4617 2.20523 38.9483 1.78523C38.435 1.35589 37.693 1.14123 36.7223 1.14123H34.1183V6.05523H36.7223ZM44.9668 1.14123H41.5228V0.245226H49.4468V1.14123H46.0028V10.0452H44.9668V1.14123ZM53.6535 10.1292C52.9255 10.1292 52.2255 10.0126 51.5535 9.77923C50.8908 9.54589 50.3775 9.23789 50.0135 8.85523L50.4195 8.05723C50.7741 8.41189 51.2455 8.70123 51.8335 8.92523C52.4215 9.13989 53.0281 9.24723 53.6535 9.24723C54.5308 9.24723 55.1888 9.08856 55.6275 8.77123C56.0661 8.44456 56.2855 8.02456 56.2855 7.51123C56.2855 7.11923 56.1641 6.80656 55.9215 6.57323C55.6881 6.33989 55.3988 6.16256 55.0535 6.04123C54.7081 5.91056 54.2275 5.77056 53.6115 5.62123C52.8741 5.43456 52.2861 5.25723 51.8475 5.08923C51.4088 4.91189 51.0308 4.64589 50.7135 4.29123C50.4055 3.93656 50.2515 3.45589 50.2515 2.84923C50.2515 2.35456 50.3821 1.90656 50.6435 1.50523C50.9048 1.09456 51.3061 0.767893 51.8475 0.525227C52.3888 0.28256 53.0608 0.161227 53.8635 0.161227C54.4235 0.161227 54.9695 0.24056 55.5015 0.399227C56.0428 0.54856 56.5095 0.75856 56.9015 1.02923L56.5515 1.85523C56.1408 1.58456 55.7021 1.38389 55.2355 1.25323C54.7688 1.11323 54.3115 1.04323 53.8635 1.04323C53.0048 1.04323 52.3561 1.21123 51.9175 1.54723C51.4881 1.87389 51.2735 2.29856 51.2735 2.82123C51.2735 3.21323 51.3901 3.53056 51.6235 3.77323C51.8661 4.00656 52.1648 4.18856 52.5195 4.31923C52.8835 4.44056 53.3688 4.57589 53.9755 4.72523C54.6941 4.90256 55.2728 5.07989 55.7115 5.25723C56.1595 5.42523 56.5375 5.68656 56.8455 6.04123C57.1535 6.38656 57.3075 6.85789 57.3075 7.45523C57.3075 7.94989 57.1721 8.40256 56.9015 8.81323C56.6401 9.21456 56.2341 9.53656 55.6835 9.77923C55.1328 10.0126 54.4561 10.1292 53.6535 10.1292ZM70.2428 10.1992L68.8848 8.79923C68.0541 9.68589 66.9621 10.1292 65.6088 10.1292C64.9741 10.1292 64.4048 10.0266 63.9008 9.82123C63.4061 9.60656 63.0188 9.31256 62.7388 8.93923C62.4588 8.55656 62.3188 8.12256 62.3188 7.63723C62.3188 7.04923 62.5055 6.52189 62.8788 6.05523C63.2521 5.58856 63.8868 5.09856 64.7828 4.58523C64.3161 4.09989 63.9941 3.68923 63.8168 3.35323C63.6395 3.00789 63.5508 2.64389 63.5508 2.26123C63.5508 1.63589 63.7748 1.13189 64.2228 0.749227C64.6708 0.36656 65.2728 0.175226 66.0288 0.175226C66.7288 0.175226 67.2841 0.347893 67.6948 0.693226C68.1055 1.03856 68.3108 1.51456 68.3108 2.12123C68.3108 2.60656 68.1475 3.04523 67.8208 3.43723C67.4941 3.81989 66.9295 4.24456 66.1268 4.71123L68.8148 7.48323C69.1135 6.95123 69.3328 6.32123 69.4728 5.59323L70.2848 5.84523C70.1075 6.72256 69.8181 7.47389 69.4168 8.09923L70.8168 9.54123L70.2428 10.1992ZM66.0288 0.917227C65.5435 0.917227 65.1608 1.03856 64.8808 1.28123C64.6101 1.52389 64.4748 1.84589 64.4748 2.24723C64.4748 2.53656 64.5495 2.81189 64.6988 3.07323C64.8481 3.33456 65.1421 3.68923 65.5808 4.13723C66.2901 3.72656 66.7801 3.37656 67.0508 3.08723C67.3215 2.79789 67.4568 2.48056 67.4568 2.13523C67.4568 1.76189 67.3308 1.46789 67.0788 1.25323C66.8268 1.02923 66.4768 0.917227 66.0288 0.917227ZM65.6648 9.30323C66.7475 9.30323 67.6248 8.93456 68.2968 8.19723L65.3428 5.15923C64.5681 5.59789 64.0315 5.99456 63.7328 6.34923C63.4435 6.70389 63.2988 7.10056 63.2988 7.53923C63.2988 8.07123 63.5135 8.50056 63.9428 8.82723C64.3815 9.14456 64.9555 9.30323 65.6648 9.30323ZM86.4361 0.245226V10.0452H85.4421V2.20523L81.5921 8.79923H81.1021L77.2521 2.24723V10.0452H76.2581V0.245226H77.1121L81.3681 7.51123L85.5821 0.245226H86.4361ZM95.7752 7.42723H90.3152L89.1392 10.0452H88.0612L92.5412 0.245226H93.5632L98.0432 10.0452H96.9512L95.7752 7.42723ZM95.3972 6.58723L93.0452 1.32323L90.6932 6.58723H95.3972ZM103.332 0.245226C104.583 0.245226 105.563 0.543893 106.272 1.14123C106.982 1.73856 107.336 2.55989 107.336 3.60523C107.336 4.65056 106.982 5.47189 106.272 6.06923C105.563 6.65723 104.583 6.95123 103.332 6.95123H100.7V10.0452H99.6644V0.245226H103.332ZM103.304 6.04123C104.275 6.04123 105.017 5.83123 105.53 5.41123C106.044 4.98189 106.3 4.37989 106.3 3.60523C106.3 2.81189 106.044 2.20523 105.53 1.78523C105.017 1.35589 104.275 1.14123 103.304 1.14123H100.7V6.04123H103.304ZM112.415 10.1292C111.687 10.1292 110.987 10.0126 110.315 9.77923C109.653 9.54589 109.139 9.23789 108.775 8.85523L109.181 8.05723C109.536 8.41189 110.007 8.70123 110.595 8.92523C111.183 9.13989 111.79 9.24723 112.415 9.24723C113.293 9.24723 113.951 9.08856 114.389 8.77123C114.828 8.44456 115.047 8.02456 115.047 7.51123C115.047 7.11923 114.926 6.80656 114.683 6.57323C114.45 6.33989 114.161 6.16256 113.815 6.04123C113.47 5.91056 112.989 5.77056 112.373 5.62123C111.636 5.43456 111.048 5.25723 110.609 5.08923C110.171 4.91189 109.793 4.64589 109.475 4.29123C109.167 3.93656 109.013 3.45589 109.013 2.84923C109.013 2.35456 109.144 1.90656 109.405 1.50523C109.667 1.09456 110.068 0.767893 110.609 0.525227C111.151 0.28256 111.823 0.161227 112.625 0.161227C113.185 0.161227 113.731 0.24056 114.263 0.399227C114.805 0.54856 115.271 0.75856 115.663 1.02923L115.313 1.85523C114.903 1.58456 114.464 1.38389 113.997 1.25323C113.531 1.11323 113.073 1.04323 112.625 1.04323C111.767 1.04323 111.118 1.21123 110.679 1.54723C110.25 1.87389 110.035 2.29856 110.035 2.82123C110.035 3.21323 110.152 3.53056 110.385 3.77323C110.628 4.00656 110.927 4.18856 111.281 4.31923C111.645 4.44056 112.131 4.57589 112.737 4.72523C113.456 4.90256 114.035 5.07989 114.473 5.25723C114.921 5.42523 115.299 5.68656 115.607 6.04123C115.915 6.38656 116.069 6.85789 116.069 7.45523C116.069 7.94989 115.934 8.40256 115.663 8.81323C115.402 9.21456 114.996 9.53656 114.445 9.77923C113.895 10.0126 113.218 10.1292 112.415 10.1292Z" fill="#999999"/>
</svg>
