<svg width="94" height="95" viewBox="0 0 94 95" fill="none" xmlns="http://www.w3.org/2000/svg">
<path d="M2.63578 1.5H6.91078C8.02078 1.5 9.00078 1.725 9.85078 2.175C10.7008 2.615 11.3608 3.235 11.8308 4.035C12.3008 4.825 12.5358 5.73 12.5358 6.75C12.5358 7.77 12.3008 8.68 11.8308 9.48C11.3608 10.27 10.7008 10.89 9.85078 11.34C9.00078 11.78 8.02078 12 6.91078 12H2.63578V1.5ZM6.85078 11.04C7.77078 11.04 8.57578 10.86 9.26578 10.5C9.95578 10.13 10.4908 9.625 10.8708 8.985C11.2508 8.335 11.4408 7.59 11.4408 6.75C11.4408 5.91 11.2508 5.17 10.8708 4.53C10.4908 3.88 9.95578 3.375 9.26578 3.015C8.57578 2.645 7.77078 2.46 6.85078 2.46H3.74578V11.04H6.85078ZM17.5634 4.05C18.5934 4.05 19.3834 4.31 19.9334 4.83C20.4834 5.34 20.7584 6.1 20.7584 7.11V12H19.7384V10.77C19.4984 11.18 19.1434 11.5 18.6734 11.73C18.2134 11.96 17.6634 12.075 17.0234 12.075C16.1434 12.075 15.4434 11.865 14.9234 11.445C14.4034 11.025 14.1434 10.47 14.1434 9.78C14.1434 9.11 14.3834 8.57 14.8634 8.16C15.3534 7.75 16.1284 7.545 17.1884 7.545H19.6934V7.065C19.6934 6.385 19.5034 5.87 19.1234 5.52C18.7434 5.16 18.1884 4.98 17.4584 4.98C16.9584 4.98 16.4784 5.065 16.0184 5.235C15.5584 5.395 15.1634 5.62 14.8334 5.91L14.3534 5.115C14.7534 4.775 15.2334 4.515 15.7934 4.335C16.3534 4.145 16.9434 4.05 17.5634 4.05ZM17.1884 11.235C17.7884 11.235 18.3034 11.1 18.7334 10.83C19.1634 10.55 19.4834 10.15 19.6934 9.63V8.34H17.2184C15.8684 8.34 15.1934 8.81 15.1934 9.75C15.1934 10.21 15.3684 10.575 15.7184 10.845C16.0684 11.105 16.5584 11.235 17.1884 11.235ZM25.766 12.075C25.126 12.075 24.511 11.985 23.921 11.805C23.341 11.615 22.886 11.38 22.556 11.1L23.036 10.26C23.366 10.52 23.781 10.735 24.281 10.905C24.781 11.065 25.301 11.145 25.841 11.145C26.561 11.145 27.091 11.035 27.431 10.815C27.781 10.585 27.956 10.265 27.956 9.855C27.956 9.565 27.861 9.34 27.671 9.18C27.481 9.01 27.241 8.885 26.951 8.805C26.661 8.715 26.276 8.63 25.796 8.55C25.156 8.43 24.641 8.31 24.251 8.19C23.861 8.06 23.526 7.845 23.246 7.545C22.976 7.245 22.841 6.83 22.841 6.3C22.841 5.64 23.116 5.1 23.666 4.68C24.216 4.26 24.981 4.05 25.961 4.05C26.471 4.05 26.981 4.12 27.491 4.26C28.001 4.39 28.421 4.565 28.751 4.785L28.286 5.64C27.636 5.19 26.861 4.965 25.961 4.965C25.281 4.965 24.766 5.085 24.416 5.325C24.076 5.565 23.906 5.88 23.906 6.27C23.906 6.57 24.001 6.81 24.191 6.99C24.391 7.17 24.636 7.305 24.926 7.395C25.216 7.475 25.616 7.56 26.126 7.65C26.756 7.77 27.261 7.89 27.641 8.01C28.021 8.13 28.346 8.335 28.616 8.625C28.886 8.915 29.021 9.315 29.021 9.825C29.021 10.515 28.731 11.065 28.151 11.475C27.581 11.875 26.786 12.075 25.766 12.075ZM35.0099 4.05C35.9999 4.05 36.7849 4.34 37.3649 4.92C37.9549 5.49 38.2499 6.325 38.2499 7.425V12H37.1849V7.53C37.1849 6.71 36.9799 6.085 36.5699 5.655C36.1599 5.225 35.5749 5.01 34.8149 5.01C33.9649 5.01 33.2899 5.265 32.7899 5.775C32.2999 6.275 32.0549 6.97 32.0549 7.86V12H30.9899V0.869999H32.0549V5.49C32.3449 5.03 32.7449 4.675 33.2549 4.425C33.7649 4.175 34.3499 4.05 35.0099 4.05ZM45.2063 4.05C45.9463 4.05 46.6163 4.22 47.2163 4.56C47.8163 4.89 48.2863 5.36 48.6263 5.97C48.9663 6.58 49.1363 7.275 49.1363 8.055C49.1363 8.835 48.9663 9.53 48.6263 10.14C48.2863 10.75 47.8163 11.225 47.2163 11.565C46.6163 11.905 45.9463 12.075 45.2063 12.075C44.5463 12.075 43.9513 11.935 43.4213 11.655C42.9013 11.375 42.4813 10.97 42.1613 10.44V12H41.1413V0.869999H42.2063V5.61C42.5363 5.1 42.9563 4.715 43.4663 4.455C43.9863 4.185 44.5663 4.05 45.2063 4.05ZM45.1313 11.13C45.6813 11.13 46.1813 11.005 46.6313 10.755C47.0813 10.495 47.4313 10.13 47.6813 9.66C47.9413 9.19 48.0713 8.655 48.0713 8.055C48.0713 7.455 47.9413 6.92 47.6813 6.45C47.4313 5.98 47.0813 5.62 46.6313 5.37C46.1813 5.11 45.6813 4.98 45.1313 4.98C44.5713 4.98 44.0663 5.11 43.6162 5.37C43.1763 5.62 42.8263 5.98 42.5663 6.45C42.3163 6.92 42.1913 7.455 42.1913 8.055C42.1913 8.655 42.3163 9.19 42.5663 9.66C42.8263 10.13 43.1763 10.495 43.6162 10.755C44.0663 11.005 44.5713 11.13 45.1313 11.13ZM54.5323 12.075C53.7723 12.075 53.0873 11.905 52.4773 11.565C51.8673 11.215 51.3873 10.735 51.0373 10.125C50.6873 9.515 50.5123 8.825 50.5123 8.055C50.5123 7.285 50.6873 6.595 51.0373 5.985C51.3873 5.375 51.8673 4.9 52.4773 4.56C53.0873 4.22 53.7723 4.05 54.5323 4.05C55.2923 4.05 55.9773 4.22 56.5873 4.56C57.1973 4.9 57.6723 5.375 58.0123 5.985C58.3623 6.595 58.5373 7.285 58.5373 8.055C58.5373 8.825 58.3623 9.515 58.0123 10.125C57.6723 10.735 57.1973 11.215 56.5873 11.565C55.9773 11.905 55.2923 12.075 54.5323 12.075ZM54.5323 11.13C55.0923 11.13 55.5923 11.005 56.0323 10.755C56.4823 10.495 56.8323 10.13 57.0823 9.66C57.3323 9.19 57.4573 8.655 57.4573 8.055C57.4573 7.455 57.3323 6.92 57.0823 6.45C56.8323 5.98 56.4823 5.62 56.0323 5.37C55.5923 5.11 55.0923 4.98 54.5323 4.98C53.9723 4.98 53.4673 5.11 53.0173 5.37C52.5773 5.62 52.2273 5.98 51.9673 6.45C51.7173 6.92 51.5923 7.455 51.5923 8.055C51.5923 8.655 51.7173 9.19 51.9673 9.66C52.2273 10.13 52.5773 10.495 53.0173 10.755C53.4673 11.005 53.9723 11.13 54.5323 11.13ZM63.4276 4.05C64.4576 4.05 65.2476 4.31 65.7976 4.83C66.3476 5.34 66.6226 6.1 66.6226 7.11V12H65.6026V10.77C65.3626 11.18 65.0076 11.5 64.5376 11.73C64.0776 11.96 63.5276 12.075 62.8876 12.075C62.0076 12.075 61.3076 11.865 60.7876 11.445C60.2676 11.025 60.0076 10.47 60.0076 9.78C60.0076 9.11 60.2476 8.57 60.7276 8.16C61.2176 7.75 61.9926 7.545 63.0526 7.545H65.5576V7.065C65.5576 6.385 65.3676 5.87 64.9876 5.52C64.6076 5.16 64.0526 4.98 63.3226 4.98C62.8226 4.98 62.3426 5.065 61.8826 5.235C61.4226 5.395 61.0276 5.62 60.6976 5.91L60.2176 5.115C60.6176 4.775 61.0976 4.515 61.6576 4.335C62.2176 4.145 62.8076 4.05 63.4276 4.05ZM63.0526 11.235C63.6526 11.235 64.1676 11.1 64.5976 10.83C65.0276 10.55 65.3476 10.15 65.5576 9.63V8.34H63.0826C61.7326 8.34 61.0576 8.81 61.0576 9.75C61.0576 10.21 61.2326 10.575 61.5826 10.845C61.9326 11.105 62.4226 11.235 63.0526 11.235ZM70.5353 5.655C70.7853 5.125 71.1553 4.725 71.6453 4.455C72.1453 4.185 72.7603 4.05 73.4903 4.05V5.085L73.2353 5.07C72.4053 5.07 71.7553 5.325 71.2853 5.835C70.8153 6.345 70.5803 7.06 70.5803 7.98V12H69.5153V4.11H70.5353V5.655ZM82.5454 0.869999V12H81.5254V10.44C81.2054 10.97 80.7804 11.375 80.2504 11.655C79.7304 11.935 79.1404 12.075 78.4804 12.075C77.7404 12.075 77.0704 11.905 76.4704 11.565C75.8704 11.225 75.4004 10.75 75.0604 10.14C74.7204 9.53 74.5504 8.835 74.5504 8.055C74.5504 7.275 74.7204 6.58 75.0604 5.97C75.4004 5.36 75.8704 4.89 76.4704 4.56C77.0704 4.22 77.7404 4.05 78.4804 4.05C79.1204 4.05 79.6954 4.185 80.2054 4.455C80.7254 4.715 81.1504 5.1 81.4804 5.61V0.869999H82.5454ZM78.5704 11.13C79.1204 11.13 79.6154 11.005 80.0554 10.755C80.5054 10.495 80.8554 10.13 81.1054 9.66C81.3654 9.19 81.4954 8.655 81.4954 8.055C81.4954 7.455 81.3654 6.92 81.1054 6.45C80.8554 5.98 80.5054 5.62 80.0554 5.37C79.6154 5.11 79.1204 4.98 78.5704 4.98C78.0104 4.98 77.5054 5.11 77.0554 5.37C76.6154 5.62 76.2654 5.98 76.0054 6.45C75.7554 6.92 75.6304 7.455 75.6304 8.055C75.6304 8.655 75.7554 9.19 76.0054 9.66C76.2654 10.13 76.6154 10.495 77.0554 10.755C77.5054 11.005 78.0104 11.13 78.5704 11.13ZM9.22078 50.195H3.37078L2.11078 53H0.955781L5.75578 42.5H6.85078L11.6508 53H10.4808L9.22078 50.195ZM8.81578 49.295L6.29578 43.655L3.77578 49.295H8.81578ZM17.1827 45.05C18.1727 45.05 18.9577 45.34 19.5377 45.92C20.1277 46.49 20.4227 47.325 20.4227 48.425V53H19.3577V48.53C19.3577 47.71 19.1527 47.085 18.7427 46.655C18.3327 46.225 17.7477 46.01 16.9877 46.01C16.1377 46.01 15.4627 46.265 14.9627 46.775C14.4727 47.275 14.2277 47.97 14.2277 48.86V53H13.1627V45.11H14.1827V46.565C14.4727 46.085 14.8727 45.715 15.3827 45.455C15.9027 45.185 16.5027 45.05 17.1827 45.05ZM26.0741 45.05C27.1041 45.05 27.8941 45.31 28.4441 45.83C28.9941 46.34 29.2691 47.1 29.2691 48.11V53H28.2491V51.77C28.0091 52.18 27.6541 52.5 27.1841 52.73C26.7241 52.96 26.1741 53.075 25.5341 53.075C24.6541 53.075 23.9541 52.865 23.4341 52.445C22.9141 52.025 22.6541 51.47 22.6541 50.78C22.6541 50.11 22.8941 49.57 23.3741 49.16C23.8641 48.75 24.6391 48.545 25.6991 48.545H28.2041V48.065C28.2041 47.385 28.0141 46.87 27.6341 46.52C27.2541 46.16 26.6991 45.98 25.9691 45.98C25.4691 45.98 24.9891 46.065 24.5291 46.235C24.0691 46.395 23.6741 46.62 23.3441 46.91L22.8641 46.115C23.2641 45.775 23.7441 45.515 24.3041 45.335C24.8641 45.145 25.4541 45.05 26.0741 45.05ZM25.6991 52.235C26.2991 52.235 26.8141 52.1 27.2441 51.83C27.6741 51.55 27.9941 51.15 28.2041 50.63V49.34H25.7291C24.3791 49.34 23.7041 49.81 23.7041 50.75C23.7041 51.21 23.8791 51.575 24.2291 51.845C24.5791 52.105 25.0691 52.235 25.6991 52.235ZM32.1618 41.87H33.2268V53H32.1618V41.87ZM42.8201 45.11L38.8751 53.945C38.5551 54.685 38.1851 55.21 37.7651 55.52C37.3451 55.83 36.8401 55.985 36.2501 55.985C35.8701 55.985 35.5151 55.925 35.1851 55.805C34.8551 55.685 34.5701 55.505 34.3301 55.265L34.8251 54.47C35.2251 54.87 35.7051 55.07 36.2651 55.07C36.6251 55.07 36.9301 54.97 37.1801 54.77C37.4401 54.57 37.6801 54.23 37.9001 53.75L38.2451 52.985L34.7201 45.11H35.8301L38.8001 51.815L41.7701 45.11H42.8201ZM48.6947 52.52C48.4947 52.7 48.2447 52.84 47.9447 52.94C47.6547 53.03 47.3497 53.075 47.0297 53.075C46.2897 53.075 45.7197 52.875 45.3197 52.475C44.9197 52.075 44.7197 51.51 44.7197 50.78V46.01H43.3097V45.11H44.7197V43.385H45.7847V45.11H48.1847V46.01H45.7847V50.72C45.7847 51.19 45.8997 51.55 46.1297 51.8C46.3697 52.04 46.7097 52.16 47.1497 52.16C47.3697 52.16 47.5797 52.125 47.7797 52.055C47.9897 51.985 48.1697 51.885 48.3197 51.755L48.6947 52.52ZM50.6334 45.11H51.6984V53H50.6334V45.11ZM51.1734 43.385C50.9534 43.385 50.7684 43.31 50.6184 43.16C50.4684 43.01 50.3934 42.83 50.3934 42.62C50.3934 42.42 50.4684 42.245 50.6184 42.095C50.7684 41.945 50.9534 41.87 51.1734 41.87C51.3934 41.87 51.5784 41.945 51.7284 42.095C51.8784 42.235 51.9534 42.405 51.9534 42.605C51.9534 42.825 51.8784 43.01 51.7284 43.16C51.5784 43.31 51.3934 43.385 51.1734 43.385ZM57.9318 53.075C57.1518 53.075 56.4518 52.905 55.8318 52.565C55.2218 52.225 54.7418 51.75 54.3918 51.14C54.0418 50.52 53.8668 49.825 53.8668 49.055C53.8668 48.285 54.0418 47.595 54.3918 46.985C54.7418 46.375 55.2218 45.9 55.8318 45.56C56.4518 45.22 57.1518 45.05 57.9318 45.05C58.6118 45.05 59.2168 45.185 59.7468 45.455C60.2868 45.715 60.7118 46.1 61.0218 46.61L60.2268 47.15C59.9668 46.76 59.6368 46.47 59.2368 46.28C58.8368 46.08 58.4018 45.98 57.9318 45.98C57.3618 45.98 56.8468 46.11 56.3868 46.37C55.9368 46.62 55.5818 46.98 55.3218 47.45C55.0718 47.92 54.9468 48.455 54.9468 49.055C54.9468 49.665 55.0718 50.205 55.3218 50.675C55.5818 51.135 55.9368 51.495 56.3868 51.755C56.8468 52.005 57.3618 52.13 57.9318 52.13C58.4018 52.13 58.8368 52.035 59.2368 51.845C59.6368 51.655 59.9668 51.365 60.2268 50.975L61.0218 51.515C60.7118 52.025 60.2868 52.415 59.7468 52.685C59.2068 52.945 58.6018 53.075 57.9318 53.075ZM65.2289 53.075C64.5889 53.075 63.9739 52.985 63.3839 52.805C62.8039 52.615 62.3489 52.38 62.0189 52.1L62.4989 51.26C62.8289 51.52 63.2439 51.735 63.7439 51.905C64.2439 52.065 64.7639 52.145 65.3039 52.145C66.0239 52.145 66.5539 52.035 66.8939 51.815C67.2439 51.585 67.4189 51.265 67.4189 50.855C67.4189 50.565 67.3239 50.34 67.1339 50.18C66.9439 50.01 66.7039 49.885 66.4139 49.805C66.1239 49.715 65.7389 49.63 65.2589 49.55C64.6189 49.43 64.1039 49.31 63.7139 49.19C63.3239 49.06 62.9889 48.845 62.7089 48.545C62.4389 48.245 62.3039 47.83 62.3039 47.3C62.3039 46.64 62.5789 46.1 63.1289 45.68C63.6789 45.26 64.4439 45.05 65.4239 45.05C65.9339 45.05 66.4439 45.12 66.9539 45.26C67.4639 45.39 67.8839 45.565 68.2139 45.785L67.7489 46.64C67.0989 46.19 66.3239 45.965 65.4239 45.965C64.7439 45.965 64.2289 46.085 63.8789 46.325C63.5389 46.565 63.3689 46.88 63.3689 47.27C63.3689 47.57 63.4639 47.81 63.6539 47.99C63.8539 48.17 64.0989 48.305 64.3889 48.395C64.6789 48.475 65.0789 48.56 65.5889 48.65C66.2189 48.77 66.7239 48.89 67.1039 49.01C67.4839 49.13 67.8089 49.335 68.0789 49.625C68.3489 49.915 68.4839 50.315 68.4839 50.825C68.4839 51.515 68.1939 52.065 67.6139 52.475C67.0439 52.875 66.2489 53.075 65.2289 53.075ZM9.28078 90.385H2.68078C2.74078 91.205 3.05578 91.87 3.62578 92.38C4.19578 92.88 4.91578 93.13 5.78578 93.13C6.27578 93.13 6.72578 93.045 7.13578 92.875C7.54578 92.695 7.90078 92.435 8.20078 92.095L8.80078 92.785C8.45078 93.205 8.01078 93.525 7.48078 93.745C6.96078 93.965 6.38578 94.075 5.75578 94.075C4.94578 94.075 4.22578 93.905 3.59578 93.565C2.97578 93.215 2.49078 92.735 2.14078 92.125C1.79078 91.515 1.61578 90.825 1.61578 90.055C1.61578 89.285 1.78078 88.595 2.11078 87.985C2.45078 87.375 2.91078 86.9 3.49078 86.56C4.08078 86.22 4.74078 86.05 5.47078 86.05C6.20078 86.05 6.85578 86.22 7.43578 86.56C8.01578 86.9 8.47078 87.375 8.80078 87.985C9.13078 88.585 9.29578 89.275 9.29578 90.055L9.28078 90.385ZM5.47078 86.965C4.71078 86.965 4.07078 87.21 3.55078 87.7C3.04078 88.18 2.75078 88.81 2.68078 89.59H8.27578C8.20578 88.81 7.91078 88.18 7.39078 87.7C6.88078 87.21 6.24078 86.965 5.47078 86.965ZM16.2485 94.09C15.2085 94.09 14.2685 93.86 13.4285 93.4C12.5985 92.94 11.9435 92.305 11.4635 91.495C10.9935 90.675 10.7585 89.76 10.7585 88.75C10.7585 87.74 10.9935 86.83 11.4635 86.02C11.9435 85.2 12.6035 84.56 13.4435 84.1C14.2835 83.64 15.2235 83.41 16.2635 83.41C17.0435 83.41 17.7635 83.54 18.4235 83.8C19.0835 84.06 19.6435 84.44 20.1035 84.94L19.3985 85.645C18.5785 84.815 17.5435 84.4 16.2935 84.4C15.4635 84.4 14.7085 84.59 14.0285 84.97C13.3485 85.35 12.8135 85.87 12.4235 86.53C12.0435 87.19 11.8535 87.93 11.8535 88.75C11.8535 89.57 12.0435 90.31 12.4235 90.97C12.8135 91.63 13.3485 92.15 14.0285 92.53C14.7085 92.91 15.4635 93.1 16.2935 93.1C17.5535 93.1 18.5885 92.68 19.3985 91.84L20.1035 92.545C19.6435 93.045 19.0785 93.43 18.4085 93.7C17.7485 93.96 17.0285 94.09 16.2485 94.09ZM25.1182 94.075C24.3582 94.075 23.6732 93.905 23.0632 93.565C22.4532 93.215 21.9732 92.735 21.6232 92.125C21.2732 91.515 21.0982 90.825 21.0982 90.055C21.0982 89.285 21.2732 88.595 21.6232 87.985C21.9732 87.375 22.4532 86.9 23.0632 86.56C23.6732 86.22 24.3582 86.05 25.1182 86.05C25.8782 86.05 26.5632 86.22 27.1732 86.56C27.7832 86.9 28.2582 87.375 28.5982 87.985C28.9482 88.595 29.1232 89.285 29.1232 90.055C29.1232 90.825 28.9482 91.515 28.5982 92.125C28.2582 92.735 27.7832 93.215 27.1732 93.565C26.5632 93.905 25.8782 94.075 25.1182 94.075ZM25.1182 93.13C25.6782 93.13 26.1782 93.005 26.6182 92.755C27.0682 92.495 27.4182 92.13 27.6682 91.66C27.9182 91.19 28.0432 90.655 28.0432 90.055C28.0432 89.455 27.9182 88.92 27.6682 88.45C27.4182 87.98 27.0682 87.62 26.6182 87.37C26.1782 87.11 25.6782 86.98 25.1182 86.98C24.5582 86.98 24.0532 87.11 23.6032 87.37C23.1632 87.62 22.8132 87.98 22.5532 88.45C22.3032 88.92 22.1782 89.455 22.1782 90.055C22.1782 90.655 22.3032 91.19 22.5532 91.66C22.8132 92.13 23.1632 92.495 23.6032 92.755C24.0532 93.005 24.5582 93.13 25.1182 93.13ZM41.1375 86.05C42.1275 86.05 42.9025 86.335 43.4625 86.905C44.0325 87.475 44.3175 88.315 44.3175 89.425V94H43.2525V89.53C43.2525 88.71 43.0525 88.085 42.6525 87.655C42.2625 87.225 41.7075 87.01 40.9875 87.01C40.1675 87.01 39.5225 87.265 39.0525 87.775C38.5825 88.275 38.3475 88.97 38.3475 89.86V94H37.2825V89.53C37.2825 88.71 37.0825 88.085 36.6825 87.655C36.2925 87.225 35.7325 87.01 35.0025 87.01C34.1925 87.01 33.5475 87.265 33.0675 87.775C32.5975 88.275 32.3625 88.97 32.3625 89.86V94H31.2975V86.11H32.3175V87.55C32.5975 87.07 32.9875 86.7 33.4875 86.44C33.9875 86.18 34.5625 86.05 35.2125 86.05C35.8725 86.05 36.4425 86.19 36.9225 86.47C37.4125 86.75 37.7775 87.165 38.0175 87.715C38.3075 87.195 38.7225 86.79 39.2625 86.5C39.8125 86.2 40.4375 86.05 41.1375 86.05ZM57.0457 86.05C58.0357 86.05 58.8107 86.335 59.3707 86.905C59.9407 87.475 60.2257 88.315 60.2257 89.425V94H59.1607V89.53C59.1607 88.71 58.9607 88.085 58.5607 87.655C58.1707 87.225 57.6157 87.01 56.8957 87.01C56.0757 87.01 55.4307 87.265 54.9607 87.775C54.4907 88.275 54.2557 88.97 54.2557 89.86V94H53.1907V89.53C53.1907 88.71 52.9907 88.085 52.5907 87.655C52.2007 87.225 51.6407 87.01 50.9107 87.01C50.1007 87.01 49.4557 87.265 48.9757 87.775C48.5057 88.275 48.2707 88.97 48.2707 89.86V94H47.2057V86.11H48.2257V87.55C48.5057 87.07 48.8957 86.7 49.3957 86.44C49.8957 86.18 50.4707 86.05 51.1207 86.05C51.7807 86.05 52.3507 86.19 52.8307 86.47C53.3207 86.75 53.6857 87.165 53.9257 87.715C54.2157 87.195 54.6307 86.79 55.1707 86.5C55.7207 86.2 56.3457 86.05 57.0457 86.05ZM70.0132 90.385H63.4132C63.4732 91.205 63.7882 91.87 64.3582 92.38C64.9282 92.88 65.6482 93.13 66.5182 93.13C67.0082 93.13 67.4582 93.045 67.8682 92.875C68.2782 92.695 68.6332 92.435 68.9332 92.095L69.5332 92.785C69.1832 93.205 68.7432 93.525 68.2132 93.745C67.6932 93.965 67.1182 94.075 66.4882 94.075C65.6782 94.075 64.9582 93.905 64.3282 93.565C63.7082 93.215 63.2232 92.735 62.8732 92.125C62.5232 91.515 62.3482 90.825 62.3482 90.055C62.3482 89.285 62.5132 88.595 62.8432 87.985C63.1832 87.375 63.6432 86.9 64.2232 86.56C64.8132 86.22 65.4732 86.05 66.2032 86.05C66.9332 86.05 67.5882 86.22 68.1682 86.56C68.7482 86.9 69.2032 87.375 69.5332 87.985C69.8632 88.585 70.0282 89.275 70.0282 90.055L70.0132 90.385ZM66.2032 86.965C65.4432 86.965 64.8032 87.21 64.2832 87.7C63.7732 88.18 63.4832 88.81 63.4132 89.59H69.0082C68.9382 88.81 68.6432 88.18 68.1232 87.7C67.6132 87.21 66.9732 86.965 66.2032 86.965ZM73.2159 87.655C73.4659 87.125 73.8359 86.725 74.3259 86.455C74.8259 86.185 75.4409 86.05 76.1709 86.05V87.085L75.9159 87.07C75.0859 87.07 74.4359 87.325 73.9659 87.835C73.4959 88.345 73.2609 89.06 73.2609 89.98V94H72.1959V86.11H73.2159V87.655ZM81.296 94.075C80.516 94.075 79.816 93.905 79.196 93.565C78.586 93.225 78.106 92.75 77.756 92.14C77.406 91.52 77.231 90.825 77.231 90.055C77.231 89.285 77.406 88.595 77.756 87.985C78.106 87.375 78.586 86.9 79.196 86.56C79.816 86.22 80.516 86.05 81.296 86.05C81.976 86.05 82.581 86.185 83.111 86.455C83.651 86.715 84.076 87.1 84.386 87.61L83.591 88.15C83.331 87.76 83.001 87.47 82.601 87.28C82.201 87.08 81.766 86.98 81.296 86.98C80.726 86.98 80.211 87.11 79.751 87.37C79.301 87.62 78.946 87.98 78.686 88.45C78.436 88.92 78.311 89.455 78.311 90.055C78.311 90.665 78.436 91.205 78.686 91.675C78.946 92.135 79.301 92.495 79.751 92.755C80.211 93.005 80.726 93.13 81.296 93.13C81.766 93.13 82.201 93.035 82.601 92.845C83.001 92.655 83.331 92.365 83.591 91.975L84.386 92.515C84.076 93.025 83.651 93.415 83.111 93.685C82.571 93.945 81.966 94.075 81.296 94.075ZM93.2163 90.385H86.6163C86.6763 91.205 86.9913 91.87 87.5613 92.38C88.1313 92.88 88.8513 93.13 89.7213 93.13C90.2113 93.13 90.6613 93.045 91.0713 92.875C91.4813 92.695 91.8363 92.435 92.1363 92.095L92.7363 92.785C92.3863 93.205 91.9463 93.525 91.4163 93.745C90.8963 93.965 90.3213 94.075 89.6913 94.075C88.8813 94.075 88.1613 93.905 87.5313 93.565C86.9113 93.215 86.4263 92.735 86.0763 92.125C85.7263 91.515 85.5513 90.825 85.5513 90.055C85.5513 89.285 85.7163 88.595 86.0463 87.985C86.3863 87.375 86.8463 86.9 87.4263 86.56C88.0163 86.22 88.6763 86.05 89.4063 86.05C90.1363 86.05 90.7913 86.22 91.3713 86.56C91.9513 86.9 92.4063 87.375 92.7363 87.985C93.0663 88.585 93.2313 89.275 93.2313 90.055L93.2163 90.385ZM89.4063 86.965C88.6463 86.965 88.0063 87.21 87.4863 87.7C86.9763 88.18 86.6863 88.81 86.6163 89.59H92.2113C92.1413 88.81 91.8463 88.18 91.3263 87.7C90.8163 87.21 90.1763 86.965 89.4063 86.965Z" fill="white"/>
</svg>
