<svg width="87" height="11" viewBox="0 0 87 11" fill="none" xmlns="http://www.w3.org/2000/svg">
<path d="M7.798 6.626H1.638C1.694 7.39133 1.988 8.012 2.52 8.488C3.052 8.95467 3.724 9.188 4.536 9.188C4.99333 9.188 5.41333 9.10867 5.796 8.95C6.17867 8.782 6.51 8.53933 6.79 8.222L7.35 8.866C7.02333 9.258 6.61267 9.55667 6.118 9.762C5.63267 9.96733 5.096 10.07 4.508 10.07C3.752 10.07 3.08 9.91133 2.492 9.594C1.91333 9.26733 1.46067 8.81933 1.134 8.25C0.807333 7.68067 0.644 7.03667 0.644 6.318C0.644 5.59933 0.798 4.95533 1.106 4.386C1.42333 3.81667 1.85267 3.37333 2.394 3.056C2.94467 2.73867 3.56067 2.58 4.242 2.58C4.92333 2.58 5.53467 2.73867 6.076 3.056C6.61733 3.37333 7.042 3.81667 7.35 4.386C7.658 4.946 7.812 5.59 7.812 6.318L7.798 6.626ZM4.242 3.434C3.53267 3.434 2.93533 3.66267 2.45 4.12C1.974 4.568 1.70333 5.156 1.638 5.884H6.86C6.79467 5.156 6.51933 4.568 6.034 4.12C5.558 3.66267 4.96067 3.434 4.242 3.434ZM14.3012 10.084C13.3306 10.084 12.4532 9.86933 11.6692 9.44C10.8946 9.01067 10.2832 8.418 9.83522 7.662C9.39655 6.89667 9.17722 6.04267 9.17722 5.1C9.17722 4.15733 9.39655 3.308 9.83522 2.552C10.2832 1.78667 10.8992 1.18933 11.6832 0.76C12.4672 0.330666 13.3446 0.116 14.3152 0.116C15.0432 0.116 15.7152 0.237333 16.3312 0.48C16.9472 0.722666 17.4699 1.07733 17.8992 1.544L17.2412 2.202C16.4759 1.42733 15.5099 1.04 14.3432 1.04C13.5686 1.04 12.8639 1.21733 12.2292 1.572C11.5946 1.92667 11.0952 2.412 10.7312 3.028C10.3766 3.644 10.1992 4.33467 10.1992 5.1C10.1992 5.86533 10.3766 6.556 10.7312 7.172C11.0952 7.788 11.5946 8.27333 12.2292 8.628C12.8639 8.98267 13.5686 9.16 14.3432 9.16C15.5192 9.16 16.4852 8.768 17.2412 7.984L17.8992 8.642C17.4699 9.10867 16.9426 9.468 16.3172 9.72C15.7012 9.96267 15.0292 10.084 14.3012 10.084ZM22.5796 10.07C21.8703 10.07 21.2309 9.91133 20.6616 9.594C20.0923 9.26733 19.6443 8.81933 19.3176 8.25C18.9909 7.68067 18.8276 7.03667 18.8276 6.318C18.8276 5.59933 18.9909 4.95533 19.3176 4.386C19.6443 3.81667 20.0923 3.37333 20.6616 3.056C21.2309 2.73867 21.8703 2.58 22.5796 2.58C23.2889 2.58 23.9283 2.73867 24.4976 3.056C25.0669 3.37333 25.5103 3.81667 25.8276 4.386C26.1543 4.95533 26.3176 5.59933 26.3176 6.318C26.3176 7.03667 26.1543 7.68067 25.8276 8.25C25.5103 8.81933 25.0669 9.26733 24.4976 9.594C23.9283 9.91133 23.2889 10.07 22.5796 10.07ZM22.5796 9.188C23.1023 9.188 23.5689 9.07133 23.9796 8.838C24.3996 8.59533 24.7263 8.25467 24.9596 7.816C25.1929 7.37733 25.3096 6.878 25.3096 6.318C25.3096 5.758 25.1929 5.25867 24.9596 4.82C24.7263 4.38133 24.3996 4.04533 23.9796 3.812C23.5689 3.56933 23.1023 3.448 22.5796 3.448C22.0569 3.448 21.5856 3.56933 21.1656 3.812C20.7549 4.04533 20.4283 4.38133 20.1856 4.82C19.9523 5.25867 19.8356 5.758 19.8356 6.318C19.8356 6.878 19.9523 7.37733 20.1856 7.816C20.4283 8.25467 20.7549 8.59533 21.1656 8.838C21.5856 9.07133 22.0569 9.188 22.5796 9.188ZM37.5309 2.58C38.4549 2.58 39.1783 2.846 39.7009 3.378C40.2329 3.91 40.4989 4.694 40.4989 5.73V10H39.5049V5.828C39.5049 5.06267 39.3183 4.47933 38.9449 4.078C38.5809 3.67667 38.0629 3.476 37.3909 3.476C36.6256 3.476 36.0236 3.714 35.5849 4.19C35.1463 4.65667 34.9269 5.30533 34.9269 6.136V10H33.9329V5.828C33.9329 5.06267 33.7463 4.47933 33.3729 4.078C33.0089 3.67667 32.4863 3.476 31.8049 3.476C31.0489 3.476 30.4469 3.714 29.9989 4.19C29.5603 4.65667 29.3409 5.30533 29.3409 6.136V10H28.3469V2.636H29.2989V3.98C29.5603 3.532 29.9243 3.18667 30.3909 2.944C30.8576 2.70133 31.3943 2.58 32.0009 2.58C32.6169 2.58 33.1489 2.71067 33.5969 2.972C34.0543 3.23333 34.3949 3.62067 34.6189 4.134C34.8896 3.64867 35.2769 3.27067 35.7809 3C36.2943 2.72 36.8776 2.58 37.5309 2.58ZM52.3786 2.58C53.3026 2.58 54.0259 2.846 54.5486 3.378C55.0806 3.91 55.3466 4.694 55.3466 5.73V10H54.3526V5.828C54.3526 5.06267 54.1659 4.47933 53.7926 4.078C53.4286 3.67667 52.9106 3.476 52.2386 3.476C51.4733 3.476 50.8713 3.714 50.4326 4.19C49.9939 4.65667 49.7746 5.30533 49.7746 6.136V10H48.7806V5.828C48.7806 5.06267 48.5939 4.47933 48.2206 4.078C47.8566 3.67667 47.3339 3.476 46.6526 3.476C45.8966 3.476 45.2946 3.714 44.8466 4.19C44.4079 4.65667 44.1886 5.30533 44.1886 6.136V10H43.1946V2.636H44.1466V3.98C44.4079 3.532 44.7719 3.18667 45.2386 2.944C45.7053 2.70133 46.2419 2.58 46.8486 2.58C47.4646 2.58 47.9966 2.71067 48.4446 2.972C48.9019 3.23333 49.2426 3.62067 49.4666 4.134C49.7373 3.64867 50.1246 3.27067 50.6286 3C51.1419 2.72 51.7253 2.58 52.3786 2.58ZM64.4816 6.626H58.3216C58.3776 7.39133 58.6716 8.012 59.2036 8.488C59.7356 8.95467 60.4076 9.188 61.2196 9.188C61.6769 9.188 62.0969 9.10867 62.4796 8.95C62.8623 8.782 63.1936 8.53933 63.4736 8.222L64.0336 8.866C63.7069 9.258 63.2963 9.55667 62.8016 9.762C62.3163 9.96733 61.7796 10.07 61.1916 10.07C60.4356 10.07 59.7636 9.91133 59.1756 9.594C58.5969 9.26733 58.1443 8.81933 57.8176 8.25C57.4909 7.68067 57.3276 7.03667 57.3276 6.318C57.3276 5.59933 57.4816 4.95533 57.7896 4.386C58.1069 3.81667 58.5363 3.37333 59.0776 3.056C59.6283 2.73867 60.2443 2.58 60.9256 2.58C61.6069 2.58 62.2183 2.73867 62.7596 3.056C63.3009 3.37333 63.7256 3.81667 64.0336 4.386C64.3416 4.946 64.4956 5.59 64.4956 6.318L64.4816 6.626ZM60.9256 3.434C60.2163 3.434 59.6189 3.66267 59.1336 4.12C58.6576 4.568 58.3869 5.156 58.3216 5.884H63.5436C63.4783 5.156 63.2029 4.568 62.7176 4.12C62.2416 3.66267 61.6443 3.434 60.9256 3.434ZM67.4708 4.078C67.7041 3.58333 68.0495 3.21 68.5068 2.958C68.9735 2.706 69.5475 2.58 70.2288 2.58V3.546L69.9908 3.532C69.2161 3.532 68.6095 3.77 68.1708 4.246C67.7321 4.722 67.5128 5.38933 67.5128 6.248V10H66.5188V2.636H67.4708V4.078ZM75.0122 10.07C74.2842 10.07 73.6309 9.91133 73.0522 9.594C72.4829 9.27667 72.0349 8.83333 71.7082 8.264C71.3816 7.68533 71.2182 7.03667 71.2182 6.318C71.2182 5.59933 71.3816 4.95533 71.7082 4.386C72.0349 3.81667 72.4829 3.37333 73.0522 3.056C73.6309 2.73867 74.2842 2.58 75.0122 2.58C75.6469 2.58 76.2116 2.706 76.7062 2.958C77.2102 3.20067 77.6069 3.56 77.8962 4.036L77.1542 4.54C76.9116 4.176 76.6036 3.90533 76.2302 3.728C75.8569 3.54133 75.4509 3.448 75.0122 3.448C74.4802 3.448 73.9996 3.56933 73.5702 3.812C73.1502 4.04533 72.8189 4.38133 72.5762 4.82C72.3429 5.25867 72.2262 5.758 72.2262 6.318C72.2262 6.88733 72.3429 7.39133 72.5762 7.83C72.8189 8.25933 73.1502 8.59533 73.5702 8.838C73.9996 9.07133 74.4802 9.188 75.0122 9.188C75.4509 9.188 75.8569 9.09933 76.2302 8.922C76.6036 8.74467 76.9116 8.474 77.1542 8.11L77.8962 8.614C77.6069 9.09 77.2102 9.454 76.7062 9.706C76.2022 9.94867 75.6376 10.07 75.0122 10.07ZM86.1378 6.626H79.9778C80.0338 7.39133 80.3278 8.012 80.8598 8.488C81.3918 8.95467 82.0638 9.188 82.8758 9.188C83.3332 9.188 83.7532 9.10867 84.1358 8.95C84.5185 8.782 84.8498 8.53933 85.1298 8.222L85.6898 8.866C85.3632 9.258 84.9525 9.55667 84.4578 9.762C83.9725 9.96733 83.4358 10.07 82.8478 10.07C82.0918 10.07 81.4198 9.91133 80.8318 9.594C80.2532 9.26733 79.8005 8.81933 79.4738 8.25C79.1472 7.68067 78.9838 7.03667 78.9838 6.318C78.9838 5.59933 79.1378 4.95533 79.4458 4.386C79.7632 3.81667 80.1925 3.37333 80.7338 3.056C81.2845 2.73867 81.9005 2.58 82.5818 2.58C83.2632 2.58 83.8745 2.73867 84.4158 3.056C84.9572 3.37333 85.3818 3.81667 85.6898 4.386C85.9978 4.946 86.1518 5.59 86.1518 6.318L86.1378 6.626ZM82.5818 3.434C81.8725 3.434 81.2752 3.66267 80.7898 4.12C80.3138 4.568 80.0432 5.156 79.9778 5.884H85.1998C85.1345 5.156 84.8592 4.568 84.3738 4.12C83.8978 3.66267 83.3005 3.434 82.5818 3.434Z" fill="#7E72F2"/>
</svg>
