<svg width="76" height="12" viewBox="0 0 76 12" fill="none" xmlns="http://www.w3.org/2000/svg">
<path d="M7.526 10.104V11H0.596V1.2H7.316V2.096H1.632V5.582H6.7V6.464H1.632V10.104H7.526ZM9.75123 0.611999H10.7452V11H9.75123V0.611999ZM19.923 7.626H13.763C13.819 8.39133 14.113 9.012 14.645 9.488C15.177 9.95467 15.849 10.188 16.661 10.188C17.1183 10.188 17.5383 10.1087 17.921 9.95C18.3037 9.782 18.635 9.53933 18.915 9.222L19.475 9.866C19.1483 10.258 18.7377 10.5567 18.243 10.762C17.7577 10.9673 17.221 11.07 16.633 11.07C15.877 11.07 15.205 10.9113 14.617 10.594C14.0383 10.2673 13.5857 9.81933 13.259 9.25C12.9323 8.68067 12.769 8.03667 12.769 7.318C12.769 6.59933 12.923 5.95533 13.231 5.386C13.5483 4.81667 13.9777 4.37333 14.519 4.056C15.0697 3.73867 15.6857 3.58 16.367 3.58C17.0483 3.58 17.6597 3.73867 18.201 4.056C18.7423 4.37333 19.167 4.81667 19.475 5.386C19.783 5.946 19.937 6.59 19.937 7.318L19.923 7.626ZM16.367 4.434C15.6577 4.434 15.0603 4.66267 14.575 5.12C14.099 5.568 13.8283 6.156 13.763 6.884H18.985C18.9197 6.156 18.6443 5.568 18.159 5.12C17.683 4.66267 17.0857 4.434 16.367 4.434ZM25.0122 11.07C24.2842 11.07 23.6309 10.9113 23.0522 10.594C22.4829 10.2767 22.0349 9.83333 21.7082 9.264C21.3816 8.68533 21.2182 8.03667 21.2182 7.318C21.2182 6.59933 21.3816 5.95533 21.7082 5.386C22.0349 4.81667 22.4829 4.37333 23.0522 4.056C23.6309 3.73867 24.2842 3.58 25.0122 3.58C25.6469 3.58 26.2116 3.706 26.7062 3.958C27.2102 4.20067 27.6069 4.56 27.8962 5.036L27.1542 5.54C26.9116 5.176 26.6036 4.90533 26.2302 4.728C25.8569 4.54133 25.4509 4.448 25.0122 4.448C24.4802 4.448 23.9996 4.56933 23.5702 4.812C23.1502 5.04533 22.8189 5.38133 22.5762 5.82C22.3429 6.25867 22.2262 6.758 22.2262 7.318C22.2262 7.88733 22.3429 8.39133 22.5762 8.83C22.8189 9.25933 23.1502 9.59533 23.5702 9.838C23.9996 10.0713 24.4802 10.188 25.0122 10.188C25.4509 10.188 25.8569 10.0993 26.2302 9.922C26.6036 9.74467 26.9116 9.474 27.1542 9.11L27.8962 9.614C27.6069 10.09 27.2102 10.454 26.7062 10.706C26.2022 10.9487 25.6376 11.07 25.0122 11.07ZM33.8089 10.552C33.6223 10.72 33.3889 10.8507 33.1089 10.944C32.8383 11.028 32.5536 11.07 32.2549 11.07C31.5643 11.07 31.0323 10.8833 30.6589 10.51C30.2856 10.1367 30.0989 9.60933 30.0989 8.928V4.476H28.7829V3.636H30.0989V2.026H31.0929V3.636H33.3329V4.476H31.0929V8.872C31.0929 9.31067 31.2003 9.64667 31.4149 9.88C31.6389 10.104 31.9563 10.216 32.3669 10.216C32.5723 10.216 32.7683 10.1833 32.9549 10.118C33.1509 10.0527 33.3189 9.95933 33.4589 9.838L33.8089 10.552ZM36.5704 5.078C36.8038 4.58333 37.1491 4.21 37.6064 3.958C38.0731 3.706 38.6471 3.58 39.3284 3.58V4.546L39.0904 4.532C38.3158 4.532 37.7091 4.77 37.2704 5.246C36.8318 5.722 36.6124 6.38933 36.6124 7.248V11H35.6184V3.636H36.5704V5.078ZM44.0698 11.07C43.3605 11.07 42.7212 10.9113 42.1518 10.594C41.5825 10.2673 41.1345 9.81933 40.8078 9.25C40.4812 8.68067 40.3178 8.03667 40.3178 7.318C40.3178 6.59933 40.4812 5.95533 40.8078 5.386C41.1345 4.81667 41.5825 4.37333 42.1518 4.056C42.7212 3.73867 43.3605 3.58 44.0698 3.58C44.7792 3.58 45.4185 3.73867 45.9878 4.056C46.5572 4.37333 47.0005 4.81667 47.3178 5.386C47.6445 5.95533 47.8078 6.59933 47.8078 7.318C47.8078 8.03667 47.6445 8.68067 47.3178 9.25C47.0005 9.81933 46.5572 10.2673 45.9878 10.594C45.4185 10.9113 44.7792 11.07 44.0698 11.07ZM44.0698 10.188C44.5925 10.188 45.0592 10.0713 45.4698 9.838C45.8898 9.59533 46.2165 9.25467 46.4498 8.816C46.6832 8.37733 46.7998 7.878 46.7998 7.318C46.7998 6.758 46.6832 6.25867 46.4498 5.82C46.2165 5.38133 45.8898 5.04533 45.4698 4.812C45.0592 4.56933 44.5925 4.448 44.0698 4.448C43.5472 4.448 43.0758 4.56933 42.6558 4.812C42.2452 5.04533 41.9185 5.38133 41.6758 5.82C41.4425 6.25867 41.3258 6.758 41.3258 7.318C41.3258 7.878 41.4425 8.37733 41.6758 8.816C41.9185 9.25467 42.2452 9.59533 42.6558 9.838C43.0758 10.0713 43.5472 10.188 44.0698 10.188ZM53.5892 3.58C54.5132 3.58 55.2458 3.85067 55.7872 4.392C56.3378 4.924 56.6132 5.70333 56.6132 6.73V11H55.6192V6.828C55.6192 6.06267 55.4278 5.47933 55.0452 5.078C54.6625 4.67667 54.1165 4.476 53.4072 4.476C52.6138 4.476 51.9838 4.714 51.5172 5.19C51.0598 5.65667 50.8312 6.30533 50.8312 7.136V11H49.8372V3.636H50.7892V4.994C51.0598 4.546 51.4332 4.20067 51.9092 3.958C52.3945 3.706 52.9545 3.58 53.5892 3.58ZM59.3118 3.636H60.3058V11H59.3118V3.636ZM59.8158 2.026C59.6104 2.026 59.4378 1.956 59.2978 1.816C59.1578 1.676 59.0878 1.508 59.0878 1.312C59.0878 1.12533 59.1578 0.962 59.2978 0.821999C59.4378 0.681999 59.6104 0.611999 59.8158 0.611999C60.0211 0.611999 60.1938 0.681999 60.3338 0.821999C60.4738 0.952666 60.5438 1.11133 60.5438 1.298C60.5438 1.50333 60.4738 1.676 60.3338 1.816C60.1938 1.956 60.0211 2.026 59.8158 2.026ZM66.1235 11.07C65.3955 11.07 64.7422 10.9113 64.1635 10.594C63.5942 10.2767 63.1462 9.83333 62.8195 9.264C62.4929 8.68533 62.3295 8.03667 62.3295 7.318C62.3295 6.59933 62.4929 5.95533 62.8195 5.386C63.1462 4.81667 63.5942 4.37333 64.1635 4.056C64.7422 3.73867 65.3955 3.58 66.1235 3.58C66.7582 3.58 67.3229 3.706 67.8175 3.958C68.3215 4.20067 68.7182 4.56 69.0075 5.036L68.2655 5.54C68.0229 5.176 67.7149 4.90533 67.3415 4.728C66.9682 4.54133 66.5622 4.448 66.1235 4.448C65.5915 4.448 65.1109 4.56933 64.6815 4.812C64.2615 5.04533 63.9302 5.38133 63.6875 5.82C63.4542 6.25867 63.3375 6.758 63.3375 7.318C63.3375 7.88733 63.4542 8.39133 63.6875 8.83C63.9302 9.25933 64.2615 9.59533 64.6815 9.838C65.1109 10.0713 65.5915 10.188 66.1235 10.188C66.5622 10.188 66.9682 10.0993 67.3415 9.922C67.7149 9.74467 68.0229 9.474 68.2655 9.11L69.0075 9.614C68.7182 10.09 68.3215 10.454 67.8175 10.706C67.3135 10.9487 66.7489 11.07 66.1235 11.07ZM72.9342 11.07C72.3369 11.07 71.7629 10.986 71.2122 10.818C70.6709 10.6407 70.2462 10.4213 69.9382 10.16L70.3862 9.376C70.6942 9.61867 71.0816 9.81933 71.5482 9.978C72.0149 10.1273 72.5002 10.202 73.0042 10.202C73.6762 10.202 74.1709 10.0993 74.4882 9.894C74.8149 9.67933 74.9782 9.38067 74.9782 8.998C74.9782 8.72733 74.8896 8.51733 74.7122 8.368C74.5349 8.20933 74.3109 8.09267 74.0402 8.018C73.7696 7.934 73.4102 7.85467 72.9622 7.78C72.3649 7.668 71.8842 7.556 71.5202 7.444C71.1562 7.32267 70.8436 7.122 70.5822 6.842C70.3302 6.562 70.2042 6.17467 70.2042 5.68C70.2042 5.064 70.4609 4.56 70.9742 4.168C71.4876 3.776 72.2016 3.58 73.1162 3.58C73.5922 3.58 74.0682 3.64533 74.5442 3.776C75.0202 3.89733 75.4122 4.06067 75.7202 4.266L75.2862 5.064C74.6796 4.644 73.9562 4.434 73.1162 4.434C72.4816 4.434 72.0009 4.546 71.6742 4.77C71.3569 4.994 71.1982 5.288 71.1982 5.652C71.1982 5.932 71.2869 6.156 71.4642 6.324C71.6509 6.492 71.8796 6.618 72.1502 6.702C72.4209 6.77667 72.7942 6.856 73.2702 6.94C73.8582 7.052 74.3296 7.164 74.6842 7.276C75.0389 7.388 75.3422 7.57933 75.5942 7.85C75.8462 8.12067 75.9722 8.494 75.9722 8.97C75.9722 9.614 75.7016 10.1273 75.1602 10.51C74.6282 10.8833 73.8862 11.07 72.9342 11.07Z" fill="white"/>
</svg>
