<svg width="68" height="135" viewBox="0 0 68 135" fill="none" xmlns="http://www.w3.org/2000/svg">
<path d="M9.135 10.6177V11.5777H1.71V1.0777H8.91V2.0377H2.82V5.7727H8.25V6.7177H2.82V10.6177H9.135ZM21.3592 3.6277C22.3492 3.6277 23.1242 3.9127 23.6842 4.4827C24.2542 5.0527 24.5392 5.8927 24.5392 7.0027V11.5777H23.4742V7.1077C23.4742 6.2877 23.2742 5.6627 22.8742 5.2327C22.4842 4.8027 21.9292 4.5877 21.2092 4.5877C20.3892 4.5877 19.7442 4.8427 19.2742 5.3527C18.8042 5.8527 18.5692 6.5477 18.5692 7.4377V11.5777H17.5042V7.1077C17.5042 6.2877 17.3042 5.6627 16.9042 5.2327C16.5142 4.8027 15.9542 4.5877 15.2242 4.5877C14.4142 4.5877 13.7692 4.8427 13.2892 5.3527C12.8192 5.8527 12.5842 6.5477 12.5842 7.4377V11.5777H11.5192V3.6877H12.5392V5.1277C12.8192 4.6477 13.2092 4.2777 13.7092 4.0177C14.2092 3.7577 14.7842 3.6277 15.4342 3.6277C16.0942 3.6277 16.6642 3.7677 17.1442 4.0477C17.6342 4.3277 17.9992 4.7427 18.2392 5.2927C18.5292 4.7727 18.9442 4.3677 19.4842 4.0777C20.0342 3.7777 20.6592 3.6277 21.3592 3.6277ZM30.1874 3.6277C31.2174 3.6277 32.0074 3.8877 32.5574 4.4077C33.1074 4.9177 33.3824 5.6777 33.3824 6.6877V11.5777H32.3624V10.3477C32.1224 10.7577 31.7674 11.0777 31.2974 11.3077C30.8374 11.5377 30.2874 11.6527 29.6474 11.6527C28.7674 11.6527 28.0674 11.4427 27.5474 11.0227C27.0274 10.6027 26.7674 10.0477 26.7674 9.3577C26.7674 8.6877 27.0074 8.1477 27.4874 7.7377C27.9774 7.3277 28.7524 7.1227 29.8124 7.1227H32.3174V6.6427C32.3174 5.9627 32.1274 5.4477 31.7474 5.0977C31.3674 4.7377 30.8124 4.5577 30.0824 4.5577C29.5824 4.5577 29.1024 4.6427 28.6424 4.8127C28.1824 4.9727 27.7874 5.1977 27.4574 5.4877L26.9774 4.6927C27.3774 4.3527 27.8574 4.0927 28.4174 3.9127C28.9774 3.7227 29.5674 3.6277 30.1874 3.6277ZM29.8124 10.8127C30.4124 10.8127 30.9274 10.6777 31.3574 10.4077C31.7874 10.1277 32.1074 9.7277 32.3174 9.2077V7.9177H29.8424C28.4924 7.9177 27.8174 8.3877 27.8174 9.3277C27.8174 9.7877 27.9924 10.1527 28.3424 10.4227C28.6924 10.6827 29.1824 10.8127 29.8124 10.8127ZM36.275 3.6877H37.34V11.5777H36.275V3.6877ZM36.815 1.9627C36.595 1.9627 36.41 1.8877 36.26 1.7377C36.11 1.5877 36.035 1.4077 36.035 1.1977C36.035 0.997697 36.11 0.822697 36.26 0.672697C36.41 0.522697 36.595 0.447697 36.815 0.447697C37.035 0.447697 37.22 0.522697 37.37 0.672697C37.52 0.812697 37.595 0.982697 37.595 1.1827C37.595 1.4027 37.52 1.5877 37.37 1.7377C37.22 1.8877 37.035 1.9627 36.815 1.9627ZM40.3034 0.447697H41.3684V11.5777H40.3034V0.447697ZM6.27 52.6677C5.23 52.6677 4.29 52.4377 3.45 51.9777C2.62 51.5177 1.965 50.8827 1.485 50.0727C1.015 49.2527 0.78 48.3377 0.78 47.3277C0.78 46.3177 1.015 45.4077 1.485 44.5977C1.965 43.7777 2.625 43.1377 3.465 42.6777C4.305 42.2177 5.245 41.9877 6.285 41.9877C7.065 41.9877 7.785 42.1177 8.445 42.3777C9.105 42.6377 9.665 43.0177 10.125 43.5177L9.42 44.2227C8.6 43.3927 7.565 42.9777 6.315 42.9777C5.485 42.9777 4.73 43.1677 4.05 43.5477C3.37 43.9277 2.835 44.4477 2.445 45.1077C2.065 45.7677 1.875 46.5077 1.875 47.3277C1.875 48.1477 2.065 48.8877 2.445 49.5477C2.835 50.2077 3.37 50.7277 4.05 51.1077C4.73 51.4877 5.485 51.6777 6.315 51.6777C7.575 51.6777 8.61 51.2577 9.42 50.4177L10.125 51.1227C9.665 51.6227 9.1 52.0077 8.43 52.2777C7.77 52.5377 7.05 52.6677 6.27 52.6677ZM16.2863 44.6277C17.2763 44.6277 18.0613 44.9177 18.6413 45.4977C19.2313 46.0677 19.5263 46.9027 19.5263 48.0027V52.5777H18.4613V48.1077C18.4613 47.2877 18.2563 46.6627 17.8463 46.2327C17.4363 45.8027 16.8513 45.5877 16.0913 45.5877C15.2413 45.5877 14.5663 45.8427 14.0663 46.3527C13.5763 46.8527 13.3313 47.5477 13.3313 48.4377V52.5777H12.2663V41.4477H13.3313V46.0677C13.6213 45.6077 14.0213 45.2527 14.5312 45.0027C15.0413 44.7527 15.6263 44.6277 16.2863 44.6277ZM25.1776 44.6277C26.2076 44.6277 26.9976 44.8877 27.5476 45.4077C28.0976 45.9177 28.3726 46.6777 28.3726 47.6877V52.5777H27.3526V51.3477C27.1126 51.7577 26.7576 52.0777 26.2876 52.3077C25.8276 52.5377 25.2776 52.6527 24.6376 52.6527C23.7576 52.6527 23.0576 52.4427 22.5376 52.0227C22.0176 51.6027 21.7576 51.0477 21.7576 50.3577C21.7576 49.6877 21.9976 49.1477 22.4776 48.7377C22.9676 48.3277 23.7426 48.1227 24.8026 48.1227H27.3076V47.6427C27.3076 46.9627 27.1176 46.4477 26.7376 46.0977C26.3576 45.7377 25.8026 45.5577 25.0726 45.5577C24.5726 45.5577 24.0926 45.6427 23.6326 45.8127C23.1726 45.9727 22.7776 46.1977 22.4476 46.4877L21.9676 45.6927C22.3676 45.3527 22.8476 45.0927 23.4076 44.9127C23.9676 44.7227 24.5576 44.6277 25.1776 44.6277ZM24.8026 51.8127C25.4026 51.8127 25.9176 51.6777 26.3476 51.4077C26.7776 51.1277 27.0976 50.7277 27.3076 50.2077V48.9177H24.8326C23.4826 48.9177 22.8076 49.3877 22.8076 50.3277C22.8076 50.7877 22.9826 51.1527 23.3326 51.4227C23.6826 51.6827 24.1726 51.8127 24.8026 51.8127ZM35.4203 52.0977C35.2203 52.2777 34.9703 52.4177 34.6703 52.5177C34.3803 52.6077 34.0753 52.6527 33.7553 52.6527C33.0153 52.6527 32.4453 52.4527 32.0453 52.0527C31.6453 51.6527 31.4453 51.0877 31.4453 50.3577V45.5877H30.0353V44.6877H31.4453V42.9627H32.5103V44.6877H34.9103V45.5877H32.5103V50.2977C32.5103 50.7677 32.6253 51.1277 32.8553 51.3777C33.0953 51.6177 33.4353 51.7377 33.8753 51.7377C34.0953 51.7377 34.3053 51.7027 34.5053 51.6327C34.7153 51.5627 34.8953 51.4627 35.0453 51.3327L35.4203 52.0977ZM3.75 84.0377H0.06V83.0777H8.55V84.0377H4.86V93.5777H3.75V84.0377ZM12.503 93.6527C11.743 93.6527 11.058 93.4827 10.448 93.1427C9.83797 92.7927 9.35797 92.3127 9.00797 91.7027C8.65797 91.0927 8.48297 90.4027 8.48297 89.6327C8.48297 88.8627 8.65797 88.1727 9.00797 87.5627C9.35797 86.9527 9.83797 86.4777 10.448 86.1377C11.058 85.7977 11.743 85.6277 12.503 85.6277C13.263 85.6277 13.948 85.7977 14.558 86.1377C15.168 86.4777 15.643 86.9527 15.983 87.5627C16.333 88.1727 16.508 88.8627 16.508 89.6327C16.508 90.4027 16.333 91.0927 15.983 91.7027C15.643 92.3127 15.168 92.7927 14.558 93.1427C13.948 93.4827 13.263 93.6527 12.503 93.6527ZM12.503 92.7077C13.063 92.7077 13.563 92.5827 14.003 92.3327C14.453 92.0727 14.803 91.7077 15.053 91.2377C15.303 90.7677 15.428 90.2327 15.428 89.6327C15.428 89.0327 15.303 88.4977 15.053 88.0277C14.803 87.5577 14.453 87.1977 14.003 86.9477C13.563 86.6877 13.063 86.5577 12.503 86.5577C11.943 86.5577 11.438 86.6877 10.988 86.9477C10.548 87.1977 10.198 87.5577 9.93797 88.0277C9.68797 88.4977 9.56297 89.0327 9.56297 89.6327C9.56297 90.2327 9.68797 90.7677 9.93797 91.2377C10.198 91.7077 10.548 92.0727 10.988 92.3327C11.438 92.5827 11.943 92.7077 12.503 92.7077ZM25.8823 82.4477V93.5777H24.8623V92.0177C24.5423 92.5477 24.1173 92.9527 23.5873 93.2327C23.0673 93.5127 22.4773 93.6527 21.8173 93.6527C21.0773 93.6527 20.4073 93.4827 19.8073 93.1427C19.2073 92.8027 18.7373 92.3277 18.3973 91.7177C18.0573 91.1077 17.8873 90.4127 17.8873 89.6327C17.8873 88.8527 18.0573 88.1577 18.3973 87.5477C18.7373 86.9377 19.2073 86.4677 19.8073 86.1377C20.4073 85.7977 21.0773 85.6277 21.8173 85.6277C22.4573 85.6277 23.0323 85.7627 23.5423 86.0327C24.0623 86.2927 24.4873 86.6777 24.8173 87.1877V82.4477H25.8823ZM21.9073 92.7077C22.4573 92.7077 22.9523 92.5827 23.3923 92.3327C23.8423 92.0727 24.1923 91.7077 24.4423 91.2377C24.7023 90.7677 24.8323 90.2327 24.8323 89.6327C24.8323 89.0327 24.7023 88.4977 24.4423 88.0277C24.1923 87.5577 23.8423 87.1977 23.3923 86.9477C22.9523 86.6877 22.4573 86.5577 21.9073 86.5577C21.3473 86.5577 20.8423 86.6877 20.3923 86.9477C19.9523 87.1977 19.6023 87.5577 19.3423 88.0277C19.0923 88.4977 18.9673 89.0327 18.9673 89.6327C18.9673 90.2327 19.0923 90.7677 19.3423 91.2377C19.6023 91.7077 19.9523 92.0727 20.3923 92.3327C20.8423 92.5827 21.3473 92.7077 21.9073 92.7077ZM32.0733 93.6527C31.3133 93.6527 30.6283 93.4827 30.0183 93.1427C29.4083 92.7927 28.9283 92.3127 28.5783 91.7027C28.2283 91.0927 28.0533 90.4027 28.0533 89.6327C28.0533 88.8627 28.2283 88.1727 28.5783 87.5627C28.9283 86.9527 29.4083 86.4777 30.0183 86.1377C30.6283 85.7977 31.3133 85.6277 32.0733 85.6277C32.8333 85.6277 33.5183 85.7977 34.1283 86.1377C34.7383 86.4777 35.2133 86.9527 35.5533 87.5627C35.9033 88.1727 36.0783 88.8627 36.0783 89.6327C36.0783 90.4027 35.9033 91.0927 35.5533 91.7027C35.2133 92.3127 34.7383 92.7927 34.1283 93.1427C33.5183 93.4827 32.8333 93.6527 32.0733 93.6527ZM32.0733 92.7077C32.6333 92.7077 33.1333 92.5827 33.5733 92.3327C34.0233 92.0727 34.3733 91.7077 34.6233 91.2377C34.8733 90.7677 34.9983 90.2327 34.9983 89.6327C34.9983 89.0327 34.8733 88.4977 34.6233 88.0277C34.3733 87.5577 34.0233 87.1977 33.5733 86.9477C33.1333 86.6877 32.6333 86.5577 32.0733 86.5577C31.5133 86.5577 31.0083 86.6877 30.5583 86.9477C30.1183 87.1977 29.7683 87.5577 29.5083 88.0277C29.2583 88.4977 29.1333 89.0327 29.1333 89.6327C29.1333 90.2327 29.2583 90.7677 29.5083 91.2377C29.7683 91.7077 30.1183 92.0727 30.5583 92.3327C31.0083 92.5827 31.5133 92.7077 32.0733 92.7077ZM6.27 134.668C5.23 134.668 4.29 134.438 3.45 133.978C2.62 133.518 1.965 132.883 1.485 132.073C1.015 131.253 0.78 130.338 0.78 129.328C0.78 128.318 1.015 127.408 1.485 126.598C1.965 125.778 2.625 125.138 3.465 124.678C4.305 124.218 5.245 123.988 6.285 123.988C7.065 123.988 7.785 124.118 8.445 124.378C9.105 124.638 9.665 125.018 10.125 125.518L9.42 126.223C8.6 125.393 7.565 124.978 6.315 124.978C5.485 124.978 4.73 125.168 4.05 125.548C3.37 125.928 2.835 126.448 2.445 127.108C2.065 127.768 1.875 128.508 1.875 129.328C1.875 130.148 2.065 130.888 2.445 131.548C2.835 132.208 3.37 132.728 4.05 133.108C4.73 133.488 5.485 133.678 6.315 133.678C7.575 133.678 8.61 133.258 9.42 132.418L10.125 133.123C9.665 133.623 9.1 134.008 8.43 134.278C7.77 134.538 7.05 134.668 6.27 134.668ZM14.9091 126.628C15.9391 126.628 16.7291 126.888 17.2791 127.408C17.8291 127.918 18.1041 128.678 18.1041 129.688V134.578H17.0841V133.348C16.8441 133.758 16.4891 134.078 16.0191 134.308C15.5591 134.538 15.0091 134.653 14.3691 134.653C13.4891 134.653 12.7891 134.443 12.2691 134.023C11.7491 133.603 11.4891 133.048 11.4891 132.358C11.4891 131.688 11.7291 131.148 12.2091 130.738C12.6991 130.328 13.4741 130.123 14.5341 130.123H17.0391V129.643C17.0391 128.963 16.8491 128.448 16.4691 128.098C16.0891 127.738 15.5341 127.558 14.8041 127.558C14.3041 127.558 13.8241 127.643 13.3641 127.813C12.9041 127.973 12.5091 128.198 12.1791 128.488L11.6991 127.693C12.0991 127.353 12.5791 127.093 13.1391 126.913C13.6991 126.723 14.2891 126.628 14.9091 126.628ZM14.5341 133.813C15.1341 133.813 15.6491 133.678 16.0791 133.408C16.5091 133.128 16.8291 132.728 17.0391 132.208V130.918H14.5641C13.2141 130.918 12.5391 131.388 12.5391 132.328C12.5391 132.788 12.7141 133.153 13.0641 133.423C13.4141 133.683 13.9041 133.813 14.5341 133.813ZM20.9967 123.448H22.0617V134.578H20.9967V123.448ZM31.895 130.963H25.295C25.355 131.783 25.67 132.448 26.24 132.958C26.81 133.458 27.53 133.708 28.4 133.708C28.89 133.708 29.34 133.623 29.75 133.453C30.16 133.273 30.515 133.013 30.815 132.673L31.415 133.363C31.065 133.783 30.625 134.103 30.095 134.323C29.575 134.543 29 134.653 28.37 134.653C27.56 134.653 26.84 134.483 26.21 134.143C25.59 133.793 25.105 133.313 24.755 132.703C24.405 132.093 24.23 131.403 24.23 130.633C24.23 129.863 24.395 129.173 24.725 128.563C25.065 127.953 25.525 127.478 26.105 127.138C26.695 126.798 27.355 126.628 28.085 126.628C28.815 126.628 29.47 126.798 30.05 127.138C30.63 127.478 31.085 127.953 31.415 128.563C31.745 129.163 31.91 129.853 31.91 130.633L31.895 130.963ZM28.085 127.543C27.325 127.543 26.685 127.788 26.165 128.278C25.655 128.758 25.365 129.388 25.295 130.168H30.89C30.82 129.388 30.525 128.758 30.005 128.278C29.495 127.788 28.855 127.543 28.085 127.543ZM38.0978 126.628C39.0878 126.628 39.8728 126.918 40.4528 127.498C41.0428 128.068 41.3378 128.903 41.3378 130.003V134.578H40.2728V130.108C40.2728 129.288 40.0678 128.663 39.6578 128.233C39.2478 127.803 38.6628 127.588 37.9028 127.588C37.0528 127.588 36.3778 127.843 35.8778 128.353C35.3878 128.853 35.1428 129.548 35.1428 130.438V134.578H34.0778V126.688H35.0978V128.143C35.3878 127.663 35.7878 127.293 36.2978 127.033C36.8178 126.763 37.4178 126.628 38.0978 126.628ZM51.4584 123.448V134.578H50.4384V133.018C50.1184 133.548 49.6934 133.953 49.1634 134.233C48.6434 134.513 48.0534 134.653 47.3934 134.653C46.6534 134.653 45.9834 134.483 45.3834 134.143C44.7834 133.803 44.3134 133.328 43.9734 132.718C43.6334 132.108 43.4634 131.413 43.4634 130.633C43.4634 129.853 43.6334 129.158 43.9734 128.548C44.3134 127.938 44.7834 127.468 45.3834 127.138C45.9834 126.798 46.6534 126.628 47.3934 126.628C48.0334 126.628 48.6084 126.763 49.1184 127.033C49.6384 127.293 50.0634 127.678 50.3934 128.188V123.448H51.4584ZM47.4834 133.708C48.0334 133.708 48.5284 133.583 48.9684 133.333C49.4184 133.073 49.7684 132.708 50.0184 132.238C50.2784 131.768 50.4084 131.233 50.4084 130.633C50.4084 130.033 50.2784 129.498 50.0184 129.028C49.7684 128.558 49.4184 128.198 48.9684 127.948C48.5284 127.688 48.0334 127.558 47.4834 127.558C46.9234 127.558 46.4184 127.688 45.9684 127.948C45.5284 128.198 45.1784 128.558 44.9184 129.028C44.6684 129.498 44.5434 130.033 44.5434 130.633C44.5434 131.233 44.6684 131.768 44.9184 132.238C45.1784 132.708 45.5284 133.073 45.9684 133.333C46.4184 133.583 46.9234 133.708 47.4834 133.708ZM57.1845 126.628C58.2145 126.628 59.0045 126.888 59.5545 127.408C60.1045 127.918 60.3795 128.678 60.3795 129.688V134.578H59.3595V133.348C59.1195 133.758 58.7645 134.078 58.2945 134.308C57.8345 134.538 57.2845 134.653 56.6445 134.653C55.7645 134.653 55.0645 134.443 54.5445 134.023C54.0245 133.603 53.7645 133.048 53.7645 132.358C53.7645 131.688 54.0045 131.148 54.4845 130.738C54.9745 130.328 55.7495 130.123 56.8095 130.123H59.3145V129.643C59.3145 128.963 59.1245 128.448 58.7445 128.098C58.3645 127.738 57.8095 127.558 57.0795 127.558C56.5795 127.558 56.0995 127.643 55.6395 127.813C55.1795 127.973 54.7845 128.198 54.4545 128.488L53.9745 127.693C54.3745 127.353 54.8545 127.093 55.4145 126.913C55.9745 126.723 56.5645 126.628 57.1845 126.628ZM56.8095 133.813C57.4095 133.813 57.9245 133.678 58.3545 133.408C58.7845 133.128 59.1045 132.728 59.3145 132.208V130.918H56.8395C55.4895 130.918 54.8145 131.388 54.8145 132.328C54.8145 132.788 54.9895 133.153 55.3395 133.423C55.6895 133.683 56.1795 133.813 56.8095 133.813ZM64.2921 128.233C64.5421 127.703 64.9121 127.303 65.4021 127.033C65.9021 126.763 66.5171 126.628 67.2471 126.628V127.663L66.9921 127.648C66.1621 127.648 65.5121 127.903 65.0421 128.413C64.5721 128.923 64.3371 129.638 64.3371 130.558V134.578H63.2721V126.688H64.2921V128.233Z" fill="white"/>
</svg>
