<svg width="50" height="14" viewBox="0 0 50 14" fill="none" xmlns="http://www.w3.org/2000/svg">
<path d="M7.526 10.104V11H0.596V1.2H7.316V2.096H1.632V5.582H6.7V6.464H1.632V10.104H7.526ZM13.5032 3.58C14.4272 3.58 15.1599 3.85067 15.7012 4.392C16.2519 4.924 16.5272 5.70333 16.5272 6.73V11H15.5332V6.828C15.5332 6.06267 15.3419 5.47933 14.9592 5.078C14.5766 4.67667 14.0306 4.476 13.3212 4.476C12.5279 4.476 11.8979 4.714 11.4312 5.19C10.9739 5.65667 10.7452 6.30533 10.7452 7.136V11H9.75123V3.636H10.7032V4.994C10.9739 4.546 11.3472 4.20067 11.8232 3.958C12.3086 3.706 12.8686 3.58 13.5032 3.58ZM26.0712 3.636V10.104C26.0712 11.3547 25.7632 12.2787 25.1472 12.876C24.5405 13.4827 23.6212 13.786 22.3892 13.786C21.7079 13.786 21.0592 13.6833 20.4432 13.478C19.8365 13.282 19.3419 13.0067 18.9592 12.652L19.4632 11.896C19.8179 12.2133 20.2472 12.4607 20.7512 12.638C21.2645 12.8153 21.8012 12.904 22.3612 12.904C23.2945 12.904 23.9805 12.6847 24.4192 12.246C24.8579 11.8167 25.0772 11.1447 25.0772 10.23V9.292C24.7692 9.75867 24.3632 10.1133 23.8592 10.356C23.3645 10.5987 22.8139 10.72 22.2072 10.72C21.5165 10.72 20.8865 10.5707 20.3172 10.272C19.7572 9.964 19.3139 9.53933 18.9872 8.998C18.6699 8.44733 18.5112 7.82667 18.5112 7.136C18.5112 6.44533 18.6699 5.82933 18.9872 5.288C19.3139 4.74667 19.7572 4.32667 20.3172 4.028C20.8772 3.72933 21.5072 3.58 22.2072 3.58C22.8325 3.58 23.3972 3.706 23.9012 3.958C24.4052 4.21 24.8112 4.574 25.1192 5.05V3.636H26.0712ZM22.3052 9.838C22.8372 9.838 23.3179 9.726 23.7472 9.502C24.1765 9.26867 24.5079 8.94667 24.7412 8.536C24.9839 8.12533 25.1052 7.65867 25.1052 7.136C25.1052 6.61333 24.9839 6.15133 24.7412 5.75C24.5079 5.33933 24.1765 5.022 23.7472 4.798C23.3272 4.56467 22.8465 4.448 22.3052 4.448C21.7732 4.448 21.2925 4.56 20.8632 4.784C20.4432 5.008 20.1119 5.32533 19.8692 5.736C19.6359 6.14667 19.5192 6.61333 19.5192 7.136C19.5192 7.65867 19.6359 8.12533 19.8692 8.536C20.1119 8.94667 20.4432 9.26867 20.8632 9.502C21.2925 9.726 21.7732 9.838 22.3052 9.838ZM28.8508 0.611999H29.8448V11H28.8508V0.611999ZM32.6106 3.636H33.6046V11H32.6106V3.636ZM33.1146 2.026C32.9093 2.026 32.7366 1.956 32.5966 1.816C32.4566 1.676 32.3866 1.508 32.3866 1.312C32.3866 1.12533 32.4566 0.962 32.5966 0.821999C32.7366 0.681999 32.9093 0.611999 33.1146 0.611999C33.3199 0.611999 33.4926 0.681999 33.6326 0.821999C33.7726 0.952666 33.8426 1.11133 33.8426 1.298C33.8426 1.50333 33.7726 1.676 33.6326 1.816C33.4926 1.956 33.3199 2.026 33.1146 2.026ZM38.3444 11.07C37.747 11.07 37.173 10.986 36.6224 10.818C36.081 10.6407 35.6564 10.4213 35.3484 10.16L35.7964 9.376C36.1044 9.61867 36.4917 9.81933 36.9584 9.978C37.425 10.1273 37.9104 10.202 38.4144 10.202C39.0864 10.202 39.581 10.0993 39.8984 9.894C40.225 9.67933 40.3884 9.38067 40.3884 8.998C40.3884 8.72733 40.2997 8.51733 40.1224 8.368C39.945 8.20933 39.721 8.09267 39.4504 8.018C39.1797 7.934 38.8204 7.85467 38.3724 7.78C37.775 7.668 37.2944 7.556 36.9304 7.444C36.5664 7.32267 36.2537 7.122 35.9924 6.842C35.7404 6.562 35.6144 6.17467 35.6144 5.68C35.6144 5.064 35.871 4.56 36.3844 4.168C36.8977 3.776 37.6117 3.58 38.5264 3.58C39.0024 3.58 39.4784 3.64533 39.9544 3.776C40.4304 3.89733 40.8224 4.06067 41.1304 4.266L40.6964 5.064C40.0897 4.644 39.3664 4.434 38.5264 4.434C37.8917 4.434 37.411 4.546 37.0844 4.77C36.767 4.994 36.6084 5.288 36.6084 5.652C36.6084 5.932 36.697 6.156 36.8744 6.324C37.061 6.492 37.2897 6.618 37.5604 6.702C37.831 6.77667 38.2044 6.856 38.6804 6.94C39.2684 7.052 39.7397 7.164 40.0944 7.276C40.449 7.388 40.7524 7.57933 41.0044 7.85C41.2564 8.12067 41.3824 8.494 41.3824 8.97C41.3824 9.614 41.1117 10.1273 40.5704 10.51C40.0384 10.8833 39.2964 11.07 38.3444 11.07ZM46.972 3.58C47.896 3.58 48.6287 3.85067 49.17 4.392C49.7207 4.924 49.996 5.70333 49.996 6.73V11H49.002V6.828C49.002 6.06267 48.8107 5.47933 48.428 5.078C48.0453 4.67667 47.4993 4.476 46.79 4.476C45.9967 4.476 45.3667 4.714 44.9 5.19C44.4427 5.65667 44.214 6.30533 44.214 7.136V11H43.22V0.611999H44.214V4.924C44.4847 4.49467 44.858 4.16333 45.334 3.93C45.81 3.69667 46.356 3.58 46.972 3.58Z" fill="white"/>
</svg>
