<svg width="90" height="11" viewBox="0 0 90 11" fill="none" xmlns="http://www.w3.org/2000/svg">
<path d="M7.526 9.14923V10.0452H0.596V0.245226H7.316V1.14123H1.632V4.62723H6.7V5.50923H1.632V9.14923H7.526ZM15.9842 10.0452L12.8202 5.73323L9.67019 10.0452H8.48019L12.2042 5.00523L8.71819 0.245226H9.90819L12.8622 4.24923L15.8022 0.245226H16.9222L13.4502 4.97723L17.1882 10.0452H15.9842ZM20.5059 1.14123H17.0619V0.245226H24.9859V1.14123H21.5419V10.0452H20.5059V1.14123ZM33.5709 9.14923V10.0452H26.6409V0.245226H33.3609V1.14123H27.6769V4.62723H32.7449V5.50923H27.6769V9.14923H33.5709ZM44.1962 0.245226V10.0452H43.3422L37.0422 2.09323V10.0452H36.0062V0.245226H36.8602L43.1742 8.19723V0.245226H44.1962ZM50.0968 10.1292C49.3688 10.1292 48.6688 10.0126 47.9968 9.77923C47.3342 9.54589 46.8208 9.23789 46.4568 8.85523L46.8628 8.05723C47.2175 8.41189 47.6888 8.70123 48.2768 8.92523C48.8648 9.13989 49.4715 9.24723 50.0968 9.24723C50.9742 9.24723 51.6322 9.08856 52.0708 8.77123C52.5095 8.44456 52.7288 8.02456 52.7288 7.51123C52.7288 7.11923 52.6075 6.80656 52.3648 6.57323C52.1315 6.33989 51.8422 6.16256 51.4968 6.04123C51.1515 5.91056 50.6708 5.77056 50.0548 5.62123C49.3175 5.43456 48.7295 5.25723 48.2908 5.08923C47.8522 4.91189 47.4742 4.64589 47.1568 4.29123C46.8488 3.93656 46.6948 3.45589 46.6948 2.84923C46.6948 2.35456 46.8255 1.90656 47.0868 1.50523C47.3482 1.09456 47.7495 0.767893 48.2908 0.525227C48.8322 0.28256 49.5042 0.161227 50.3068 0.161227C50.8668 0.161227 51.4128 0.24056 51.9448 0.399227C52.4862 0.54856 52.9528 0.75856 53.3448 1.02923L52.9948 1.85523C52.5842 1.58456 52.1455 1.38389 51.6788 1.25323C51.2122 1.11323 50.7548 1.04323 50.3068 1.04323C49.4482 1.04323 48.7995 1.21123 48.3608 1.54723C47.9315 1.87389 47.7168 2.29856 47.7168 2.82123C47.7168 3.21323 47.8335 3.53056 48.0668 3.77323C48.3095 4.00656 48.6082 4.18856 48.9628 4.31923C49.3268 4.44056 49.8122 4.57589 50.4188 4.72523C51.1375 4.90256 51.7162 5.07989 52.1548 5.25723C52.6028 5.42523 52.9808 5.68656 53.2888 6.04123C53.5968 6.38656 53.7508 6.85789 53.7508 7.45523C53.7508 7.94989 53.6155 8.40256 53.3448 8.81323C53.0835 9.21456 52.6775 9.53656 52.1268 9.77923C51.5762 10.0126 50.8995 10.1292 50.0968 10.1292ZM56.0081 0.245226H57.0441V10.0452H56.0081V0.245226ZM64.5167 10.1292C63.5461 10.1292 62.6641 9.91456 61.8707 9.48523C61.0867 9.04656 60.4707 8.44923 60.0227 7.69323C59.5841 6.93723 59.3647 6.08789 59.3647 5.14523C59.3647 4.20256 59.5841 3.35323 60.0227 2.59723C60.4707 1.84123 61.0867 1.24856 61.8707 0.819227C62.6641 0.38056 63.5461 0.161227 64.5167 0.161227C65.4874 0.161227 66.3601 0.375893 67.1347 0.805227C67.9187 1.23456 68.5347 1.83189 68.9827 2.59723C69.4307 3.35323 69.6547 4.20256 69.6547 5.14523C69.6547 6.08789 69.4307 6.94189 68.9827 7.70723C68.5347 8.46323 67.9187 9.05589 67.1347 9.48523C66.3601 9.91456 65.4874 10.1292 64.5167 10.1292ZM64.5167 9.20523C65.2914 9.20523 65.9914 9.03256 66.6167 8.68723C67.2421 8.33256 67.7321 7.84723 68.0867 7.23123C68.4414 6.60589 68.6187 5.91056 68.6187 5.14523C68.6187 4.37989 68.4414 3.68923 68.0867 3.07323C67.7321 2.44789 67.2421 1.96256 66.6167 1.61723C65.9914 1.26256 65.2914 1.08523 64.5167 1.08523C63.7421 1.08523 63.0374 1.26256 62.4027 1.61723C61.7774 1.96256 61.2827 2.44789 60.9187 3.07323C60.5641 3.68923 60.3867 4.37989 60.3867 5.14523C60.3867 5.91056 60.5641 6.60589 60.9187 7.23123C61.2827 7.84723 61.7774 8.33256 62.4027 8.68723C63.0374 9.03256 63.7421 9.20523 64.5167 9.20523ZM80.1669 0.245226V10.0452H79.3129L73.0129 2.09323V10.0452H71.9769V0.245226H72.8309L79.1449 8.19723V0.245226H80.1669ZM86.0675 10.1292C85.3395 10.1292 84.6395 10.0126 83.9675 9.77923C83.3049 9.54589 82.7915 9.23789 82.4275 8.85523L82.8335 8.05723C83.1882 8.41189 83.6595 8.70123 84.2475 8.92523C84.8355 9.13989 85.4422 9.24723 86.0675 9.24723C86.9449 9.24723 87.6029 9.08856 88.0415 8.77123C88.4802 8.44456 88.6995 8.02456 88.6995 7.51123C88.6995 7.11923 88.5782 6.80656 88.3355 6.57323C88.1022 6.33989 87.8129 6.16256 87.4675 6.04123C87.1222 5.91056 86.6415 5.77056 86.0255 5.62123C85.2882 5.43456 84.7002 5.25723 84.2615 5.08923C83.8229 4.91189 83.4449 4.64589 83.1275 4.29123C82.8195 3.93656 82.6655 3.45589 82.6655 2.84923C82.6655 2.35456 82.7962 1.90656 83.0575 1.50523C83.3189 1.09456 83.7202 0.767893 84.2615 0.525227C84.8029 0.28256 85.4749 0.161227 86.2775 0.161227C86.8375 0.161227 87.3835 0.24056 87.9155 0.399227C88.4569 0.54856 88.9235 0.75856 89.3155 1.02923L88.9655 1.85523C88.5549 1.58456 88.1162 1.38389 87.6495 1.25323C87.1829 1.11323 86.7255 1.04323 86.2775 1.04323C85.4189 1.04323 84.7702 1.21123 84.3315 1.54723C83.9022 1.87389 83.6875 2.29856 83.6875 2.82123C83.6875 3.21323 83.8042 3.53056 84.0375 3.77323C84.2802 4.00656 84.5789 4.18856 84.9335 4.31923C85.2975 4.44056 85.7829 4.57589 86.3895 4.72523C87.1082 4.90256 87.6869 5.07989 88.1255 5.25723C88.5735 5.42523 88.9515 5.68656 89.2595 6.04123C89.5675 6.38656 89.7215 6.85789 89.7215 7.45523C89.7215 7.94989 89.5862 8.40256 89.3155 8.81323C89.0542 9.21456 88.6482 9.53656 88.0975 9.77923C87.5469 10.0126 86.8702 10.1292 86.0675 10.1292Z" fill="#999999"/>
</svg>
