<svg width="43" height="47" viewBox="0 0 43 47" fill="none" xmlns="http://www.w3.org/2000/svg">
<path d="M2.632 1.18926V5.03926H7.7V5.93526H2.632V10.0933H1.596V0.293261H8.316V1.18926H2.632ZM14.6163 10.1773C13.6457 10.1773 12.7637 9.9626 11.9703 9.53326C11.1863 9.09459 10.5703 8.49726 10.1223 7.74126C9.68366 6.98526 9.46433 6.13593 9.46433 5.19326C9.46433 4.25059 9.68366 3.40126 10.1223 2.64526C10.5703 1.88926 11.1863 1.29659 11.9703 0.867261C12.7637 0.428595 13.6457 0.209261 14.6163 0.209261C15.587 0.209261 16.4597 0.423928 17.2343 0.853261C18.0183 1.28259 18.6343 1.87993 19.0823 2.64526C19.5303 3.40126 19.7543 4.25059 19.7543 5.19326C19.7543 6.13593 19.5303 6.98993 19.0823 7.75526C18.6343 8.51126 18.0183 9.10393 17.2343 9.53326C16.4597 9.9626 15.587 10.1773 14.6163 10.1773ZM14.6163 9.25326C15.391 9.25326 16.091 9.0806 16.7163 8.73526C17.3417 8.38059 17.8317 7.89526 18.1863 7.27926C18.541 6.65393 18.7183 5.95859 18.7183 5.19326C18.7183 4.42793 18.541 3.73726 18.1863 3.12126C17.8317 2.49593 17.3417 2.01059 16.7163 1.66526C16.091 1.31059 15.391 1.13326 14.6163 1.13326C13.8417 1.13326 13.137 1.31059 12.5023 1.66526C11.877 2.01059 11.3823 2.49593 11.0183 3.12126C10.6637 3.73726 10.4863 4.42793 10.4863 5.19326C10.4863 5.95859 10.6637 6.65393 11.0183 7.27926C11.3823 7.89526 11.877 8.38059 12.5023 8.73526C13.137 9.0806 13.8417 9.25326 14.6163 9.25326ZM28.7685 10.0933L26.5285 6.94326C26.2765 6.97126 26.0151 6.98526 25.7445 6.98526H23.1125V10.0933H22.0765V0.293261H25.7445C26.9951 0.293261 27.9751 0.591928 28.6845 1.18926C29.3938 1.78659 29.7485 2.60793 29.7485 3.65326C29.7485 4.41859 29.5525 5.06726 29.1605 5.59926C28.7778 6.12193 28.2271 6.49993 27.5085 6.73326L29.9025 10.0933H28.7685ZM25.7165 6.10326C26.6871 6.10326 27.4291 5.88859 27.9425 5.45926C28.4558 5.02993 28.7125 4.42793 28.7125 3.65326C28.7125 2.85993 28.4558 2.25326 27.9425 1.83326C27.4291 1.40393 26.6871 1.18926 25.7165 1.18926H23.1125V6.10326H25.7165ZM42.3717 0.293261V10.0933H41.3777V2.25326L37.5277 8.84726H37.0377L33.1877 2.29526V10.0933H32.1937V0.293261H33.0477L37.3037 7.55926L41.5177 0.293261H42.3717ZM4.298 46.1773C3.57 46.1773 2.87 46.0606 2.198 45.8273C1.53533 45.5939 1.022 45.2859 0.658 44.9033L1.064 44.1053C1.41867 44.4599 1.89 44.7493 2.478 44.9733C3.066 45.1879 3.67267 45.2953 4.298 45.2953C5.17533 45.2953 5.83333 45.1366 6.272 44.8193C6.71067 44.4926 6.93 44.0726 6.93 43.5593C6.93 43.1673 6.80867 42.8546 6.566 42.6213C6.33267 42.3879 6.04333 42.2106 5.698 42.0893C5.35267 41.9586 4.872 41.8186 4.256 41.6693C3.51867 41.4826 2.93067 41.3053 2.492 41.1373C2.05333 40.9599 1.67533 40.6939 1.358 40.3393C1.05 39.9846 0.896 39.5039 0.896 38.8973C0.896 38.4026 1.02667 37.9546 1.288 37.5533C1.54933 37.1426 1.95067 36.8159 2.492 36.5733C3.03333 36.3306 3.70533 36.2093 4.508 36.2093C5.068 36.2093 5.614 36.2886 6.146 36.4473C6.68733 36.5966 7.154 36.8066 7.546 37.0773L7.196 37.9033C6.78533 37.6326 6.34667 37.4319 5.88 37.3013C5.41333 37.1613 4.956 37.0913 4.508 37.0913C3.64933 37.0913 3.00067 37.2593 2.562 37.5953C2.13267 37.9219 1.918 38.3466 1.918 38.8693C1.918 39.2613 2.03467 39.5786 2.268 39.8213C2.51067 40.0546 2.80933 40.2366 3.164 40.3673C3.528 40.4886 4.01333 40.6239 4.62 40.7733C5.33867 40.9506 5.91733 41.1279 6.356 41.3053C6.804 41.4733 7.182 41.7346 7.49 42.0893C7.798 42.4346 7.952 42.9059 7.952 43.5033C7.952 43.9979 7.81667 44.4506 7.546 44.8613C7.28467 45.2626 6.87867 45.5846 6.328 45.8273C5.77733 46.0606 5.10067 46.1773 4.298 46.1773Z" fill="#999999"/>
</svg>
