<svg width="118" height="135" viewBox="0 0 118 135" fill="none" xmlns="http://www.w3.org/2000/svg">
<path d="M1.82 2.03773V6.16273H7.25V7.12273H1.82V11.5777H0.71V1.07773H7.91V2.03773H1.82ZM12.9385 11.6527C12.1785 11.6527 11.4935 11.4827 10.8835 11.1427C10.2735 10.7927 9.79352 10.3127 9.44352 9.70273C9.09352 9.09273 8.91852 8.40273 8.91852 7.63273C8.91852 6.86273 9.09352 6.17273 9.44352 5.56273C9.79352 4.95273 10.2735 4.47773 10.8835 4.13773C11.4935 3.79773 12.1785 3.62773 12.9385 3.62773C13.6985 3.62773 14.3835 3.79773 14.9935 4.13773C15.6035 4.47773 16.0785 4.95273 16.4185 5.56273C16.7685 6.17273 16.9435 6.86273 16.9435 7.63273C16.9435 8.40273 16.7685 9.09273 16.4185 9.70273C16.0785 10.3127 15.6035 10.7927 14.9935 11.1427C14.3835 11.4827 13.6985 11.6527 12.9385 11.6527ZM12.9385 10.7077C13.4985 10.7077 13.9985 10.5827 14.4385 10.3327C14.8885 10.0727 15.2385 9.70773 15.4885 9.23773C15.7385 8.76773 15.8635 8.23273 15.8635 7.63273C15.8635 7.03273 15.7385 6.49773 15.4885 6.02773C15.2385 5.55773 14.8885 5.19773 14.4385 4.94773C13.9985 4.68773 13.4985 4.55773 12.9385 4.55773C12.3785 4.55773 11.8735 4.68773 11.4235 4.94773C10.9835 5.19773 10.6335 5.55773 10.3735 6.02773C10.1235 6.49773 9.99852 7.03273 9.99852 7.63273C9.99852 8.23273 10.1235 8.76773 10.3735 9.23773C10.6335 9.70773 10.9835 10.0727 11.4235 10.3327C11.8735 10.5827 12.3785 10.7077 12.9385 10.7077ZM20.1378 5.23273C20.3878 4.70273 20.7578 4.30273 21.2478 4.03273C21.7478 3.76273 22.3628 3.62773 23.0928 3.62773V4.66273L22.8378 4.64773C22.0078 4.64773 21.3578 4.90273 20.8878 5.41273C20.4178 5.92273 20.1828 6.63773 20.1828 7.55773V11.5777H19.1178V3.68773H20.1378V5.23273ZM34.8611 3.62773C35.8511 3.62773 36.6261 3.91273 37.1861 4.48273C37.7561 5.05273 38.0411 5.89273 38.0411 7.00273V11.5777H36.9761V7.10773C36.9761 6.28773 36.7761 5.66273 36.3761 5.23273C35.9861 4.80273 35.4311 4.58773 34.7111 4.58773C33.8911 4.58773 33.2461 4.84273 32.7761 5.35273C32.3061 5.85273 32.0711 6.54773 32.0711 7.43773V11.5777H31.0061V7.10773C31.0061 6.28773 30.8061 5.66273 30.4061 5.23273C30.0161 4.80273 29.4561 4.58773 28.7261 4.58773C27.9161 4.58773 27.2711 4.84273 26.7911 5.35273C26.3211 5.85273 26.0861 6.54773 26.0861 7.43773V11.5777H25.0211V3.68773H26.0411V5.12773C26.3211 4.64773 26.7111 4.27773 27.2111 4.01773C27.7111 3.75773 28.2861 3.62773 28.9361 3.62773C29.5961 3.62773 30.1661 3.76773 30.6461 4.04773C31.1361 4.32773 31.5011 4.74273 31.7411 5.29273C32.0311 4.77273 32.4461 4.36773 32.9861 4.07773C33.5361 3.77773 34.1611 3.62773 34.8611 3.62773ZM52.5051 10.6177V11.5777H45.0801V1.07773H52.2801V2.03773H46.1901V5.77273H51.6201V6.71773H46.1901V10.6177H52.5051ZM54.8893 0.447728H55.9543V11.5777H54.8893V0.447728ZM65.7876 7.96273H59.1876C59.2476 8.78273 59.5626 9.44773 60.1326 9.95773C60.7026 10.4577 61.4226 10.7077 62.2926 10.7077C62.7826 10.7077 63.2326 10.6227 63.6426 10.4527C64.0526 10.2727 64.4076 10.0127 64.7076 9.67273L65.3076 10.3627C64.9576 10.7827 64.5176 11.1027 63.9876 11.3227C63.4676 11.5427 62.8926 11.6527 62.2626 11.6527C61.4526 11.6527 60.7326 11.4827 60.1026 11.1427C59.4826 10.7927 58.9976 10.3127 58.6476 9.70273C58.2976 9.09273 58.1226 8.40273 58.1226 7.63273C58.1226 6.86273 58.2876 6.17273 58.6176 5.56273C58.9576 4.95273 59.4176 4.47773 59.9976 4.13773C60.5876 3.79773 61.2476 3.62773 61.9776 3.62773C62.7076 3.62773 63.3626 3.79773 63.9426 4.13773C64.5226 4.47773 64.9776 4.95273 65.3076 5.56273C65.6376 6.16273 65.8026 6.85273 65.8026 7.63273L65.7876 7.96273ZM61.9776 4.54273C61.2176 4.54273 60.5776 4.78773 60.0576 5.27773C59.5476 5.75773 59.2576 6.38773 59.1876 7.16773H64.7826C64.7126 6.38773 64.4176 5.75773 63.8976 5.27773C63.3876 4.78773 62.7476 4.54273 61.9776 4.54273ZM77.8104 3.62773C78.8004 3.62773 79.5754 3.91273 80.1354 4.48273C80.7054 5.05273 80.9904 5.89273 80.9904 7.00273V11.5777H79.9254V7.10773C79.9254 6.28773 79.7254 5.66273 79.3254 5.23273C78.9354 4.80273 78.3804 4.58773 77.6604 4.58773C76.8404 4.58773 76.1954 4.84273 75.7254 5.35273C75.2554 5.85273 75.0204 6.54773 75.0204 7.43773V11.5777H73.9554V7.10773C73.9554 6.28773 73.7554 5.66273 73.3554 5.23273C72.9654 4.80273 72.4054 4.58773 71.6754 4.58773C70.8654 4.58773 70.2204 4.84273 69.7404 5.35273C69.2704 5.85273 69.0354 6.54773 69.0354 7.43773V11.5777H67.9704V3.68773H68.9904V5.12773C69.2704 4.64773 69.6604 4.27773 70.1604 4.01773C70.6604 3.75773 71.2354 3.62773 71.8854 3.62773C72.5454 3.62773 73.1154 3.76773 73.5954 4.04773C74.0854 4.32773 74.4504 4.74273 74.6904 5.29273C74.9804 4.77273 75.3954 4.36773 75.9354 4.07773C76.4854 3.77773 77.1104 3.62773 77.8104 3.62773ZM90.7779 7.96273H84.1779C84.2379 8.78273 84.5529 9.44773 85.1229 9.95773C85.6929 10.4577 86.4129 10.7077 87.2829 10.7077C87.7729 10.7077 88.2229 10.6227 88.6329 10.4527C89.0429 10.2727 89.3979 10.0127 89.6979 9.67273L90.2979 10.3627C89.9479 10.7827 89.5079 11.1027 88.9779 11.3227C88.4579 11.5427 87.8829 11.6527 87.2529 11.6527C86.4429 11.6527 85.7229 11.4827 85.0929 11.1427C84.4729 10.7927 83.9879 10.3127 83.6379 9.70273C83.2879 9.09273 83.1129 8.40273 83.1129 7.63273C83.1129 6.86273 83.2779 6.17273 83.6079 5.56273C83.9479 4.95273 84.4079 4.47773 84.9879 4.13773C85.5779 3.79773 86.2379 3.62773 86.9679 3.62773C87.6979 3.62773 88.3529 3.79773 88.9329 4.13773C89.5129 4.47773 89.9679 4.95273 90.2979 5.56273C90.6279 6.16273 90.7929 6.85273 90.7929 7.63273L90.7779 7.96273ZM86.9679 4.54273C86.2079 4.54273 85.5679 4.78773 85.0479 5.27773C84.5379 5.75773 84.2479 6.38773 84.1779 7.16773H89.7729C89.7029 6.38773 89.4079 5.75773 88.8879 5.27773C88.3779 4.78773 87.7379 4.54273 86.9679 4.54273ZM96.9806 3.62773C97.9706 3.62773 98.7556 3.91773 99.3356 4.49773C99.9256 5.06773 100.221 5.90273 100.221 7.00273V11.5777H99.1556V7.10773C99.1556 6.28773 98.9506 5.66273 98.5406 5.23273C98.1306 4.80273 97.5456 4.58773 96.7856 4.58773C95.9356 4.58773 95.2606 4.84273 94.7606 5.35273C94.2706 5.85273 94.0256 6.54773 94.0256 7.43773V11.5777H92.9606V3.68773H93.9806V5.14273C94.2706 4.66273 94.6706 4.29273 95.1806 4.03273C95.7006 3.76273 96.3006 3.62773 96.9806 3.62773ZM107.267 11.0977C107.067 11.2777 106.817 11.4177 106.517 11.5177C106.227 11.6077 105.922 11.6527 105.602 11.6527C104.862 11.6527 104.292 11.4527 103.892 11.0527C103.492 10.6527 103.292 10.0877 103.292 9.35773V4.58773H101.882V3.68773H103.292V1.96273H104.357V3.68773H106.757V4.58773H104.357V9.29773C104.357 9.76773 104.472 10.1277 104.702 10.3777C104.942 10.6177 105.282 10.7377 105.722 10.7377C105.942 10.7377 106.152 10.7027 106.352 10.6327C106.562 10.5627 106.742 10.4627 106.892 10.3327L107.267 11.0977ZM111.321 11.6527C110.681 11.6527 110.066 11.5627 109.476 11.3827C108.896 11.1927 108.441 10.9577 108.111 10.6777L108.591 9.83773C108.921 10.0977 109.336 10.3127 109.836 10.4827C110.336 10.6427 110.856 10.7227 111.396 10.7227C112.116 10.7227 112.646 10.6127 112.986 10.3927C113.336 10.1627 113.511 9.84273 113.511 9.43273C113.511 9.14273 113.416 8.91773 113.226 8.75773C113.036 8.58773 112.796 8.46273 112.506 8.38273C112.216 8.29273 111.831 8.20773 111.351 8.12773C110.711 8.00773 110.196 7.88773 109.806 7.76773C109.416 7.63773 109.081 7.42273 108.801 7.12273C108.531 6.82273 108.396 6.40773 108.396 5.87773C108.396 5.21773 108.671 4.67773 109.221 4.25773C109.771 3.83773 110.536 3.62773 111.516 3.62773C112.026 3.62773 112.536 3.69773 113.046 3.83773C113.556 3.96773 113.976 4.14273 114.306 4.36273L113.841 5.21773C113.191 4.76773 112.416 4.54273 111.516 4.54273C110.836 4.54273 110.321 4.66273 109.971 4.90273C109.631 5.14273 109.461 5.45773 109.461 5.84773C109.461 6.14773 109.556 6.38773 109.746 6.56773C109.946 6.74773 110.191 6.88273 110.481 6.97273C110.771 7.05273 111.171 7.13773 111.681 7.22773C112.311 7.34773 112.816 7.46773 113.196 7.58773C113.576 7.70773 113.901 7.91273 114.171 8.20273C114.441 8.49273 114.576 8.89273 114.576 9.40273C114.576 10.0927 114.286 10.6427 113.706 11.0527C113.136 11.4527 112.341 11.6527 111.321 11.6527ZM1.82 43.0377V47.1627H7.25V48.1227H1.82V52.5777H0.71V42.0777H7.91V43.0377H1.82ZM12.9385 52.6527C12.1785 52.6527 11.4935 52.4827 10.8835 52.1427C10.2735 51.7927 9.79352 51.3127 9.44352 50.7027C9.09352 50.0927 8.91852 49.4027 8.91852 48.6327C8.91852 47.8627 9.09352 47.1727 9.44352 46.5627C9.79352 45.9527 10.2735 45.4777 10.8835 45.1377C11.4935 44.7977 12.1785 44.6277 12.9385 44.6277C13.6985 44.6277 14.3835 44.7977 14.9935 45.1377C15.6035 45.4777 16.0785 45.9527 16.4185 46.5627C16.7685 47.1727 16.9435 47.8627 16.9435 48.6327C16.9435 49.4027 16.7685 50.0927 16.4185 50.7027C16.0785 51.3127 15.6035 51.7927 14.9935 52.1427C14.3835 52.4827 13.6985 52.6527 12.9385 52.6527ZM12.9385 51.7077C13.4985 51.7077 13.9985 51.5827 14.4385 51.3327C14.8885 51.0727 15.2385 50.7077 15.4885 50.2377C15.7385 49.7677 15.8635 49.2327 15.8635 48.6327C15.8635 48.0327 15.7385 47.4977 15.4885 47.0277C15.2385 46.5577 14.8885 46.1977 14.4385 45.9477C13.9985 45.6877 13.4985 45.5577 12.9385 45.5577C12.3785 45.5577 11.8735 45.6877 11.4235 45.9477C10.9835 46.1977 10.6335 46.5577 10.3735 47.0277C10.1235 47.4977 9.99852 48.0327 9.99852 48.6327C9.99852 49.2327 10.1235 49.7677 10.3735 50.2377C10.6335 50.7077 10.9835 51.0727 11.4235 51.3327C11.8735 51.5827 12.3785 51.7077 12.9385 51.7077ZM20.1378 46.2327C20.3878 45.7027 20.7578 45.3027 21.2478 45.0327C21.7478 44.7627 22.3628 44.6277 23.0928 44.6277V45.6627L22.8378 45.6477C22.0078 45.6477 21.3578 45.9027 20.8878 46.4127C20.4178 46.9227 20.1828 47.6377 20.1828 48.5577V52.5777H19.1178V44.6877H20.1378V46.2327ZM34.8611 44.6277C35.8511 44.6277 36.6261 44.9127 37.1861 45.4827C37.7561 46.0527 38.0411 46.8927 38.0411 48.0027V52.5777H36.9761V48.1077C36.9761 47.2877 36.7761 46.6627 36.3761 46.2327C35.9861 45.8027 35.4311 45.5877 34.7111 45.5877C33.8911 45.5877 33.2461 45.8427 32.7761 46.3527C32.3061 46.8527 32.0711 47.5477 32.0711 48.4377V52.5777H31.0061V48.1077C31.0061 47.2877 30.8061 46.6627 30.4061 46.2327C30.0161 45.8027 29.4561 45.5877 28.7261 45.5877C27.9161 45.5877 27.2711 45.8427 26.7911 46.3527C26.3211 46.8527 26.0861 47.5477 26.0861 48.4377V52.5777H25.0211V44.6877H26.0411V46.1277C26.3211 45.6477 26.7111 45.2777 27.2111 45.0177C27.7111 44.7577 28.2861 44.6277 28.9361 44.6277C29.5961 44.6277 30.1661 44.7677 30.6461 45.0477C31.1361 45.3277 31.5011 45.7427 31.7411 46.2927C32.0311 45.7727 32.4461 45.3677 32.9861 45.0777C33.5361 44.7777 34.1611 44.6277 34.8611 44.6277ZM45.0801 42.0777H46.1901V51.6177H52.0701V52.5777H45.0801V42.0777ZM56.4774 44.6277C57.5074 44.6277 58.2974 44.8877 58.8474 45.4077C59.3974 45.9177 59.6724 46.6777 59.6724 47.6877V52.5777H58.6524V51.3477C58.4124 51.7577 58.0574 52.0777 57.5874 52.3077C57.1274 52.5377 56.5774 52.6527 55.9374 52.6527C55.0574 52.6527 54.3574 52.4427 53.8374 52.0227C53.3174 51.6027 53.0574 51.0477 53.0574 50.3577C53.0574 49.6877 53.2974 49.1477 53.7774 48.7377C54.2674 48.3277 55.0424 48.1227 56.1024 48.1227H58.6074V47.6427C58.6074 46.9627 58.4174 46.4477 58.0374 46.0977C57.6574 45.7377 57.1024 45.5577 56.3724 45.5577C55.8724 45.5577 55.3924 45.6427 54.9324 45.8127C54.4724 45.9727 54.0774 46.1977 53.7474 46.4877L53.2674 45.6927C53.6674 45.3527 54.1474 45.0927 54.7074 44.9127C55.2674 44.7227 55.8574 44.6277 56.4774 44.6277ZM56.1024 51.8127C56.7024 51.8127 57.2174 51.6777 57.6474 51.4077C58.0774 51.1277 58.3974 50.7277 58.6074 50.2077V48.9177H56.1324C54.7824 48.9177 54.1074 49.3877 54.1074 50.3277C54.1074 50.7877 54.2824 51.1527 54.6324 51.4227C54.9824 51.6827 55.4724 51.8127 56.1024 51.8127ZM69.0486 44.6877L65.1036 53.5227C64.7836 54.2627 64.4136 54.7877 63.9936 55.0977C63.5736 55.4077 63.0686 55.5627 62.4786 55.5627C62.0986 55.5627 61.7436 55.5027 61.4136 55.3827C61.0836 55.2627 60.7986 55.0827 60.5586 54.8427L61.0536 54.0477C61.4536 54.4477 61.9336 54.6477 62.4936 54.6477C62.8536 54.6477 63.1586 54.5477 63.4086 54.3477C63.6686 54.1477 63.9086 53.8077 64.1286 53.3277L64.4736 52.5627L60.9486 44.6877H62.0586L65.0286 51.3927L67.9986 44.6877H69.0486ZM73.5538 52.6527C72.7938 52.6527 72.1088 52.4827 71.4988 52.1427C70.8888 51.7927 70.4088 51.3127 70.0588 50.7027C69.7088 50.0927 69.5338 49.4027 69.5338 48.6327C69.5338 47.8627 69.7088 47.1727 70.0588 46.5627C70.4088 45.9527 70.8888 45.4777 71.4988 45.1377C72.1088 44.7977 72.7938 44.6277 73.5538 44.6277C74.3138 44.6277 74.9988 44.7977 75.6088 45.1377C76.2188 45.4777 76.6938 45.9527 77.0338 46.5627C77.3838 47.1727 77.5588 47.8627 77.5588 48.6327C77.5588 49.4027 77.3838 50.0927 77.0338 50.7027C76.6938 51.3127 76.2188 51.7927 75.6088 52.1427C74.9988 52.4827 74.3138 52.6527 73.5538 52.6527ZM73.5538 51.7077C74.1138 51.7077 74.6138 51.5827 75.0538 51.3327C75.5038 51.0727 75.8538 50.7077 76.1038 50.2377C76.3538 49.7677 76.4788 49.2327 76.4788 48.6327C76.4788 48.0327 76.3538 47.4977 76.1038 47.0277C75.8538 46.5577 75.5038 46.1977 75.0538 45.9477C74.6138 45.6877 74.1138 45.5577 73.5538 45.5577C72.9938 45.5577 72.4888 45.6877 72.0388 45.9477C71.5988 46.1977 71.2488 46.5577 70.9888 47.0277C70.7388 47.4977 70.6138 48.0327 70.6138 48.6327C70.6138 49.2327 70.7388 49.7677 70.9888 50.2377C71.2488 50.7077 71.5988 51.0727 72.0388 51.3327C72.4888 51.5827 72.9938 51.7077 73.5538 51.7077ZM86.843 44.6877V52.5777H85.823V51.1377C85.543 51.6177 85.158 51.9927 84.668 52.2627C84.178 52.5227 83.618 52.6527 82.988 52.6527C81.958 52.6527 81.143 52.3677 80.543 51.7977C79.953 51.2177 79.658 50.3727 79.658 49.2627V44.6877H80.723V49.1577C80.723 49.9877 80.928 50.6177 81.338 51.0477C81.748 51.4777 82.333 51.6927 83.093 51.6927C83.923 51.6927 84.578 51.4427 85.058 50.9427C85.538 50.4327 85.778 49.7277 85.778 48.8277V44.6877H86.843ZM93.9808 52.0977C93.7808 52.2777 93.5308 52.4177 93.2308 52.5177C92.9408 52.6077 92.6358 52.6527 92.3158 52.6527C91.5758 52.6527 91.0058 52.4527 90.6058 52.0527C90.2058 51.6527 90.0058 51.0877 90.0058 50.3577V45.5877H88.5958V44.6877H90.0058V42.9627H91.0708V44.6877H93.4708V45.5877H91.0708V50.2977C91.0708 50.7677 91.1858 51.1277 91.4158 51.3777C91.6558 51.6177 91.9958 51.7377 92.4358 51.7377C92.6558 51.7377 92.8658 51.7027 93.0658 51.6327C93.2758 51.5627 93.4558 51.4627 93.6058 51.3327L93.9808 52.0977ZM98.0346 52.6527C97.3946 52.6527 96.7796 52.5627 96.1896 52.3827C95.6096 52.1927 95.1546 51.9577 94.8246 51.6777L95.3046 50.8377C95.6346 51.0977 96.0496 51.3127 96.5496 51.4827C97.0496 51.6427 97.5696 51.7227 98.1096 51.7227C98.8296 51.7227 99.3596 51.6127 99.6996 51.3927C100.05 51.1627 100.225 50.8427 100.225 50.4327C100.225 50.1427 100.13 49.9177 99.9396 49.7577C99.7496 49.5877 99.5096 49.4627 99.2196 49.3827C98.9296 49.2927 98.5446 49.2077 98.0646 49.1277C97.4246 49.0077 96.9096 48.8877 96.5196 48.7677C96.1296 48.6377 95.7946 48.4227 95.5146 48.1227C95.2446 47.8227 95.1096 47.4077 95.1096 46.8777C95.1096 46.2177 95.3846 45.6777 95.9346 45.2577C96.4846 44.8377 97.2496 44.6277 98.2296 44.6277C98.7396 44.6277 99.2496 44.6977 99.7596 44.8377C100.27 44.9677 100.69 45.1427 101.02 45.3627L100.555 46.2177C99.9046 45.7677 99.1296 45.5427 98.2296 45.5427C97.5496 45.5427 97.0346 45.6627 96.6846 45.9027C96.3446 46.1427 96.1746 46.4577 96.1746 46.8477C96.1746 47.1477 96.2696 47.3877 96.4596 47.5677C96.6596 47.7477 96.9046 47.8827 97.1946 47.9727C97.4846 48.0527 97.8846 48.1377 98.3946 48.2277C99.0246 48.3477 99.5296 48.4677 99.9096 48.5877C100.29 48.7077 100.615 48.9127 100.885 49.2027C101.155 49.4927 101.29 49.8927 101.29 50.4027C101.29 51.0927 101 51.6427 100.42 52.0527C99.8496 52.4527 99.0546 52.6527 98.0346 52.6527ZM1.82 84.0377V88.1627H7.25V89.1227H1.82V93.5777H0.71V83.0777H7.91V84.0377H1.82ZM12.9385 93.6527C12.1785 93.6527 11.4935 93.4827 10.8835 93.1427C10.2735 92.7927 9.79352 92.3127 9.44352 91.7027C9.09352 91.0927 8.91852 90.4027 8.91852 89.6327C8.91852 88.8627 9.09352 88.1727 9.44352 87.5627C9.79352 86.9527 10.2735 86.4777 10.8835 86.1377C11.4935 85.7977 12.1785 85.6277 12.9385 85.6277C13.6985 85.6277 14.3835 85.7977 14.9935 86.1377C15.6035 86.4777 16.0785 86.9527 16.4185 87.5627C16.7685 88.1727 16.9435 88.8627 16.9435 89.6327C16.9435 90.4027 16.7685 91.0927 16.4185 91.7027C16.0785 92.3127 15.6035 92.7927 14.9935 93.1427C14.3835 93.4827 13.6985 93.6527 12.9385 93.6527ZM12.9385 92.7077C13.4985 92.7077 13.9985 92.5827 14.4385 92.3327C14.8885 92.0727 15.2385 91.7077 15.4885 91.2377C15.7385 90.7677 15.8635 90.2327 15.8635 89.6327C15.8635 89.0327 15.7385 88.4977 15.4885 88.0277C15.2385 87.5577 14.8885 87.1977 14.4385 86.9477C13.9985 86.6877 13.4985 86.5577 12.9385 86.5577C12.3785 86.5577 11.8735 86.6877 11.4235 86.9477C10.9835 87.1977 10.6335 87.5577 10.3735 88.0277C10.1235 88.4977 9.99852 89.0327 9.99852 89.6327C9.99852 90.2327 10.1235 90.7677 10.3735 91.2377C10.6335 91.7077 10.9835 92.0727 11.4235 92.3327C11.8735 92.5827 12.3785 92.7077 12.9385 92.7077ZM20.1378 87.2327C20.3878 86.7027 20.7578 86.3027 21.2478 86.0327C21.7478 85.7627 22.3628 85.6277 23.0928 85.6277V86.6627L22.8378 86.6477C22.0078 86.6477 21.3578 86.9027 20.8878 87.4127C20.4178 87.9227 20.1828 88.6377 20.1828 89.5577V93.5777H19.1178V85.6877H20.1378V87.2327ZM34.8611 85.6277C35.8511 85.6277 36.6261 85.9127 37.1861 86.4827C37.7561 87.0527 38.0411 87.8927 38.0411 89.0027V93.5777H36.9761V89.1077C36.9761 88.2877 36.7761 87.6627 36.3761 87.2327C35.9861 86.8027 35.4311 86.5877 34.7111 86.5877C33.8911 86.5877 33.2461 86.8427 32.7761 87.3527C32.3061 87.8527 32.0711 88.5477 32.0711 89.4377V93.5777H31.0061V89.1077C31.0061 88.2877 30.8061 87.6627 30.4061 87.2327C30.0161 86.8027 29.4561 86.5877 28.7261 86.5877C27.9161 86.5877 27.2711 86.8427 26.7911 87.3527C26.3211 87.8527 26.0861 88.5477 26.0861 89.4377V93.5777H25.0211V85.6877H26.0411V87.1277C26.3211 86.6477 26.7111 86.2777 27.2111 86.0177C27.7111 85.7577 28.2861 85.6277 28.9361 85.6277C29.5961 85.6277 30.1661 85.7677 30.6461 86.0477C31.1361 86.3277 31.5011 86.7427 31.7411 87.2927C32.0311 86.7727 32.4461 86.3677 32.9861 86.0777C33.5361 85.7777 34.1611 85.6277 34.8611 85.6277ZM59.4951 83.0777L55.9551 93.5777H54.7851L51.7101 84.6227L48.6201 93.5777H47.4651L43.9251 83.0777H45.0651L48.0951 92.1077L51.2301 83.0777H52.2651L55.3551 92.1527L58.4301 83.0777H59.4951ZM61.2614 85.6877H62.3264V93.5777H61.2614V85.6877ZM61.8014 83.9627C61.5814 83.9627 61.3964 83.8877 61.2464 83.7377C61.0964 83.5877 61.0214 83.4077 61.0214 83.1977C61.0214 82.9977 61.0964 82.8227 61.2464 82.6727C61.3964 82.5227 61.5814 82.4477 61.8014 82.4477C62.0214 82.4477 62.2064 82.5227 62.3564 82.6727C62.5064 82.8127 62.5814 82.9827 62.5814 83.1827C62.5814 83.4027 62.5064 83.5877 62.3564 83.7377C62.2064 83.8877 62.0214 83.9627 61.8014 83.9627ZM70.8547 92.6927V93.5777H64.4347V92.8727L69.3997 86.5877H64.5247V85.6877H70.7647V86.3927L65.7997 92.6927H70.8547ZM75.7108 85.6277C76.7408 85.6277 77.5308 85.8877 78.0808 86.4077C78.6308 86.9177 78.9058 87.6777 78.9058 88.6877V93.5777H77.8858V92.3477C77.6458 92.7577 77.2908 93.0777 76.8208 93.3077C76.3608 93.5377 75.8108 93.6527 75.1708 93.6527C74.2908 93.6527 73.5908 93.4427 73.0708 93.0227C72.5508 92.6027 72.2908 92.0477 72.2908 91.3577C72.2908 90.6877 72.5308 90.1477 73.0108 89.7377C73.5008 89.3277 74.2758 89.1227 75.3358 89.1227H77.8408V88.6427C77.8408 87.9627 77.6508 87.4477 77.2708 87.0977C76.8908 86.7377 76.3358 86.5577 75.6058 86.5577C75.1058 86.5577 74.6258 86.6427 74.1658 86.8127C73.7058 86.9727 73.3108 87.1977 72.9808 87.4877L72.5008 86.6927C72.9008 86.3527 73.3808 86.0927 73.9408 85.9127C74.5008 85.7227 75.0908 85.6277 75.7108 85.6277ZM75.3358 92.8127C75.9358 92.8127 76.4508 92.6777 76.8808 92.4077C77.3108 92.1277 77.6308 91.7277 77.8408 91.2077V89.9177H75.3658C74.0158 89.9177 73.3408 90.3877 73.3408 91.3277C73.3408 91.7877 73.5158 92.1527 73.8658 92.4227C74.2158 92.6827 74.7058 92.8127 75.3358 92.8127ZM82.8185 87.2327C83.0685 86.7027 83.4385 86.3027 83.9285 86.0327C84.4285 85.7627 85.0435 85.6277 85.7735 85.6277V86.6627L85.5185 86.6477C84.6885 86.6477 84.0385 86.9027 83.5685 87.4127C83.0985 87.9227 82.8635 88.6377 82.8635 89.5577V93.5777H81.7985V85.6877H82.8185V87.2327ZM94.8286 82.4477V93.5777H93.8086V92.0177C93.4886 92.5477 93.0636 92.9527 92.5336 93.2327C92.0136 93.5127 91.4236 93.6527 90.7636 93.6527C90.0236 93.6527 89.3536 93.4827 88.7536 93.1427C88.1536 92.8027 87.6836 92.3277 87.3436 91.7177C87.0036 91.1077 86.8336 90.4127 86.8336 89.6327C86.8336 88.8527 87.0036 88.1577 87.3436 87.5477C87.6836 86.9377 88.1536 86.4677 88.7536 86.1377C89.3536 85.7977 90.0236 85.6277 90.7636 85.6277C91.4036 85.6277 91.9786 85.7627 92.4886 86.0327C93.0086 86.2927 93.4336 86.6777 93.7636 87.1877V82.4477H94.8286ZM90.8536 92.7077C91.4036 92.7077 91.8986 92.5827 92.3386 92.3327C92.7886 92.0727 93.1386 91.7077 93.3886 91.2377C93.6486 90.7677 93.7786 90.2327 93.7786 89.6327C93.7786 89.0327 93.6486 88.4977 93.3886 88.0277C93.1386 87.5577 92.7886 87.1977 92.3386 86.9477C91.8986 86.6877 91.4036 86.5577 90.8536 86.5577C90.2936 86.5577 89.7886 86.6877 89.3386 86.9477C88.8986 87.1977 88.5486 87.5577 88.2886 88.0277C88.0386 88.4977 87.9136 89.0327 87.9136 89.6327C87.9136 90.2327 88.0386 90.7677 88.2886 91.2377C88.5486 91.7077 88.8986 92.0727 89.3386 92.3327C89.7886 92.5827 90.2936 92.7077 90.8536 92.7077ZM1.82 125.038V129.163H7.25V130.123H1.82V134.578H0.71V124.078H7.91V125.038H1.82ZM12.9385 134.653C12.1785 134.653 11.4935 134.483 10.8835 134.143C10.2735 133.793 9.79352 133.313 9.44352 132.703C9.09352 132.093 8.91852 131.403 8.91852 130.633C8.91852 129.863 9.09352 129.173 9.44352 128.563C9.79352 127.953 10.2735 127.478 10.8835 127.138C11.4935 126.798 12.1785 126.628 12.9385 126.628C13.6985 126.628 14.3835 126.798 14.9935 127.138C15.6035 127.478 16.0785 127.953 16.4185 128.563C16.7685 129.173 16.9435 129.863 16.9435 130.633C16.9435 131.403 16.7685 132.093 16.4185 132.703C16.0785 133.313 15.6035 133.793 14.9935 134.143C14.3835 134.483 13.6985 134.653 12.9385 134.653ZM12.9385 133.708C13.4985 133.708 13.9985 133.583 14.4385 133.333C14.8885 133.073 15.2385 132.708 15.4885 132.238C15.7385 131.768 15.8635 131.233 15.8635 130.633C15.8635 130.033 15.7385 129.498 15.4885 129.028C15.2385 128.558 14.8885 128.198 14.4385 127.948C13.9985 127.688 13.4985 127.558 12.9385 127.558C12.3785 127.558 11.8735 127.688 11.4235 127.948C10.9835 128.198 10.6335 128.558 10.3735 129.028C10.1235 129.498 9.99852 130.033 9.99852 130.633C9.99852 131.233 10.1235 131.768 10.3735 132.238C10.6335 132.708 10.9835 133.073 11.4235 133.333C11.8735 133.583 12.3785 133.708 12.9385 133.708ZM20.1378 128.233C20.3878 127.703 20.7578 127.303 21.2478 127.033C21.7478 126.763 22.3628 126.628 23.0928 126.628V127.663L22.8378 127.648C22.0078 127.648 21.3578 127.903 20.8878 128.413C20.4178 128.923 20.1828 129.638 20.1828 130.558V134.578H19.1178V126.688H20.1378V128.233ZM34.8611 126.628C35.8511 126.628 36.6261 126.913 37.1861 127.483C37.7561 128.053 38.0411 128.893 38.0411 130.003V134.578H36.9761V130.108C36.9761 129.288 36.7761 128.663 36.3761 128.233C35.9861 127.803 35.4311 127.588 34.7111 127.588C33.8911 127.588 33.2461 127.843 32.7761 128.353C32.3061 128.853 32.0711 129.548 32.0711 130.438V134.578H31.0061V130.108C31.0061 129.288 30.8061 128.663 30.4061 128.233C30.0161 127.803 29.4561 127.588 28.7261 127.588C27.9161 127.588 27.2711 127.843 26.7911 128.353C26.3211 128.853 26.0861 129.548 26.0861 130.438V134.578H25.0211V126.688H26.0411V128.128C26.3211 127.648 26.7111 127.278 27.2111 127.018C27.7111 126.758 28.2861 126.628 28.9361 126.628C29.5961 126.628 30.1661 126.768 30.6461 127.048C31.1361 127.328 31.5011 127.743 31.7411 128.293C32.0311 127.773 32.4461 127.368 32.9861 127.078C33.5361 126.778 34.1611 126.628 34.8611 126.628ZM53.8101 124.078L49.1601 134.578H48.0651L43.4151 124.078H44.6151L48.6351 133.198L52.6851 124.078H53.8101ZM57.2684 126.628C58.2984 126.628 59.0884 126.888 59.6384 127.408C60.1884 127.918 60.4634 128.678 60.4634 129.688V134.578H59.4434V133.348C59.2034 133.758 58.8484 134.078 58.3784 134.308C57.9184 134.538 57.3684 134.653 56.7284 134.653C55.8484 134.653 55.1484 134.443 54.6284 134.023C54.1084 133.603 53.8484 133.048 53.8484 132.358C53.8484 131.688 54.0884 131.148 54.5684 130.738C55.0584 130.328 55.8334 130.123 56.8934 130.123H59.3984V129.643C59.3984 128.963 59.2084 128.448 58.8284 128.098C58.4484 127.738 57.8934 127.558 57.1634 127.558C56.6634 127.558 56.1834 127.643 55.7234 127.813C55.2634 127.973 54.8684 128.198 54.5384 128.488L54.0584 127.693C54.4584 127.353 54.9384 127.093 55.4984 126.913C56.0584 126.723 56.6484 126.628 57.2684 126.628ZM56.8934 133.813C57.4934 133.813 58.0084 133.678 58.4384 133.408C58.8684 133.128 59.1884 132.728 59.3984 132.208V130.918H56.9234C55.5734 130.918 54.8984 131.388 54.8984 132.328C54.8984 132.788 55.0734 133.153 55.4234 133.423C55.7734 133.683 56.2634 133.813 56.8934 133.813ZM63.3561 123.448H64.4211V134.578H63.3561V123.448ZM67.3844 126.688H68.4494V134.578H67.3844V126.688ZM67.9244 124.963C67.7044 124.963 67.5194 124.888 67.3694 124.738C67.2194 124.588 67.1444 124.408 67.1444 124.198C67.1444 123.998 67.2194 123.823 67.3694 123.673C67.5194 123.523 67.7044 123.448 67.9244 123.448C68.1444 123.448 68.3294 123.523 68.4794 123.673C68.6294 123.813 68.7044 123.983 68.7044 124.183C68.7044 124.403 68.6294 124.588 68.4794 124.738C68.3294 124.888 68.1444 124.963 67.9244 124.963ZM78.6127 123.448V134.578H77.5927V133.018C77.2727 133.548 76.8477 133.953 76.3177 134.233C75.7977 134.513 75.2077 134.653 74.5477 134.653C73.8077 134.653 73.1377 134.483 72.5377 134.143C71.9377 133.803 71.4677 133.328 71.1277 132.718C70.7877 132.108 70.6177 131.413 70.6177 130.633C70.6177 129.853 70.7877 129.158 71.1277 128.548C71.4677 127.938 71.9377 127.468 72.5377 127.138C73.1377 126.798 73.8077 126.628 74.5477 126.628C75.1877 126.628 75.7627 126.763 76.2727 127.033C76.7927 127.293 77.2177 127.678 77.5477 128.188V123.448H78.6127ZM74.6377 133.708C75.1877 133.708 75.6827 133.583 76.1227 133.333C76.5727 133.073 76.9227 132.708 77.1727 132.238C77.4327 131.768 77.5627 131.233 77.5627 130.633C77.5627 130.033 77.4327 129.498 77.1727 129.028C76.9227 128.558 76.5727 128.198 76.1227 127.948C75.6827 127.688 75.1877 127.558 74.6377 127.558C74.0777 127.558 73.5727 127.688 73.1227 127.948C72.6827 128.198 72.3327 128.558 72.0727 129.028C71.8227 129.498 71.6977 130.033 71.6977 130.633C71.6977 131.233 71.8227 131.768 72.0727 132.238C72.3327 132.708 72.6827 133.073 73.1227 133.333C73.5727 133.583 74.0777 133.708 74.6377 133.708ZM84.3388 126.628C85.3688 126.628 86.1588 126.888 86.7088 127.408C87.2588 127.918 87.5338 128.678 87.5338 129.688V134.578H86.5138V133.348C86.2738 133.758 85.9188 134.078 85.4488 134.308C84.9888 134.538 84.4388 134.653 83.7988 134.653C82.9188 134.653 82.2188 134.443 81.6988 134.023C81.1788 133.603 80.9188 133.048 80.9188 132.358C80.9188 131.688 81.1588 131.148 81.6388 130.738C82.1288 130.328 82.9038 130.123 83.9638 130.123H86.4688V129.643C86.4688 128.963 86.2788 128.448 85.8988 128.098C85.5188 127.738 84.9638 127.558 84.2338 127.558C83.7338 127.558 83.2538 127.643 82.7938 127.813C82.3338 127.973 81.9388 128.198 81.6088 128.488L81.1288 127.693C81.5288 127.353 82.0088 127.093 82.5688 126.913C83.1288 126.723 83.7188 126.628 84.3388 126.628ZM83.9638 133.813C84.5638 133.813 85.0788 133.678 85.5088 133.408C85.9388 133.128 86.2588 132.728 86.4688 132.208V130.918H83.9938C82.6438 130.918 81.9688 131.388 81.9688 132.328C81.9688 132.788 82.1438 133.153 82.4938 133.423C82.8438 133.683 83.3338 133.813 83.9638 133.813ZM94.5814 134.098C94.3814 134.278 94.1314 134.418 93.8314 134.518C93.5414 134.608 93.2364 134.653 92.9164 134.653C92.1764 134.653 91.6064 134.453 91.2064 134.053C90.8064 133.653 90.6064 133.088 90.6064 132.358V127.588H89.1964V126.688H90.6064V124.963H91.6714V126.688H94.0714V127.588H91.6714V132.298C91.6714 132.768 91.7864 133.128 92.0164 133.378C92.2564 133.618 92.5964 133.738 93.0364 133.738C93.2564 133.738 93.4664 133.703 93.6664 133.633C93.8764 133.563 94.0564 133.463 94.2064 133.333L94.5814 134.098ZM96.5202 126.688H97.5852V134.578H96.5202V126.688ZM97.0602 124.963C96.8402 124.963 96.6552 124.888 96.5052 124.738C96.3552 124.588 96.2802 124.408 96.2802 124.198C96.2802 123.998 96.3552 123.823 96.5052 123.673C96.6552 123.523 96.8402 123.448 97.0602 123.448C97.2802 123.448 97.4652 123.523 97.6152 123.673C97.7652 123.813 97.8402 123.983 97.8402 124.183C97.8402 124.403 97.7652 124.588 97.6152 124.738C97.4652 124.888 97.2802 124.963 97.0602 124.963ZM103.773 134.653C103.013 134.653 102.328 134.483 101.718 134.143C101.108 133.793 100.628 133.313 100.278 132.703C99.9285 132.093 99.7535 131.403 99.7535 130.633C99.7535 129.863 99.9285 129.173 100.278 128.563C100.628 127.953 101.108 127.478 101.718 127.138C102.328 126.798 103.013 126.628 103.773 126.628C104.533 126.628 105.218 126.798 105.828 127.138C106.438 127.478 106.913 127.953 107.253 128.563C107.603 129.173 107.778 129.863 107.778 130.633C107.778 131.403 107.603 132.093 107.253 132.703C106.913 133.313 106.438 133.793 105.828 134.143C105.218 134.483 104.533 134.653 103.773 134.653ZM103.773 133.708C104.333 133.708 104.833 133.583 105.273 133.333C105.723 133.073 106.073 132.708 106.323 132.238C106.573 131.768 106.698 131.233 106.698 130.633C106.698 130.033 106.573 129.498 106.323 129.028C106.073 128.558 105.723 128.198 105.273 127.948C104.833 127.688 104.333 127.558 103.773 127.558C103.213 127.558 102.708 127.688 102.258 127.948C101.818 128.198 101.468 128.558 101.208 129.028C100.958 129.498 100.833 130.033 100.833 130.633C100.833 131.233 100.958 131.768 101.208 132.238C101.468 132.708 101.818 133.073 102.258 133.333C102.708 133.583 103.213 133.708 103.773 133.708ZM113.973 126.628C114.963 126.628 115.748 126.918 116.328 127.498C116.918 128.068 117.213 128.903 117.213 130.003V134.578H116.148V130.108C116.148 129.288 115.943 128.663 115.533 128.233C115.123 127.803 114.538 127.588 113.778 127.588C112.928 127.588 112.253 127.843 111.753 128.353C111.263 128.853 111.018 129.548 111.018 130.438V134.578H109.953V126.688H110.973V128.143C111.263 127.663 111.663 127.293 112.173 127.033C112.693 126.763 113.293 126.628 113.973 126.628Z" fill="white"/>
</svg>
