<svg width="91" height="191" viewBox="0 0 91 191" fill="none" xmlns="http://www.w3.org/2000/svg">
<path d="M9.105 6.31595H10.17V10.3209C9.68 10.7509 9.1 11.0809 8.43 11.3109C7.76 11.5409 7.055 11.6559 6.315 11.6559C5.265 11.6559 4.32 11.4259 3.48 10.9659C2.64 10.5059 1.98 9.87095 1.5 9.06095C1.02 8.24095 0.78 7.32595 0.78 6.31595C0.78 5.30595 1.02 4.39595 1.5 3.58595C1.98 2.76595 2.64 2.12595 3.48 1.66595C4.32 1.20595 5.27 0.975948 6.33 0.975948C7.13 0.975948 7.865 1.10595 8.535 1.36595C9.205 1.61595 9.77 1.99095 10.23 2.49095L9.54 3.19595C8.71 2.37595 7.655 1.96595 6.375 1.96595C5.525 1.96595 4.755 2.15595 4.065 2.53595C3.385 2.90595 2.85 3.42595 2.46 4.09595C2.07 4.75595 1.875 5.49595 1.875 6.31595C1.875 7.13595 2.07 7.87595 2.46 8.53595C2.85 9.19595 3.385 9.71595 4.065 10.0959C4.745 10.4759 5.51 10.6659 6.36 10.6659C7.44 10.6659 8.355 10.3959 9.105 9.85595V6.31595ZM14.1066 5.22095C14.3566 4.69095 14.7266 4.29095 15.2166 4.02095C15.7166 3.75095 16.3316 3.61595 17.0616 3.61595V4.65095L16.8066 4.63595C15.9766 4.63595 15.3266 4.89095 14.8566 5.40095C14.3866 5.91095 14.1516 6.62595 14.1516 7.54595V11.5659H13.0866V3.67595H14.1066V5.22095ZM18.9899 3.67595H20.0549V11.5659H18.9899V3.67595ZM19.5299 1.95095C19.3099 1.95095 19.1249 1.87595 18.9749 1.72595C18.8249 1.57595 18.7499 1.39595 18.7499 1.18595C18.7499 0.985948 18.8249 0.810948 18.9749 0.660948C19.1249 0.510948 19.3099 0.435948 19.5299 0.435948C19.7499 0.435948 19.9349 0.510948 20.0849 0.660948C20.2349 0.800948 20.3099 0.970948 20.3099 1.17095C20.3099 1.39095 20.2349 1.57595 20.0849 1.72595C19.9349 1.87595 19.7499 1.95095 19.5299 1.95095ZM30.2182 0.435948V11.5659H29.1982V10.0059C28.8782 10.5359 28.4532 10.9409 27.9232 11.2209C27.4032 11.5009 26.8132 11.6409 26.1532 11.6409C25.4132 11.6409 24.7432 11.4709 24.1432 11.1309C23.5432 10.7909 23.0732 10.3159 22.7332 9.70595C22.3932 9.09595 22.2232 8.40095 22.2232 7.62095C22.2232 6.84095 22.3932 6.14595 22.7332 5.53595C23.0732 4.92595 23.5432 4.45595 24.1432 4.12595C24.7432 3.78595 25.4132 3.61595 26.1532 3.61595C26.7932 3.61595 27.3682 3.75095 27.8782 4.02095C28.3982 4.28095 28.8232 4.66595 29.1532 5.17595V0.435948H30.2182ZM26.2432 10.6959C26.7932 10.6959 27.2882 10.5709 27.7282 10.3209C28.1782 10.0609 28.5282 9.69595 28.7782 9.22595C29.0382 8.75595 29.1682 8.22095 29.1682 7.62095C29.1682 7.02095 29.0382 6.48595 28.7782 6.01595C28.5282 5.54595 28.1782 5.18595 27.7282 4.93595C27.2882 4.67595 26.7932 4.54595 26.2432 4.54595C25.6832 4.54595 25.1782 4.67595 24.7282 4.93595C24.2882 5.18595 23.9382 5.54595 23.6782 6.01595C23.4282 6.48595 23.3032 7.02095 23.3032 7.62095C23.3032 8.22095 23.4282 8.75595 23.6782 9.22595C23.9382 9.69595 24.2882 10.0609 24.7282 10.3209C25.1782 10.5709 25.6832 10.6959 26.2432 10.6959ZM6.27 52.6559C5.23 52.6559 4.29 52.4259 3.45 51.9659C2.62 51.5059 1.965 50.8709 1.485 50.0609C1.015 49.2409 0.78 48.3259 0.78 47.3159C0.78 46.3059 1.015 45.3959 1.485 44.5859C1.965 43.7659 2.625 43.1259 3.465 42.6659C4.305 42.2059 5.245 41.9759 6.285 41.9759C7.065 41.9759 7.785 42.1059 8.445 42.3659C9.105 42.6259 9.665 43.0059 10.125 43.5059L9.42 44.2109C8.6 43.3809 7.565 42.9659 6.315 42.9659C5.485 42.9659 4.73 43.1559 4.05 43.5359C3.37 43.9159 2.835 44.4359 2.445 45.0959C2.065 45.7559 1.875 46.4959 1.875 47.3159C1.875 48.1359 2.065 48.8759 2.445 49.5359C2.835 50.1959 3.37 50.7159 4.05 51.0959C4.73 51.4759 5.485 51.6659 6.315 51.6659C7.575 51.6659 8.61 51.2459 9.42 50.4059L10.125 51.1109C9.665 51.6109 9.1 51.9959 8.43 52.2659C7.77 52.5259 7.05 52.6559 6.27 52.6559ZM15.1397 52.6409C14.3797 52.6409 13.6947 52.4709 13.0847 52.1309C12.4747 51.7809 11.9947 51.3009 11.6447 50.6909C11.2947 50.0809 11.1197 49.3909 11.1197 48.6209C11.1197 47.8509 11.2947 47.1609 11.6447 46.5509C11.9947 45.9409 12.4747 45.4659 13.0847 45.1259C13.6947 44.7859 14.3797 44.6159 15.1397 44.6159C15.8997 44.6159 16.5847 44.7859 17.1947 45.1259C17.8047 45.4659 18.2797 45.9409 18.6197 46.5509C18.9697 47.1609 19.1447 47.8509 19.1447 48.6209C19.1447 49.3909 18.9697 50.0809 18.6197 50.6909C18.2797 51.3009 17.8047 51.7809 17.1947 52.1309C16.5847 52.4709 15.8997 52.6409 15.1397 52.6409ZM15.1397 51.6959C15.6997 51.6959 16.1997 51.5709 16.6397 51.3209C17.0897 51.0609 17.4397 50.6959 17.6897 50.2259C17.9397 49.7559 18.0647 49.2209 18.0647 48.6209C18.0647 48.0209 17.9397 47.4859 17.6897 47.0159C17.4397 46.5459 17.0897 46.1859 16.6397 45.9359C16.1997 45.6759 15.6997 45.5459 15.1397 45.5459C14.5797 45.5459 14.0747 45.6759 13.6247 45.9359C13.1847 46.1859 12.8347 46.5459 12.5747 47.0159C12.3247 47.4859 12.1997 48.0209 12.1997 48.6209C12.1997 49.2209 12.3247 49.7559 12.5747 50.2259C12.8347 50.6959 13.1847 51.0609 13.6247 51.3209C14.0747 51.5709 14.5797 51.6959 15.1397 51.6959ZM21.319 41.4359H22.384V52.5659H21.319V41.4359ZM28.5723 52.6409C27.8123 52.6409 27.1273 52.4709 26.5173 52.1309C25.9073 51.7809 25.4273 51.3009 25.0773 50.6909C24.7273 50.0809 24.5523 49.3909 24.5523 48.6209C24.5523 47.8509 24.7273 47.1609 25.0773 46.5509C25.4273 45.9409 25.9073 45.4659 26.5173 45.1259C27.1273 44.7859 27.8123 44.6159 28.5723 44.6159C29.3323 44.6159 30.0173 44.7859 30.6273 45.1259C31.2373 45.4659 31.7123 45.9409 32.0523 46.5509C32.4023 47.1609 32.5773 47.8509 32.5773 48.6209C32.5773 49.3909 32.4023 50.0809 32.0523 50.6909C31.7123 51.3009 31.2373 51.7809 30.6273 52.1309C30.0173 52.4709 29.3323 52.6409 28.5723 52.6409ZM28.5723 51.6959C29.1323 51.6959 29.6323 51.5709 30.0723 51.3209C30.5223 51.0609 30.8723 50.6959 31.1223 50.2259C31.3723 49.7559 31.4973 49.2209 31.4973 48.6209C31.4973 48.0209 31.3723 47.4859 31.1223 47.0159C30.8723 46.5459 30.5223 46.1859 30.0723 45.9359C29.6323 45.6759 29.1323 45.5459 28.5723 45.5459C28.0123 45.5459 27.5073 45.6759 27.0573 45.9359C26.6173 46.1859 26.2673 46.5459 26.0073 47.0159C25.7573 47.4859 25.6323 48.0209 25.6323 48.6209C25.6323 49.2209 25.7573 49.7559 26.0073 50.2259C26.2673 50.6959 26.6173 51.0609 27.0573 51.3209C27.5073 51.5709 28.0123 51.6959 28.5723 51.6959ZM35.7716 46.2209C36.0216 45.6909 36.3916 45.2909 36.8816 45.0209C37.3816 44.7509 37.9966 44.6159 38.7266 44.6159V45.6509L38.4716 45.6359C37.6416 45.6359 36.9916 45.8909 36.5216 46.4009C36.0516 46.9109 35.8166 47.6259 35.8166 48.5459V52.5659H34.7516V44.6759H35.7716V46.2209ZM42.8285 52.6409C42.1885 52.6409 41.5735 52.5509 40.9835 52.3709C40.4035 52.1809 39.9485 51.9459 39.6185 51.6659L40.0985 50.8259C40.4285 51.0859 40.8435 51.3009 41.3435 51.4709C41.8435 51.6309 42.3635 51.7109 42.9035 51.7109C43.6235 51.7109 44.1535 51.6009 44.4935 51.3809C44.8435 51.1509 45.0185 50.8309 45.0185 50.4209C45.0185 50.1309 44.9235 49.9059 44.7335 49.7459C44.5435 49.5759 44.3035 49.4509 44.0135 49.3709C43.7235 49.2809 43.3385 49.1959 42.8585 49.1159C42.2185 48.9959 41.7035 48.8759 41.3135 48.7559C40.9235 48.6259 40.5885 48.4109 40.3085 48.1109C40.0385 47.8109 39.9035 47.3959 39.9035 46.8659C39.9035 46.2059 40.1785 45.6659 40.7285 45.2459C41.2785 44.8259 42.0435 44.6159 43.0235 44.6159C43.5335 44.6159 44.0435 44.6859 44.5535 44.8259C45.0635 44.9559 45.4835 45.1309 45.8135 45.3509L45.3485 46.2059C44.6985 45.7559 43.9235 45.5309 43.0235 45.5309C42.3435 45.5309 41.8285 45.6509 41.4785 45.8909C41.1385 46.1309 40.9685 46.4459 40.9685 46.8359C40.9685 47.1359 41.0635 47.3759 41.2535 47.5559C41.4535 47.7359 41.6985 47.8709 41.9885 47.9609C42.2785 48.0409 42.6785 48.1259 43.1885 48.2159C43.8185 48.3359 44.3235 48.4559 44.7035 48.5759C45.0835 48.6959 45.4085 48.9009 45.6785 49.1909C45.9485 49.4809 46.0835 49.8809 46.0835 50.3909C46.0835 51.0809 45.7935 51.6309 45.2135 52.0409C44.6435 52.4409 43.8485 52.6409 42.8285 52.6409ZM6.27 93.6559C5.23 93.6559 4.29 93.4259 3.45 92.9659C2.62 92.5059 1.965 91.8709 1.485 91.0609C1.015 90.2409 0.78 89.3259 0.78 88.3159C0.78 87.3059 1.015 86.3959 1.485 85.5859C1.965 84.7659 2.625 84.1259 3.465 83.6659C4.305 83.2059 5.245 82.9759 6.285 82.9759C7.065 82.9759 7.785 83.1059 8.445 83.3659C9.105 83.6259 9.665 84.0059 10.125 84.5059L9.42 85.2109C8.6 84.3809 7.565 83.9659 6.315 83.9659C5.485 83.9659 4.73 84.1559 4.05 84.5359C3.37 84.9159 2.835 85.4359 2.445 86.0959C2.065 86.7559 1.875 87.4959 1.875 88.3159C1.875 89.1359 2.065 89.8759 2.445 90.5359C2.835 91.1959 3.37 91.7159 4.05 92.0959C4.73 92.4759 5.485 92.6659 6.315 92.6659C7.575 92.6659 8.61 92.2459 9.42 91.4059L10.125 92.1109C9.665 92.6109 9.1 92.9959 8.43 93.2659C7.77 93.5259 7.05 93.6559 6.27 93.6559ZM14.9091 85.6159C15.9391 85.6159 16.7291 85.8759 17.2791 86.3959C17.8291 86.9059 18.1041 87.6659 18.1041 88.6759V93.5659H17.0841V92.3359C16.8441 92.7459 16.4891 93.0659 16.0191 93.2959C15.5591 93.5259 15.0091 93.6409 14.3691 93.6409C13.4891 93.6409 12.7891 93.4309 12.2691 93.0109C11.7491 92.5909 11.4891 92.0359 11.4891 91.3459C11.4891 90.6759 11.7291 90.1359 12.2091 89.7259C12.6991 89.3159 13.4741 89.1109 14.5341 89.1109H17.0391V88.6309C17.0391 87.9509 16.8491 87.4359 16.4691 87.0859C16.0891 86.7259 15.5341 86.5459 14.8041 86.5459C14.3041 86.5459 13.8241 86.6309 13.3641 86.8009C12.9041 86.9609 12.5091 87.1859 12.1791 87.4759L11.6991 86.6809C12.0991 86.3409 12.5791 86.0809 13.1391 85.9009C13.6991 85.7109 14.2891 85.6159 14.9091 85.6159ZM14.5341 92.8009C15.1341 92.8009 15.6491 92.6659 16.0791 92.3959C16.5091 92.1159 16.8291 91.7159 17.0391 91.1959V89.9059H14.5641C13.2141 89.9059 12.5391 90.3759 12.5391 91.3159C12.5391 91.7759 12.7141 92.1409 13.0641 92.4109C13.4141 92.6709 13.9041 92.8009 14.5341 92.8009ZM22.0167 87.2209C22.2667 86.6909 22.6367 86.2909 23.1267 86.0209C23.6267 85.7509 24.2417 85.6159 24.9717 85.6159V86.6509L24.7167 86.6359C23.8867 86.6359 23.2367 86.8909 22.7667 87.4009C22.2967 87.9109 22.0617 88.6259 22.0617 89.5459V93.5659H20.9967V85.6759H22.0167V87.2209ZM34.0268 82.4359V93.5659H33.0068V92.0059C32.6868 92.5359 32.2618 92.9409 31.7318 93.2209C31.2118 93.5009 30.6218 93.6409 29.9618 93.6409C29.2218 93.6409 28.5518 93.4709 27.9518 93.1309C27.3518 92.7909 26.8818 92.3159 26.5418 91.7059C26.2018 91.0959 26.0318 90.4009 26.0318 89.6209C26.0318 88.8409 26.2018 88.1459 26.5418 87.5359C26.8818 86.9259 27.3518 86.4559 27.9518 86.1259C28.5518 85.7859 29.2218 85.6159 29.9618 85.6159C30.6018 85.6159 31.1768 85.7509 31.6868 86.0209C32.2068 86.2809 32.6318 86.6659 32.9618 87.1759V82.4359H34.0268ZM30.0518 92.6959C30.6018 92.6959 31.0968 92.5709 31.5368 92.3209C31.9868 92.0609 32.3368 91.6959 32.5868 91.2259C32.8468 90.7559 32.9768 90.2209 32.9768 89.6209C32.9768 89.0209 32.8468 88.4859 32.5868 88.0159C32.3368 87.5459 31.9868 87.1859 31.5368 86.9359C31.0968 86.6759 30.6018 86.5459 30.0518 86.5459C29.4918 86.5459 28.9868 86.6759 28.5368 86.9359C28.0968 87.1859 27.7468 87.5459 27.4868 88.0159C27.2368 88.4859 27.1118 89.0209 27.1118 89.6209C27.1118 90.2209 27.2368 90.7559 27.4868 91.2259C27.7468 91.6959 28.0968 92.0609 28.5368 92.3209C28.9868 92.5709 29.4918 92.6959 30.0518 92.6959ZM3.75 125.026H0.06V124.066H8.55V125.026H4.86V134.566H3.75V125.026ZM12.4188 126.616C13.4488 126.616 14.2388 126.876 14.7888 127.396C15.3388 127.906 15.6138 128.666 15.6138 129.676V134.566H14.5938V133.336C14.3538 133.746 13.9988 134.066 13.5288 134.296C13.0688 134.526 12.5188 134.641 11.8788 134.641C10.9988 134.641 10.2988 134.431 9.77883 134.011C9.25883 133.591 8.99883 133.036 8.99883 132.346C8.99883 131.676 9.23883 131.136 9.71883 130.726C10.2088 130.316 10.9838 130.111 12.0438 130.111H14.5488V129.631C14.5488 128.951 14.3588 128.436 13.9788 128.086C13.5988 127.726 13.0438 127.546 12.3138 127.546C11.8138 127.546 11.3338 127.631 10.8738 127.801C10.4138 127.961 10.0188 128.186 9.68883 128.476L9.20883 127.681C9.60883 127.341 10.0888 127.081 10.6488 126.901C11.2088 126.711 11.7988 126.616 12.4188 126.616ZM12.0438 133.801C12.6438 133.801 13.1588 133.666 13.5888 133.396C14.0188 133.116 14.3388 132.716 14.5488 132.196V130.906H12.0738C10.7238 130.906 10.0488 131.376 10.0488 132.316C10.0488 132.776 10.2238 133.141 10.5738 133.411C10.9238 133.671 11.4138 133.801 12.0438 133.801ZM22.5715 126.616C23.3115 126.616 23.9815 126.786 24.5815 127.126C25.1815 127.456 25.6515 127.926 25.9915 128.536C26.3315 129.146 26.5015 129.841 26.5015 130.621C26.5015 131.401 26.3315 132.096 25.9915 132.706C25.6515 133.316 25.1815 133.791 24.5815 134.131C23.9815 134.471 23.3115 134.641 22.5715 134.641C21.9115 134.641 21.3165 134.501 20.7865 134.221C20.2665 133.941 19.8465 133.536 19.5265 133.006V134.566H18.5065V123.436H19.5715V128.176C19.9015 127.666 20.3215 127.281 20.8315 127.021C21.3515 126.751 21.9315 126.616 22.5715 126.616ZM22.4965 133.696C23.0465 133.696 23.5465 133.571 23.9965 133.321C24.4465 133.061 24.7965 132.696 25.0465 132.226C25.3065 131.756 25.4365 131.221 25.4365 130.621C25.4365 130.021 25.3065 129.486 25.0465 129.016C24.7965 128.546 24.4465 128.186 23.9965 127.936C23.5465 127.676 23.0465 127.546 22.4965 127.546C21.9365 127.546 21.4315 127.676 20.9815 127.936C20.5415 128.186 20.1915 128.546 19.9315 129.016C19.6815 129.486 19.5565 130.021 19.5565 130.621C19.5565 131.221 19.6815 131.756 19.9315 132.226C20.1915 132.696 20.5415 133.061 20.9815 133.321C21.4315 133.571 21.9365 133.696 22.4965 133.696ZM28.6725 123.436H29.7375V134.566H28.6725V123.436ZM39.5708 130.951H32.9708C33.0308 131.771 33.3458 132.436 33.9158 132.946C34.4858 133.446 35.2058 133.696 36.0758 133.696C36.5658 133.696 37.0158 133.611 37.4258 133.441C37.8358 133.261 38.1908 133.001 38.4908 132.661L39.0908 133.351C38.7408 133.771 38.3008 134.091 37.7708 134.311C37.2508 134.531 36.6758 134.641 36.0458 134.641C35.2358 134.641 34.5158 134.471 33.8858 134.131C33.2658 133.781 32.7808 133.301 32.4308 132.691C32.0808 132.081 31.9058 131.391 31.9058 130.621C31.9058 129.851 32.0708 129.161 32.4008 128.551C32.7408 127.941 33.2008 127.466 33.7808 127.126C34.3708 126.786 35.0308 126.616 35.7608 126.616C36.4908 126.616 37.1458 126.786 37.7258 127.126C38.3058 127.466 38.7608 127.941 39.0908 128.551C39.4208 129.151 39.5858 129.841 39.5858 130.621L39.5708 130.951ZM35.7608 127.531C35.0008 127.531 34.3608 127.776 33.8408 128.266C33.3308 128.746 33.0408 129.376 32.9708 130.156H38.5658C38.4958 129.376 38.2008 128.746 37.6808 128.266C37.1708 127.776 36.5308 127.531 35.7608 127.531ZM6.27 175.656C5.23 175.656 4.29 175.426 3.45 174.966C2.62 174.506 1.965 173.871 1.485 173.061C1.015 172.241 0.78 171.326 0.78 170.316C0.78 169.306 1.015 168.396 1.485 167.586C1.965 166.766 2.625 166.126 3.465 165.666C4.305 165.206 5.245 164.976 6.285 164.976C7.065 164.976 7.785 165.106 8.445 165.366C9.105 165.626 9.665 166.006 10.125 166.506L9.42 167.211C8.6 166.381 7.565 165.966 6.315 165.966C5.485 165.966 4.73 166.156 4.05 166.536C3.37 166.916 2.835 167.436 2.445 168.096C2.065 168.756 1.875 169.496 1.875 170.316C1.875 171.136 2.065 171.876 2.445 172.536C2.835 173.196 3.37 173.716 4.05 174.096C4.73 174.476 5.485 174.666 6.315 174.666C7.575 174.666 8.61 174.246 9.42 173.406L10.125 174.111C9.665 174.611 9.1 174.996 8.43 175.266C7.77 175.526 7.05 175.656 6.27 175.656ZM15.1397 175.641C14.3797 175.641 13.6947 175.471 13.0847 175.131C12.4747 174.781 11.9947 174.301 11.6447 173.691C11.2947 173.081 11.1197 172.391 11.1197 171.621C11.1197 170.851 11.2947 170.161 11.6447 169.551C11.9947 168.941 12.4747 168.466 13.0847 168.126C13.6947 167.786 14.3797 167.616 15.1397 167.616C15.8997 167.616 16.5847 167.786 17.1947 168.126C17.8047 168.466 18.2797 168.941 18.6197 169.551C18.9697 170.161 19.1447 170.851 19.1447 171.621C19.1447 172.391 18.9697 173.081 18.6197 173.691C18.2797 174.301 17.8047 174.781 17.1947 175.131C16.5847 175.471 15.8997 175.641 15.1397 175.641ZM15.1397 174.696C15.6997 174.696 16.1997 174.571 16.6397 174.321C17.0897 174.061 17.4397 173.696 17.6897 173.226C17.9397 172.756 18.0647 172.221 18.0647 171.621C18.0647 171.021 17.9397 170.486 17.6897 170.016C17.4397 169.546 17.0897 169.186 16.6397 168.936C16.1997 168.676 15.6997 168.546 15.1397 168.546C14.5797 168.546 14.0747 168.676 13.6247 168.936C13.1847 169.186 12.8347 169.546 12.5747 170.016C12.3247 170.486 12.1997 171.021 12.1997 171.621C12.1997 172.221 12.3247 172.756 12.5747 173.226C12.8347 173.696 13.1847 174.061 13.6247 174.321C14.0747 174.571 14.5797 174.696 15.1397 174.696ZM31.159 167.616C32.149 167.616 32.924 167.901 33.484 168.471C34.054 169.041 34.339 169.881 34.339 170.991V175.566H33.274V171.096C33.274 170.276 33.074 169.651 32.674 169.221C32.284 168.791 31.729 168.576 31.009 168.576C30.189 168.576 29.544 168.831 29.074 169.341C28.604 169.841 28.369 170.536 28.369 171.426V175.566H27.304V171.096C27.304 170.276 27.104 169.651 26.704 169.221C26.314 168.791 25.754 168.576 25.024 168.576C24.214 168.576 23.569 168.831 23.089 169.341C22.619 169.841 22.384 170.536 22.384 171.426V175.566H21.319V167.676H22.339V169.116C22.619 168.636 23.009 168.266 23.509 168.006C24.009 167.746 24.584 167.616 25.234 167.616C25.894 167.616 26.464 167.756 26.944 168.036C27.434 168.316 27.799 168.731 28.039 169.281C28.329 168.761 28.744 168.356 29.284 168.066C29.834 167.766 30.459 167.616 31.159 167.616ZM41.2922 167.616C42.0322 167.616 42.7022 167.786 43.3022 168.126C43.9022 168.456 44.3722 168.926 44.7122 169.536C45.0522 170.146 45.2222 170.841 45.2222 171.621C45.2222 172.411 45.0522 173.111 44.7122 173.721C44.3722 174.331 43.9022 174.806 43.3022 175.146C42.7122 175.476 42.0422 175.641 41.2922 175.641C40.6522 175.641 40.0722 175.511 39.5522 175.251C39.0422 174.981 38.6222 174.591 38.2922 174.081V178.476H37.2272V167.676H38.2472V169.236C38.5672 168.716 38.9872 168.316 39.5072 168.036C40.0372 167.756 40.6322 167.616 41.2922 167.616ZM41.2172 174.696C41.7672 174.696 42.2672 174.571 42.7172 174.321C43.1672 174.061 43.5172 173.696 43.7672 173.226C44.0272 172.756 44.1572 172.221 44.1572 171.621C44.1572 171.021 44.0272 170.491 43.7672 170.031C43.5172 169.561 43.1672 169.196 42.7172 168.936C42.2672 168.676 41.7672 168.546 41.2172 168.546C40.6572 168.546 40.1522 168.676 39.7022 168.936C39.2622 169.196 38.9122 169.561 38.6522 170.031C38.4022 170.491 38.2772 171.021 38.2772 171.621C38.2772 172.221 38.4022 172.756 38.6522 173.226C38.9122 173.696 39.2622 174.061 39.7022 174.321C40.1522 174.571 40.6572 174.696 41.2172 174.696ZM50.6182 175.641C49.8582 175.641 49.1732 175.471 48.5632 175.131C47.9532 174.781 47.4732 174.301 47.1232 173.691C46.7732 173.081 46.5982 172.391 46.5982 171.621C46.5982 170.851 46.7732 170.161 47.1232 169.551C47.4732 168.941 47.9532 168.466 48.5632 168.126C49.1732 167.786 49.8582 167.616 50.6182 167.616C51.3782 167.616 52.0632 167.786 52.6732 168.126C53.2832 168.466 53.7582 168.941 54.0982 169.551C54.4482 170.161 54.6232 170.851 54.6232 171.621C54.6232 172.391 54.4482 173.081 54.0982 173.691C53.7582 174.301 53.2832 174.781 52.6732 175.131C52.0632 175.471 51.3782 175.641 50.6182 175.641ZM50.6182 174.696C51.1782 174.696 51.6782 174.571 52.1182 174.321C52.5682 174.061 52.9182 173.696 53.1682 173.226C53.4182 172.756 53.5432 172.221 53.5432 171.621C53.5432 171.021 53.4182 170.486 53.1682 170.016C52.9182 169.546 52.5682 169.186 52.1182 168.936C51.6782 168.676 51.1782 168.546 50.6182 168.546C50.0582 168.546 49.5532 168.676 49.1032 168.936C48.6632 169.186 48.3132 169.546 48.0532 170.016C47.8032 170.486 47.6782 171.021 47.6782 171.621C47.6782 172.221 47.8032 172.756 48.0532 173.226C48.3132 173.696 48.6632 174.061 49.1032 174.321C49.5532 174.571 50.0582 174.696 50.6182 174.696ZM60.8175 167.616C61.8075 167.616 62.5925 167.906 63.1725 168.486C63.7625 169.056 64.0575 169.891 64.0575 170.991V175.566H62.9925V171.096C62.9925 170.276 62.7875 169.651 62.3775 169.221C61.9675 168.791 61.3825 168.576 60.6225 168.576C59.7725 168.576 59.0975 168.831 58.5975 169.341C58.1075 169.841 57.8625 170.536 57.8625 171.426V175.566H56.7975V167.676H57.8175V169.131C58.1075 168.651 58.5075 168.281 59.0175 168.021C59.5375 167.751 60.1375 167.616 60.8175 167.616ZM73.8482 171.951H67.2482C67.3082 172.771 67.6232 173.436 68.1932 173.946C68.7632 174.446 69.4832 174.696 70.3532 174.696C70.8432 174.696 71.2932 174.611 71.7032 174.441C72.1132 174.261 72.4682 174.001 72.7682 173.661L73.3682 174.351C73.0182 174.771 72.5782 175.091 72.0482 175.311C71.5282 175.531 70.9532 175.641 70.3232 175.641C69.5132 175.641 68.7932 175.471 68.1632 175.131C67.5432 174.781 67.0582 174.301 66.7082 173.691C66.3582 173.081 66.1832 172.391 66.1832 171.621C66.1832 170.851 66.3482 170.161 66.6782 169.551C67.0182 168.941 67.4782 168.466 68.0582 168.126C68.6482 167.786 69.3082 167.616 70.0382 167.616C70.7682 167.616 71.4232 167.786 72.0032 168.126C72.5832 168.466 73.0382 168.941 73.3682 169.551C73.6982 170.151 73.8632 170.841 73.8632 171.621L73.8482 171.951ZM70.0382 168.531C69.2782 168.531 68.6382 168.776 68.1182 169.266C67.6082 169.746 67.3182 170.376 67.2482 171.156H72.8432C72.7732 170.376 72.4782 169.746 71.9582 169.266C71.4482 168.776 70.8082 168.531 70.0382 168.531ZM80.0509 167.616C81.0409 167.616 81.8259 167.906 82.4059 168.486C82.9959 169.056 83.2909 169.891 83.2909 170.991V175.566H82.2259V171.096C82.2259 170.276 82.0209 169.651 81.6109 169.221C81.2009 168.791 80.6159 168.576 79.8559 168.576C79.0059 168.576 78.3309 168.831 77.8309 169.341C77.3409 169.841 77.0959 170.536 77.0959 171.426V175.566H76.0309V167.676H77.0509V169.131C77.3409 168.651 77.7409 168.281 78.2509 168.021C78.7709 167.751 79.3709 167.616 80.0509 167.616ZM90.3373 175.086C90.1373 175.266 89.8873 175.406 89.5873 175.506C89.2973 175.596 88.9923 175.641 88.6723 175.641C87.9323 175.641 87.3623 175.441 86.9623 175.041C86.5623 174.641 86.3623 174.076 86.3623 173.346V168.576H84.9523V167.676H86.3623V165.951H87.4273V167.676H89.8273V168.576H87.4273V173.286C87.4273 173.756 87.5423 174.116 87.7723 174.366C88.0123 174.606 88.3523 174.726 88.7923 174.726C89.0123 174.726 89.2223 174.691 89.4223 174.621C89.6323 174.551 89.8123 174.451 89.9623 174.321L90.3373 175.086ZM3.6 215.641C2.96 215.641 2.345 215.551 1.755 215.371C1.175 215.181 0.72 214.946 0.39 214.666L0.87 213.826C1.2 214.086 1.615 214.301 2.115 214.471C2.615 214.631 3.135 214.711 3.675 214.711C4.395 214.711 4.925 214.601 5.265 214.381C5.615 214.151 5.79 213.831 5.79 213.421C5.79 213.131 5.695 212.906 5.505 212.746C5.315 212.576 5.075 212.451 4.785 212.371C4.495 212.281 4.11 212.196 3.63 212.116C2.99 211.996 2.475 211.876 2.085 211.756C1.695 211.626 1.36 211.411 1.08 211.111C0.81 210.811 0.675 210.396 0.675 209.866C0.675 209.206 0.95 208.666 1.5 208.246C2.05 207.826 2.815 207.616 3.795 207.616C4.305 207.616 4.815 207.686 5.325 207.826C5.835 207.956 6.255 208.131 6.585 208.351L6.12 209.206C5.47 208.756 4.695 208.531 3.795 208.531C3.115 208.531 2.6 208.651 2.25 208.891C1.91 209.131 1.74 209.446 1.74 209.836C1.74 210.136 1.835 210.376 2.025 210.556C2.225 210.736 2.47 210.871 2.76 210.961C3.05 211.041 3.45 211.126 3.96 211.216C4.59 211.336 5.095 211.456 5.475 211.576C5.855 211.696 6.18 211.901 6.45 212.191C6.72 212.481 6.855 212.881 6.855 213.391C6.855 214.081 6.565 214.631 5.985 215.041C5.415 215.441 4.62 215.641 3.6 215.641Z" fill="white"/>
</svg>
