<svg width="68" height="12" viewBox="0 0 68 12" fill="none" xmlns="http://www.w3.org/2000/svg">
<path d="M3.646 11.084C3.086 11.084 2.568 10.9627 2.092 10.72C1.616 10.4773 1.22867 10.132 0.93 9.684L1.546 8.984C2.08733 9.78667 2.792 10.188 3.66 10.188C4.87333 10.188 5.48 9.46933 5.48 8.032V2.096H1.896V1.2H6.502V7.99C6.502 9.01667 6.25933 9.79133 5.774 10.314C5.298 10.8273 4.58867 11.084 3.646 11.084ZM12.4097 11.07C11.7003 11.07 11.061 10.9113 10.4917 10.594C9.92234 10.2673 9.47434 9.81933 9.14767 9.25C8.82101 8.68067 8.65767 8.03667 8.65767 7.318C8.65767 6.59933 8.82101 5.95533 9.14767 5.386C9.47434 4.81667 9.92234 4.37333 10.4917 4.056C11.061 3.73867 11.7003 3.58 12.4097 3.58C13.119 3.58 13.7583 3.73867 14.3277 4.056C14.897 4.37333 15.3403 4.81667 15.6577 5.386C15.9843 5.95533 16.1477 6.59933 16.1477 7.318C16.1477 8.03667 15.9843 8.68067 15.6577 9.25C15.3403 9.81933 14.897 10.2673 14.3277 10.594C13.7583 10.9113 13.119 11.07 12.4097 11.07ZM12.4097 10.188C12.9323 10.188 13.399 10.0713 13.8097 9.838C14.2297 9.59533 14.5563 9.25467 14.7897 8.816C15.023 8.37733 15.1397 7.878 15.1397 7.318C15.1397 6.758 15.023 6.25867 14.7897 5.82C14.5563 5.38133 14.2297 5.04533 13.8097 4.812C13.399 4.56933 12.9323 4.448 12.4097 4.448C11.887 4.448 11.4157 4.56933 10.9957 4.812C10.585 5.04533 10.2583 5.38133 10.0157 5.82C9.78234 6.25867 9.66567 6.758 9.66567 7.318C9.66567 7.878 9.78234 8.37733 10.0157 8.816C10.2583 9.25467 10.585 9.59533 10.9957 9.838C11.4157 10.0713 11.887 10.188 12.4097 10.188ZM21.929 3.58C22.853 3.58 23.5857 3.85067 24.127 4.392C24.6777 4.924 24.953 5.70333 24.953 6.73V11H23.959V6.828C23.959 6.06267 23.7677 5.47933 23.385 5.078C23.0023 4.67667 22.4563 4.476 21.747 4.476C20.9537 4.476 20.3237 4.714 19.857 5.19C19.3997 5.65667 19.171 6.30533 19.171 7.136V11H18.177V0.611999H19.171V4.924C19.4417 4.49467 19.815 4.16333 20.291 3.93C20.767 3.69667 21.313 3.58 21.929 3.58ZM31.4036 3.58C32.3276 3.58 33.0603 3.85067 33.6016 4.392C34.1523 4.924 34.4276 5.70333 34.4276 6.73V11H33.4336V6.828C33.4336 6.06267 33.2423 5.47933 32.8596 5.078C32.477 4.67667 31.931 4.476 31.2216 4.476C30.4283 4.476 29.7983 4.714 29.3316 5.19C28.8743 5.65667 28.6456 6.30533 28.6456 7.136V11H27.6516V3.636H28.6036V4.994C28.8743 4.546 29.2476 4.20067 29.7236 3.958C30.209 3.706 30.769 3.58 31.4036 3.58ZM41.0003 1.2H44.9903C46.0263 1.2 46.941 1.41 47.7343 1.83C48.5276 2.24067 49.1436 2.81933 49.5823 3.566C50.021 4.30333 50.2403 5.148 50.2403 6.1C50.2403 7.052 50.021 7.90133 49.5823 8.648C49.1436 9.38533 48.5276 9.964 47.7343 10.384C46.941 10.7947 46.0263 11 44.9903 11H41.0003V1.2ZM44.9343 10.104C45.793 10.104 46.5443 9.936 47.1883 9.6C47.8323 9.25467 48.3316 8.78333 48.6863 8.186C49.041 7.57933 49.2183 6.884 49.2183 6.1C49.2183 5.316 49.041 4.62533 48.6863 4.028C48.3316 3.42133 47.8323 2.95 47.1883 2.614C46.5443 2.26867 45.793 2.096 44.9343 2.096H42.0363V10.104H44.9343ZM55.3667 11.07C54.6574 11.07 54.018 10.9113 53.4487 10.594C52.8794 10.2673 52.4314 9.81933 52.1047 9.25C51.778 8.68067 51.6147 8.03667 51.6147 7.318C51.6147 6.59933 51.778 5.95533 52.1047 5.386C52.4314 4.81667 52.8794 4.37333 53.4487 4.056C54.018 3.73867 54.6574 3.58 55.3667 3.58C56.076 3.58 56.7154 3.73867 57.2847 4.056C57.854 4.37333 58.2974 4.81667 58.6147 5.386C58.9414 5.95533 59.1047 6.59933 59.1047 7.318C59.1047 8.03667 58.9414 8.68067 58.6147 9.25C58.2974 9.81933 57.854 10.2673 57.2847 10.594C56.7154 10.9113 56.076 11.07 55.3667 11.07ZM55.3667 10.188C55.8894 10.188 56.356 10.0713 56.7667 9.838C57.1867 9.59533 57.5134 9.25467 57.7467 8.816C57.98 8.37733 58.0967 7.878 58.0967 7.318C58.0967 6.758 57.98 6.25867 57.7467 5.82C57.5134 5.38133 57.1867 5.04533 56.7667 4.812C56.356 4.56933 55.8894 4.448 55.3667 4.448C54.844 4.448 54.3727 4.56933 53.9527 4.812C53.542 5.04533 53.2154 5.38133 52.9727 5.82C52.7394 6.25867 52.6227 6.758 52.6227 7.318C52.6227 7.878 52.7394 8.37733 52.9727 8.816C53.2154 9.25467 53.542 9.59533 53.9527 9.838C54.3727 10.0713 54.844 10.188 55.3667 10.188ZM67.546 7.626H61.386C61.442 8.39133 61.736 9.012 62.268 9.488C62.8 9.95467 63.472 10.188 64.284 10.188C64.7414 10.188 65.1614 10.1087 65.544 9.95C65.9267 9.782 66.258 9.53933 66.538 9.222L67.098 9.866C66.7714 10.258 66.3607 10.5567 65.866 10.762C65.3807 10.9673 64.844 11.07 64.256 11.07C63.5 11.07 62.828 10.9113 62.24 10.594C61.6614 10.2673 61.2087 9.81933 60.882 9.25C60.5554 8.68067 60.392 8.03667 60.392 7.318C60.392 6.59933 60.546 5.95533 60.854 5.386C61.1714 4.81667 61.6007 4.37333 62.142 4.056C62.6927 3.73867 63.3087 3.58 63.99 3.58C64.6714 3.58 65.2827 3.73867 65.824 4.056C66.3654 4.37333 66.79 4.81667 67.098 5.386C67.406 5.946 67.56 6.59 67.56 7.318L67.546 7.626ZM63.99 4.434C63.2807 4.434 62.6834 4.66267 62.198 5.12C61.722 5.568 61.4514 6.156 61.386 6.884H66.608C66.5427 6.156 66.2674 5.568 65.782 5.12C65.306 4.66267 64.7087 4.434 63.99 4.434Z" fill="white"/>
</svg>
