<svg width="112" height="53" viewBox="0 0 112 53" fill="none" xmlns="http://www.w3.org/2000/svg">
<path d="M11.615 1.03772V11.5377H10.55V3.13772L6.425 10.2027H5.9L1.775 3.18272V11.5377H0.71V1.03772H1.625L6.185 8.82272L10.7 1.03772H11.615ZM21.6812 7.92272H15.0812C15.1412 8.74272 15.4562 9.40772 16.0262 9.91772C16.5962 10.4177 17.3162 10.6677 18.1862 10.6677C18.6762 10.6677 19.1262 10.5827 19.5362 10.4127C19.9462 10.2327 20.3012 9.97272 20.6012 9.63272L21.2012 10.3227C20.8512 10.7427 20.4112 11.0627 19.8812 11.2827C19.3612 11.5027 18.7862 11.6127 18.1562 11.6127C17.3462 11.6127 16.6262 11.4427 15.9962 11.1027C15.3762 10.7527 14.8912 10.2727 14.5412 9.66272C14.1912 9.05272 14.0162 8.36272 14.0162 7.59272C14.0162 6.82272 14.1812 6.13272 14.5112 5.52272C14.8512 4.91272 15.3112 4.43772 15.8912 4.09772C16.4812 3.75772 17.1412 3.58772 17.8712 3.58772C18.6012 3.58772 19.2562 3.75772 19.8362 4.09772C20.4162 4.43772 20.8712 4.91272 21.2012 5.52272C21.5312 6.12272 21.6962 6.81272 21.6962 7.59272L21.6812 7.92272ZM17.8712 4.50272C17.1112 4.50272 16.4712 4.74772 15.9512 5.23772C15.4412 5.71772 15.1512 6.34772 15.0812 7.12772H20.6762C20.6062 6.34772 20.3112 5.71772 19.7912 5.23772C19.2812 4.74772 18.6412 4.50272 17.8712 4.50272ZM27.8839 3.58772C28.8739 3.58772 29.6589 3.87772 30.2389 4.45772C30.8289 5.02772 31.1239 5.86272 31.1239 6.96272V11.5377H30.0589V7.06772C30.0589 6.24772 29.8539 5.62272 29.4439 5.19272C29.0339 4.76272 28.4489 4.54772 27.6889 4.54772C26.8389 4.54772 26.1639 4.80272 25.6639 5.31272C25.1739 5.81272 24.9289 6.50772 24.9289 7.39772V11.5377H23.8639V3.64772H24.8839V5.10272C25.1739 4.62272 25.5739 4.25272 26.0839 3.99272C26.6039 3.72272 27.2039 3.58772 27.8839 3.58772ZM41.1253 3.64772V11.5377H40.1053V10.0977C39.8253 10.5777 39.4403 10.9527 38.9503 11.2227C38.4603 11.4827 37.9003 11.6127 37.2703 11.6127C36.2403 11.6127 35.4253 11.3277 34.8253 10.7577C34.2353 10.1777 33.9403 9.33272 33.9403 8.22272V3.64772H35.0053V8.11772C35.0053 8.94772 35.2103 9.57772 35.6203 10.0077C36.0303 10.4377 36.6153 10.6527 37.3753 10.6527C38.2053 10.6527 38.8603 10.4027 39.3403 9.90272C39.8203 9.39272 40.0603 8.68772 40.0603 7.78772V3.64772H41.1253ZM48.2588 1.03772H49.3688V10.5777H55.2488V11.5377H48.2588V1.03772ZM63.6196 7.92272H57.0196C57.0796 8.74272 57.3946 9.40772 57.9646 9.91772C58.5346 10.4177 59.2546 10.6677 60.1246 10.6677C60.6146 10.6677 61.0646 10.5827 61.4746 10.4127C61.8846 10.2327 62.2396 9.97272 62.5396 9.63272L63.1396 10.3227C62.7896 10.7427 62.3496 11.0627 61.8196 11.2827C61.2996 11.5027 60.7246 11.6127 60.0946 11.6127C59.2846 11.6127 58.5646 11.4427 57.9346 11.1027C57.3146 10.7527 56.8296 10.2727 56.4796 9.66272C56.1296 9.05272 55.9546 8.36272 55.9546 7.59272C55.9546 6.82272 56.1196 6.13272 56.4496 5.52272C56.7896 4.91272 57.2496 4.43772 57.8296 4.09772C58.4196 3.75772 59.0796 3.58772 59.8096 3.58772C60.5396 3.58772 61.1946 3.75772 61.7746 4.09772C62.3546 4.43772 62.8096 4.91272 63.1396 5.52272C63.4696 6.12272 63.6346 6.81272 63.6346 7.59272L63.6196 7.92272ZM59.8096 4.50272C59.0496 4.50272 58.4096 4.74772 57.8896 5.23772C57.3796 5.71772 57.0896 6.34772 57.0196 7.12772H62.6146C62.5446 6.34772 62.2496 5.71772 61.7296 5.23772C61.2196 4.74772 60.5796 4.50272 59.8096 4.50272ZM72.2859 3.64772L68.7759 11.5377H67.6809L64.1859 3.64772H65.2959L68.2509 10.3677L71.2359 3.64772H72.2859ZM80.4361 7.92272H73.8361C73.8961 8.74272 74.2111 9.40772 74.7811 9.91772C75.3511 10.4177 76.0711 10.6677 76.9411 10.6677C77.4311 10.6677 77.8811 10.5827 78.2911 10.4127C78.7011 10.2327 79.0561 9.97272 79.3561 9.63272L79.9561 10.3227C79.6061 10.7427 79.1661 11.0627 78.6361 11.2827C78.1161 11.5027 77.5411 11.6127 76.9111 11.6127C76.1011 11.6127 75.3811 11.4427 74.7511 11.1027C74.1311 10.7527 73.6461 10.2727 73.2961 9.66272C72.9461 9.05272 72.7711 8.36272 72.7711 7.59272C72.7711 6.82272 72.9361 6.13272 73.2661 5.52272C73.6061 4.91272 74.0661 4.43772 74.6461 4.09772C75.2361 3.75772 75.8961 3.58772 76.6261 3.58772C77.3561 3.58772 78.0111 3.75772 78.5911 4.09772C79.1711 4.43772 79.6261 4.91272 79.9561 5.52272C80.2861 6.12272 80.4511 6.81272 80.4511 7.59272L80.4361 7.92272ZM76.6261 4.50272C75.8661 4.50272 75.2261 4.74772 74.7061 5.23772C74.1961 5.71772 73.9061 6.34772 73.8361 7.12772H79.4311C79.3611 6.34772 79.0661 5.71772 78.5461 5.23772C78.0361 4.74772 77.3961 4.50272 76.6261 4.50272ZM82.6188 0.407719H83.6838V11.5377H82.6188V0.407719ZM88.7621 11.6127C88.1221 11.6127 87.5071 11.5227 86.9171 11.3427C86.3371 11.1527 85.8821 10.9177 85.5521 10.6377L86.0321 9.79772C86.3621 10.0577 86.7771 10.2727 87.2771 10.4427C87.7771 10.6027 88.2971 10.6827 88.8371 10.6827C89.5571 10.6827 90.0871 10.5727 90.4271 10.3527C90.7771 10.1227 90.9521 9.80272 90.9521 9.39272C90.9521 9.10272 90.8571 8.87772 90.6671 8.71772C90.4771 8.54772 90.2371 8.42272 89.9471 8.34272C89.6571 8.25272 89.2721 8.16772 88.7921 8.08772C88.1521 7.96772 87.6371 7.84772 87.2471 7.72772C86.8571 7.59772 86.5221 7.38272 86.2421 7.08272C85.9721 6.78272 85.8371 6.36772 85.8371 5.83772C85.8371 5.17772 86.1121 4.63772 86.6621 4.21772C87.2121 3.79772 87.9771 3.58772 88.9571 3.58772C89.4671 3.58772 89.9771 3.65772 90.4871 3.79772C90.9971 3.92772 91.4171 4.10272 91.7471 4.32272L91.2821 5.17772C90.6321 4.72772 89.8571 4.50272 88.9571 4.50272C88.2771 4.50272 87.7621 4.62272 87.4121 4.86272C87.0721 5.10272 86.9021 5.41772 86.9021 5.80772C86.9021 6.10772 86.9971 6.34772 87.1871 6.52772C87.3871 6.70772 87.6321 6.84272 87.9221 6.93272C88.2121 7.01272 88.6121 7.09772 89.1221 7.18772C89.7521 7.30772 90.2571 7.42772 90.6371 7.54772C91.0171 7.66772 91.3421 7.87272 91.6121 8.16272C91.8821 8.45272 92.0171 8.85272 92.0171 9.36272C92.0171 10.0527 91.7271 10.6027 91.1471 11.0127C90.5771 11.4127 89.7821 11.6127 88.7621 11.6127Z" fill="white"/>
<path d="M0.71 42.0377H4.985C6.095 42.0377 7.075 42.2627 7.925 42.7127C8.775 43.1527 9.435 43.7727 9.905 44.5727C10.375 45.3627 10.61 46.2677 10.61 47.2877C10.61 48.3077 10.375 49.2177 9.905 50.0177C9.435 50.8077 8.775 51.4277 7.925 51.8777C7.075 52.3177 6.095 52.5377 4.985 52.5377H0.71V42.0377ZM4.925 51.5777C5.845 51.5777 6.65 51.3977 7.34 51.0377C8.03 50.6677 8.565 50.1627 8.945 49.5227C9.325 48.8727 9.515 48.1277 9.515 47.2877C9.515 46.4477 9.325 45.7077 8.945 45.0677C8.565 44.4177 8.03 43.9127 7.34 43.5527C6.65 43.1827 5.845 42.9977 4.925 42.9977H1.82V51.5777H4.925ZM12.8776 44.6477H13.9426V52.5377H12.8776V44.6477ZM13.4176 42.9227C13.1976 42.9227 13.0126 42.8477 12.8626 42.6977C12.7126 42.5477 12.6376 42.3677 12.6376 42.1577C12.6376 41.9577 12.7126 41.7827 12.8626 41.6327C13.0126 41.4827 13.1976 41.4077 13.4176 41.4077C13.6376 41.4077 13.8226 41.4827 13.9726 41.6327C14.1226 41.7727 14.1976 41.9427 14.1976 42.1427C14.1976 42.3627 14.1226 42.5477 13.9726 42.6977C13.8226 42.8477 13.6376 42.9227 13.4176 42.9227ZM19.0209 52.6127C18.3809 52.6127 17.7659 52.5227 17.1759 52.3427C16.5959 52.1527 16.1409 51.9177 15.8109 51.6377L16.2909 50.7977C16.6209 51.0577 17.0359 51.2727 17.5359 51.4427C18.0359 51.6027 18.5559 51.6827 19.0959 51.6827C19.8159 51.6827 20.3459 51.5727 20.6859 51.3527C21.0359 51.1227 21.2109 50.8027 21.2109 50.3927C21.2109 50.1027 21.1159 49.8777 20.9259 49.7177C20.7359 49.5477 20.4959 49.4227 20.2059 49.3427C19.9159 49.2527 19.5309 49.1677 19.0509 49.0877C18.4109 48.9677 17.8959 48.8477 17.5059 48.7277C17.1159 48.5977 16.7809 48.3827 16.5009 48.0827C16.2309 47.7827 16.0959 47.3677 16.0959 46.8377C16.0959 46.1777 16.3709 45.6377 16.9209 45.2177C17.4709 44.7977 18.2359 44.5877 19.2159 44.5877C19.7259 44.5877 20.2359 44.6577 20.7459 44.7977C21.2559 44.9277 21.6759 45.1027 22.0059 45.3227L21.5409 46.1777C20.8909 45.7277 20.1159 45.5027 19.2159 45.5027C18.5359 45.5027 18.0209 45.6227 17.6709 45.8627C17.3309 46.1027 17.1609 46.4177 17.1609 46.8077C17.1609 47.1077 17.2559 47.3477 17.4459 47.5277C17.6459 47.7077 17.8909 47.8427 18.1809 47.9327C18.4709 48.0127 18.8709 48.0977 19.3809 48.1877C20.0109 48.3077 20.5159 48.4277 20.8959 48.5477C21.2759 48.6677 21.6009 48.8727 21.8709 49.1627C22.1409 49.4527 22.2759 49.8527 22.2759 50.3627C22.2759 51.0527 21.9859 51.6027 21.4059 52.0127C20.8359 52.4127 20.0409 52.6127 19.0209 52.6127ZM27.0048 44.5877C28.0348 44.5877 28.8248 44.8477 29.3748 45.3677C29.9248 45.8777 30.1998 46.6377 30.1998 47.6477V52.5377H29.1798V51.3077C28.9398 51.7177 28.5848 52.0377 28.1148 52.2677C27.6548 52.4977 27.1048 52.6127 26.4648 52.6127C25.5848 52.6127 24.8848 52.4027 24.3648 51.9827C23.8448 51.5627 23.5848 51.0077 23.5848 50.3177C23.5848 49.6477 23.8248 49.1077 24.3048 48.6977C24.7948 48.2877 25.5698 48.0827 26.6298 48.0827H29.1348V47.6027C29.1348 46.9227 28.9448 46.4077 28.5648 46.0577C28.1848 45.6977 27.6298 45.5177 26.8998 45.5177C26.3998 45.5177 25.9198 45.6027 25.4598 45.7727C24.9998 45.9327 24.6048 46.1577 24.2748 46.4477L23.7948 45.6527C24.1948 45.3127 24.6748 45.0527 25.2348 44.8727C25.7948 44.6827 26.3848 44.5877 27.0048 44.5877ZM26.6298 51.7727C27.2298 51.7727 27.7448 51.6377 28.1748 51.3677C28.6048 51.0877 28.9248 50.6877 29.1348 50.1677V48.8777H26.6598C25.3098 48.8777 24.6348 49.3477 24.6348 50.2877C24.6348 50.7477 24.8098 51.1127 25.1598 51.3827C25.5098 51.6427 25.9998 51.7727 26.6298 51.7727ZM37.1574 44.5877C37.8974 44.5877 38.5674 44.7577 39.1674 45.0977C39.7674 45.4277 40.2374 45.8977 40.5774 46.5077C40.9174 47.1177 41.0874 47.8127 41.0874 48.5927C41.0874 49.3727 40.9174 50.0677 40.5774 50.6777C40.2374 51.2877 39.7674 51.7627 39.1674 52.1027C38.5674 52.4427 37.8974 52.6127 37.1574 52.6127C36.4974 52.6127 35.9024 52.4727 35.3724 52.1927C34.8524 51.9127 34.4324 51.5077 34.1124 50.9777V52.5377H33.0924V41.4077H34.1574V46.1477C34.4874 45.6377 34.9074 45.2527 35.4174 44.9927C35.9374 44.7227 36.5174 44.5877 37.1574 44.5877ZM37.0824 51.6677C37.6324 51.6677 38.1324 51.5427 38.5824 51.2927C39.0324 51.0327 39.3824 50.6677 39.6324 50.1977C39.8924 49.7277 40.0224 49.1927 40.0224 48.5927C40.0224 47.9927 39.8924 47.4577 39.6324 46.9877C39.3824 46.5177 39.0324 46.1577 38.5824 45.9077C38.1324 45.6477 37.6324 45.5177 37.0824 45.5177C36.5224 45.5177 36.0174 45.6477 35.5674 45.9077C35.1274 46.1577 34.7774 46.5177 34.5174 46.9877C34.2674 47.4577 34.1424 47.9927 34.1424 48.5927C34.1424 49.1927 34.2674 49.7277 34.5174 50.1977C34.7774 50.6677 35.1274 51.0327 35.5674 51.2927C36.0174 51.5427 36.5224 51.6677 37.0824 51.6677ZM43.2584 41.4077H44.3234V52.5377H43.2584V41.4077ZM54.1568 48.9227H47.5568C47.6168 49.7427 47.9318 50.4077 48.5018 50.9177C49.0718 51.4177 49.7918 51.6677 50.6618 51.6677C51.1518 51.6677 51.6018 51.5827 52.0118 51.4127C52.4218 51.2327 52.7768 50.9727 53.0768 50.6327L53.6768 51.3227C53.3268 51.7427 52.8868 52.0627 52.3568 52.2827C51.8368 52.5027 51.2618 52.6127 50.6318 52.6127C49.8218 52.6127 49.1018 52.4427 48.4718 52.1027C47.8518 51.7527 47.3668 51.2727 47.0168 50.6627C46.6668 50.0527 46.4918 49.3627 46.4918 48.5927C46.4918 47.8227 46.6568 47.1327 46.9868 46.5227C47.3268 45.9127 47.7868 45.4377 48.3668 45.0977C48.9568 44.7577 49.6168 44.5877 50.3468 44.5877C51.0768 44.5877 51.7318 44.7577 52.3118 45.0977C52.8918 45.4377 53.3468 45.9127 53.6768 46.5227C54.0068 47.1227 54.1718 47.8127 54.1718 48.5927L54.1568 48.9227ZM50.3468 45.5027C49.5868 45.5027 48.9468 45.7477 48.4268 46.2377C47.9168 46.7177 47.6268 47.3477 47.5568 48.1277H53.1518C53.0818 47.3477 52.7868 46.7177 52.2668 46.2377C51.7568 45.7477 51.1168 45.5027 50.3468 45.5027ZM63.5395 41.4077V52.5377H62.5195V50.9777C62.1995 51.5077 61.7745 51.9127 61.2445 52.1927C60.7245 52.4727 60.1345 52.6127 59.4745 52.6127C58.7345 52.6127 58.0645 52.4427 57.4645 52.1027C56.8645 51.7627 56.3945 51.2877 56.0545 50.6777C55.7145 50.0677 55.5445 49.3727 55.5445 48.5927C55.5445 47.8127 55.7145 47.1177 56.0545 46.5077C56.3945 45.8977 56.8645 45.4277 57.4645 45.0977C58.0645 44.7577 58.7345 44.5877 59.4745 44.5877C60.1145 44.5877 60.6895 44.7227 61.1995 44.9927C61.7195 45.2527 62.1445 45.6377 62.4745 46.1477V41.4077H63.5395ZM59.5645 51.6677C60.1145 51.6677 60.6095 51.5427 61.0495 51.2927C61.4995 51.0327 61.8495 50.6677 62.0995 50.1977C62.3595 49.7277 62.4895 49.1927 62.4895 48.5927C62.4895 47.9927 62.3595 47.4577 62.0995 46.9877C61.8495 46.5177 61.4995 46.1577 61.0495 45.9077C60.6095 45.6477 60.1145 45.5177 59.5645 45.5177C59.0045 45.5177 58.4995 45.6477 58.0495 45.9077C57.6095 46.1577 57.2595 46.5177 56.9995 46.9877C56.7495 47.4577 56.6245 47.9927 56.6245 48.5927C56.6245 49.1927 56.7495 49.7277 56.9995 50.1977C57.2595 50.6677 57.6095 51.0327 58.0495 51.2927C58.4995 51.5427 59.0045 51.6677 59.5645 51.6677ZM81.5613 42.0377V52.5377H80.4963V44.1377L76.3713 51.2027H75.8463L71.7213 44.1827V52.5377H70.6563V42.0377H71.5713L76.1313 49.8227L80.6463 42.0377H81.5613ZM91.6275 48.9227H85.0275C85.0875 49.7427 85.4025 50.4077 85.9725 50.9177C86.5425 51.4177 87.2625 51.6677 88.1325 51.6677C88.6225 51.6677 89.0725 51.5827 89.4825 51.4127C89.8925 51.2327 90.2475 50.9727 90.5475 50.6327L91.1475 51.3227C90.7975 51.7427 90.3575 52.0627 89.8275 52.2827C89.3075 52.5027 88.7325 52.6127 88.1025 52.6127C87.2925 52.6127 86.5725 52.4427 85.9425 52.1027C85.3225 51.7527 84.8375 51.2727 84.4875 50.6627C84.1375 50.0527 83.9625 49.3627 83.9625 48.5927C83.9625 47.8227 84.1275 47.1327 84.4575 46.5227C84.7975 45.9127 85.2575 45.4377 85.8375 45.0977C86.4275 44.7577 87.0875 44.5877 87.8175 44.5877C88.5475 44.5877 89.2025 44.7577 89.7825 45.0977C90.3625 45.4377 90.8175 45.9127 91.1475 46.5227C91.4775 47.1227 91.6425 47.8127 91.6425 48.5927L91.6275 48.9227ZM87.8175 45.5027C87.0575 45.5027 86.4175 45.7477 85.8975 46.2377C85.3875 46.7177 85.0975 47.3477 85.0275 48.1277H90.6225C90.5525 47.3477 90.2575 46.7177 89.7375 46.2377C89.2275 45.7477 88.5875 45.5027 87.8175 45.5027ZM97.8302 44.5877C98.8202 44.5877 99.6052 44.8777 100.185 45.4577C100.775 46.0277 101.07 46.8627 101.07 47.9627V52.5377H100.005V48.0677C100.005 47.2477 99.8002 46.6227 99.3902 46.1927C98.9802 45.7627 98.3952 45.5477 97.6352 45.5477C96.7852 45.5477 96.1102 45.8027 95.6102 46.3127C95.1202 46.8127 94.8752 47.5077 94.8752 48.3977V52.5377H93.8102V44.6477H94.8302V46.1027C95.1202 45.6227 95.5202 45.2527 96.0302 44.9927C96.5502 44.7227 97.1502 44.5877 97.8302 44.5877ZM111.072 44.6477V52.5377H110.052V51.0977C109.772 51.5777 109.387 51.9527 108.897 52.2227C108.407 52.4827 107.847 52.6127 107.217 52.6127C106.187 52.6127 105.372 52.3277 104.772 51.7577C104.182 51.1777 103.887 50.3327 103.887 49.2227V44.6477H104.952V49.1177C104.952 49.9477 105.157 50.5777 105.567 51.0077C105.977 51.4377 106.562 51.6527 107.322 51.6527C108.152 51.6527 108.807 51.4027 109.287 50.9027C109.767 50.3927 110.007 49.6877 110.007 48.7877V44.6477H111.072Z" fill="#999999"/>
</svg>
