<svg width="59" height="11" viewBox="0 0 59 11" fill="none" xmlns="http://www.w3.org/2000/svg">
<path d="M5.88 10.1292C4.90933 10.1292 4.02733 9.91456 3.234 9.48523C2.45 9.04656 1.834 8.44923 1.386 7.69323C0.947333 6.93723 0.728 6.08789 0.728 5.14523C0.728 4.20256 0.947333 3.35323 1.386 2.59723C1.834 1.84123 2.45 1.24856 3.234 0.819227C4.02733 0.38056 4.90933 0.161227 5.88 0.161227C6.85067 0.161227 7.72333 0.375893 8.498 0.805227C9.282 1.23456 9.898 1.83189 10.346 2.59723C10.794 3.35323 11.018 4.20256 11.018 5.14523C11.018 6.08789 10.794 6.94189 10.346 7.70723C9.898 8.46323 9.282 9.05589 8.498 9.48523C7.72333 9.91456 6.85067 10.1292 5.88 10.1292ZM5.88 9.20523C6.65467 9.20523 7.35467 9.03256 7.98 8.68723C8.60533 8.33256 9.09533 7.84723 9.45 7.23123C9.80467 6.60589 9.982 5.91056 9.982 5.14523C9.982 4.37989 9.80467 3.68923 9.45 3.07323C9.09533 2.44789 8.60533 1.96256 7.98 1.61723C7.35467 1.26256 6.65467 1.08523 5.88 1.08523C5.10533 1.08523 4.40067 1.26256 3.766 1.61723C3.14067 1.96256 2.646 2.44789 2.282 3.07323C1.92733 3.68923 1.75 4.37989 1.75 5.14523C1.75 5.91056 1.92733 6.60589 2.282 7.23123C2.646 7.84723 3.14067 8.33256 3.766 8.68723C4.40067 9.03256 5.10533 9.20523 5.88 9.20523ZM15.1074 1.14123H11.6634V0.245226H19.5874V1.14123H16.1434V10.0452H15.1074V1.14123ZM29.4325 0.245226V10.0452H28.4105V5.52323H22.2785V10.0452H21.2425V0.245226H22.2785V4.61323H28.4105V0.245226H29.4325ZM39.5612 9.14923V10.0452H32.6312V0.245226H39.3512V1.14123H33.6672V4.62723H38.7352V5.50923H33.6672V9.14923H39.5612ZM48.6884 10.0452L46.4484 6.89523C46.1964 6.92323 45.9351 6.93723 45.6644 6.93723H43.0324V10.0452H41.9964V0.245226H45.6644C46.9151 0.245226 47.8951 0.543893 48.6044 1.14123C49.3137 1.73856 49.6684 2.55989 49.6684 3.60523C49.6684 4.37056 49.4724 5.01923 49.0804 5.55123C48.6977 6.07389 48.1471 6.45189 47.4284 6.68523L49.8224 10.0452H48.6884ZM45.6364 6.05523C46.6071 6.05523 47.3491 5.84056 47.8624 5.41123C48.3757 4.98189 48.6324 4.37989 48.6324 3.60523C48.6324 2.81189 48.3757 2.20523 47.8624 1.78523C47.3491 1.35589 46.6071 1.14123 45.6364 1.14123H43.0324V6.05523H45.6364ZM54.8156 10.1292C54.0876 10.1292 53.3876 10.0126 52.7156 9.77923C52.0529 9.54589 51.5396 9.23789 51.1756 8.85523L51.5816 8.05723C51.9362 8.41189 52.4076 8.70123 52.9956 8.92523C53.5836 9.13989 54.1902 9.24723 54.8156 9.24723C55.6929 9.24723 56.3509 9.08856 56.7896 8.77123C57.2282 8.44456 57.4476 8.02456 57.4476 7.51123C57.4476 7.11923 57.3262 6.80656 57.0836 6.57323C56.8502 6.33989 56.5609 6.16256 56.2156 6.04123C55.8702 5.91056 55.3896 5.77056 54.7736 5.62123C54.0362 5.43456 53.4482 5.25723 53.0096 5.08923C52.5709 4.91189 52.1929 4.64589 51.8756 4.29123C51.5676 3.93656 51.4136 3.45589 51.4136 2.84923C51.4136 2.35456 51.5442 1.90656 51.8056 1.50523C52.0669 1.09456 52.4682 0.767893 53.0096 0.525227C53.5509 0.28256 54.2229 0.161227 55.0256 0.161227C55.5856 0.161227 56.1316 0.24056 56.6636 0.399227C57.2049 0.54856 57.6716 0.75856 58.0636 1.02923L57.7136 1.85523C57.3029 1.58456 56.8642 1.38389 56.3976 1.25323C55.9309 1.11323 55.4736 1.04323 55.0256 1.04323C54.1669 1.04323 53.5182 1.21123 53.0796 1.54723C52.6502 1.87389 52.4356 2.29856 52.4356 2.82123C52.4356 3.21323 52.5522 3.53056 52.7856 3.77323C53.0282 4.00656 53.3269 4.18856 53.6816 4.31923C54.0456 4.44056 54.5309 4.57589 55.1376 4.72523C55.8562 4.90256 56.4349 5.07989 56.8736 5.25723C57.3216 5.42523 57.6996 5.68656 58.0076 6.04123C58.3156 6.38656 58.4696 6.85789 58.4696 7.45523C58.4696 7.94989 58.3342 8.40256 58.0636 8.81323C57.8022 9.21456 57.3962 9.53656 56.8456 9.77923C56.2949 10.0126 55.6182 10.1292 54.8156 10.1292Z" fill="#999999"/>
</svg>
