<svg width="47" height="11" viewBox="0 0 47 11" fill="none" xmlns="http://www.w3.org/2000/svg">
<path d="M4.264 0.245226C5.51467 0.245226 6.49467 0.543893 7.204 1.14123C7.91333 1.73856 8.268 2.55989 8.268 3.60523C8.268 4.65056 7.91333 5.47189 7.204 6.06923C6.49467 6.65723 5.51467 6.95123 4.264 6.95123H1.632V10.0452H0.596V0.245226H4.264ZM4.236 6.04123C5.20667 6.04123 5.94867 5.83123 6.462 5.41123C6.97533 4.98189 7.232 4.37989 7.232 3.60523C7.232 2.81189 6.97533 2.20523 6.462 1.78523C5.94867 1.35589 5.20667 1.14123 4.236 1.14123H1.632V6.04123H4.236ZM16.1619 7.42723H10.7019L9.52592 10.0452H8.44792L12.9279 0.245226H13.9499L18.4299 10.0452H17.3379L16.1619 7.42723ZM15.7839 6.58723L13.4319 1.32323L11.0799 6.58723H15.7839ZM26.8164 5.14523H27.8104V8.88323C27.353 9.28456 26.8117 9.59256 26.1864 9.80723C25.561 10.0219 24.903 10.1292 24.2124 10.1292C23.2324 10.1292 22.3504 9.91456 21.5664 9.48523C20.7824 9.05589 20.1664 8.46323 19.7184 7.70723C19.2704 6.94189 19.0464 6.08789 19.0464 5.14523C19.0464 4.20256 19.2704 3.35323 19.7184 2.59723C20.1664 1.83189 20.7824 1.23456 21.5664 0.805227C22.3504 0.375893 23.237 0.161227 24.2264 0.161227C24.973 0.161227 25.659 0.28256 26.2844 0.525227C26.9097 0.75856 27.437 1.10856 27.8664 1.57523L27.2224 2.23323C26.4477 1.46789 25.463 1.08523 24.2684 1.08523C23.475 1.08523 22.7564 1.26256 22.1124 1.61723C21.4777 1.96256 20.9784 2.44789 20.6144 3.07323C20.2504 3.68923 20.0684 4.37989 20.0684 5.14523C20.0684 5.91056 20.2504 6.60123 20.6144 7.21723C20.9784 7.83323 21.4777 8.31856 22.1124 8.67323C22.747 9.02789 23.461 9.20523 24.2544 9.20523C25.2624 9.20523 26.1164 8.95323 26.8164 8.44923V5.14523ZM37.6725 9.14923V10.0452H30.7425V0.245226H37.4625V1.14123H31.7785V4.62723H36.8465V5.50923H31.7785V9.14923H37.6725ZM42.8097 10.1292C42.0817 10.1292 41.3817 10.0126 40.7097 9.77923C40.0471 9.54589 39.5337 9.23789 39.1697 8.85523L39.5757 8.05723C39.9304 8.41189 40.4017 8.70123 40.9897 8.92523C41.5777 9.13989 42.1844 9.24723 42.8097 9.24723C43.6871 9.24723 44.3451 9.08856 44.7837 8.77123C45.2224 8.44456 45.4417 8.02456 45.4417 7.51123C45.4417 7.11923 45.3204 6.80656 45.0777 6.57323C44.8444 6.33989 44.5551 6.16256 44.2097 6.04123C43.8644 5.91056 43.3837 5.77056 42.7677 5.62123C42.0304 5.43456 41.4424 5.25723 41.0037 5.08923C40.5651 4.91189 40.1871 4.64589 39.8697 4.29123C39.5617 3.93656 39.4077 3.45589 39.4077 2.84923C39.4077 2.35456 39.5384 1.90656 39.7997 1.50523C40.0611 1.09456 40.4624 0.767893 41.0037 0.525227C41.5451 0.28256 42.2171 0.161227 43.0197 0.161227C43.5797 0.161227 44.1257 0.24056 44.6577 0.399227C45.1991 0.54856 45.6657 0.75856 46.0577 1.02923L45.7077 1.85523C45.2971 1.58456 44.8584 1.38389 44.3917 1.25323C43.9251 1.11323 43.4677 1.04323 43.0197 1.04323C42.1611 1.04323 41.5124 1.21123 41.0737 1.54723C40.6444 1.87389 40.4297 2.29856 40.4297 2.82123C40.4297 3.21323 40.5464 3.53056 40.7797 3.77323C41.0224 4.00656 41.3211 4.18856 41.6757 4.31923C42.0397 4.44056 42.5251 4.57589 43.1317 4.72523C43.8504 4.90256 44.4291 5.07989 44.8677 5.25723C45.3157 5.42523 45.6937 5.68656 46.0017 6.04123C46.3097 6.38656 46.4637 6.85789 46.4637 7.45523C46.4637 7.94989 46.3284 8.40256 46.0577 8.81323C45.7964 9.21456 45.3904 9.53656 44.8397 9.77923C44.2891 10.0126 43.6124 10.1292 42.8097 10.1292Z" fill="#999999"/>
</svg>
