<svg width="93" height="138" viewBox="0 0 93 138" fill="none" xmlns="http://www.w3.org/2000/svg">
<path d="M4.605 11.6277C3.825 11.6277 3.075 11.5027 2.355 11.2527C1.645 11.0027 1.095 10.6727 0.705 10.2627L1.14 9.40772C1.52 9.78772 2.025 10.0977 2.655 10.3377C3.285 10.5677 3.935 10.6827 4.605 10.6827C5.545 10.6827 6.25 10.5127 6.72 10.1727C7.19 9.82272 7.425 9.37272 7.425 8.82272C7.425 8.40272 7.295 8.06772 7.035 7.81772C6.785 7.56772 6.475 7.37772 6.105 7.24772C5.735 7.10772 5.22 6.95772 4.56 6.79772C3.77 6.59772 3.14 6.40772 2.67 6.22772C2.2 6.03772 1.795 5.75272 1.455 5.37272C1.125 4.99272 0.96 4.47772 0.96 3.82772C0.96 3.29772 1.1 2.81772 1.38 2.38772C1.66 1.94772 2.09 1.59772 2.67 1.33772C3.25 1.07772 3.97 0.947719 4.83 0.947719C5.43 0.947719 6.015 1.03272 6.585 1.20272C7.165 1.36272 7.665 1.58772 8.085 1.87772L7.71 2.76272C7.27 2.47272 6.8 2.25772 6.3 2.11772C5.8 1.96772 5.31 1.89272 4.83 1.89272C3.91 1.89272 3.215 2.07272 2.745 2.43272C2.285 2.78272 2.055 3.23772 2.055 3.79772C2.055 4.21772 2.18 4.55772 2.43 4.81772C2.69 5.06772 3.01 5.26272 3.39 5.40272C3.78 5.53272 4.3 5.67772 4.95 5.83772C5.72 6.02772 6.34 6.21772 6.81 6.40772C7.29 6.58772 7.695 6.86772 8.025 7.24772C8.355 7.61772 8.52 8.12272 8.52 8.76272C8.52 9.29272 8.375 9.77772 8.085 10.2177C7.805 10.6477 7.37 10.9927 6.78 11.2527C6.19 11.5027 5.465 11.6277 4.605 11.6277ZM17.5835 7.92272H10.9835C11.0435 8.74272 11.3585 9.40772 11.9285 9.91772C12.4985 10.4177 13.2185 10.6677 14.0885 10.6677C14.5785 10.6677 15.0285 10.5827 15.4385 10.4127C15.8485 10.2327 16.2035 9.97272 16.5035 9.63272L17.1035 10.3227C16.7535 10.7427 16.3135 11.0627 15.7835 11.2827C15.2635 11.5027 14.6885 11.6127 14.0585 11.6127C13.2485 11.6127 12.5285 11.4427 11.8985 11.1027C11.2785 10.7527 10.7935 10.2727 10.4435 9.66272C10.0935 9.05272 9.91852 8.36272 9.91852 7.59272C9.91852 6.82272 10.0835 6.13272 10.4135 5.52272C10.7535 4.91272 11.2135 4.43772 11.7935 4.09772C12.3835 3.75772 13.0435 3.58772 13.7735 3.58772C14.5035 3.58772 15.1585 3.75772 15.7385 4.09772C16.3185 4.43772 16.7735 4.91272 17.1035 5.52272C17.4335 6.12272 17.5985 6.81272 17.5985 7.59272L17.5835 7.92272ZM13.7735 4.50272C13.0135 4.50272 12.3735 4.74772 11.8535 5.23772C11.3435 5.71772 11.0535 6.34772 10.9835 7.12772H16.5785C16.5085 6.34772 16.2135 5.71772 15.6935 5.23772C15.1835 4.74772 14.5435 4.50272 13.7735 4.50272ZM19.7663 0.407719H20.8313V11.5377H19.7663V0.407719ZM30.6646 7.92272H24.0646C24.1246 8.74272 24.4396 9.40772 25.0096 9.91772C25.5796 10.4177 26.2996 10.6677 27.1696 10.6677C27.6596 10.6677 28.1096 10.5827 28.5196 10.4127C28.9296 10.2327 29.2846 9.97272 29.5846 9.63272L30.1846 10.3227C29.8346 10.7427 29.3946 11.0627 28.8646 11.2827C28.3446 11.5027 27.7696 11.6127 27.1396 11.6127C26.3296 11.6127 25.6096 11.4427 24.9796 11.1027C24.3596 10.7527 23.8746 10.2727 23.5246 9.66272C23.1746 9.05272 22.9996 8.36272 22.9996 7.59272C22.9996 6.82272 23.1646 6.13272 23.4946 5.52272C23.8346 4.91272 24.2946 4.43772 24.8746 4.09772C25.4646 3.75772 26.1246 3.58772 26.8546 3.58772C27.5846 3.58772 28.2396 3.75772 28.8196 4.09772C29.3996 4.43772 29.8546 4.91272 30.1846 5.52272C30.5146 6.12272 30.6796 6.81272 30.6796 7.59272L30.6646 7.92272ZM26.8546 4.50272C26.0946 4.50272 25.4546 4.74772 24.9346 5.23772C24.4246 5.71772 24.1346 6.34772 24.0646 7.12772H29.6596C29.5896 6.34772 29.2946 5.71772 28.7746 5.23772C28.2646 4.74772 27.6246 4.50272 26.8546 4.50272ZM36.1173 11.6127C35.3373 11.6127 34.6373 11.4427 34.0173 11.1027C33.4073 10.7627 32.9273 10.2877 32.5773 9.67772C32.2273 9.05772 32.0523 8.36272 32.0523 7.59272C32.0523 6.82272 32.2273 6.13272 32.5773 5.52272C32.9273 4.91272 33.4073 4.43772 34.0173 4.09772C34.6373 3.75772 35.3373 3.58772 36.1173 3.58772C36.7973 3.58772 37.4023 3.72272 37.9323 3.99272C38.4723 4.25272 38.8973 4.63772 39.2073 5.14772L38.4123 5.68772C38.1523 5.29772 37.8223 5.00772 37.4223 4.81772C37.0223 4.61772 36.5873 4.51772 36.1173 4.51772C35.5473 4.51772 35.0323 4.64772 34.5723 4.90772C34.1223 5.15772 33.7673 5.51772 33.5073 5.98772C33.2573 6.45772 33.1323 6.99272 33.1323 7.59272C33.1323 8.20272 33.2573 8.74272 33.5073 9.21272C33.7673 9.67272 34.1223 10.0327 34.5723 10.2927C35.0323 10.5427 35.5473 10.6677 36.1173 10.6677C36.5873 10.6677 37.0223 10.5727 37.4223 10.3827C37.8223 10.1927 38.1523 9.90272 38.4123 9.51272L39.2073 10.0527C38.8973 10.5627 38.4723 10.9527 37.9323 11.2227C37.3923 11.4827 36.7873 11.6127 36.1173 11.6127ZM45.5423 11.0577C45.3423 11.2377 45.0923 11.3777 44.7923 11.4777C44.5023 11.5677 44.1973 11.6127 43.8773 11.6127C43.1373 11.6127 42.5673 11.4127 42.1673 11.0127C41.7673 10.6127 41.5673 10.0477 41.5673 9.31772V4.54772H40.1573V3.64772H41.5673V1.92272H42.6323V3.64772H45.0323V4.54772H42.6323V9.25772C42.6323 9.72772 42.7473 10.0877 42.9773 10.3377C43.2173 10.5777 43.5573 10.6977 43.9973 10.6977C44.2173 10.6977 44.4273 10.6627 44.6273 10.5927C44.8373 10.5227 45.0173 10.4227 45.1673 10.2927L45.5423 11.0577ZM12.285 53.4227C11.965 53.8127 11.585 54.1077 11.145 54.3077C10.715 54.5177 10.245 54.6227 9.735 54.6227C9.115 54.6227 8.525 54.4677 7.965 54.1577C7.415 53.8577 6.795 53.3477 6.105 52.6277C5.095 52.5977 4.185 52.3477 3.375 51.8777C2.565 51.4077 1.93 50.7727 1.47 49.9727C1.01 49.1727 0.78 48.2777 0.78 47.2877C0.78 46.2777 1.015 45.3677 1.485 44.5577C1.965 43.7477 2.625 43.1127 3.465 42.6527C4.315 42.1827 5.26 41.9477 6.3 41.9477C7.34 41.9477 8.275 42.1777 9.105 42.6377C9.945 43.0977 10.605 43.7377 11.085 44.5577C11.565 45.3677 11.805 46.2777 11.805 47.2877C11.805 48.1677 11.62 48.9777 11.25 49.7177C10.89 50.4477 10.38 51.0577 9.72 51.5477C9.07 52.0377 8.32 52.3627 7.47 52.5227C8.24 53.3327 9 53.7377 9.75 53.7377C10.53 53.7377 11.195 53.4177 11.745 52.7777L12.285 53.4227ZM1.875 47.2877C1.875 48.1077 2.065 48.8477 2.445 49.5077C2.835 50.1677 3.365 50.6877 4.035 51.0677C4.715 51.4477 5.47 51.6377 6.3 51.6377C7.13 51.6377 7.88 51.4477 8.55 51.0677C9.22 50.6877 9.745 50.1677 10.125 49.5077C10.505 48.8477 10.695 48.1077 10.695 47.2877C10.695 46.4677 10.505 45.7277 10.125 45.0677C9.745 44.4077 9.22 43.8877 8.55 43.5077C7.88 43.1277 7.13 42.9377 6.3 42.9377C5.47 42.9377 4.715 43.1277 4.035 43.5077C3.365 43.8877 2.835 44.4077 2.445 45.0677C2.065 45.7277 1.875 46.4677 1.875 47.2877ZM21.178 44.6477V52.5377H20.158V51.0977C19.878 51.5777 19.493 51.9527 19.003 52.2227C18.513 52.4827 17.953 52.6127 17.323 52.6127C16.293 52.6127 15.478 52.3277 14.878 51.7577C14.288 51.1777 13.993 50.3327 13.993 49.2227V44.6477H15.058V49.1177C15.058 49.9477 15.263 50.5777 15.673 51.0077C16.083 51.4377 16.668 51.6527 17.428 51.6527C18.258 51.6527 18.913 51.4027 19.393 50.9027C19.873 50.3927 20.113 49.6877 20.113 48.7877V44.6477H21.178ZM24.1608 44.6477H25.2258V52.5377H24.1608V44.6477ZM24.7008 42.9227C24.4808 42.9227 24.2958 42.8477 24.1458 42.6977C23.9958 42.5477 23.9208 42.3677 23.9208 42.1577C23.9208 41.9577 23.9958 41.7827 24.1458 41.6327C24.2958 41.4827 24.4808 41.4077 24.7008 41.4077C24.9208 41.4077 25.1058 41.4827 25.2558 41.6327C25.4058 41.7727 25.4808 41.9427 25.4808 42.1427C25.4808 42.3627 25.4058 42.5477 25.2558 42.6977C25.1058 42.8477 24.9208 42.9227 24.7008 42.9227ZM28.1891 41.4077H29.2541V52.5377H28.1891V41.4077ZM32.2174 41.4077H33.2824V52.5377H32.2174V41.4077ZM47.8215 51.5777V52.5377H40.3965V42.0377H47.5965V42.9977H41.5065V46.7327H46.9365V47.6777H41.5065V51.5777H47.8215ZM57.2885 41.4077V52.5377H56.2685V50.9777C55.9485 51.5077 55.5235 51.9127 54.9935 52.1927C54.4735 52.4727 53.8835 52.6127 53.2235 52.6127C52.4835 52.6127 51.8135 52.4427 51.2135 52.1027C50.6135 51.7627 50.1435 51.2877 49.8035 50.6777C49.4635 50.0677 49.2935 49.3727 49.2935 48.5927C49.2935 47.8127 49.4635 47.1177 49.8035 46.5077C50.1435 45.8977 50.6135 45.4277 51.2135 45.0977C51.8135 44.7577 52.4835 44.5877 53.2235 44.5877C53.8635 44.5877 54.4385 44.7227 54.9485 44.9927C55.4685 45.2527 55.8935 45.6377 56.2235 46.1477V41.4077H57.2885ZM53.3135 51.6677C53.8635 51.6677 54.3585 51.5427 54.7985 51.2927C55.2485 51.0327 55.5985 50.6677 55.8485 50.1977C56.1085 49.7277 56.2385 49.1927 56.2385 48.5927C56.2385 47.9927 56.1085 47.4577 55.8485 46.9877C55.5985 46.5177 55.2485 46.1577 54.7985 45.9077C54.3585 45.6477 53.8635 45.5177 53.3135 45.5177C52.7535 45.5177 52.2485 45.6477 51.7985 45.9077C51.3585 46.1577 51.0085 46.5177 50.7485 46.9877C50.4985 47.4577 50.3735 47.9927 50.3735 48.5927C50.3735 49.1927 50.4985 49.7277 50.7485 50.1977C51.0085 50.6677 51.3585 51.0327 51.7985 51.2927C52.2485 51.5427 52.7535 51.6677 53.3135 51.6677ZM60.2545 44.6477H61.3195V52.5377H60.2545V44.6477ZM60.7945 42.9227C60.5745 42.9227 60.3895 42.8477 60.2395 42.6977C60.0895 42.5477 60.0145 42.3677 60.0145 42.1577C60.0145 41.9577 60.0895 41.7827 60.2395 41.6327C60.3895 41.4827 60.5745 41.4077 60.7945 41.4077C61.0145 41.4077 61.1995 41.4827 61.3495 41.6327C61.4995 41.7727 61.5745 41.9427 61.5745 42.1427C61.5745 42.3627 61.4995 42.5477 61.3495 42.6977C61.1995 42.8477 61.0145 42.9227 60.7945 42.9227ZM68.4379 52.0577C68.2379 52.2377 67.9879 52.3777 67.6879 52.4777C67.3979 52.5677 67.0929 52.6127 66.7729 52.6127C66.0329 52.6127 65.4629 52.4127 65.0629 52.0127C64.6629 51.6127 64.4629 51.0477 64.4629 50.3177V45.5477H63.0529V44.6477H64.4629V42.9227H65.5279V44.6477H67.9279V45.5477H65.5279V50.2577C65.5279 50.7277 65.6429 51.0877 65.8729 51.3377C66.1129 51.5777 66.4529 51.6977 66.8929 51.6977C67.1129 51.6977 67.3229 51.6627 67.5229 51.5927C67.7329 51.5227 67.9129 51.4227 68.0629 51.2927L68.4379 52.0577ZM73.3233 52.6127C72.5633 52.6127 71.8783 52.4427 71.2683 52.1027C70.6583 51.7527 70.1783 51.2727 69.8283 50.6627C69.4783 50.0527 69.3033 49.3627 69.3033 48.5927C69.3033 47.8227 69.4783 47.1327 69.8283 46.5227C70.1783 45.9127 70.6583 45.4377 71.2683 45.0977C71.8783 44.7577 72.5633 44.5877 73.3233 44.5877C74.0833 44.5877 74.7683 44.7577 75.3783 45.0977C75.9883 45.4377 76.4633 45.9127 76.8033 46.5227C77.1533 47.1327 77.3283 47.8227 77.3283 48.5927C77.3283 49.3627 77.1533 50.0527 76.8033 50.6627C76.4633 51.2727 75.9883 51.7527 75.3783 52.1027C74.7683 52.4427 74.0833 52.6127 73.3233 52.6127ZM73.3233 51.6677C73.8833 51.6677 74.3833 51.5427 74.8233 51.2927C75.2733 51.0327 75.6233 50.6677 75.8733 50.1977C76.1233 49.7277 76.2483 49.1927 76.2483 48.5927C76.2483 47.9927 76.1233 47.4577 75.8733 46.9877C75.6233 46.5177 75.2733 46.1577 74.8233 45.9077C74.3833 45.6477 73.8833 45.5177 73.3233 45.5177C72.7633 45.5177 72.2583 45.6477 71.8083 45.9077C71.3683 46.1577 71.0183 46.5177 70.7583 46.9877C70.5083 47.4577 70.3833 47.9927 70.3833 48.5927C70.3833 49.1927 70.5083 49.7277 70.7583 50.1977C71.0183 50.6677 71.3683 51.0327 71.8083 51.2927C72.2583 51.5427 72.7633 51.6677 73.3233 51.6677ZM80.5226 46.1927C80.7726 45.6627 81.1426 45.2627 81.6326 44.9927C82.1326 44.7227 82.7476 44.5877 83.4776 44.5877V45.6227L83.2226 45.6077C82.3926 45.6077 81.7426 45.8627 81.2726 46.3727C80.8026 46.8827 80.5676 47.5977 80.5676 48.5177V52.5377H79.5026V44.6477H80.5226V46.1927ZM1.71 83.0377H5.985C7.095 83.0377 8.075 83.2627 8.925 83.7127C9.775 84.1527 10.435 84.7727 10.905 85.5727C11.375 86.3627 11.61 87.2677 11.61 88.2877C11.61 89.3077 11.375 90.2177 10.905 91.0177C10.435 91.8077 9.775 92.4277 8.925 92.8777C8.075 93.3177 7.095 93.5377 5.985 93.5377H1.71V83.0377ZM5.925 92.5777C6.845 92.5777 7.65 92.3977 8.34 92.0377C9.03 91.6677 9.565 91.1627 9.945 90.5227C10.325 89.8727 10.515 89.1277 10.515 88.2877C10.515 87.4477 10.325 86.7077 9.945 86.0677C9.565 85.4177 9.03 84.9127 8.34 84.5527C7.65 84.1827 6.845 83.9977 5.925 83.9977H2.82V92.5777H5.925ZM14.8976 87.1927C15.1476 86.6627 15.5176 86.2627 16.0076 85.9927C16.5076 85.7227 17.1226 85.5877 17.8526 85.5877V86.6227L17.5976 86.6077C16.7676 86.6077 16.1176 86.8627 15.6476 87.3727C15.1776 87.8827 14.9426 88.5977 14.9426 89.5177V93.5377H13.8776V85.6477H14.8976V87.1927ZM22.5263 85.5877C23.5563 85.5877 24.3463 85.8477 24.8963 86.3677C25.4463 86.8777 25.7213 87.6377 25.7213 88.6477V93.5377H24.7013V92.3077C24.4613 92.7177 24.1063 93.0377 23.6363 93.2677C23.1763 93.4977 22.6263 93.6127 21.9863 93.6127C21.1063 93.6127 20.4063 93.4027 19.8863 92.9827C19.3663 92.5627 19.1063 92.0077 19.1063 91.3177C19.1063 90.6477 19.3463 90.1077 19.8263 89.6977C20.3163 89.2877 21.0913 89.0827 22.1513 89.0827H24.6563V88.6027C24.6563 87.9227 24.4663 87.4077 24.0863 87.0577C23.7063 86.6977 23.1513 86.5177 22.4213 86.5177C21.9213 86.5177 21.4413 86.6027 20.9813 86.7727C20.5213 86.9327 20.1263 87.1577 19.7963 87.4477L19.3163 86.6527C19.7163 86.3127 20.1963 86.0527 20.7563 85.8727C21.3163 85.6827 21.9063 85.5877 22.5263 85.5877ZM22.1513 92.7727C22.7513 92.7727 23.2663 92.6377 23.6963 92.3677C24.1263 92.0877 24.4463 91.6877 24.6563 91.1677V89.8777H22.1813C20.8313 89.8777 20.1562 90.3477 20.1562 91.2877C20.1562 91.7477 20.3313 92.1127 20.6813 92.3827C21.0313 92.6427 21.5213 92.7727 22.1513 92.7727ZM35.9482 85.6477V92.5777C35.9482 93.9177 35.6182 94.9077 34.9582 95.5477C34.3082 96.1977 33.3232 96.5227 32.0032 96.5227C31.2732 96.5227 30.5782 96.4127 29.9182 96.1927C29.2682 95.9827 28.7382 95.6877 28.3282 95.3077L28.8682 94.4977C29.2482 94.8377 29.7082 95.1027 30.2482 95.2927C30.7982 95.4827 31.3732 95.5777 31.9732 95.5777C32.9732 95.5777 33.7082 95.3427 34.1782 94.8727C34.6482 94.4127 34.8832 93.6927 34.8832 92.7127V91.7077C34.5532 92.2077 34.1182 92.5877 33.5782 92.8477C33.0482 93.1077 32.4582 93.2377 31.8082 93.2377C31.0682 93.2377 30.3932 93.0777 29.7832 92.7577C29.1832 92.4277 28.7082 91.9727 28.3582 91.3927C28.0182 90.8027 27.8482 90.1377 27.8482 89.3977C27.8482 88.6577 28.0182 87.9977 28.3582 87.4177C28.7082 86.8377 29.1832 86.3877 29.7832 86.0677C30.3832 85.7477 31.0582 85.5877 31.8082 85.5877C32.4782 85.5877 33.0832 85.7227 33.6232 85.9927C34.1632 86.2627 34.5982 86.6527 34.9282 87.1627V85.6477H35.9482ZM31.9132 92.2927C32.4832 92.2927 32.9982 92.1727 33.4582 91.9327C33.9182 91.6827 34.2732 91.3377 34.5232 90.8977C34.7832 90.4577 34.9132 89.9577 34.9132 89.3977C34.9132 88.8377 34.7832 88.3427 34.5232 87.9127C34.2732 87.4727 33.9182 87.1327 33.4582 86.8927C33.0082 86.6427 32.4932 86.5177 31.9132 86.5177C31.3432 86.5177 30.8282 86.6377 30.3682 86.8777C29.9182 87.1177 29.5632 87.4577 29.3032 87.8977C29.0532 88.3377 28.9282 88.8377 28.9282 89.3977C28.9282 89.9577 29.0532 90.4577 29.3032 90.8977C29.5632 91.3377 29.9182 91.6827 30.3682 91.9327C30.8282 92.1727 31.3432 92.2927 31.9132 92.2927ZM50.5922 93.7027L49.1372 92.2027C48.2472 93.1527 47.0772 93.6277 45.6272 93.6277C44.9472 93.6277 44.3372 93.5177 43.7972 93.2977C43.2672 93.0677 42.8522 92.7527 42.5522 92.3527C42.2522 91.9427 42.1022 91.4777 42.1022 90.9577C42.1022 90.3277 42.3022 89.7627 42.7022 89.2627C43.1022 88.7627 43.7822 88.2377 44.7422 87.6877C44.2422 87.1677 43.8972 86.7277 43.7072 86.3677C43.5172 85.9977 43.4222 85.6077 43.4222 85.1977C43.4222 84.5277 43.6622 83.9877 44.1422 83.5777C44.6222 83.1677 45.2672 82.9627 46.0772 82.9627C46.8272 82.9627 47.4222 83.1477 47.8622 83.5177C48.3022 83.8877 48.5222 84.3977 48.5222 85.0477C48.5222 85.5677 48.3472 86.0377 47.9972 86.4577C47.6472 86.8677 47.0422 87.3227 46.1822 87.8227L49.0622 90.7927C49.3822 90.2227 49.6172 89.5477 49.7672 88.7677L50.6372 89.0377C50.4472 89.9777 50.1372 90.7827 49.7072 91.4527L51.2072 92.9977L50.5922 93.7027ZM46.0772 83.7577C45.5572 83.7577 45.1472 83.8877 44.8472 84.1477C44.5572 84.4077 44.4122 84.7527 44.4122 85.1827C44.4122 85.4927 44.4922 85.7877 44.6522 86.0677C44.8122 86.3477 45.1272 86.7277 45.5972 87.2077C46.3572 86.7677 46.8822 86.3927 47.1722 86.0827C47.4622 85.7727 47.6072 85.4327 47.6072 85.0627C47.6072 84.6627 47.4722 84.3477 47.2022 84.1177C46.9322 83.8777 46.5572 83.7577 46.0772 83.7577ZM45.6872 92.7427C46.8472 92.7427 47.7872 92.3477 48.5072 91.5577L45.3422 88.3027C44.5122 88.7727 43.9372 89.1977 43.6172 89.5777C43.3072 89.9577 43.1522 90.3827 43.1522 90.8527C43.1522 91.4227 43.3822 91.8827 43.8422 92.2327C44.3122 92.5727 44.9272 92.7427 45.6872 92.7427ZM57.0371 83.0377H61.3121C62.4221 83.0377 63.4021 83.2627 64.2521 83.7127C65.1021 84.1527 65.7621 84.7727 66.2321 85.5727C66.7021 86.3627 66.9371 87.2677 66.9371 88.2877C66.9371 89.3077 66.7021 90.2177 66.2321 91.0177C65.7621 91.8077 65.1021 92.4277 64.2521 92.8777C63.4021 93.3177 62.4221 93.5377 61.3121 93.5377H57.0371V83.0377ZM61.2521 92.5777C62.1721 92.5777 62.9771 92.3977 63.6671 92.0377C64.3571 91.6677 64.8921 91.1627 65.2721 90.5227C65.6521 89.8727 65.8421 89.1277 65.8421 88.2877C65.8421 87.4477 65.6521 86.7077 65.2721 86.0677C64.8921 85.4177 64.3571 84.9127 63.6671 84.5527C62.9771 84.1827 62.1721 83.9977 61.2521 83.9977H58.1471V92.5777H61.2521ZM70.2247 87.1927C70.4747 86.6627 70.8447 86.2627 71.3347 85.9927C71.8347 85.7227 72.4497 85.5877 73.1797 85.5877V86.6227L72.9247 86.6077C72.0947 86.6077 71.4447 86.8627 70.9747 87.3727C70.5047 87.8827 70.2697 88.5977 70.2697 89.5177V93.5377H69.2047V85.6477H70.2247V87.1927ZM78.2598 93.6127C77.4998 93.6127 76.8148 93.4427 76.2048 93.1027C75.5948 92.7527 75.1148 92.2727 74.7648 91.6627C74.4148 91.0527 74.2398 90.3627 74.2398 89.5927C74.2398 88.8227 74.4148 88.1327 74.7648 87.5227C75.1148 86.9127 75.5948 86.4377 76.2048 86.0977C76.8148 85.7577 77.4998 85.5877 78.2598 85.5877C79.0198 85.5877 79.7048 85.7577 80.3148 86.0977C80.9248 86.4377 81.3998 86.9127 81.7398 87.5227C82.0898 88.1327 82.2648 88.8227 82.2648 89.5927C82.2648 90.3627 82.0898 91.0527 81.7398 91.6627C81.3998 92.2727 80.9248 92.7527 80.3148 93.1027C79.7048 93.4427 79.0198 93.6127 78.2598 93.6127ZM78.2598 92.6677C78.8198 92.6677 79.3198 92.5427 79.7598 92.2927C80.2098 92.0327 80.5598 91.6677 80.8098 91.1977C81.0598 90.7277 81.1848 90.1927 81.1848 89.5927C81.1848 88.9927 81.0598 88.4577 80.8098 87.9877C80.5598 87.5177 80.2098 87.1577 79.7598 86.9077C79.3198 86.6477 78.8198 86.5177 78.2598 86.5177C77.6998 86.5177 77.1948 86.6477 76.7448 86.9077C76.3048 87.1577 75.9548 87.5177 75.6948 87.9877C75.4448 88.4577 75.3198 88.9927 75.3198 89.5927C75.3198 90.1927 75.4448 90.7277 75.6948 91.1977C75.9548 91.6677 76.3048 92.0327 76.7448 92.2927C77.1948 92.5427 77.6998 92.6677 78.2598 92.6677ZM88.5041 85.5877C89.2441 85.5877 89.9141 85.7577 90.5141 86.0977C91.1141 86.4277 91.5841 86.8977 91.9241 87.5077C92.2641 88.1177 92.4341 88.8127 92.4341 89.5927C92.4341 90.3827 92.2641 91.0827 91.9241 91.6927C91.5841 92.3027 91.1141 92.7777 90.5141 93.1177C89.9241 93.4477 89.2541 93.6127 88.5041 93.6127C87.8641 93.6127 87.2841 93.4827 86.7641 93.2227C86.2541 92.9527 85.8341 92.5627 85.5041 92.0527V96.4477H84.4391V85.6477H85.4591V87.2077C85.7791 86.6877 86.1991 86.2877 86.7191 86.0077C87.2491 85.7277 87.8441 85.5877 88.5041 85.5877ZM88.4291 92.6677C88.9791 92.6677 89.4791 92.5427 89.9291 92.2927C90.3791 92.0327 90.7291 91.6677 90.9791 91.1977C91.2391 90.7277 91.3691 90.1927 91.3691 89.5927C91.3691 88.9927 91.2391 88.4627 90.9791 88.0027C90.7291 87.5327 90.3791 87.1677 89.9291 86.9077C89.4791 86.6477 88.9791 86.5177 88.4291 86.5177C87.8691 86.5177 87.3641 86.6477 86.9141 86.9077C86.4741 87.1677 86.1241 87.5327 85.8641 88.0027C85.6141 88.4627 85.4891 88.9927 85.4891 89.5927C85.4891 90.1927 85.6141 90.7277 85.8641 91.1977C86.1241 91.6677 86.4741 92.0327 86.9141 92.2927C87.3641 92.5427 87.8691 92.6677 88.4291 92.6677ZM1.71 124.038H5.985C7.095 124.038 8.075 124.263 8.925 124.713C9.775 125.153 10.435 125.773 10.905 126.573C11.375 127.363 11.61 128.268 11.61 129.288C11.61 130.308 11.375 131.218 10.905 132.018C10.435 132.808 9.775 133.428 8.925 133.878C8.075 134.318 7.095 134.538 5.985 134.538H1.71V124.038ZM5.925 133.578C6.845 133.578 7.65 133.398 8.34 133.038C9.03 132.668 9.565 132.163 9.945 131.523C10.325 130.873 10.515 130.128 10.515 129.288C10.515 128.448 10.325 127.708 9.945 127.068C9.565 126.418 9.03 125.913 8.34 125.553C7.65 125.183 6.845 124.998 5.925 124.998H2.82V133.578H5.925ZM16.6376 126.588C17.6676 126.588 18.4576 126.848 19.0076 127.368C19.5576 127.878 19.8326 128.638 19.8326 129.648V134.538H18.8126V133.308C18.5726 133.718 18.2176 134.038 17.7476 134.268C17.2876 134.498 16.7376 134.613 16.0976 134.613C15.2176 134.613 14.5176 134.403 13.9976 133.983C13.4776 133.563 13.2176 133.008 13.2176 132.318C13.2176 131.648 13.4576 131.108 13.9376 130.698C14.4276 130.288 15.2026 130.083 16.2626 130.083H18.7676V129.603C18.7676 128.923 18.5776 128.408 18.1976 128.058C17.8176 127.698 17.2626 127.518 16.5326 127.518C16.0326 127.518 15.5526 127.603 15.0926 127.773C14.6326 127.933 14.2376 128.158 13.9076 128.448L13.4276 127.653C13.8276 127.313 14.3076 127.053 14.8676 126.873C15.4276 126.683 16.0176 126.588 16.6376 126.588ZM16.2626 133.773C16.8626 133.773 17.3776 133.638 17.8076 133.368C18.2376 133.088 18.5576 132.688 18.7676 132.168V130.878H16.2926C14.9426 130.878 14.2676 131.348 14.2676 132.288C14.2676 132.748 14.4426 133.113 14.7926 133.383C15.1426 133.643 15.6326 133.773 16.2626 133.773ZM26.8802 134.058C26.6802 134.238 26.4302 134.378 26.1302 134.478C25.8402 134.568 25.5352 134.613 25.2152 134.613C24.4752 134.613 23.9052 134.413 23.5052 134.013C23.1052 133.613 22.9052 133.048 22.9052 132.318V127.548H21.4952V126.648H22.9052V124.923H23.9702V126.648H26.3702V127.548H23.9702V132.258C23.9702 132.728 24.0852 133.088 24.3152 133.338C24.5552 133.578 24.8952 133.698 25.3352 133.698C25.5552 133.698 25.7652 133.663 25.9652 133.593C26.1752 133.523 26.3552 133.423 26.5052 133.293L26.8802 134.058ZM35.4107 130.923H28.8107C28.8707 131.743 29.1857 132.408 29.7557 132.918C30.3257 133.418 31.0457 133.668 31.9157 133.668C32.4057 133.668 32.8557 133.583 33.2657 133.413C33.6757 133.233 34.0307 132.973 34.3307 132.633L34.9307 133.323C34.5807 133.743 34.1407 134.063 33.6107 134.283C33.0907 134.503 32.5157 134.613 31.8857 134.613C31.0757 134.613 30.3557 134.443 29.7257 134.103C29.1057 133.753 28.6207 133.273 28.2707 132.663C27.9207 132.053 27.7457 131.363 27.7457 130.593C27.7457 129.823 27.9107 129.133 28.2407 128.523C28.5807 127.913 29.0407 127.438 29.6207 127.098C30.2107 126.758 30.8707 126.588 31.6007 126.588C32.3307 126.588 32.9857 126.758 33.5657 127.098C34.1457 127.438 34.6007 127.913 34.9307 128.523C35.2607 129.123 35.4257 129.813 35.4257 130.593L35.4107 130.923ZM31.6007 127.503C30.8407 127.503 30.2007 127.748 29.6807 128.238C29.1707 128.718 28.8807 129.348 28.8107 130.128H34.4057C34.3357 129.348 34.0407 128.718 33.5207 128.238C33.0107 127.748 32.3707 127.503 31.6007 127.503ZM41.6584 126.588C42.3984 126.588 43.0684 126.758 43.6684 127.098C44.2684 127.428 44.7384 127.898 45.0784 128.508C45.4184 129.118 45.5884 129.813 45.5884 130.593C45.5884 131.383 45.4184 132.083 45.0784 132.693C44.7384 133.303 44.2684 133.778 43.6684 134.118C43.0784 134.448 42.4084 134.613 41.6584 134.613C41.0184 134.613 40.4384 134.483 39.9184 134.223C39.4084 133.953 38.9884 133.563 38.6584 133.053V137.448H37.5934V126.648H38.6134V128.208C38.9334 127.688 39.3534 127.288 39.8734 127.008C40.4034 126.728 40.9984 126.588 41.6584 126.588ZM41.5834 133.668C42.1334 133.668 42.6334 133.543 43.0834 133.293C43.5334 133.033 43.8834 132.668 44.1334 132.198C44.3934 131.728 44.5234 131.193 44.5234 130.593C44.5234 129.993 44.3934 129.463 44.1334 129.003C43.8834 128.533 43.5334 128.168 43.0834 127.908C42.6334 127.648 42.1334 127.518 41.5834 127.518C41.0234 127.518 40.5184 127.648 40.0684 127.908C39.6284 128.168 39.2784 128.533 39.0184 129.003C38.7684 129.463 38.6434 129.993 38.6434 130.593C38.6434 131.193 38.7684 131.728 39.0184 132.198C39.2784 132.668 39.6284 133.033 40.0684 133.293C40.5184 133.543 41.0234 133.668 41.5834 133.668ZM47.7594 126.648H48.8244V134.538H47.7594V126.648ZM48.2994 124.923C48.0794 124.923 47.8944 124.848 47.7444 124.698C47.5944 124.548 47.5194 124.368 47.5194 124.158C47.5194 123.958 47.5944 123.783 47.7444 123.633C47.8944 123.483 48.0794 123.408 48.2994 123.408C48.5194 123.408 48.7044 123.483 48.8544 123.633C49.0044 123.773 49.0794 123.943 49.0794 124.143C49.0794 124.363 49.0044 124.548 48.8544 124.698C48.7044 124.848 48.5194 124.923 48.2994 124.923ZM55.0577 134.613C54.2777 134.613 53.5777 134.443 52.9577 134.103C52.3477 133.763 51.8677 133.288 51.5177 132.678C51.1677 132.058 50.9927 131.363 50.9927 130.593C50.9927 129.823 51.1677 129.133 51.5177 128.523C51.8677 127.913 52.3477 127.438 52.9577 127.098C53.5777 126.758 54.2777 126.588 55.0577 126.588C55.7377 126.588 56.3427 126.723 56.8727 126.993C57.4127 127.253 57.8377 127.638 58.1477 128.148L57.3527 128.688C57.0927 128.298 56.7627 128.008 56.3627 127.818C55.9627 127.618 55.5277 127.518 55.0577 127.518C54.4877 127.518 53.9727 127.648 53.5127 127.908C53.0627 128.158 52.7077 128.518 52.4477 128.988C52.1977 129.458 52.0727 129.993 52.0727 130.593C52.0727 131.203 52.1977 131.743 52.4477 132.213C52.7077 132.673 53.0627 133.033 53.5127 133.293C53.9727 133.543 54.4877 133.668 55.0577 133.668C55.5277 133.668 55.9627 133.573 56.3627 133.383C56.7627 133.193 57.0927 132.903 57.3527 132.513L58.1477 133.053C57.8377 133.563 57.4127 133.953 56.8727 134.223C56.3327 134.483 55.7277 134.613 55.0577 134.613ZM63.0477 130.578L61.1877 132.288V134.538H60.1227V123.408H61.1877V130.953L65.8977 126.648H67.2177L63.8427 129.873L67.5327 134.538H66.2277L63.0477 130.578ZM75.6792 130.923H69.0792C69.1392 131.743 69.4542 132.408 70.0242 132.918C70.5942 133.418 71.3142 133.668 72.1842 133.668C72.6742 133.668 73.1242 133.583 73.5342 133.413C73.9442 133.233 74.2992 132.973 74.5992 132.633L75.1992 133.323C74.8492 133.743 74.4092 134.063 73.8792 134.283C73.3592 134.503 72.7842 134.613 72.1542 134.613C71.3442 134.613 70.6242 134.443 69.9942 134.103C69.3742 133.753 68.8892 133.273 68.5392 132.663C68.1892 132.053 68.0142 131.363 68.0142 130.593C68.0142 129.823 68.1792 129.133 68.5092 128.523C68.8492 127.913 69.3092 127.438 69.8892 127.098C70.4792 126.758 71.1392 126.588 71.8692 126.588C72.5992 126.588 73.2542 126.758 73.8342 127.098C74.4142 127.438 74.8692 127.913 75.1992 128.523C75.5292 129.123 75.6942 129.813 75.6942 130.593L75.6792 130.923ZM71.8692 127.503C71.1092 127.503 70.4692 127.748 69.9492 128.238C69.4392 128.718 69.1492 129.348 69.0792 130.128H74.6742C74.6042 129.348 74.3092 128.718 73.7892 128.238C73.2792 127.748 72.6392 127.503 71.8692 127.503ZM78.882 128.193C79.132 127.663 79.502 127.263 79.992 126.993C80.492 126.723 81.107 126.588 81.837 126.588V127.623L81.582 127.608C80.752 127.608 80.102 127.863 79.632 128.373C79.162 128.883 78.927 129.598 78.927 130.518V134.538H77.862V126.648H78.882V128.193Z" fill="white"/>
</svg>
