<svg width="17" height="14" viewBox="0 0 17 14" fill="none" xmlns="http://www.w3.org/2000/svg">
<path d="M12.9262 12.1153C13.3654 11.7805 13.4501 11.153 13.1153 10.7138C12.7805 10.2746 12.153 10.1899 11.7138 10.5247L12.9262 12.1153ZM8 12.8182V13.8182C8.00545 13.8182 8.0109 13.8182 8.01635 13.8181L8 12.8182ZM0 7.00002L-0.881156 6.5272C-1.03479 6.81351 -1.03974 7.15661 -0.894427 7.44724L0 7.00002ZM4.2869 3.4748C4.72584 3.13962 4.80996 2.51207 4.47478 2.07312C4.1396 1.63418 3.51204 1.55006 3.0731 1.88525L4.2869 3.4748ZM6.24481 0.382706C5.70706 0.508579 5.37317 1.04655 5.49905 1.5843C5.62492 2.12205 6.16289 2.45594 6.70064 2.33007L6.24481 0.382706ZM8 1.18184L7.99765 2.18184H8V1.18184ZM16 7.00002L16.8819 7.47144C17.0348 7.18538 17.0395 6.84293 16.8944 6.55281L16 7.00002ZM13.6639 8.67618C13.3083 9.09876 13.3627 9.72959 13.7852 10.0852C14.2078 10.4408 14.8387 10.3865 15.1942 9.96387L13.6639 8.67618ZM10.2734 9.22356C10.6499 8.81951 10.6276 8.18674 10.2235 7.81023C9.81948 7.43373 9.18671 7.45606 8.81021 7.86012L10.2734 9.22356ZM7.1399 6.18982C7.54396 5.81331 7.5663 5.18054 7.18979 4.77648C6.81329 4.37243 6.18052 4.35009 5.77646 4.72659L7.1399 6.18982ZM11.7138 10.5247C10.6403 11.343 9.33322 11.7963 7.98365 11.8183L8.01635 13.8181C9.79275 13.789 11.5133 13.1924 12.9262 12.1153L11.7138 10.5247ZM8 11.8182C5.85405 11.8182 4.10006 10.5901 2.82045 9.22517C2.18976 8.55244 1.70305 7.87588 1.37413 7.36659C1.21029 7.1129 1.08723 6.90326 1.00652 6.75976C0.966199 6.68808 0.93656 6.63312 0.917791 6.59765C0.90841 6.57992 0.901755 6.56708 0.897851 6.55949C0.895899 6.55569 0.894636 6.55321 0.894064 6.55208C0.893778 6.55152 0.893665 6.55129 0.893725 6.55141C0.893756 6.55147 0.893829 6.55162 0.893946 6.55185C0.894004 6.55197 0.894125 6.55221 0.894154 6.55226C0.894285 6.55253 0.894427 6.55281 0 7.00002C-0.894427 7.44724 -0.894263 7.44757 -0.894087 7.44792C-0.894014 7.44806 -0.893827 7.44844 -0.89368 7.44873C-0.893385 7.44932 -0.893046 7.44999 -0.892661 7.45076C-0.891891 7.45229 -0.89094 7.45417 -0.889808 7.4564C-0.887544 7.46087 -0.884558 7.46673 -0.88085 7.47394C-0.873435 7.48836 -0.863133 7.5082 -0.849964 7.53308C-0.823634 7.58284 -0.785801 7.65287 -0.736632 7.74029C-0.63837 7.91497 -0.494383 8.15987 -0.305948 8.45164C0.069679 9.03326 0.628425 9.81125 1.36137 10.5931C2.80903 12.1372 5.05504 13.8182 8 13.8182V11.8182ZM0.881156 7.47285C1.71838 5.9126 2.8796 4.54943 4.2869 3.4748L3.0731 1.88525C1.43914 3.13295 0.090911 4.71566 -0.881156 6.5272L0.881156 7.47285ZM6.70064 2.33007C7.12577 2.23056 7.56103 2.18081 7.99765 2.18184L8.00235 0.181845C7.4107 0.180454 6.82089 0.247861 6.24481 0.382706L6.70064 2.33007ZM8 2.18184C10.1459 2.18184 11.8999 3.40995 13.1796 4.77487C13.8102 5.44761 14.297 6.12417 14.6259 6.63346C14.7897 6.88714 14.9128 7.09679 14.9935 7.24028C15.0338 7.31196 15.0634 7.36693 15.0822 7.4024C15.0916 7.42013 15.0982 7.43297 15.1021 7.44056C15.1041 7.44436 15.1054 7.44684 15.1059 7.44797C15.1062 7.44853 15.1063 7.44876 15.1063 7.44864C15.1062 7.44858 15.1062 7.44843 15.1061 7.4482C15.106 7.44808 15.1059 7.44784 15.1058 7.44778C15.1057 7.44752 15.1056 7.44724 16 7.00002C16.8944 6.55281 16.8943 6.55248 16.8941 6.55213C16.894 6.55198 16.8938 6.55161 16.8937 6.55132C16.8934 6.55073 16.893 6.55006 16.8927 6.54929C16.8919 6.54776 16.8909 6.54588 16.8898 6.54364C16.8875 6.53918 16.8846 6.53332 16.8808 6.52611C16.8734 6.51168 16.8631 6.49185 16.85 6.46696C16.8236 6.41721 16.7858 6.34717 16.7366 6.25976C16.6384 6.08507 16.4944 5.84018 16.3059 5.54841C15.9303 4.96679 15.3716 4.1888 14.6386 3.40699C13.191 1.86283 10.945 0.181842 8 0.181842V2.18184ZM15.1181 6.52861C14.7094 7.29312 14.2221 8.01288 13.6639 8.67618L15.1942 9.96387C15.842 9.19406 16.4076 8.35872 16.8819 7.47144L15.1181 6.52861ZM8.81021 7.86012C8.51559 8.1763 8.07188 8.30645 7.65315 8.19952L7.15826 10.1373C8.28562 10.4252 9.48022 10.0748 10.2734 9.22356L8.81021 7.86012ZM7.65315 8.19952C7.23441 8.09258 6.90745 7.76561 6.80051 7.34688L4.8627 7.84176C5.15061 8.96911 6.03091 9.84941 7.15826 10.1373L7.65315 8.19952ZM6.80051 7.34688C6.69357 6.92815 6.82372 6.48444 7.1399 6.18982L5.77646 4.72659C4.9252 5.5198 4.5748 6.71441 4.8627 7.84176L6.80051 7.34688Z" fill="#999999"/>
</svg>
