<svg width="76" height="47" viewBox="0 0 76 47" fill="none" xmlns="http://www.w3.org/2000/svg">
<path d="M4.544 10.1606C3.27467 10.1606 2.28533 9.7966 1.576 9.0686C0.866667 8.3406 0.512 7.28127 0.512 5.8906V0.276598H1.548V5.8486C1.548 6.98727 1.80467 7.8366 2.318 8.3966C2.83133 8.9566 3.57333 9.2366 4.544 9.2366C5.524 9.2366 6.27067 8.9566 6.784 8.3966C7.29733 7.8366 7.554 6.98727 7.554 5.8486V0.276598H8.562V5.8906C8.562 7.28127 8.20733 8.3406 7.498 9.0686C6.798 9.7966 5.81333 10.1606 4.544 10.1606ZM11.6839 0.276598H12.7199V10.0766H11.6839V0.276598ZM7.526 45.1806V46.0766H0.596V36.2766H7.316V37.1726H1.632V40.6586H6.7V41.5406H1.632V45.1806H7.526ZM9.96123 36.2766H10.9972V45.1806H16.4852V46.0766H9.96123V36.2766ZM25.1354 45.1806V46.0766H18.2054V36.2766H24.9254V37.1726H19.2414V40.6586H24.3094V41.5406H19.2414V45.1806H25.1354ZM37.7486 36.2766V46.0766H36.7546V38.2366L32.9046 44.8306H32.4146L28.5646 38.2786V46.0766H27.5706V36.2766H28.4246L32.6806 43.5426L36.8946 36.2766H37.7486ZM47.8717 45.1806V46.0766H40.9417V36.2766H47.6617V37.1726H41.9777V40.6586H47.0457V41.5406H41.9777V45.1806H47.8717ZM58.4969 36.2766V46.0766H57.6429L51.3429 38.1246V46.0766H50.3069V36.2766H51.1609L57.4749 44.2286V36.2766H58.4969ZM63.5996 37.1726H60.1556V36.2766H68.0796V37.1726H64.6356V46.0766H63.5996V37.1726ZM72.2863 46.1606C71.5583 46.1606 70.8583 46.0439 70.1863 45.8106C69.5236 45.5773 69.0103 45.2693 68.6463 44.8866L69.0523 44.0886C69.4069 44.4433 69.8783 44.7326 70.4663 44.9566C71.0543 45.1713 71.6609 45.2786 72.2863 45.2786C73.1636 45.2786 73.8216 45.1199 74.2603 44.8026C74.6989 44.4759 74.9183 44.0559 74.9183 43.5426C74.9183 43.1506 74.7969 42.8379 74.5543 42.6046C74.3209 42.3713 74.0316 42.1939 73.6863 42.0726C73.3409 41.9419 72.8603 41.8019 72.2443 41.6526C71.5069 41.4659 70.9189 41.2886 70.4803 41.1206C70.0416 40.9433 69.6636 40.6773 69.3463 40.3226C69.0383 39.9679 68.8843 39.4873 68.8843 38.8806C68.8843 38.3859 69.0149 37.9379 69.2763 37.5366C69.5376 37.1259 69.9389 36.7993 70.4803 36.5566C71.0216 36.3139 71.6936 36.1926 72.4963 36.1926C73.0563 36.1926 73.6023 36.2719 74.1343 36.4306C74.6756 36.5799 75.1423 36.7899 75.5343 37.0606L75.1843 37.8866C74.7736 37.6159 74.3349 37.4153 73.8683 37.2846C73.4016 37.1446 72.9443 37.0746 72.4963 37.0746C71.6376 37.0746 70.9889 37.2426 70.5503 37.5786C70.1209 37.9053 69.9063 38.3299 69.9063 38.8526C69.9063 39.2446 70.0229 39.5619 70.2563 39.8046C70.4989 40.0379 70.7976 40.2199 71.1523 40.3506C71.5163 40.4719 72.0016 40.6073 72.6083 40.7566C73.3269 40.9339 73.9056 41.1113 74.3443 41.2886C74.7923 41.4566 75.1703 41.7179 75.4783 42.0726C75.7863 42.4179 75.9403 42.8893 75.9403 43.4866C75.9403 43.9813 75.8049 44.4339 75.5343 44.8446C75.2729 45.2459 74.8669 45.5679 74.3163 45.8106C73.7656 46.0439 73.0889 46.1606 72.2863 46.1606Z" fill="#999999"/>
</svg>
