<svg width="30" height="47" viewBox="0 0 30 47" fill="none" xmlns="http://www.w3.org/2000/svg">
<path d="M7.742 7.47526H2.282L1.106 10.0933H0.028L4.508 0.293261H5.53L10.01 10.0933H8.918L7.742 7.47526ZM7.364 6.63526L5.012 1.37126L2.66 6.63526H7.364ZM15.2992 0.293261C16.5498 0.293261 17.5298 0.591928 18.2392 1.18926C18.9485 1.78659 19.3032 2.60793 19.3032 3.65326C19.3032 4.69859 18.9485 5.51993 18.2392 6.11726C17.5298 6.70526 16.5498 6.99926 15.2992 6.99926H12.6672V10.0933H11.6312V0.293261H15.2992ZM15.2712 6.08926C16.2418 6.08926 16.9838 5.87926 17.4972 5.45926C18.0105 5.02993 18.2672 4.42793 18.2672 3.65326C18.2672 2.85993 18.0105 2.25326 17.4972 1.83326C16.9838 1.40393 16.2418 1.18926 15.2712 1.18926H12.6672V6.08926H15.2712ZM25.2113 0.293261C26.4619 0.293261 27.4419 0.591928 28.1513 1.18926C28.8606 1.78659 29.2153 2.60793 29.2153 3.65326C29.2153 4.69859 28.8606 5.51993 28.1513 6.11726C27.4419 6.70526 26.4619 6.99926 25.2113 6.99926H22.5793V10.0933H21.5433V0.293261H25.2113ZM25.1833 6.08926C26.1539 6.08926 26.8959 5.87926 27.4093 5.45926C27.9226 5.02993 28.1793 4.42793 28.1793 3.65326C28.1793 2.85993 27.9226 2.25326 27.4093 1.83326C26.8959 1.40393 26.1539 1.18926 25.1833 1.18926H22.5793V6.08926H25.1833ZM4.298 46.1773C3.57 46.1773 2.87 46.0606 2.198 45.8273C1.53533 45.5939 1.022 45.2859 0.658 44.9033L1.064 44.1053C1.41867 44.4599 1.89 44.7493 2.478 44.9733C3.066 45.1879 3.67267 45.2953 4.298 45.2953C5.17533 45.2953 5.83333 45.1366 6.272 44.8193C6.71067 44.4926 6.93 44.0726 6.93 43.5593C6.93 43.1673 6.80867 42.8546 6.566 42.6213C6.33267 42.3879 6.04333 42.2106 5.698 42.0893C5.35267 41.9586 4.872 41.8186 4.256 41.6693C3.51867 41.4826 2.93067 41.3053 2.492 41.1373C2.05333 40.9599 1.67533 40.6939 1.358 40.3393C1.05 39.9846 0.896 39.5039 0.896 38.8973C0.896 38.4026 1.02667 37.9546 1.288 37.5533C1.54933 37.1426 1.95067 36.8159 2.492 36.5733C3.03333 36.3306 3.70533 36.2093 4.508 36.2093C5.068 36.2093 5.614 36.2886 6.146 36.4473C6.68733 36.5966 7.154 36.8066 7.546 37.0773L7.196 37.9033C6.78533 37.6326 6.34667 37.4319 5.88 37.3013C5.41333 37.1613 4.956 37.0913 4.508 37.0913C3.64933 37.0913 3.00067 37.2593 2.562 37.5953C2.13267 37.9219 1.918 38.3466 1.918 38.8693C1.918 39.2613 2.03467 39.5786 2.268 39.8213C2.51067 40.0546 2.80933 40.2366 3.164 40.3673C3.528 40.4886 4.01333 40.6239 4.62 40.7733C5.33867 40.9506 5.91733 41.1279 6.356 41.3053C6.804 41.4733 7.182 41.7346 7.49 42.0893C7.798 42.4346 7.952 42.9059 7.952 43.5033C7.952 43.9979 7.81667 44.4506 7.546 44.8613C7.28467 45.2626 6.87867 45.5846 6.328 45.8273C5.77733 46.0606 5.10067 46.1773 4.298 46.1773Z" fill="#999999"/>
</svg>
