<svg width="83" height="17" viewBox="0 0 83 17" fill="none" xmlns="http://www.w3.org/2000/svg">
<path d="M17.148 0.599999L10.438 16H7.622L0.89 0.599999H3.992L9.118 12.48L14.288 0.599999H17.148ZM29.4964 4.252V16H26.8784V14.504C26.4384 15.032 25.8884 15.4427 25.2284 15.736C24.5684 16.0147 23.857 16.154 23.0944 16.154C21.525 16.154 20.2857 15.7213 19.3764 14.856C18.4817 13.976 18.0344 12.678 18.0344 10.962V4.252H20.7844V10.588C20.7844 11.644 21.019 12.436 21.4884 12.964C21.9724 13.4773 22.6544 13.734 23.5344 13.734C24.517 13.734 25.2944 13.4333 25.8664 12.832C26.453 12.216 26.7464 11.336 26.7464 10.192V4.252H29.4964ZM44.141 10.192C44.141 10.3827 44.1263 10.654 44.097 11.006H34.879C35.0403 11.8713 35.4583 12.5607 36.133 13.074C36.8223 13.5727 37.673 13.822 38.685 13.822C39.9756 13.822 41.039 13.3967 41.875 12.546L43.349 14.24C42.821 14.8707 42.1536 15.3473 41.347 15.67C40.5403 15.9927 39.631 16.154 38.619 16.154C37.3283 16.154 36.1916 15.8973 35.209 15.384C34.2263 14.8707 33.4636 14.1593 32.921 13.25C32.393 12.326 32.129 11.2847 32.129 10.126C32.129 8.982 32.3856 7.95533 32.899 7.046C33.427 6.122 34.153 5.40333 35.077 4.89C36.001 4.37667 37.0423 4.12 38.201 4.12C39.345 4.12 40.3643 4.37667 41.259 4.89C42.1683 5.38867 42.8723 6.1 43.371 7.024C43.8843 7.93333 44.141 8.98933 44.141 10.192ZM38.201 6.32C37.321 6.32 36.573 6.584 35.957 7.112C35.3556 7.62533 34.989 8.31467 34.857 9.18H41.523C41.4056 8.32933 41.0463 7.64 40.445 7.112C39.8436 6.584 39.0956 6.32 38.201 6.32ZM50.4125 16.154C49.4592 16.154 48.5278 16.0293 47.6185 15.78C46.7092 15.5307 45.9832 15.2153 45.4405 14.834L46.4965 12.744C47.0245 13.096 47.6552 13.382 48.3885 13.602C49.1365 13.8073 49.8698 13.91 50.5885 13.91C52.2312 13.91 53.0525 13.4773 53.0525 12.612C53.0525 12.2013 52.8398 11.9153 52.4145 11.754C52.0038 11.5927 51.3365 11.4387 50.4125 11.292C49.4445 11.1453 48.6525 10.9767 48.0365 10.786C47.4352 10.5953 46.9072 10.2653 46.4525 9.796C46.0125 9.312 45.7925 8.64467 45.7925 7.794C45.7925 6.67933 46.2545 5.792 47.1785 5.132C48.1172 4.45733 49.3785 4.12 50.9625 4.12C51.7692 4.12 52.5758 4.21533 53.3825 4.406C54.1892 4.582 54.8492 4.824 55.3625 5.132L54.3065 7.222C53.3092 6.63533 52.1872 6.342 50.9405 6.342C50.1338 6.342 49.5178 6.46667 49.0925 6.716C48.6818 6.95067 48.4765 7.266 48.4765 7.662C48.4765 8.102 48.6965 8.41733 49.1365 8.608C49.5912 8.784 50.2878 8.95267 51.2265 9.114C52.1652 9.26067 52.9352 9.42933 53.5365 9.62C54.1378 9.81067 54.6512 10.1333 55.0765 10.588C55.5165 11.0427 55.7365 11.688 55.7365 12.524C55.7365 13.624 55.2598 14.504 54.3065 15.164C53.3532 15.824 52.0552 16.154 50.4125 16.154ZM62.5928 4.12C64.3234 4.12 65.6434 4.538 66.5528 5.374C67.4768 6.19533 67.9388 7.442 67.9388 9.114V16H65.3428V14.57C65.0054 15.0833 64.5214 15.4793 63.8908 15.758C63.2748 16.022 62.5268 16.154 61.6468 16.154C60.7668 16.154 59.9968 16.0073 59.3368 15.714C58.6768 15.406 58.1634 14.988 57.7968 14.46C57.4448 13.9173 57.2688 13.3087 57.2688 12.634C57.2688 11.578 57.6574 10.7347 58.4348 10.104C59.2268 9.45867 60.4661 9.136 62.1528 9.136H65.1888V8.96C65.1888 8.13867 64.9394 7.508 64.4408 7.068C63.9568 6.628 63.2308 6.408 62.2628 6.408C61.6028 6.408 60.9501 6.51067 60.3048 6.716C59.6741 6.92133 59.1388 7.20733 58.6988 7.574L57.6208 5.572C58.2368 5.10267 58.9774 4.74333 59.8428 4.494C60.7081 4.24467 61.6248 4.12 62.5928 4.12ZM62.2188 14.152C62.9081 14.152 63.5168 13.998 64.0448 13.69C64.5874 13.3673 64.9688 12.9127 65.1888 12.326V10.962H62.3508C60.7668 10.962 59.9748 11.4827 59.9748 12.524C59.9748 13.0227 60.1728 13.4187 60.5688 13.712C60.9648 14.0053 61.5148 14.152 62.2188 14.152ZM78.9481 16L75.9341 11.93L72.8981 16H69.8621L74.4381 10.038L70.0601 4.252H73.1181L76.0001 8.102L78.8821 4.252H81.8521L77.4521 9.994L82.0501 16H78.9481Z" fill="#7E72F2"/>
</svg>
